<?xml version="1.0" encoding="utf-8"?>
<!-- Generator: Adobe Illustrator 25.4.1, SVG Export Plug-In . SVG Version: 6.00 Build 0)  -->
<svg version="1.1" id="Mode_Isolation" xmlns="http://www.w3.org/2000/svg" xmlns:xlink="http://www.w3.org/1999/xlink" x="0px"
	 y="0px" viewBox="0 0 500 500" style="enable-background:new 0 0 500 500;" xml:space="preserve">
<style type="text/css">
	.st0{fill:#2A377C;}
	.st1{fill:#2B387D;}
	.st2{fill:none;stroke:#2A377C;stroke-width:30;stroke-linecap:round;stroke-linejoin:round;stroke-miterlimit:10;}
	.st3{clip-path:url(#SVGID_00000095339817561861984080000016636724634801876410_);}
	.st4{fill:#2B387D;stroke:#2B387D;stroke-width:2;stroke-miterlimit:10;}
	.st5{fill:#2B387D;stroke:#2B387D;stroke-width:5;stroke-miterlimit:10;}
	.st6{fill-rule:evenodd;clip-rule:evenodd;fill:#2B387D;}
	.st7{fill:#67B5A9;}
	.st8{fill:#D96552;}
	.st9{fill:#FCC104;}
	.st10{fill:#FFFFFF;}
	.st11{clip-path:url(#SVGID_00000165202902786804371420000014375084467643237021_);}
	.st12{fill-rule:evenodd;clip-rule:evenodd;fill:#FFFFFF;}
</style>
<path class="st8" d="M397.51,175.52c0,106.06-154.01,313.67-154.01,313.67S89.49,281.58,89.49,175.52
	c0-85.06,68.95-154.01,154.01-154.01S397.51,90.46,397.51,175.52z"/>
<g>
	<g>
		<path class="st10" d="M329.01,132.41h-53.44c-3.88,0-7.03,3.15-7.03,7.03v21.09h-14.06v-60.47c0-2.44-1.26-4.7-3.33-5.98
			c-2.07-1.28-4.66-1.4-6.84-0.31l-28.12,14.06c-2.38,1.19-3.89,3.63-3.89,6.29v46.41h-14.06V86c0-2.44-1.26-4.7-3.33-5.98
			c-2.07-1.28-4.66-1.4-6.84-0.31l-28.12,14.06c-2.38,1.19-3.89,3.62-3.89,6.29v151.88c0,3.88,3.15,7.03,7.03,7.03h165.94
			c3.88,0,7.03-3.15,7.03-7.03v-112.5C336.05,135.56,332.9,132.41,329.01,132.41L329.01,132.41z M226.36,118.47l14.06-7.03v49.09
			h-14.06V118.47z M170.11,104.41l14.06-7.03v63.15h-14.06V104.41z M212.3,244.91h-14.06v-42.19h14.06V244.91z M321.98,244.91
			h-95.62v-49.22c0-3.88-3.15-7.03-7.03-7.03H191.2c-3.88,0-7.03,3.15-7.03,7.03v49.22h-14.06V174.6h105.47
			c3.88,0,7.03-3.15,7.03-7.03v-21.09h39.38V244.91z M321.98,244.91"/>
	</g>
	<path class="st10" d="M274.17,188.66c-3.88,0-7.03,3.15-7.03,7.03v14.06c0,3.88,3.15,7.03,7.03,7.03s7.03-3.15,7.03-7.03v-14.06
		C281.2,191.81,278.05,188.66,274.17,188.66L274.17,188.66z M274.17,188.66"/>
	<path class="st10" d="M246.05,188.66c-3.88,0-7.03,3.15-7.03,7.03v14.06c0,3.88,3.15,7.03,7.03,7.03s7.03-3.15,7.03-7.03v-14.06
		C253.08,191.81,249.93,188.66,246.05,188.66L246.05,188.66z M246.05,188.66"/>
	<path class="st10" d="M302.3,216.78c3.88,0,7.03-3.15,7.03-7.03v-14.06c0-3.88-3.15-7.03-7.03-7.03s-7.03,3.15-7.03,7.03v14.06
		C295.26,213.64,298.41,216.78,302.3,216.78L302.3,216.78z M302.3,216.78"/>
</g>
</svg>
