<?xml version="1.0" encoding="utf-8"?>
<!-- Generator: Adobe Illustrator 25.4.1, SVG Export Plug-In . SVG Version: 6.00 Build 0)  -->
<svg version="1.1" id="Mode_Isolation" xmlns="http://www.w3.org/2000/svg" xmlns:xlink="http://www.w3.org/1999/xlink" x="0px"
	 y="0px" viewBox="0 0 500 500" style="enable-background:new 0 0 500 500;" xml:space="preserve">
<style type="text/css">
	.st0{fill:#2A377C;}
	.st1{fill:#2B387D;}
	.st2{fill:none;stroke:#2A377C;stroke-width:30;stroke-linecap:round;stroke-linejoin:round;stroke-miterlimit:10;}
	.st3{clip-path:url(#SVGID_00000171708767012315219810000013138453445403727239_);}
	.st4{fill:#2B387D;stroke:#2B387D;stroke-width:2;stroke-miterlimit:10;}
	.st5{fill:#2B387D;stroke:#2B387D;stroke-width:5;stroke-miterlimit:10;}
	.st6{fill-rule:evenodd;clip-rule:evenodd;fill:#2B387D;}
	.st7{fill:#67B5A9;}
	.st8{fill:#D96552;}
	.st9{fill:#FCC104;}
	.st10{fill:#FFFFFF;}
	.st11{clip-path:url(#SVGID_00000002365984093389286030000012809651410256668834_);}
	.st12{fill-rule:evenodd;clip-rule:evenodd;fill:#FFFFFF;}
</style>
<path class="st0" d="M396.99,175.52c0,106.06-154.01,313.67-154.01,313.67S88.97,281.58,88.97,175.52
	c0-85.06,68.95-154.01,154.01-154.01S396.99,90.46,396.99,175.52z"/>
<g>
	<path class="st10" d="M343.22,98.94c-18.99,0-35.14,12.39-40.8,29.5c-28.31-26.11-70.4-30.29-103.37-10.56V105.4
		c0-3.42-2.77-6.2-6.2-6.2c-3.42,0-6.2,2.78-6.2,6.2v43.53h-11.98V105.4c0-3.42-2.77-6.2-6.2-6.2c-3.42,0-6.2,2.78-6.2,6.2v43.53
		H150.3V105.4c0-3.42-2.77-6.2-6.2-6.2c-3.42,0-6.2,2.78-6.2,6.2v49.72c0,10.98,5.82,20.62,14.54,26.01l-3.95,83.88
		c-0.53,11.21,8.39,20.65,19.7,20.65c11.33,0,20.34-9.55,19.69-20.86l-0.37-6.34c39.06,33.22,98.45,25.36,127.61-16.94l-1.87,24.22
		c-0.81,10.51,7.52,19.51,18.06,19.51c9.99,0,18.11-8.12,18.11-18.11v-162C349.41,101.72,346.64,98.94,343.22,98.94z M168.19,273.27
		c-4.17,0-7.52-3.47-7.32-7.67l3.78-80.15c2.43,0.3,4.3,0.29,6.23,0.14l4.62,79.93C175.75,269.71,172.42,273.27,168.19,273.27z
		 M151.39,161.32h34.17C179.76,177.26,157.18,177.25,151.39,161.32z M186.43,239.81l-3.35-57.84c9.5-5.19,15.96-15.28,15.96-26.84
		v-22.34c31.06-23.37,75.48-18.91,101.21,11.26v60.24c0,3.42,2.77,6.2,6.2,6.2h9.35C301.06,269.57,225.2,286.46,186.43,239.81z
		 M337.02,267.14c0,3.15-2.56,5.72-5.72,5.72c-3.32,0-5.96-2.81-5.7-6.16l4.79-61.94c0.28-3.6-2.57-6.67-6.18-6.67h-11.57v-56.18
		c0-14.73,10.48-27.07,24.37-29.94V267.14z"/>
	<path class="st10" d="M243.11,148.38c-23.92,0-43.38,19.46-43.38,43.38s19.46,43.38,43.38,43.38s43.38-19.46,43.38-43.38
		S267.02,148.38,243.11,148.38z M243.11,222.74c-17.08,0-30.98-13.9-30.98-30.98s13.9-30.98,30.98-30.98s30.98,13.9,30.98,30.98
		S260.19,222.74,243.11,222.74z"/>
</g>
</svg>
