<?xml version="1.0" encoding="utf-8"?>
<!-- Generator: Adobe Illustrator 25.4.1, SVG Export Plug-In . SVG Version: 6.00 Build 0)  -->
<svg version="1.1" id="Mode_Isolation" xmlns="http://www.w3.org/2000/svg" xmlns:xlink="http://www.w3.org/1999/xlink" x="0px"
	 y="0px" viewBox="0 0 500 500" style="enable-background:new 0 0 500 500;" xml:space="preserve">
<style type="text/css">
	.st0{fill:#2A377C;}
	.st1{fill:#2B387D;}
	.st2{fill:none;stroke:#2A377C;stroke-width:30;stroke-linecap:round;stroke-linejoin:round;stroke-miterlimit:10;}
	.st3{clip-path:url(#SVGID_00000051341985361912715590000000897596026991122584_);}
	.st4{fill:#2B387D;stroke:#2B387D;stroke-width:2;stroke-miterlimit:10;}
	.st5{fill:#2B387D;stroke:#2B387D;stroke-width:5;stroke-miterlimit:10;}
	.st6{fill-rule:evenodd;clip-rule:evenodd;fill:#2B387D;}
	.st7{fill:#67B5A9;}
	.st8{fill:#D96552;}
	.st9{fill:#FCC104;}
	.st10{fill:#FFFFFF;}
	.st11{clip-path:url(#SVGID_00000154388773806877178090000011824814240441338766_);}
	.st12{fill-rule:evenodd;clip-rule:evenodd;fill:#FFFFFF;}
</style>
<path class="st9" d="M397.51,175.52c0,106.06-154.01,313.67-154.01,313.67S89.49,281.58,89.49,175.52
	c0-85.06,68.95-154.01,154.01-154.01S397.51,90.46,397.51,175.52z"/>
<g>
	<path class="st10" d="M360.5,181.16l-36.18-79.68c-0.82-1.84-2.65-3.02-4.66-3.02h-54.31c-2.57-10.04-11.62-17.06-21.98-17.06
		s-19.41,7.02-21.98,17.06h-54.31c-1.98-0.04-3.81,1.08-4.66,2.87l-36.18,79.63c-0.28,0.72-0.43,1.48-0.46,2.25
		c-0.03,22.81,18.44,41.32,41.25,41.35c22.81,0.03,41.32-18.44,41.35-41.25c0.01-0.72-0.15-1.44-0.46-2.1l-32.9-72.5h46.17
		c1.8,8.63,8.47,15.42,17.06,17.37v106.12h-22.85c-8.85,0.09-16,7.24-16.09,16.09v10.76c0,2.82,2.46,4.92,5.33,4.92h76.96
		c2.82,0,5.33-2.1,5.33-4.92v-10.76c-0.09-8.85-7.24-16-16.09-16.09h-22.34V126.07c8.58-1.99,15.23-8.76,17.06-17.37h46.17
		l-32.9,72.5c-0.3,0.66-0.46,1.37-0.46,2.1c0,22.81,18.49,41.3,41.3,41.3c22.81,0,41.3-18.49,41.3-41.3
		C360.97,182.57,360.81,181.83,360.5,181.16L360.5,181.16z M167.07,116.18l28.23,62.21h-56.47L167.07,116.18z M167.07,214.56
		c-15.37,0-28.18-11.58-30.64-25.93h61.23C195.25,202.99,182.44,214.56,167.07,214.56L167.07,214.56z M276.67,248.28v5.43h-67.12
		v-5.43c0.07-3.2,2.65-5.77,5.84-5.84h55.44C274.03,242.51,276.6,245.08,276.67,248.28L276.67,248.28z M243.36,116.44
		c-6.85,0-12.4-5.55-12.4-12.4c0-6.85,5.55-12.4,12.4-12.4c6.85,0,12.4,5.55,12.4,12.4C255.76,110.89,250.21,116.43,243.36,116.44
		L243.36,116.44z M347.89,178.39h-56.47l28.23-62.21L347.89,178.39z M319.66,214.56c-15.37,0-28.18-11.58-30.64-25.93h61.23
		C347.84,202.99,335.03,214.56,319.66,214.56L319.66,214.56z M319.66,214.56"/>
	<path class="st10" d="M281.59,265.46h-76.96c-3.76,0-6.83-2.88-6.83-6.42v-10.76c0.1-9.61,7.98-17.49,17.57-17.59h21.37V127.24
		c-8.19-2.3-14.59-8.81-16.75-17.04h-42.65l31.93,70.38c0.39,0.84,0.6,1.79,0.59,2.73c-0.01,11.42-4.48,22.17-12.57,30.24
		c-8.08,8.06-18.81,12.5-30.22,12.5c-0.02,0-0.04,0-0.05,0c-11.43-0.01-22.17-4.48-30.25-12.57c-8.07-8.09-12.51-18.85-12.5-30.28
		c0.04-1,0.22-1.92,0.56-2.79l36.21-79.71c1.12-2.34,3.51-3.82,6.06-3.75h53.15c3.11-10.1,12.45-17.06,23.12-17.06
		s20.01,6.96,23.12,17.06h53.18c2.6,0,4.97,1.54,6.03,3.91l36.17,79.67c0.4,0.87,0.6,1.83,0.59,2.79c0,23.59-19.2,42.79-42.8,42.79
		c-23.6,0-42.8-19.2-42.8-42.8c0-0.94,0.21-1.88,0.6-2.73l31.93-70.37h-42.65c-2.19,8.19-8.59,14.71-16.75,17.03v103.46h20.84
		c9.61,0.09,17.49,7.98,17.59,17.57v10.77C288.42,262.58,285.35,265.46,281.59,265.46z M215.39,233.69
		c-7.96,0.08-14.51,6.63-14.59,14.6v10.75c0,1.89,1.72,3.42,3.83,3.42h76.96c2.11,0,3.83-1.53,3.83-3.42v-10.76
		c-0.08-7.96-6.63-14.51-14.6-14.59h-23.83V124.88l1.16-0.27c7.97-1.85,14.23-8.21,15.93-16.22l0.25-1.19h49.71l-33.86,74.62
		c-0.22,0.46-0.33,0.97-0.33,1.48c0,21.95,17.85,39.8,39.8,39.8c21.95,0,39.8-17.85,39.8-39.8c0-0.53-0.11-1.05-0.33-1.53l0,0
		l-36.18-79.68c-0.58-1.3-1.88-2.14-3.3-2.14h-55.48l-0.29-1.13c-2.4-9.38-10.84-15.94-20.53-15.94s-18.13,6.55-20.53,15.94
		l-0.29,1.13h-55.48c-0.02,0-0.05,0-0.07,0c-1.39,0-2.65,0.79-3.24,2.02l-36.16,79.6c-0.18,0.48-0.3,1.08-0.33,1.69
		c-0.01,10.58,4.12,20.58,11.62,28.1c7.51,7.53,17.5,11.68,28.13,11.69c0.02,0,0.03,0,0.05,0c10.61,0,20.59-4.13,28.11-11.62
		c7.53-7.51,11.68-17.5,11.69-28.13c0-0.51-0.11-1.01-0.32-1.46l-33.87-74.64h49.71l0.25,1.19c1.67,8.03,7.93,14.4,15.93,16.21
		l1.17,0.27v108.82H215.39z M278.17,255.21h-70.12v-6.93c0.09-4.04,3.3-7.25,7.31-7.34h55.48c4.04,0.09,7.25,3.3,7.34,7.31V255.21z
		 M211.05,252.21h64.12v-3.92c-0.06-2.39-1.98-4.31-4.37-4.36h-55.41c-2.37,0.05-4.29,1.97-4.34,4.37V252.21z M319.66,216.06
		c-15.66,0-29.46-11.68-32.12-27.17l-0.3-1.75h64.78l-0.29,1.75C349.13,204.38,335.34,216.06,319.66,216.06z M290.86,190.14
		c3.11,13.19,15.19,22.93,28.8,22.93c13.64,0,25.7-9.74,28.76-22.93H290.86z M167.07,216.06c-15.66,0-29.46-11.68-32.12-27.17
		l-0.3-1.75h64.78l-0.29,1.75C196.54,204.38,182.75,216.06,167.07,216.06z M138.26,190.14c3.11,13.19,15.19,22.93,28.81,22.93
		c13.64,0,25.7-9.74,28.76-22.93H138.26z M350.22,179.89H289.1l30.56-67.34L350.22,179.89z M293.76,176.89h51.81l-25.91-57.08
		L293.76,176.89z M197.63,179.89h-61.12l30.56-67.34L197.63,179.89z M141.16,176.89h51.81l-25.9-57.08L141.16,176.89z
		 M243.37,117.94L243.37,117.94c-7.67,0-13.9-6.24-13.9-13.9s6.24-13.9,13.9-13.9s13.9,6.24,13.9,13.9
		C257.26,111.7,251.02,117.93,243.37,117.94z M243.36,93.14c-6.01,0-10.9,4.89-10.9,10.9s4.89,10.9,10.9,10.9
		c6,0,10.9-4.9,10.9-10.9C254.26,98.03,249.37,93.14,243.36,93.14z"/>
</g>
</svg>
