<?xml version="1.0" encoding="utf-8"?>
<!-- Generator: Adobe Illustrator 25.4.1, SVG Export Plug-In . SVG Version: 6.00 Build 0)  -->
<svg version="1.1" id="Mode_Isolation" xmlns="http://www.w3.org/2000/svg" xmlns:xlink="http://www.w3.org/1999/xlink" x="0px"
	 y="0px" viewBox="0 0 500 500" style="enable-background:new 0 0 500 500;" xml:space="preserve">
<style type="text/css">
	.st0{fill:#2A377C;}
	.st1{fill:#2B387D;}
	.st2{fill:none;stroke:#2A377C;stroke-width:30;stroke-linecap:round;stroke-linejoin:round;stroke-miterlimit:10;}
	.st3{clip-path:url(#SVGID_00000101783901829660661470000011230127421868418456_);}
	.st4{fill:#2B387D;stroke:#2B387D;stroke-width:2;stroke-miterlimit:10;}
	.st5{fill:#2B387D;stroke:#2B387D;stroke-width:5;stroke-miterlimit:10;}
	.st6{fill-rule:evenodd;clip-rule:evenodd;fill:#2B387D;}
	.st7{fill:#67B5A9;}
	.st8{fill:#D96552;}
	.st9{fill:#FCC104;}
	.st10{fill:#FFFFFF;}
	.st11{clip-path:url(#SVGID_00000158005815706196581080000014513014201708325819_);}
	.st12{fill-rule:evenodd;clip-rule:evenodd;fill:#FFFFFF;}
</style>
<path class="st8" d="M404.01,175.52C404.01,281.58,250,489.19,250,489.19S95.99,281.58,95.99,175.52
	c0-85.06,68.95-154.01,154.01-154.01S404.01,90.46,404.01,175.52z"/>
<g>
	<path class="st10" d="M277.79,109.57c-2.41-1.74-5.73-1.47-7.83,0.63l-60.62,60.62c-1.49,1.49-2.1,3.63-1.61,5.68
		c0.48,2.04,1.99,3.69,3.98,4.36l29.74,9.91l-21.12,42.24c-1.33,2.66-0.53,5.89,1.88,7.63c2.43,1.75,5.74,1.46,7.83-0.63
		l60.62-60.62c1.49-1.49,2.1-3.63,1.61-5.68c-0.48-2.04-1.99-3.69-3.98-4.36l-29.74-9.91l21.12-42.24
		C281,114.54,280.2,111.31,277.79,109.57z M275.15,177.75l-27.27,27.27l7.54-15.08c0.79-1.57,0.85-3.41,0.18-5.03
		s-2.02-2.88-3.68-3.43l-27.07-9.02l27.27-27.27l-7.54,15.08c-0.79,1.57-0.85,3.41-0.18,5.03s2.02,2.88,3.68,3.43L275.15,177.75z"/>
	<path class="st10" d="M347.39,181.17c3.35,0,6.06-2.71,6.06-6.06c0-56.96-46.49-103.45-103.45-103.45
		c-30.72,0-59.63,13.84-79.21,37.05v-6.34c0-3.35-2.71-6.06-6.06-6.06s-6.06,2.71-6.06,6.06v25.66c0,0.03,0,0.06,0,0.09v0.01
		c0,3.49,2.97,6.26,6.44,6.05l24.25-1.51c3.34-0.21,5.88-3.08,5.67-6.43c-0.21-3.34-3.1-5.88-6.43-5.67l-12.34,0.77
		c17.13-23.41,44.46-37.55,73.74-37.55c50.36,0,91.33,40.97,91.33,91.33C341.33,178.45,344.04,181.17,347.39,181.17z"/>
	<path class="st10" d="M335.27,253.91c3.35,0,6.06-2.71,6.06-6.06v-25.66c0.06-3.47-2.89-6.35-6.44-6.14l-24.25,1.51
		c-3.34,0.21-5.88,3.08-5.67,6.43c0.21,3.34,3.08,5.88,6.43,5.67l12.34-0.77c-17.13,23.41-44.46,37.55-73.74,37.55
		c-50.36,0-91.33-40.97-91.33-91.33c0-3.35-2.71-6.06-6.06-6.06s-6.06,2.71-6.06,6.06c0,56.96,46.49,103.45,103.45,103.45
		c30.78,0,59.67-13.88,79.21-37.05v6.34C329.21,251.19,331.92,253.91,335.27,253.91z"/>
</g>
</svg>
