<?xml version="1.0" encoding="utf-8"?>
<!-- Generator: Adobe Illustrator 25.4.1, SVG Export Plug-In . SVG Version: 6.00 Build 0)  -->
<svg version="1.1" id="Mode_Isolation" xmlns="http://www.w3.org/2000/svg" xmlns:xlink="http://www.w3.org/1999/xlink" x="0px"
	 y="0px" viewBox="0 0 500 500" style="enable-background:new 0 0 500 500;" xml:space="preserve">
<style type="text/css">
	.st0{fill:#2A377C;}
	.st1{fill:#2B387D;}
	.st2{fill:none;stroke:#2A377C;stroke-width:30;stroke-linecap:round;stroke-linejoin:round;stroke-miterlimit:10;}
	.st3{clip-path:url(#SVGID_00000021816299089811871060000007982061680593292938_);}
	.st4{fill:#2B387D;stroke:#2B387D;stroke-width:2;stroke-miterlimit:10;}
	.st5{fill:#2B387D;stroke:#2B387D;stroke-width:5;stroke-miterlimit:10;}
	.st6{fill-rule:evenodd;clip-rule:evenodd;fill:#2B387D;}
	.st7{fill:#67B5A9;}
	.st8{fill:#D96552;}
	.st9{fill:#FCC104;}
	.st10{fill:#FFFFFF;}
	.st11{clip-path:url(#SVGID_00000085237079749059424140000004929617088144481179_);}
	.st12{fill-rule:evenodd;clip-rule:evenodd;fill:#FFFFFF;}
</style>
<path class="st7" d="M400.28,175.52c0,106.06-154.01,313.67-154.01,313.67S92.25,281.58,92.25,175.52
	c0-85.06,68.95-154.01,154.01-154.01S400.28,90.46,400.28,175.52z"/>
<g>
	<g>
		<path class="st10" d="M326.58,217.72V93.14c0-10.39-8.46-18.85-18.85-18.85s-18.85,8.45-18.85,18.85v26.57
			c-15.99-16.37-38.29-26.55-62.93-26.55c-48.55,0-88.04,39.49-88.04,88.04c0,48.55,39.49,88.04,88.04,88.04
			c16.29,0,31.56-4.45,44.66-12.2c2.76,17.14,19.2,31.38,37.13,31.07c19.99,0.46,38.17-17.38,37.7-37.72
			C345.45,236.82,338.16,224.41,326.58,217.72L326.58,217.72z M301.42,93.14c0-3.48,2.83-6.32,6.32-6.32s6.32,2.83,6.32,6.32v31.48
			h-12.63V93.14z M219.69,105.95v12.34c0,10.39,8.45,18.85,18.84,18.85h12.58c3.48,0,6.32,2.83,6.32,6.31
			c0,3.48-2.83,6.32-6.32,6.32H200.8c-10.39,0-18.85,8.45-18.85,18.85c0,3.48-2.83,6.32-6.31,6.32h-24.93
			C153.73,138.29,183.05,108.98,219.69,105.95L219.69,105.95z M194.53,244.1v5.75c-24.19-11.12-41.53-34.65-43.82-62.39h24.93
			c10.39,0,18.84-8.45,18.84-18.85c0-3.48,2.83-6.32,6.32-6.32h50.32c10.39,0,18.85-8.45,18.85-18.84
			c0-10.39-8.46-18.85-18.85-18.85h-12.58c-3.48,0-6.32-2.83-6.32-6.32v-12.35c23.64,1.95,44.22,14.83,56.67,33.57v35.42h-50.35
			c-10.39,0-18.84,8.46-18.84,18.85s8.45,18.84,18.84,18.84c3.48,0,6.32,2.83,6.32,6.32c0,3.48-2.83,6.31-6.32,6.31h-25.16
			C203.07,225.05,194.31,234.33,194.53,244.1L194.53,244.1z M271.02,241.75c-12.59,9.39-28.18,14.96-45.06,14.96
			c-6.52,0-12.86-0.83-18.9-2.4V244.1c-0.01-3.77,3.37-6.33,6.31-6.31h25.16c10.39,0,18.84-8.45,18.84-18.85
			c0-10.39-8.45-18.85-18.85-18.85c-3.48,0-6.32-2.83-6.32-6.31s2.83-6.32,6.32-6.32h50.35v30.26
			C279.8,222.96,273.38,231.69,271.02,241.75L271.02,241.75z M307.12,275.58c-13.44-0.32-24.46-11.52-24.57-24.97
			c-0.3-11.65,8.06-21.34,18.87-24.94v-88.52h12.63v88.52c11.53,4.03,18.75,13.11,18.87,24.73
			C333.23,264.29,320.58,276.21,307.12,275.58L307.12,275.58z M307.12,275.58"/>
		<circle class="st10" cx="307.61" cy="250.12" r="8.77"/>
	</g>
</g>
</svg>
