<?xml version="1.0" encoding="utf-8"?>
<!-- Generator: Adobe Illustrator 25.4.1, SVG Export Plug-In . SVG Version: 6.00 Build 0)  -->
<svg version="1.1" id="Mode_Isolation" xmlns="http://www.w3.org/2000/svg" xmlns:xlink="http://www.w3.org/1999/xlink" x="0px"
	 y="0px" viewBox="0 0 500 500" style="enable-background:new 0 0 500 500;" xml:space="preserve">
<style type="text/css">
	.st0{fill:#2A377C;}
	.st1{fill:#2B387D;}
	.st2{fill:none;stroke:#2A377C;stroke-width:30;stroke-linecap:round;stroke-linejoin:round;stroke-miterlimit:10;}
	.st3{clip-path:url(#SVGID_00000076572632065515975270000013945323165240610978_);}
	.st4{fill:#2B387D;stroke:#2B387D;stroke-width:2;stroke-miterlimit:10;}
	.st5{fill:#2B387D;stroke:#2B387D;stroke-width:5;stroke-miterlimit:10;}
	.st6{fill-rule:evenodd;clip-rule:evenodd;fill:#2B387D;}
	.st7{fill:#67B5A9;}
	.st8{fill:#D96552;}
	.st9{fill:#FCC104;}
	.st10{fill:#FFFFFF;}
	.st11{clip-path:url(#SVGID_00000129177964915434354050000015176202860046280331_);}
	.st12{fill-rule:evenodd;clip-rule:evenodd;fill:#FFFFFF;}
</style>
<path class="st7" d="M404.01,175.52C404.01,281.58,250,489.19,250,489.19S95.99,281.58,95.99,175.52
	c0-85.06,68.95-154.01,154.01-154.01S404.01,90.46,404.01,175.52z"/>
<path class="st10" d="M362.32,219.77l-42.62-91.11c-0.97-2.07-2.93-3.51-5.2-3.8c-2.26-0.29-4.53,0.59-6,2.35l-7.71,9.25
	l-22.58-50.31c-1.06-2.37-3.4-3.91-6-3.95c-2.59-0.02-4.98,1.43-6.12,3.76l-14.87,30.51l-0.94-1.18c-1.42-1.78-3.66-2.71-5.93-2.48
	c-2.27,0.24-4.26,1.62-5.28,3.66l-11.09,22.13l-14.36-31.98c-1.07-2.37-3.41-3.92-6.02-3.95c-0.03,0-0.06,0-0.09,0
	c-2.57,0-4.92,1.47-6.03,3.79l-23,47.83c-1.42-1.58-3.51-2.39-5.64-2.18c-2.26,0.23-4.25,1.59-5.28,3.61l-32.7,63.84
	c-1.06,2.07-0.97,4.55,0.25,6.54c1.22,1.99,3.38,3.2,5.71,3.2h215.45c2.29,0,4.42-1.17,5.64-3.1
	C363.13,224.26,363.29,221.84,362.32,219.77L362.32,219.77z M151.76,215.91l22.99-44.88c1.44,1.74,3.66,2.64,5.91,2.39
	c2.29-0.26,4.28-1.67,5.28-3.75l21.37-44.43l12.93,28.8l-31.02,61.87H151.76z M204.19,215.91l42.16-84.1l1.03,1.28
	c1.43,1.79,3.68,2.73,5.96,2.47c2.28-0.25,4.27-1.66,5.28-3.72l13.24-27.17l21.12,47.04c0.95,2.11,2.91,3.58,5.2,3.89
	c2.28,0.31,4.57-0.57,6.05-2.35l7.82-9.39l33.7,72.04L204.19,215.91L204.19,215.91z M204.19,215.91"/>
</svg>
