<?xml version="1.0" encoding="utf-8"?>
<!-- Generator: Adobe Illustrator 25.4.1, SVG Export Plug-In . SVG Version: 6.00 Build 0)  -->
<svg version="1.1" id="Mode_Isolation" xmlns="http://www.w3.org/2000/svg" xmlns:xlink="http://www.w3.org/1999/xlink" x="0px"
	 y="0px" viewBox="0 0 500 500" style="enable-background:new 0 0 500 500;" xml:space="preserve">
<style type="text/css">
	.st0{fill:#2A377C;}
	.st1{fill:#2B387D;}
	.st2{fill:none;stroke:#2A377C;stroke-width:30;stroke-linecap:round;stroke-linejoin:round;stroke-miterlimit:10;}
	.st3{clip-path:url(#SVGID_00000145050944860374768860000005245961643426516149_);}
	.st4{fill:#2B387D;stroke:#2B387D;stroke-width:2;stroke-miterlimit:10;}
	.st5{fill:#2B387D;stroke:#2B387D;stroke-width:5;stroke-miterlimit:10;}
	.st6{fill-rule:evenodd;clip-rule:evenodd;fill:#2B387D;}
	.st7{fill:#67B5A9;}
	.st8{fill:#D96552;}
	.st9{fill:#FCC104;}
	.st10{fill:#FFFFFF;}
	.st11{clip-path:url(#SVGID_00000133499799059468894640000005450118086456288930_);}
	.st12{fill-rule:evenodd;clip-rule:evenodd;fill:#FFFFFF;}
</style>
<path class="st8" d="M396.99,175.52c0,106.06-154.01,313.67-154.01,313.67S88.97,281.58,88.97,175.52
	c0-85.06,68.95-154.01,154.01-154.01S396.99,90.46,396.99,175.52z"/>
<g>
	<g>
		<path class="st10" d="M330.6,260.76h-5.73V105.37c0-2.73-1.93-5.08-4.61-5.62L205.35,76.85c-1.68-0.34-3.43,0.1-4.75,1.19
			c-1.33,1.09-2.09,2.71-2.09,4.43v86.28h-23.29v-40.09c0-3.16-2.56-5.73-5.73-5.73c-3.16,0-5.73,2.56-5.73,5.73v40.09h-5.73
			c-3.16,0-5.73,2.56-5.73,5.73v86.28h-5.73c-3.16,0-5.73,2.56-5.73,5.73c0,3.16,2.56,5.73,5.73,5.73H330.6
			c3.16,0,5.73-2.56,5.73-5.73C336.33,263.32,333.76,260.76,330.6,260.76L330.6,260.76z M209.96,89.45l103.47,20.62v150.69h-34.74
			v-12.41c13.05-2.66,22.91-14.23,22.91-28.06c0-15.08-11.83-40.09-28.63-40.09c-16.77,0-28.63,24.99-28.63,40.09
			c0,13.83,9.85,25.4,22.91,28.06v12.41h-34.36v-86.28c0-3.16-2.56-5.73-5.73-5.73h-17.18V89.45z M272.95,237.47
			c-9.47,0-17.18-7.71-17.18-17.18c0-10.76,9.07-28.63,17.18-28.63c8.18,0,17.18,17.96,17.18,28.63
			C290.13,229.76,282.42,237.47,272.95,237.47L272.95,237.47z M163.76,180.2h57.65v80.56h-57.65V180.2z M163.76,180.2"/>
	</g>
	<path class="st10" d="M180.94,203.11h23.29c3.16,0,5.73-2.56,5.73-5.73c0-3.16-2.56-5.73-5.73-5.73h-23.29
		c-3.16,0-5.73,2.56-5.73,5.73C175.21,200.55,177.78,203.11,180.94,203.11L180.94,203.11z M180.94,203.11"/>
	<path class="st10" d="M204.23,214.56h-23.29c-3.16,0-5.73,2.56-5.73,5.73c0,3.16,2.56,5.73,5.73,5.73h23.29
		c3.16,0,5.73-2.56,5.73-5.73C209.96,217.13,207.39,214.56,204.23,214.56L204.23,214.56z M204.23,214.56"/>
	<path class="st10" d="M204.23,237.47h-23.29c-3.16,0-5.73,2.56-5.73,5.73c0,3.16,2.56,5.73,5.73,5.73h23.29
		c3.16,0,5.73-2.56,5.73-5.73C209.96,240.04,207.39,237.47,204.23,237.47L204.23,237.47z M204.23,237.47"/>
	<path class="st10" d="M227.14,122.93h22.91c3.16,0,5.73-2.56,5.73-5.73c0-3.16-2.56-5.73-5.73-5.73h-22.91
		c-3.16,0-5.73,2.56-5.73,5.73C221.41,120.37,223.97,122.93,227.14,122.93L227.14,122.93z M227.14,122.93"/>
	<path class="st10" d="M250.04,145.84c3.16,0,5.73-2.56,5.73-5.73c0-3.16-2.56-5.73-5.73-5.73h-22.91c-3.16,0-5.73,2.56-5.73,5.73
		c0,3.16,2.56,5.73,5.73,5.73H250.04z M250.04,145.84"/>
	<path class="st10" d="M272.95,145.84h22.91c3.16,0,5.73-2.56,5.73-5.73c0-3.16-2.56-5.73-5.73-5.73h-22.91
		c-3.16,0-5.73,2.56-5.73,5.73C267.22,143.28,269.79,145.84,272.95,145.84L272.95,145.84z M272.95,145.84"/>
	<path class="st10" d="M272.95,168.75h22.91c3.16,0,5.73-2.56,5.73-5.73s-2.56-5.73-5.73-5.73h-22.91c-3.16,0-5.73,2.56-5.73,5.73
		S269.79,168.75,272.95,168.75L272.95,168.75z M272.95,168.75"/>
</g>
</svg>
