<?xml version="1.0" encoding="utf-8"?>
<!-- Generator: Adobe Illustrator 25.4.1, SVG Export Plug-In . SVG Version: 6.00 Build 0)  -->
<svg version="1.1" id="Mode_Isolation" xmlns="http://www.w3.org/2000/svg" xmlns:xlink="http://www.w3.org/1999/xlink" x="0px"
	 y="0px" viewBox="0 0 500 500" style="enable-background:new 0 0 500 500;" xml:space="preserve">
<style type="text/css">
	.st0{fill:#2A377C;}
	.st1{fill:#2B387D;}
	.st2{fill:none;stroke:#2A377C;stroke-width:30;stroke-linecap:round;stroke-linejoin:round;stroke-miterlimit:10;}
	.st3{clip-path:url(#SVGID_00000160893612153910472320000008134238824984882622_);}
	.st4{fill:#2B387D;stroke:#2B387D;stroke-width:2;stroke-miterlimit:10;}
	.st5{fill:#2B387D;stroke:#2B387D;stroke-width:5;stroke-miterlimit:10;}
	.st6{fill-rule:evenodd;clip-rule:evenodd;fill:#2B387D;}
	.st7{fill:#67B5A9;}
	.st8{fill:#D96552;}
	.st9{fill:#FCC104;}
	.st10{fill:#FFFFFF;}
	.st11{clip-path:url(#SVGID_00000085235914913678530360000013471404305711170185_);}
	.st12{fill-rule:evenodd;clip-rule:evenodd;fill:#FFFFFF;}
</style>
<path class="st9" d="M404.01,175.52C404.01,281.58,250,489.19,250,489.19S95.99,281.58,95.99,175.52
	c0-85.06,68.95-154.01,154.01-154.01S404.01,90.46,404.01,175.52z"/>
<g>
	<path class="st10" d="M271.09,76.05c-31.13,0-64.23,10.23-64.23,29.19v23.36c0,3.22,2.62,5.84,5.84,5.84
		c3.22,0,5.84-2.62,5.84-5.84v-6.08c12.39,7.81,32.85,11.92,52.55,11.92s40.16-4.11,52.55-11.92v6.08
		c0,5.71-14.36,14.82-41.36,17.07c-3.2,0.26-5.59,3.09-5.33,6.31c0.25,3.05,2.8,5.35,5.8,5.35c0.18,0,0.33-0.01,0.5-0.02
		c15.2-1.27,30.35-5.21,40.38-11.6v6.25c0,4.99-10.58,12.16-30.21,15.62c-3.16,0.56-5.29,3.6-4.73,6.76
		c0.5,2.83,2.97,4.82,5.73,4.82c0.34,0,0.69-0.02,1.03-0.09c11.88-2.09,21.38-5.51,28.18-9.86v6.1c0,4.99-10.58,12.16-30.21,15.62
		c-3.16,0.56-5.29,3.6-4.73,6.76c0.5,2.83,2.97,4.82,5.73,4.82c0.34,0,0.69-0.02,1.03-0.09c11.88-2.09,21.38-5.52,28.18-9.86v6.1
		c0,4.99-10.58,12.16-30.21,15.62c-3.16,0.56-5.29,3.6-4.73,6.76c0.5,2.83,2.97,4.82,5.73,4.82c0.34,0,0.69-0.02,1.03-0.09
		c11.88-2.09,21.38-5.52,28.18-9.86v6.1c0,5.71-14.36,14.82-41.36,17.07c-3.2,0.26-5.59,3.09-5.33,6.31c0.25,3.05,2.8,5.35,5.8,5.35
		c0.18,0,0.33-0.01,0.5-0.02c25.91-2.17,52.06-11.88,52.06-28.7V105.25C335.32,86.28,302.22,76.05,271.09,76.05z M271.09,122.77
		c-32.08,0-52.55-10.38-52.55-17.52c0-7.14,20.47-17.52,52.55-17.52s52.55,10.38,52.55,17.52
		C323.64,112.38,303.17,122.77,271.09,122.77z"/>
	<path class="st10" d="M212.7,251.22c31.13,0,64.23-10.23,64.23-29.19v-46.71c0-18.96-33.1-29.19-64.23-29.19
		s-64.23,10.23-64.23,29.19v46.71C148.47,240.99,181.57,251.22,212.7,251.22z M265.25,198.67c0,7.14-20.47,17.52-52.55,17.52
		s-52.55-10.38-52.55-17.52v-6.08c12.39,7.81,32.85,11.92,52.55,11.92s40.16-4.11,52.55-11.92V198.67z M212.7,239.54
		c-32.08,0-52.55-10.38-52.55-17.52v-6.08c12.39,7.81,32.85,11.92,52.55,11.92s40.16-4.11,52.55-11.92v6.08
		C265.25,229.16,244.78,239.54,212.7,239.54z M212.7,157.8c32.08,0,52.55,10.38,52.55,17.52s-20.47,17.52-52.55,17.52
		s-52.55-10.38-52.55-17.52S180.62,157.8,212.7,157.8z"/>
</g>
</svg>
