<?xml version="1.0" encoding="utf-8"?>
<!-- Generator: Adobe Illustrator 23.0.1, SVG Export Plug-In . SVG Version: 6.00 Build 0)  -->
<svg version="1.1" id="Calque_1" xmlns="http://www.w3.org/2000/svg" xmlns:xlink="http://www.w3.org/1999/xlink" x="0px" y="0px"
	 viewBox="0 0 453 453" style="enable-background:new 0 0 453 453;" xml:space="preserve">
<g>
	<path d="M383.7,255.4H167.3c-5.5,0-10-4.5-10-10s4.5-10,10-10h216.4c5.5,0,10,4.5,10,10S389.2,255.4,383.7,255.4z"/>
</g>
<g>
	<path d="M130.5,255.4H64.3c-5.5,0-10-4.5-10-10s4.5-10,10-10h66.1c5.5,0,10,4.5,10,10S136,255.4,130.5,255.4z"/>
</g>
<g>
	<path d="M319.2,321.3c-2.8,0-5.7-1.2-7.6-3.5c-3.6-4.2-3-10.5,1.2-14.1l69-58.3l-69-58.3c-4.2-3.6-4.8-9.9-1.2-14.1
		c3.6-4.2,9.9-4.8,14.1-1.2l78.1,65.9c2.3,1.9,3.5,4.7,3.5,7.6s-1.3,5.7-3.5,7.6L325.6,319C323.8,320.6,321.5,321.3,319.2,321.3z"/>
</g>
</svg>
