<?xml version="1.0" encoding="UTF-8" standalone="no"?>
<!-- Generator: Adobe Illustrator 19.0.0, SVG Export Plug-In . SVG Version: 6.00 Build 0)  -->

<svg
   xmlns:dc="http://purl.org/dc/elements/1.1/"
   xmlns:cc="http://creativecommons.org/ns#"
   xmlns:rdf="http://www.w3.org/1999/02/22-rdf-syntax-ns#"
   xmlns:svg="http://www.w3.org/2000/svg"
   xmlns="http://www.w3.org/2000/svg"
   xmlns:sodipodi="http://sodipodi.sourceforge.net/DTD/sodipodi-0.dtd"
   xmlns:inkscape="http://www.inkscape.org/namespaces/inkscape"
   version="1.1"
   id="Capa_1"
   x="0px"
   y="0px"
   viewBox="0 0 459.93225 433.89832"
   style="fill:#d2ebe6"
   xml:space="preserve"
   sodipodi:docname="calendar-home.svg"
   width="459.93225"
   height="433.89832"
   inkscape:version="0.92.4 (5da689c313, 2019-01-14)"><metadata
   id="metadata65"><rdf:RDF><cc:Work
       rdf:about=""><dc:format>image/svg+xml</dc:format><dc:type
         rdf:resource="http://purl.org/dc/dcmitype/StillImage" /><dc:title></dc:title></cc:Work></rdf:RDF></metadata><defs
   id="defs63"><clipPath
     clipPathUnits="userSpaceOnUse"
     id="clipPath1000"><rect
       style="opacity:1;fill:#000000;fill-opacity:1;stroke:#000000;stroke-width:0.75590551;stroke-linecap:round;stroke-linejoin:round;stroke-miterlimit:2.5;stroke-dasharray:none;stroke-dashoffset:0.0623622;stroke-opacity:1"
       id="rect1002"
       width="618.30511"
       height="501.15256"
       x="-158.37288"
       y="-67.254234" /></clipPath><clipPath
     clipPathUnits="userSpaceOnUse"
     id="clipPath1004"><rect
       style="opacity:1;fill:#000000;fill-opacity:1;stroke:#000000;stroke-width:0.75590551;stroke-linecap:round;stroke-linejoin:round;stroke-miterlimit:2.5;stroke-dasharray:none;stroke-dashoffset:0.0623622;stroke-opacity:1"
       id="rect1006"
       width="618.30511"
       height="501.15256"
       x="-158.37288"
       y="-67.254234" /></clipPath><clipPath
     clipPathUnits="userSpaceOnUse"
     id="clipPath1008"><rect
       style="opacity:1;fill:#000000;fill-opacity:1;stroke:#000000;stroke-width:0.75590551;stroke-linecap:round;stroke-linejoin:round;stroke-miterlimit:2.5;stroke-dasharray:none;stroke-dashoffset:0.0623622;stroke-opacity:1"
       id="rect1010"
       width="618.30511"
       height="501.15256"
       x="-158.37288"
       y="-67.254234" /></clipPath><clipPath
     clipPathUnits="userSpaceOnUse"
     id="clipPath1012"><rect
       style="opacity:1;fill:#000000;fill-opacity:1;stroke:#000000;stroke-width:0.75590551;stroke-linecap:round;stroke-linejoin:round;stroke-miterlimit:2.5;stroke-dasharray:none;stroke-dashoffset:0.0623622;stroke-opacity:1"
       id="rect1014"
       width="618.30511"
       height="501.15256"
       x="-158.37288"
       y="-67.254234" /></clipPath><clipPath
     clipPathUnits="userSpaceOnUse"
     id="clipPath1016"><rect
       style="opacity:1;fill:#000000;fill-opacity:1;stroke:#000000;stroke-width:0.75590551;stroke-linecap:round;stroke-linejoin:round;stroke-miterlimit:2.5;stroke-dasharray:none;stroke-dashoffset:0.0623622;stroke-opacity:1"
       id="rect1018"
       width="618.30511"
       height="501.15256"
       x="-158.37288"
       y="-67.254234" /></clipPath><clipPath
     clipPathUnits="userSpaceOnUse"
     id="clipPath1020"><rect
       style="opacity:1;fill:#000000;fill-opacity:1;stroke:#000000;stroke-width:0.75590551;stroke-linecap:round;stroke-linejoin:round;stroke-miterlimit:2.5;stroke-dasharray:none;stroke-dashoffset:0.0623622;stroke-opacity:1"
       id="rect1022"
       width="618.30511"
       height="501.15256"
       x="-158.37288"
       y="-67.254234" /></clipPath><clipPath
     clipPathUnits="userSpaceOnUse"
     id="clipPath1024"><rect
       style="opacity:1;fill:#000000;fill-opacity:1;stroke:#000000;stroke-width:0.75590551;stroke-linecap:round;stroke-linejoin:round;stroke-miterlimit:2.5;stroke-dasharray:none;stroke-dashoffset:0.0623622;stroke-opacity:1"
       id="rect1026"
       width="618.30511"
       height="501.15256"
       x="-158.37288"
       y="-67.254234" /></clipPath><clipPath
     clipPathUnits="userSpaceOnUse"
     id="clipPath1028"><rect
       style="opacity:1;fill:#000000;fill-opacity:1;stroke:#000000;stroke-width:0.75590551;stroke-linecap:round;stroke-linejoin:round;stroke-miterlimit:2.5;stroke-dasharray:none;stroke-dashoffset:0.0623622;stroke-opacity:1"
       id="rect1030"
       width="618.30511"
       height="501.15256"
       x="-158.37288"
       y="-67.254234" /></clipPath><clipPath
     clipPathUnits="userSpaceOnUse"
     id="clipPath1032"><rect
       style="opacity:1;fill:#000000;fill-opacity:1;stroke:#000000;stroke-width:0.75590551;stroke-linecap:round;stroke-linejoin:round;stroke-miterlimit:2.5;stroke-dasharray:none;stroke-dashoffset:0.0623622;stroke-opacity:1"
       id="rect1034"
       width="618.30511"
       height="501.15256"
       x="-158.37288"
       y="-67.254234" /></clipPath><clipPath
     clipPathUnits="userSpaceOnUse"
     id="clipPath1036"><rect
       style="opacity:1;fill:#000000;fill-opacity:1;stroke:#000000;stroke-width:0.75590551;stroke-linecap:round;stroke-linejoin:round;stroke-miterlimit:2.5;stroke-dasharray:none;stroke-dashoffset:0.0623622;stroke-opacity:1"
       id="rect1038"
       width="618.30511"
       height="501.15256"
       x="-158.37288"
       y="-67.254234" /></clipPath><clipPath
     clipPathUnits="userSpaceOnUse"
     id="clipPath1040"><rect
       style="opacity:1;fill:#000000;fill-opacity:1;stroke:#000000;stroke-width:0.75590551;stroke-linecap:round;stroke-linejoin:round;stroke-miterlimit:2.5;stroke-dasharray:none;stroke-dashoffset:0.0623622;stroke-opacity:1"
       id="rect1042"
       width="618.30511"
       height="501.15256"
       x="-158.37288"
       y="-67.254234" /></clipPath><clipPath
     clipPathUnits="userSpaceOnUse"
     id="clipPath1044"><rect
       style="opacity:1;fill:#000000;fill-opacity:1;stroke:#000000;stroke-width:0.75590551;stroke-linecap:round;stroke-linejoin:round;stroke-miterlimit:2.5;stroke-dasharray:none;stroke-dashoffset:0.0623622;stroke-opacity:1"
       id="rect1046"
       width="618.30511"
       height="501.15256"
       x="-158.37288"
       y="-67.254234" /></clipPath><clipPath
     clipPathUnits="userSpaceOnUse"
     id="clipPath1048"><rect
       style="opacity:1;fill:#000000;fill-opacity:1;stroke:#000000;stroke-width:0.75590551;stroke-linecap:round;stroke-linejoin:round;stroke-miterlimit:2.5;stroke-dasharray:none;stroke-dashoffset:0.0623622;stroke-opacity:1"
       id="rect1050"
       width="618.30511"
       height="501.15256"
       x="-158.37288"
       y="-67.254234" /></clipPath><clipPath
     clipPathUnits="userSpaceOnUse"
     id="clipPath1052"><rect
       style="opacity:1;fill:#000000;fill-opacity:1;stroke:#000000;stroke-width:0.75590551;stroke-linecap:round;stroke-linejoin:round;stroke-miterlimit:2.5;stroke-dasharray:none;stroke-dashoffset:0.0623622;stroke-opacity:1"
       id="rect1054"
       width="618.30511"
       height="501.15256"
       x="-158.37288"
       y="-67.254234" /></clipPath><clipPath
     clipPathUnits="userSpaceOnUse"
     id="clipPath1056"><rect
       style="opacity:1;fill:#000000;fill-opacity:1;stroke:#000000;stroke-width:0.75590551;stroke-linecap:round;stroke-linejoin:round;stroke-miterlimit:2.5;stroke-dasharray:none;stroke-dashoffset:0.0623622;stroke-opacity:1"
       id="rect1058"
       width="618.30511"
       height="501.15256"
       x="-158.37288"
       y="-67.254234" /></clipPath><clipPath
     clipPathUnits="userSpaceOnUse"
     id="clipPath1060"><rect
       style="opacity:1;fill:#000000;fill-opacity:1;stroke:#000000;stroke-width:0.75590551;stroke-linecap:round;stroke-linejoin:round;stroke-miterlimit:2.5;stroke-dasharray:none;stroke-dashoffset:0.0623622;stroke-opacity:1"
       id="rect1062"
       width="618.30511"
       height="501.15256"
       x="-158.37288"
       y="-67.254234" /></clipPath></defs><sodipodi:namedview
   pagecolor="#ffffff"
   bordercolor="#666666"
   borderopacity="1"
   objecttolerance="10"
   gridtolerance="10"
   guidetolerance="10"
   inkscape:pageopacity="0"
   inkscape:pageshadow="2"
   inkscape:window-width="1920"
   inkscape:window-height="1017"
   id="namedview61"
   showgrid="false"
   inkscape:zoom="0.4609375"
   inkscape:cx="256"
   inkscape:cy="177.89832"
   inkscape:window-x="-8"
   inkscape:window-y="-8"
   inkscape:window-maximized="1"
   inkscape:current-layer="Capa_1" />
















<g
   id="g28"
   clip-path="url(#clipPath1060)">
	<g
   id="g26">
		<g
   id="g24">
			<circle
   cx="386"
   cy="210"
   r="20"
   id="circle2" />
			<path
   inkscape:connector-curvature="0"
   d="M 432,40 H 406 V 20 C 406,8.954 397.046,0 386,0 374.954,0 366,8.954 366,20 V 40 H 275 V 20 C 275,8.954 266.046,0 255,0 243.954,0 235,8.954 235,20 V 40 H 145 V 20 C 145,8.954 136.046,0 125,0 113.954,0 105,8.954 105,20 V 40 H 80 C 35.888,40 0,75.888 0,120 v 312 c 0,44.112 35.888,80 80,80 h 153 c 11.046,0 20,-8.954 20,-20 0,-11.046 -8.954,-20 -20,-20 H 80 C 57.944,472 40,454.056 40,432 V 120 C 40,97.944 57.944,80 80,80 h 25 v 20 c 0,11.046 8.954,20 20,20 11.046,0 20,-8.954 20,-20 V 80 h 90 v 20 c 0,11.046 8.954,20 20,20 11.046,0 20,-8.954 20,-20 V 80 h 91 v 20 c 0,11.046 8.954,20 20,20 11.046,0 20,-8.954 20,-20 V 80 h 26 c 22.056,0 40,17.944 40,40 v 114 c 0,11.046 8.954,20 20,20 11.046,0 20,-8.954 20,-20 V 120 C 512,75.888 476.112,40 432,40 Z"
   id="path4" />
			<path
   inkscape:connector-curvature="0"
   d="m 391,270 c -66.72,0 -121,54.28 -121,121 0,66.72 54.28,121 121,121 66.72,0 121,-54.28 121,-121 0,-66.72 -54.28,-121 -121,-121 z m 0,202 c -44.663,0 -81,-36.336 -81,-81 0,-44.664 36.337,-81 81,-81 44.663,0 81,36.336 81,81 0,44.664 -36.337,81 -81,81 z"
   id="path6" />
			<path
   inkscape:connector-curvature="0"
   d="m 420,371 h -9 v -21 c 0,-11.046 -8.954,-20 -20,-20 -11.046,0 -20,8.954 -20,20 v 41 c 0,11.046 8.954,20 20,20 h 29 c 11.046,0 20,-8.954 20,-20 0,-11.046 -8.954,-20 -20,-20 z"
   id="path8" />
			<circle
   cx="299"
   cy="210"
   r="20"
   id="circle10" />
			<circle
   cx="212"
   cy="297"
   r="20"
   id="circle12" />
			<circle
   cx="125"
   cy="210"
   r="20"
   id="circle14" />
			<circle
   cx="125"
   cy="297"
   r="20"
   id="circle16" />
			<circle
   cx="125"
   cy="384"
   r="20"
   id="circle18" />
			<circle
   cx="212"
   cy="384"
   r="20"
   id="circle20" />
			<circle
   cx="212"
   cy="210"
   r="20"
   id="circle22" />
		</g>
	</g>
</g><g
   id="g30"
   clip-path="url(#clipPath1056)">
</g><g
   id="g32"
   clip-path="url(#clipPath1052)">
</g><g
   id="g34"
   clip-path="url(#clipPath1048)">
</g><g
   id="g36"
   clip-path="url(#clipPath1044)">
</g><g
   id="g38"
   clip-path="url(#clipPath1040)">
</g><g
   id="g40"
   clip-path="url(#clipPath1036)">
</g><g
   id="g42"
   clip-path="url(#clipPath1032)">
</g><g
   id="g44"
   clip-path="url(#clipPath1028)">
</g><g
   id="g46"
   clip-path="url(#clipPath1024)">
</g><g
   id="g48"
   clip-path="url(#clipPath1020)">
</g><g
   id="g50"
   clip-path="url(#clipPath1016)">
</g><g
   id="g52"
   clip-path="url(#clipPath1012)">
</g><g
   id="g54"
   clip-path="url(#clipPath1008)">
</g><g
   id="g56"
   clip-path="url(#clipPath1004)">
</g><g
   id="g58"
   clip-path="url(#clipPath1000)">
</g></svg>