<svg xmlns="http://www.w3.org/2000/svg" viewBox="0 0 500 500"><defs><style>.a{fill:#2b387d;}</style></defs><path class="a" d="M319.31,320.71a17.22,17.22,0,0,1-10.38-3.46l-69.33-52a17.28,17.28,0,0,1-6.93-13.86v-104a17.33,17.33,0,1,1,34.66,0v95.33l62.4,46.8a17.34,17.34,0,0,1-10.42,31.19Z"/><path class="a" d="M250,473.76C126.61,473.76,26.24,373.39,26.24,250S126.61,26.24,250,26.24,473.76,126.61,473.76,250,373.39,473.76,250,473.76Zm0-412.85C145.75,60.91,60.91,145.75,60.91,250S145.75,439.09,250,439.09,439.09,354.25,439.09,250,354.27,60.91,250,60.91Z"/></svg>