<svg id="Layer_1" enable-background="new 0 0 64 64" height="512" viewBox="0 0 64 64" width="512" xmlns="http://www.w3.org/2000/svg"><path d="m56 62v-7.6s.1-.1.1-.1l1.2-1.2c1.2-1.2 1.2-3.1 0-4.2l-1.3-1.3v-2.6c0-4.6-3.1-8.6-7.6-9.7l-6.8-1.7c1.5-1.3 2.3-3.2 2.3-5.2v-.9l3.5-2.1c.9-.5 1.5-1.5 1.5-2.6v-1.4c0-1.7-1.3-3-3-3-.2 0-.4 0-.6.1l-1.1.2 1.4-5.9c.8-3.6-1.3-7.3-4.9-8.3l-8.7-2.5-8.8 2.5c-3.6 1-5.7 4.7-4.9 8.3l1.4 5.9-1.1-.2c-1.6-.3-3.2.7-3.5 2.4 0 .2-.1.4-.1.6v1.4c0 1.1.6 2 1.5 2.6l3.5 2.1v.9c0 2 .9 3.9 2.3 5.2l-6.8 1.7c-4.4 1-7.5 5-7.5 9.6v17zm-14-3.1c0-.3.1-.6.3-.8l6.7-6.7 1.6 1.6-6.7 6.7c-.4.4-1.1.4-1.6 0-.2-.2-.3-.5-.3-.8zm12 1.1h-7.6l5.6-5.6c.5.5 1.3.8 2 .8zm1.9-8.3-1.2 1.2c-.4.4-1 .4-1.4 0l-5.2-5.2c-.4-.4-.4-1 0-1.4l1.2-1.2c.4-.4 1-.4 1.4 0l5.2 5.2c.4.4.4 1 0 1.4zm-13.9-25.1-2 2.3c-1.3 1.5-3.5 1.7-5 .4-.2-.2-.4-.4-.6-.6-1-1.3-2.8-1.7-4.2-.7-.3.2-.5.4-.7.7-1.1 1.6-3.4 2-4.9.8-.2-.2-.4-.4-.6-.6l-2-2.3v-7.4c0-2.8 2.2-5 5-5 .3 0 .6 0 .9.1l2.9.5c.8.2 1.7.2 2.5 0l2.9-.5c2.7-.5 5.3 1.3 5.8 4 .1.3.1.6.1.9v7.4zm-19.5 3.6c1 1.2 2.6 1.9 4.2 1.9h.3c1.7-.1 3.3-.9 4.3-2.3.3-.4 1-.5 1.4-.2l.2.2c1.8 2.5 5.2 3.1 7.7 1.3.4-.3.7-.6 1-.9l.2-.2c-.4 1.2-1.2 2.2-2.3 2.8l-4.5 2.5c-1.8 1-4 1-5.7 0l-4.5-2.5c-1.1-.6-1.9-1.6-2.3-2.8zm5.7 6.8c2.4 1.3 5.3 1.3 7.7 0l2.8-1.5-.3 1.4c-.8 3.5-4.2 5.7-7.7 4.9-2.5-.5-4.4-2.5-4.9-4.9l-.3-1.4zm17.6-16.5c.5-.1 1.1.2 1.2.8v.2 1.4c0 .4-.2.7-.5.9l-2.5 1.4v-4.4zm-22-14.1 8.2-2.4 8.2 2.4c2.6.7 4.1 3.3 3.5 5.9l-.7 3.3c-1.5-2.5-4.4-3.8-7.2-3.3l-2.9.5c-.6.1-1.2.1-1.8 0l-2.9-.5c-2.9-.5-5.7.8-7.2 3.3l-.7-3.2c-.6-2.7.9-5.3 3.5-6zm-6.3 17.3c-.3-.2-.5-.5-.5-.9v-1.4c0-.6.4-1 1-1h.2l1.8.4v4.4zm-7.5 21.3c0-3.7 2.5-6.9 6.1-7.8l7.2-1.8.4 1.9c1 4.6 5.5 7.5 10.1 6.4 3.2-.7 5.7-3.2 6.4-6.4l.4-1.9 7.2 1.8c3.6.9 6.1 4.1 6.1 7.8v.6l-1.9-1.9c-1.2-1.2-3.1-1.2-4.2 0l-1.2 1.2c-1.2 1.2-1.2 3.1 0 4.2l.9.9-6.7 6.7c-.9.9-1.2 2.2-.7 3.3h-19.1v-13h-2v13h-9z"/><path d="m36.7 55.7 7.4-7.4c1.2-1.2 1.2-3.2 0-4.4-.6-.6-1.4-.9-2.2-.9s-1.6.3-2.2.9l-7.4 7.4-.7.7-4.6 4.6 7.4 1.5zm4.4-10.4c.4-.4 1.1-.4 1.6 0 .2.2.3.5.3.8s-.1.6-.3.8l-6.7 6.7-1.6-1.6zm-10.1 10.1 2-2 1.6 1.6-.9.9z"/></svg>