<?xml version="1.0" encoding="utf-8"?>
<!-- Generator: Adobe Illustrator 23.0.1, SVG Export Plug-In . SVG Version: 6.00 Build 0)  -->
<svg version="1.1" id="Calque_1" xmlns="http://www.w3.org/2000/svg" xmlns:xlink="http://www.w3.org/1999/xlink" x="0px" y="0px"
	 viewBox="0 0 453 453" style="enable-background:new 0 0 453 453;" xml:space="preserve">
<g>
	<path d="M390.7,214.3c-1.5,38.4-11,69-28.7,91.8c-17.6,22.8-41.2,34.2-70.6,34.2c-12.1,0-22.7-2.6-32-7.8
		c-9.3-5.2-16.5-12.6-21.6-22.2c-14.4,19.4-33.8,29.1-58,29.1c-14.1,0-26.5-4.2-37.1-12.5c-10.6-8.3-18.3-20.1-23.3-35.4
		c-4.9-15.3-6.4-32.6-4.5-52.1c4.4-36.8,16.2-66.3,35.5-88.7c19.3-22.4,42.9-33.5,70.8-33.5c21.6,0,40.2,5,55.8,15l13.9,9.3
		L279.8,271c-2.5,20.4,4.6,30.7,21.2,30.7c12.5,0,23-8,31.4-23.9c8.5-16,13.1-36.4,14-61.2c2.5-49.1-7.7-87.1-30.6-113.8
		C293,76,259.5,62.6,215.4,62.6c-28.1,0-53.1,7.2-74.9,21.5s-39.1,34.6-51.8,60.9c-12.7,26.3-19.9,56.1-21.5,89.7
		c-2.4,51.5,7.9,90.8,30.9,118.1c22.9,27.3,57.4,40.9,103.2,40.9c12.4,0,25.4-1.4,39.3-4.3c13.8-2.9,25.1-6.2,33.8-10l8.2,36.6
		c-9,5.9-21.1,10.6-36.3,14.2c-15.2,3.6-30.5,5.4-45.8,5.4c-40.1,0-74.1-7.7-101.8-23.1c-27.7-15.4-48.3-38.1-61.9-68.3
		c-13.5-30.1-19.6-66.7-18.1-109.6c1.8-40.6,11.1-76.9,28.1-109.1c17-32.1,40.2-57,69.7-74.6c29.5-17.6,62.8-26.4,99.8-26.4
		s69,7.7,96,23.1c26.9,15.4,47.1,37.5,60.7,66.3C386.4,142.8,392.4,176.2,390.7,214.3z M170.2,239.5c-1.6,19.1-0.1,33.6,4.5,43.3
		c4.6,9.8,12.1,14.7,22.4,14.7c6.9,0,13.3-3.1,19.1-9.3c5.8-6.2,10.6-15,14.4-26.5l8.8-100.6c-4.4-1.2-9-1.8-13.7-1.8
		c-16.5,0-29.2,6.4-38.1,19.3C178.8,191.6,172.9,211.8,170.2,239.5z"/>
</g>
</svg>
