<svg xmlns="http://www.w3.org/2000/svg" viewBox="0 0 500 500"><defs><style>.a{fill:#2b387d;}</style></defs><path class="a" d="M305.22,344.77q-15.6-13.12-15.1-33.92-14.37,24.27-35.65,35.65a94.17,94.17,0,0,1-45.05,11.39A67.2,67.2,0,0,1,173,347.49q-16.59-10.39-26.73-29T136.15,276.2q0-31.2,16.09-65.1t43.57-56.2q27.47-22.28,59.16-22.27,20.29,0,35.64,10.89t21.79,29.7l3.46-20.79a20.41,20.41,0,0,1,6.44-12.13q5.44-5.2,15.84-5.2,20.79,0,20.79,17.33a38.34,38.34,0,0,1-.49,6.93L337.15,294a41,41,0,0,0-.5,7.43q0,11.88,6.19,18.07a20.54,20.54,0,0,0,15.1,6.19q20.81,0,38.87-20.06t28.71-51.73a202.51,202.51,0,0,0,10.64-64.86q0-36.63-17.07-64.35T370.32,81.39q-31.69-15.6-73.77-15.6-65.34,0-118.07,26.24t-83.17,75.5q-30.45,49.26-30.45,115.6,0,39.62,15.84,73.52t50,55.2q34.17,21.28,85.65,21.29,36.63,0,59.91-6.93t51.48-22.28c3.3-1.66,5.95-2.48,7.93-2.48q8.4,0,12.37,9.9a12.37,12.37,0,0,1,1,5.45q0,9.9-14.36,16.83Q304.48,449,278.73,457.15t-62.38,8.17q-63.37,0-104.95-25.75T50.5,372.49q-19.3-41.33-19.31-89.36,0-75.25,35.15-131.94t95.55-87.13Q222.3,33.61,296.55,33.61q54.46,0,93.57,20.79t59.16,56q20.06,35.16,20.05,78.71a211.84,211.84,0,0,1-15.84,80.21q-15.84,39.11-44.8,63.86t-65.6,24.76Q320.82,357.89,305.22,344.77Zm-48.77-35.65a102.35,102.35,0,0,0,28.72-30.69q11.38-18.57,13.36-35.9Q303,226.69,303,214.31q0-22.76-12.87-33.91T257,169.26q-22.27,0-39.61,16.83t-27,41.59q-9.65,24.76-9.65,47.53,0,21.8,10.89,33.91t28.71,12.13Q239.12,321.25,256.45,309.12Z"/></svg>