<?xml version="1.0" encoding="utf-8"?>
<!-- Generator: Adobe Illustrator 23.0.1, SVG Export Plug-In . SVG Version: 6.00 Build 0)  -->
<svg version="1.1" id="Capa_1" xmlns="http://www.w3.org/2000/svg" xmlns:xlink="http://www.w3.org/1999/xlink" x="0px" y="0px"
	 viewBox="0 0 456.2 456.2" style="enable-background:new 0 0 456.2 456.2;" xml:space="preserve">
<style type="text/css">
	.st0{stroke:#000000;stroke-width:4;stroke-miterlimit:10;}
</style>
<g>
	<g>
		<path class="st0" d="M264.7,292.9c-25.8,9.9-54.9,3.7-74.4-15.9c-4-4-7.5-8.4-10.4-13.3h79.2c5.5,0,10-4.5,10-10
			c0-5.5-4.5-10-10-10h-87.4c-1.7-6.9-2.2-14-1.6-21h94.3c5.5,0,10-4.5,10-10s-4.5-10-10-10h-89.7c3.4-9,8.8-17.1,15.6-23.9
			c19.5-19.6,48.6-25.9,74.4-16c5.2,2,10.9-0.6,12.9-5.7c2-5.1-0.6-10.9-5.7-12.9c-33.2-12.7-70.7-4.6-95.7,20.6
			c-10.6,10.5-18.3,23.6-22.6,37.9h-9.1c-5.5,0-10,4.5-10,10s4.5,10,10,10h5.6c-0.5,7,0,14.1,1.3,21h-6.8c-5.5,0-10,4.5-10,10
			c0,5.5,4.5,10,10,10h12.9c4.4,11,10.7,19.4,18.7,27.4c25.1,25.1,62.6,33.1,95.7,20.4c5.1-2,7.7-7.8,5.7-12.9
			C275.6,293.5,269.8,290.9,264.7,292.9z"/>
	</g>
</g>
<g>
	<g>
		<path class="st0" d="M389.8,67.6c-0.3-0.3-0.6-0.6-0.8-0.8c-42.6-43-100.6-67-161.1-66.8C102.1,0,0.1,102,0.1,227.9
			c0,60.4,24,118.4,66.7,161.1c88.8,89.2,233,89.6,322.2,0.8S478.6,156.8,389.8,67.6z M227.9,435.7C113.3,435.7,20,342.5,20,227.9
			S113.3,20,227.9,20s207.8,93.2,207.8,207.8S342.5,435.7,227.9,435.7z"/>
	</g>
</g>
<g>
	<g>
		<path class="st0" d="M227.9,53.4c-96.2,0-174.4,78.2-174.4,174.4s78.2,174.4,174.4,174.4S402.3,324,402.3,227.8
			S324.1,53.4,227.9,53.4z M227.9,382.2c-85.1,0-154.4-69.3-154.4-154.4S142.8,73.4,227.9,73.4s154.4,69.3,154.4,154.4
			S313,382.2,227.9,382.2z"/>
	</g>
</g>
</svg>
