<?xml version="1.0" encoding="utf-8"?>
<!-- Generator: Adobe Illustrator 23.0.1, SVG Export Plug-In . SVG Version: 6.00 Build 0)  -->
<svg version="1.1" id="Calque_1" xmlns="http://www.w3.org/2000/svg" xmlns:xlink="http://www.w3.org/1999/xlink" x="0px" y="0px"
	 viewBox="0 0 12.5 12.5" style="enable-background:new 0 0 12.5 12.5;" xml:space="preserve">
<style type="text/css">
	.st0{clip-path:url(#SVGID_2_);fill:#010202;}
</style>
<g>
	<defs>
		<rect id="SVGID_1_" y="0" width="12.5" height="12.5"/>
	</defs>
	<clipPath id="SVGID_2_">
		<use xlink:href="#SVGID_1_"  style="overflow:visible;"/>
	</clipPath>
	<path class="st0" d="M12.5,6.2C12.5,2.8,9.7,0,6.2,0S0,2.8,0,6.2s2.8,6.2,6.2,6.2c0,0,0.1,0,0.1,0V7.6H5V6.1h1.3V4.9
		c0-1.3,0.8-2.1,2-2.1c0.6,0,1.1,0,1.2,0.1v1.4H8.7C8.1,4.3,8,4.6,8,5.1v1h1.5L9.3,7.6H8v4.6C10.6,11.5,12.5,9.1,12.5,6.2"/>
</g>
</svg>
