<?xml version="1.0" encoding="iso-8859-1"?>
<!-- Generator: Adobe Illustrator 23.0.1, SVG Export Plug-In . SVG Version: 6.00 Build 0)  -->
<svg version="1.1" id="Capa_1" xmlns="http://www.w3.org/2000/svg" xmlns:xlink="http://www.w3.org/1999/xlink" x="0px" y="0px"
	 viewBox="-49 141 512 512" style="enable-background:new -49 141 512 512;" xml:space="preserve">
<path d="M406.817,350.818L406.817,350.818L219.083,163.084c-6.665-6.663-17.468-6.663-24.132,0L7.218,350.818l0,0l-34.133,34.133
	c-6.548,6.78-6.361,17.584,0.419,24.132c6.614,6.388,17.099,6.388,23.713,0l4.983-5.018v214.801c0,9.426,7.641,17.067,17.067,17.067
	h375.467c9.426,0,17.067-7.641,17.067-17.067V404.066l5.001,5.001c6.78,6.548,17.584,6.36,24.132-0.419
	c6.388-6.614,6.388-17.099,0-23.713L406.817,350.818z M155.8,601.8V465.267h102.4V601.8H155.8z M377.667,601.8h-85.333V448.2
	c0-9.426-7.641-17.067-17.067-17.067H138.733c-9.426,0-17.067,7.641-17.067,17.067v153.6H36.333V369.932L207,199.266
	l170.667,170.667V601.8z"/>
</svg>
