<?xml version="1.0" encoding="UTF-8" standalone="no"?>
<!-- Created with Inkscape (http://www.inkscape.org/) -->

<svg
   xmlns:dc="http://purl.org/dc/elements/1.1/"
   xmlns:cc="http://creativecommons.org/ns#"
   xmlns:rdf="http://www.w3.org/1999/02/22-rdf-syntax-ns#"
   xmlns:svg="http://www.w3.org/2000/svg"
   xmlns="http://www.w3.org/2000/svg"
   xmlns:sodipodi="http://sodipodi.sourceforge.net/DTD/sodipodi-0.dtd"
   xmlns:inkscape="http://www.inkscape.org/namespaces/inkscape"
   width="81.496834mm"
   height="123.74077mm"
   viewBox="0 0 81.496834 123.74077"
   version="1.1"
   id="svg8"
   inkscape:version="0.92.4 (5da689c313, 2019-01-14)"
   sodipodi:docname="icon.svg">
  <defs
     id="defs2" />
  <sodipodi:namedview
     id="base"
     pagecolor="#ffffff"
     bordercolor="#666666"
     borderopacity="1.0"
     inkscape:pageopacity="0.0"
     inkscape:pageshadow="2"
     inkscape:zoom="0.7"
     inkscape:cx="130.92147"
     inkscape:cy="18.253271"
     inkscape:document-units="mm"
     inkscape:current-layer="g4537"
     showgrid="false"
     inkscape:window-width="1920"
     inkscape:window-height="1009"
     inkscape:window-x="-8"
     inkscape:window-y="-8"
     inkscape:window-maximized="1" />
  <metadata
     id="metadata5">
    <rdf:RDF>
      <cc:Work
         rdf:about="">
        <dc:format>image/svg+xml</dc:format>
        <dc:type
           rdf:resource="http://purl.org/dc/dcmitype/StillImage" />
        <dc:title></dc:title>
      </cc:Work>
    </rdf:RDF>
  </metadata>
  <g
     inkscape:label="Calque 1"
     inkscape:groupmode="layer"
     id="layer1"
     transform="translate(-1.2067914,-0.78437379)">
    <g
       id="g4537"
       transform="matrix(0.26458333,0,0,0.26458333,59.342263,47.254123)">
      <path
         style="fill:currentcolor"
         d="m -64.286279,-174.20513 c -85.060001,0 -154.009771,68.95172 -154.009771,154.011721 0,106.06 154.009771,313.669919 154.009771,313.669919 0,0 154.00976,-207.609919 154.00976,-313.669919 0,-85.060001 -68.94976,-154.011721 -154.00976,-154.011721 z m -0.35743,93.126961 A 64.64286,61.071429 0 0 1 8.3154732e-4,-20.007859 64.64286,61.071429 0 0 1 -64.643709,41.064401 a 64.64286,61.071429 0 0 1 -64.642571,-61.07226 64.64286,61.071429 0 0 1 64.642571,-61.07031 z"
         id="path4520"
         inkscape:connector-curvature="0" />
    </g>
  </g>
 
</svg>
