<?xml version="1.0" encoding="utf-8"?>
<!-- Generator: Adobe Illustrator 23.0.1, SVG Export Plug-In . SVG Version: 6.00 Build 0)  -->
<svg version="1.1" id="Calque_1" xmlns="http://www.w3.org/2000/svg" xmlns:xlink="http://www.w3.org/1999/xlink" x="0px" y="0px"
	 viewBox="0 0 13.6 13.6" style="enable-background:new 0 0 13.6 13.6;" xml:space="preserve">
<style type="text/css">
	.st0{clip-path:url(#SVGID_2_);fill:#010202;}
</style>
<g>
	<defs>
		<rect id="SVGID_1_" y="0" width="13.6" height="13.6"/>
	</defs>
	<clipPath id="SVGID_2_">
		<use xlink:href="#SVGID_1_"  style="overflow:visible;"/>
	</clipPath>
	<path class="st0" d="M8.1,6.8c0,0.7-0.6,1.3-1.3,1.3c-0.7,0-1.3-0.6-1.3-1.3s0.6-1.3,1.3-1.3C7.5,5.5,8.1,6.1,8.1,6.8"/>
	<path class="st0" d="M8.9,5.2C8.6,5.2,8.4,5,8.4,4.7c0-0.3,0.2-0.5,0.5-0.5c0.3,0,0.5,0.2,0.5,0.5C9.4,5,9.1,5.2,8.9,5.2 M6.8,8.8
		c-1.1,0-2-0.9-2-2s0.9-2,2-2s2,0.9,2,2S7.9,8.8,6.8,8.8 M9.8,4.5C9.8,4.3,9.7,4.2,9.6,4.1C9.4,3.9,9.3,3.8,9.1,3.8
		C9,3.7,8.8,3.6,8.4,3.6c-0.4,0-0.5,0-1.6,0s-1.2,0-1.6,0c-0.4,0-0.6,0.1-0.7,0.1C4.3,3.8,4.2,3.9,4.1,4.1C3.9,4.2,3.8,4.3,3.8,4.5
		C3.7,4.6,3.6,4.8,3.6,5.2c0,0.4,0,0.5,0,1.6c0,1,0,1.2,0,1.6c0,0.4,0.1,0.6,0.1,0.7c0.1,0.2,0.2,0.3,0.3,0.4
		c0.1,0.1,0.3,0.2,0.4,0.3C4.6,9.9,4.8,10,5.2,10c0.4,0,0.5,0,1.6,0c1,0,1.2,0,1.6,0C8.8,10,9,9.9,9.1,9.8c0.3-0.1,0.6-0.4,0.7-0.7
		C9.9,9,10,8.8,10,8.4c0-0.4,0-0.5,0-1.6c0-1,0-1.2,0-1.6C10,4.8,9.9,4.6,9.8,4.5"/>
	<path class="st0" d="M10.7,8.4c0,0.4-0.1,0.7-0.2,0.9c-0.2,0.5-0.6,0.9-1.1,1.1c-0.2,0.1-0.5,0.2-0.9,0.2c-0.4,0-0.5,0-1.6,0
		s-1.2,0-1.6,0c-0.4,0-0.7-0.1-0.9-0.2c-0.3-0.1-0.5-0.3-0.7-0.5C3.4,9.9,3.2,9.6,3.1,9.4C3,9.1,2.9,8.8,2.9,8.4c0-0.4,0-0.6,0-1.6
		s0-1.2,0-1.6c0-0.4,0.1-0.7,0.2-0.9C3.2,4,3.4,3.7,3.6,3.6C3.7,3.4,4,3.2,4.2,3.1C4.5,3,4.8,2.9,5.2,2.9c0.4,0,0.5,0,1.6,0
		s1.2,0,1.6,0c0.4,0,0.7,0.1,0.9,0.2c0.3,0.1,0.5,0.3,0.7,0.5c0.2,0.2,0.4,0.4,0.5,0.7c0.1,0.2,0.2,0.5,0.2,0.9c0,0.4,0,0.6,0,1.6
		S10.7,8,10.7,8.4 M6.8,0C3,0,0,3,0,6.8s3,6.8,6.8,6.8s6.8-3,6.8-6.8S10.6,0,6.8,0"/>
</g>
</svg>
