<svg xmlns="http://www.w3.org/2000/svg" viewBox="0 0 500 500"><defs><style>.a{fill:#2b387d;}</style></defs><path class="a" d="M250,482.89a14.86,14.86,0,0,0,10.46-4.31c6.8-6.83,166.86-168.31,166.86-291.23C427.32,89.56,347.79,10,250,10S72.68,89.56,72.68,187.35c0,122.92,160.06,284.4,166.86,291.23A14.86,14.86,0,0,0,250,482.89Zm0-443.31c81.48,0,147.77,66.29,147.77,147.77,0,93.81-112.48,221.63-147.77,259.4C214.71,409,102.23,281.24,102.23,187.35,102.23,105.87,168.52,39.58,250,39.58Z"/><path class="a" d="M338.66,187.35A88.66,88.66,0,1,0,250,276,88.77,88.77,0,0,0,338.66,187.35Zm-147.77,0A59.11,59.11,0,1,1,250,246.46,59.17,59.17,0,0,1,190.89,187.35Z"/></svg>