<?xml version="1.0" encoding="utf-8"?>
<!-- Generator: Adobe Illustrator 23.0.1, SVG Export Plug-In . SVG Version: 6.00 Build 0)  -->
<svg version="1.1" id="Calque_1" xmlns="http://www.w3.org/2000/svg" xmlns:xlink="http://www.w3.org/1999/xlink" x="0px" y="0px"
	 viewBox="0 0 512 512" style="enable-background:new 0 0 512 512;" xml:space="preserve">
<g>
	<path d="M402,133.5l-19.3-17.6V46h20c12.7,0,23-10.3,23-23s-10.3-23-23-23h-84.2c-47.2,0-92,20.4-123.1,55.9
		c-2.5,2.9-2.3,7.3,0.6,9.9c0,0,0,0,0,0l24.1,21.1c1.3,1.1,2.9,1.7,4.6,1.7h0.5c1.9-0.1,3.6-1,4.8-2.4c21.5-24.5,52.1-39,84.7-40.1
		v69.8l-19.3,17.6c-43.6,39.8-68.4,96.1-68.4,155.1v108.9c-6.1-3.8-13-5.9-20.2-6.2c-14.2-45.2-56.7-57.8-58.6-58.3
		c-3.7-1.1-7.6,1.1-8.6,4.8c-0.4,1.4-0.3,2.9,0.2,4.3c3.5,9.7-2.4,27.5-16.2,49.1h-9.7c-23,0-41.6,18.7-41.6,41.6
		c0,3.1,0.4,6.3,1.1,9.3c-22.3,5.5-36,27.9-30.5,50.2c1.5,6.3,4.5,12.1,8.7,17c1.3,1.6,3.3,2.5,5.3,2.5h386.7c14.9,0,27-12.1,27-27
		V288.6C470.4,229.6,445.6,173.3,402,133.5L402,133.5z M368.7,111.3h-40V46h40V111.3z M224.2,71.8l-13.6-11.9
		C238.9,30.6,277.8,14,318.5,14h84.2c5,0,9,4,9,9s-4,9-9,9h-84.2C283,32,249,46.4,224.2,71.8L224.2,71.8z M55.5,482.6
		c0.1-15.1,12.2-27.3,27.2-27.6c3.9-0.1,7-3.2,6.9-7.1c0-1-0.3-2.1-0.7-3c-1.8-3.8-2.8-7.9-2.8-12.1c0-15.2,12.4-27.6,27.6-27.6
		h13.5c2.3,0,4.5-1.2,5.8-3.1c13.6-20.5,20.8-37.7,21.5-51.3c19.9,9.8,34.5,27.7,40,49.2c0.8,3.1,3.6,5.3,6.8,5.3h3.7
		c15.2,0,27.6,12.4,27.6,27.6c0,3-0.5,5.9-1.5,8.7h-74.9c-3.9,0-7,3.1-7,7s3.1,7,7,7h78.7c14.9,3,24.6,17.5,21.6,32.4
		c-0.7,3.6-2.1,7-4.2,10H60.2C57.2,493.5,55.5,488.1,55.5,482.6L55.5,482.6z M456.5,485c0,7.2-5.8,13-13,13H268.3
		c3.6-8.8,4-18.6,1.1-27.7c1.3,1.1,2.9,1.7,4.6,1.7h149.5c3.9,0,7-3.1,7-7l0,0V288.6c0-3.9-3.1-7-7-7H274c-3.9,0-7,3.1-7,7
		c0,0,0,0,0,0v175.6c-4.5-9.2-12.3-16.3-21.7-20.2c3-10.9,1.5-22.5-4.3-32.2V288.6c0.1-55.1,23.2-107.6,63.9-144.7l19.6-17.9H373
		l19.6,17.9c40.7,37.2,63.8,89.7,63.9,144.8L456.5,485z M281,458V295.6h135.5V458H281z"/>
	<path d="M443.5,514H56.8c-2.7,0-5.1-1.2-6.9-3.2c-4.4-5.1-7.5-11.3-9.1-17.9c-5.5-22.7,7.9-45.7,30.1-52.2
		c-0.5-2.6-0.7-5.3-0.7-7.9c0-24,19.6-43.6,43.6-43.6h8.6c13-20.6,18.6-37.5,15.4-46.4c-0.7-1.8-0.7-3.7-0.2-5.5
		c0.7-2.3,2.2-4.2,4.3-5.4c2.1-1.2,4.5-1.5,6.8-0.8c1.8,0.5,44.6,13.2,59.5,58.3c5.8,0.4,11.5,2,16.7,4.7V288.6
		c0.1-59.4,25.2-116.5,69.1-156.6l18.6-17V48.2c-31.1,1.6-60.6,15.8-81.2,39.3c-1.6,1.8-3.8,2.9-6.2,3.1l-0.6,0
		c-2.2,0-4.3-0.8-5.9-2.2l-24.1-21.1c-3.7-3.3-4-8.9-0.8-12.7C225.3,18.6,270.8-2,318.5-2h84.2c13.8,0,25,11.2,25,25s-11.2,25-25,25
		h-18v67l18.6,17c43.9,40.1,69.1,97.2,69.1,156.6V485C472.4,501,459.4,514,443.5,514z M113.8,393.3c-21.8,0-39.6,17.8-39.6,39.6
		c0,3,0.3,6,1,8.9l0.4,1.9l-1.9,0.5c-21.2,5.2-34.2,26.6-29,47.8c1.5,5.9,4.3,11.6,8.3,16.2c1,1.1,2.3,1.8,3.8,1.8h386.7
		c13.8,0,25-11.2,25-25V288.6c-0.1-58.3-24.8-114.3-67.8-153.6l0,0l-20-18.2V44h22c11.6,0,21-9.4,21-21s-9.4-21-21-21h-84.2
		c-46.6,0-90.9,20.1-121.6,55.2c-0.9,1-1.3,2.3-1.2,3.6s0.7,2.5,1.7,3.4l0.1,0l24,21c0.9,0.8,2.1,1.2,3.3,1.2h0.4
		c1.3-0.1,2.5-0.7,3.4-1.7c21.7-24.8,53.1-39.7,86.1-40.8l2.1-0.1v72.7l-20,18.2c-43,39.3-67.7,95.3-67.8,153.7v112.5l-3.1-1.9
		c-5.8-3.6-12.4-5.6-19.2-5.9l-1.4-0.1l-0.4-1.3c-13.9-44.2-55.5-56.5-57.2-57c-1.3-0.4-2.6-0.2-3.8,0.4c-1.2,0.7-2,1.7-2.4,3
		c-0.3,1-0.3,2.1,0.1,3.1c3.8,10.4-2,28.5-16.4,50.9l-0.6,0.9H113.8z M253.6,500H59.2l-0.6-0.9c-3.3-4.9-5-10.6-5-16.5v0
		c0.1-16,13.2-29.3,29.2-29.6c1.3,0,2.6-0.6,3.5-1.5s1.4-2.2,1.4-3.6c0-0.7-0.2-1.5-0.5-2.1c-2-4-3-8.5-3-12.9
		c0-16.3,13.3-29.6,29.6-29.6h13.5c1.7,0,3.2-0.8,4.2-2.2c13.3-20.1,20.5-37,21.2-50.3l0.2-3l2.7,1.3c20.4,10,35.4,28.4,41.1,50.5
		c0.6,2.2,2.6,3.8,4.9,3.8c0,0,0,0,0,0h3.7c16.3,0,29.6,13.3,29.6,29.6c0,3.2-0.5,6.3-1.6,9.4l-0.5,1.4h-76.3c-2.8,0-5,2.2-5,5
		s2.2,5,5,5h78.9l0.2,0c16,3.2,26.4,18.8,23.2,34.7c-0.8,3.9-2.3,7.5-4.5,10.7L253.6,500z M61.3,496h190.2c1.6-2.6,2.7-5.4,3.3-8.4
		c2.7-13.7-6.2-27.2-19.9-30h-78.5c-5,0-9-4-9-9s4-9,9-9h73.4c0.6-2.2,0.9-4.4,0.9-6.7c0-14.1-11.5-25.6-25.6-25.6h-3.7c0,0,0,0,0,0
		c-4.1,0-7.7-2.8-8.7-6.8c-5.2-19.9-18.3-36.7-36.4-46.5c-1.6,13.5-8.8,30-21.6,49.3c-1.7,2.5-4.5,4-7.5,4h-13.5
		c-14.1,0-25.6,11.5-25.6,25.6c0,3.9,0.9,7.7,2.6,11.2c0.6,1.2,0.9,2.5,0.9,3.8c0,2.4-0.9,4.7-2.6,6.4c-1.7,1.7-3.9,2.7-6.3,2.7
		c-13.9,0.2-25.2,11.7-25.3,25.6C57.5,487.4,58.8,492,61.3,496z M443.5,500H265.3l1.1-2.7c3.4-8.4,3.8-17.8,1.1-26.4l-0.9-3
		l-1.3-2.7c-4.3-8.7-11.7-15.5-20.7-19.2l-1.7-0.7l0.5-1.7c2.9-10.3,1.4-21.5-4.1-30.7l-0.3-0.5V288.6
		c0.1-55.5,23.6-108.8,64.5-146.2l20.2-18.4h50.1l20.1,18.4c41,37.4,64.5,90.8,64.5,146.2V485C458.5,493.3,451.7,500,443.5,500z
		 M271.1,496h172.3c6.1,0,11-4.9,11-11V288.6c-0.1-54.4-23.1-106.6-63.2-143.3l-19-17.3h-47l-19,17.3C266.1,182,243,234.2,243,288.6
		v122.7c5.5,9.5,7.2,20.9,4.6,31.6c7,3.1,12.9,8,17.4,14.2V288.6c0-2.4,0.9-4.7,2.6-6.4c1.7-1.7,4-2.6,6.4-2.6c0,0,0,0,0,0h149.5
		c5,0,9,4,9,9V465c0,5-4,9-9,9H274c-0.5,0-1.1-0.1-1.6-0.1C273.9,481.2,273.4,488.9,271.1,496z M269,467.2l1.7,1.5
		c0.9,0.8,2.1,1.2,3.3,1.2h149.5c2.8,0,5-2.2,5-5V288.6c0-2.8-2.2-5-5-5H274c0,0,0,0,0,0c-1.3,0-2.6,0.5-3.5,1.5
		c-0.9,0.9-1.5,2.2-1.5,3.5V467.2z M418.5,460H279V293.6h139.5V460z M283,456h131.5V297.6H283V456z M370.7,113.3h-44V44h44V113.3z
		 M330.7,109.3h36V48h-36V109.3z M224.3,74.6l-16.6-14.5l1.5-1.5C237.7,29,277.5,12,318.5,12h84.2c6.1,0,11,4.9,11,11s-4.9,11-11,11
		h-84.2c-34.8,0-68.6,14.3-92.8,39.2L224.3,74.6z M213.6,59.8l10.6,9.2C249,44.2,283.3,30,318.5,30h84.2c3.9,0,7-3.1,7-7s-3.1-7-7-7
		h-84.2C279.3,16,241.1,31.9,213.6,59.8z"/>
</g>
</svg>
