<svg id="Capa_1" data-name="Capa 1" xmlns="http://www.w3.org/2000/svg" viewBox="0 0 349.2 265.7"><title>mortarboard-3</title><path d="M419.2,195.6,280,127.6c-12-6-32.4-6-44.4,0l-142.4,68c-10,4.8-11.6,11.6-11.6,15.2s1.6,10,11.6,15.2l11.6,5.6v64a19.6,19.6,0,0,0-12.4,18,19.86,19.86,0,0,0,12,18l-18,57.2h50.4l-18-57.2a19.38,19.38,0,0,0-.4-36V238.4l21.2,10.4V332a6.45,6.45,0,0,0,1.2,3.6c2,2.4,39.2,53.2,115.2,53.2s113.2-51.2,114.8-53.2A6.45,6.45,0,0,0,372,332V249.2L419.2,226c10-4.8,11.6-11.6,11.6-15.2C430.4,207.2,429.2,200.4,419.2,195.6ZM359.2,330c-6.4,8-40.8,46.4-103.2,46.4S159.2,338,152.8,330V254.4L235.6,294c6,2.8,14,4.4,22,4.4,8.4,0,16.4-1.6,22.4-4.8l79.2-38.8Zm54.4-115.2-48,23.6a4.6,4.6,0,0,0-4.4,2.4l-86.8,42c-8.4,4.4-24.8,4.4-33.6,0L134,231.6l122.8-14.4a6.23,6.23,0,1,0-1.2-12.4L113.2,221.6l-14.4-6.8c-3.6-1.6-4.4-3.6-4.4-3.6,0-.4.8-2,4.4-3.6l142.4-68.4a41.32,41.32,0,0,1,16.4-3.2c6.4,0,12.8,1.2,16.8,3.2l139.2,68c3.6,1.6,4.4,3.2,4.4,4A11,11,0,0,1,413.6,214.8Z" transform="translate(-81.6 -123.1)"/></svg>