<svg xmlns="http://www.w3.org/2000/svg" viewBox="0 0 500 500"><defs><style>.a{fill:#2a377c;}</style></defs><path class="a" d="M248.72,154.38h89.7a70.57,70.57,0,1,0,0-26.92h-89.7a115.14,115.14,0,1,0-43,104l66.84,66.83a114.77,114.77,0,0,0-24.05,57.95h-89.7a70.57,70.57,0,1,0,0,26.91H248.5a115.4,115.4,0,1,0,43.09-103.88l-66.85-66.85a115,115,0,0,0,24-58Zm159-57.12A43.66,43.66,0,1,1,364,140.92a43.7,43.7,0,0,1,43.67-43.66ZM45.88,140.92a88.36,88.36,0,1,1,155.36,57.67,69.64,69.64,0,0,0-31.77-41.74,44.66,44.66,0,1,0-70.46,0,69.64,69.64,0,0,0-31.77,41.74,88.33,88.33,0,0,1-21.36-57.67Zm70.6-11.47a17.76,17.76,0,1,1,17.76,17.75,17.78,17.78,0,0,1-17.76-17.75Zm-24.71,89c0-27.25,20.41-44.35,42.47-44.35,21.85,0,42.47,16.87,42.47,44.35a88.82,88.82,0,0,1-84.94,0ZM89.54,413.32a43.66,43.66,0,1,1,43.66-43.66,43.71,43.71,0,0,1-43.66,43.66Zm231,33.88c0-27.23,20.41-44.34,42.46-44.34h0c21.84,0,42.47,16.85,42.47,44.34a88.82,88.82,0,0,1-84.95,0Zm24.72-89A17.76,17.76,0,1,1,363,376h0a17.78,17.78,0,0,1-17.75-17.76Zm106.11,11.47A88.32,88.32,0,0,1,430,427.33a69.75,69.75,0,0,0-31.77-41.74,44.67,44.67,0,1,0-70.47,0A69.69,69.69,0,0,0,296,427.33a88.37,88.37,0,1,1,155.35-57.67Zm0,0"/></svg>