<?xml version="1.0" encoding="utf-8"?>
<!-- Generator: Adobe Illustrator 23.0.1, SVG Export Plug-In . SVG Version: 6.00 Build 0)  -->
<svg version="1.1" id="Capa_1" xmlns="http://www.w3.org/2000/svg" xmlns:xlink="http://www.w3.org/1999/xlink" x="0px" y="0px"
	 viewBox="-49 141 512 512" style="enable-background:new -49 141 512 512;" xml:space="preserve">
<style type="text/css">
	.st0{fill:#039E70;}
</style>
<rect x="135" y="317" class="st0" width="16" height="16"/>
<rect x="135" y="349" class="st0" width="16" height="16"/>
<rect x="135" y="381" class="st0" width="16" height="16"/>
<rect x="135" y="413" class="st0" width="16" height="16"/>
<rect x="167" y="317" class="st0" width="16" height="16"/>
<rect x="167" y="349" class="st0" width="16" height="16"/>
<rect x="167" y="381" class="st0" width="16" height="16"/>
<rect x="167" y="413" class="st0" width="16" height="16"/>
<rect x="199" y="317" class="st0" width="16" height="16"/>
<rect x="199" y="349" class="st0" width="16" height="16"/>
<rect x="199" y="381" class="st0" width="16" height="16"/>
<rect x="199" y="413" class="st0" width="16" height="16"/>
<rect x="231" y="317" class="st0" width="16" height="16"/>
<rect x="167" y="285" class="st0" width="16" height="16"/>
<rect x="199" y="285" class="st0" width="16" height="16"/>
<rect x="231" y="285" class="st0" width="16" height="16"/>
<rect x="231" y="349" class="st0" width="16" height="16"/>
<rect x="231" y="381" class="st0" width="16" height="16"/>
<rect x="231" y="413" class="st0" width="16" height="16"/>
<rect x="263" y="317" class="st0" width="16" height="16"/>
<rect x="263" y="349" class="st0" width="16" height="16"/>
<rect x="263" y="381" class="st0" width="16" height="16"/>
<rect x="263" y="413" class="st0" width="16" height="16"/>
<path d="M439,277H319V165c0-4.4-3.6-8-8-8c0,0,0,0,0,0H103c-4.4,0-8,3.6-8,8c0,0,0,0,0,0v112H-25c-4.4,0-8,3.6-8,8c0,0,0,0,0,0v288
	c0,4.4,3.6,8,8,8c0,0,0,0,0,0h16.7c-0.5,2.6-0.7,5.3-0.7,8v40c0,4.4,3.6,8,8,8c0,0,0,0,0,0h416c4.4,0,8-3.6,8-8c0,0,0,0,0,0v-40
	c0-2.7-0.3-5.4-0.7-8H439c4.4,0,8-3.6,8-8c0,0,0,0,0,0V285C447,280.6,443.4,277,439,277C439,277,439,277,439,277z M311,501
	c0,8.8-7.2,16-16,16s-16-7.2-16-16s7.2-16,16-16C303.8,485,311,492.2,311,501z M119,485c8.8,0,16,7.2,16,16s-7.2,16-16,16
	s-16-7.2-16-16C103,492.2,110.2,485,119,485z M71,621H7v-32c0-17.7,14.3-32,32-32s32,14.3,32,32V621z M23,525c0-8.8,7.2-16,16-16
	s16,7.2,16,16s-7.2,16-16,16C30.2,541,23,533.8,23,525z M72.2,554.4c-3-2.9-6.4-5.4-10.1-7.4c12.2-12.8,11.7-33-1.1-45.2
	c-12.8-12.2-33-11.7-45.2,1.1C4,515.2,4,534.6,15.9,547c-7.6,4.2-14,10.5-18.4,18H-17V293H95v187.1c-11,12.3-10.6,31,0.9,42.9
	C83.9,529.6,75.3,541.1,72.2,554.4z M151,621H87v-56c0-17.7,14.3-32,32-32s32,14.3,32,32V621z M247,621h-80v-56
	c0-22.1,17.9-40,40-40s40,17.9,40,40V621z M183,485c0-13.3,10.7-24,24-24c13.3,0,24,10.7,24,24s-10.7,24-24,24
	C193.8,509,183,498.2,183,485z M255.7,537.5c-5.4-9.4-13.3-17.1-23-22.2c16.9-14.2,19.1-39.5,4.8-56.4
	c-14.2-16.9-39.5-19.1-56.4-4.8s-19.1,39.5-4.8,56.4c1.5,1.7,3.1,3.4,4.8,4.8c-9.6,5-17.6,12.7-23,22.2c-4.2-6-9.7-11-16.1-14.5
	c12.3-12.5,12-32.7-0.5-44.9c-8.1-7.9-19.7-10.9-30.6-7.9V173h192v297.1c-2.6-0.7-5.3-1.1-8-1.1c-17.6,0-32,14.2-32,31.8
	c0,8.2,3.2,16.2,8.9,22.1C265.4,526.5,259.9,531.5,255.7,537.5z M327,589v32h-64v-56c0-17.7,14.3-32,32-32s32,14.3,32,32V589z
	 M407,621h-64v-32c0-17.7,14.3-32,32-32s32,14.3,32,32V621z M359,525c0-8.8,7.2-16,16-16s16,7.2,16,16s-7.2,16-16,16
	C366.2,541,359,533.8,359,525z M431,565h-14.5c-4.4-7.6-10.7-13.8-18.4-18c12.2-12.8,11.7-33-1.1-45.2c-12.8-12.2-33-11.7-45.2,1.1
	c-11.8,12.4-11.8,31.8,0,44.2c-3.7,2-7,4.5-10.1,7.4c-3-13.4-11.6-24.8-23.6-31.4c11.5-11.9,11.8-30.6,0.9-42.9V293h112V565z"/>
<rect x="343" y="341" width="16" height="128"/>
<rect x="391" y="341" width="16" height="128"/>
<rect x="7" y="341" width="16" height="128"/>
<rect x="55" y="341" width="16" height="128"/>
<path class="st0" d="M159,269h96c4.4,0,8-3.6,8-8c0,0,0,0,0,0v-64c0-4.4-3.6-8-8-8c0,0,0,0,0,0h-96c-4.4,0-8,3.6-8,8c0,0,0,0,0,0v64
	C151,265.4,154.6,269,159,269C159,269,159,269,159,269z M167,205h80v48h-80V205z"/>
</svg>
