<?xml version="1.0" encoding="utf-8"?>
<!-- Generator: Adobe Illustrator 23.0.1, SVG Export Plug-In . SVG Version: 6.00 Build 0)  -->
<svg version="1.1" id="Calque_1" xmlns="http://www.w3.org/2000/svg" xmlns:xlink="http://www.w3.org/1999/xlink" x="0px" y="0px"
	 viewBox="0 0 130 130" style="enable-background:new 0 0 130 130;" xml:space="preserve">
<style type="text/css">
	.st0{fill:#009E70;}
</style>
<g>
	<path d="M47.6,28.6c-1.4,0-2.5,1.1-2.5,2.5c0,1.4,1.1,2.5,2.5,2.5c1.4,0,2.5-1.1,2.5-2.5C50,29.7,48.9,28.6,47.6,28.6L47.6,28.6z
		 M47.6,28.6"/>
</g>
<path class="st0" d="M42.6,23.9c1.3-0.5,1.9-1.9,1.5-3.1c-1.5-4.3-1-7.7,1.7-10.4c3.3-3.3,8.7-3.3,12.1,0c2.6,2.6,6.6,2.6,9.2,0
	c3.3-3.3,8.7-3.3,12.1,0c2.4,2.4,3.1,5.4,2.1,9c-2.5,9.2-13.9,18.6-18.8,20.5c-1.4-0.5-3.4-1.7-5.4-3.2c-1.1-0.8-2.6-0.6-3.4,0.5
	c-0.8,1.1-0.6,2.6,0.5,3.4c2.9,2.2,5.7,3.7,7.7,4.3c0.2,0.1,0.4,0.1,0.6,0.1c0.2,0,0.4,0,0.6-0.1c3.3-0.9,8.3-4.2,12.7-8.5
	c3-3,8.4-8.9,10.2-15.6c1.4-5.4,0.3-10.1-3.4-13.8c-5.2-5.2-13.8-5.2-19,0c-0.7,0.7-1.7,0.6-2.3,0c-5.2-5.2-13.8-5.2-19,0
	c-4.1,4.1-5.1,9.4-2.9,15.5C40,23.7,41.4,24.4,42.6,23.9L42.6,23.9z M42.6,23.9"/>
<path d="M117,105.8c0.9-1.6,1.4-3.5,1.4-5.5v-4.7c0-5.1-3.3-9.5-7.9-11.2c-0.9-5.1-3.9-9.5-8.1-12.4c0.9-1.6,1.3-3.5,1.3-5.5v-4.7
	c0-6.6-5.3-11.9-11.9-11.9c-6.6,0-11.9,5.4-11.9,11.9v4.7c0,2,0.5,3.9,1.3,5.5c-1.5,1-2.9,2.3-4.1,3.7C76,74.2,74.6,73,73.1,72
	c0.9-1.6,1.4-3.5,1.4-5.5v-4.7c0-6.6-5.4-11.9-11.9-11.9c-6.6,0-11.9,5.4-11.9,11.9v4.7c0,2,0.5,3.9,1.4,5.5c-1.5,1-2.9,2.3-4.1,3.7
	c-1.2-1.4-2.5-2.7-4.1-3.7c0.9-1.6,1.4-3.5,1.4-5.5v-4.7c0-6.6-5.3-11.9-11.9-11.9c-6.6,0-11.9,5.4-11.9,11.9v4.7
	c0,2,0.5,3.9,1.3,5.5c-4.3,2.9-7.2,7.3-8.1,12.4C9.9,86,6.6,90.4,6.6,95.6v4.7c0,2,0.5,3.9,1.4,5.5c-5.3,3.5-8.5,9.4-8.5,15.8v6
	c0,1.4,1.1,2.5,2.5,2.5h121c1.4,0,2.5-1.1,2.5-2.5v-6C125.5,115.2,122.3,109.3,117,105.8L117,105.8z M113.5,95.6v4.7
	c0,3.9-3.1,7-7,7c-3.9,0-7-3.1-7-7v-4.7c0-3.9,3.1-7,7-7C110.3,88.5,113.5,91.7,113.5,95.6L113.5,95.6z M105.3,83.7
	c-6,0.6-10.8,5.7-10.8,11.9v4.7c0,2,0.5,3.9,1.4,5.5c-1.5,1-2.9,2.3-4.1,3.7c-1.2-1.4-2.5-2.6-4.1-3.7c0.9-1.6,1.4-3.5,1.4-5.5v-4.7
	c0-6.2-4.7-11.3-10.8-11.9c1-3.2,3.2-6.1,6.1-7.9c2,1.6,4.6,2.6,7.4,2.6c2.8,0,5.4-1,7.4-2.6C102.1,77.6,104.3,80.4,105.3,83.7
	L105.3,83.7z M70.2,100.3v-4.7c0-3.9,3.1-7,7-7c3.9,0,7,3.1,7,7v4.7c0,3.9-3.1,7-7,7C73.3,107.3,70.2,104.1,70.2,100.3L70.2,100.3z
	 M84.8,61.7c0-3.9,3.1-7,7-7c3.9,0,7,3.1,7,7v4.7c0,3.9-3.1,7-7,7c-3.9,0-7-3.1-7-7V61.7z M55.5,61.7c0-3.9,3.1-7,7-7
	c3.9,0,7,3.1,7,7v4.7c0,3.9-3.1,7-7,7c-3.9,0-7-3.1-7-7V61.7z M55.1,75.8c2,1.6,4.6,2.6,7.4,2.6c2.8,0,5.4-1,7.4-2.6
	c1.8,1.1,3.3,2.6,4.4,4.4c-0.6,1.3-1,2.7-1.3,4.2c-4.6,1.7-7.9,6.1-7.9,11.2v4.7c0,2,0.5,3.9,1.4,5.5c-1.6,1-2.9,2.3-4.1,3.7
	c-1.2-1.4-2.5-2.6-4.1-3.7c0.9-1.6,1.4-3.5,1.4-5.5v-4.7c0-5.1-3.3-9.5-7.9-11.2c-0.3-1.4-0.7-2.8-1.3-4.2
	C51.8,78.4,53.3,76.9,55.1,75.8L55.1,75.8z M40.9,100.3v-4.7c0-3.9,3.1-7,7-7c3.9,0,7,3.1,7,7v4.7c0,3.9-3.1,7-7,7
	C44,107.3,40.9,104.1,40.9,100.3L40.9,100.3z M26.2,61.7c0-3.9,3.1-7,7-7c3.9,0,7,3.1,7,7v4.7c0,3.9-3.1,7-7,7c-3.9,0-7-3.1-7-7
	V61.7z M25.8,75.8c2,1.6,4.6,2.6,7.4,2.6c2.8,0,5.4-1,7.4-2.6c2.9,1.8,5.1,4.7,6.1,7.9c-6,0.6-10.8,5.7-10.8,11.9v4.7
	c0,2,0.5,3.9,1.4,5.5c-1.6,1-2.9,2.3-4.1,3.7c-1.2-1.4-2.5-2.6-4.1-3.7c0.9-1.6,1.4-3.5,1.4-5.5v-4.7c0-6.2-4.7-11.3-10.8-11.9
	C20.7,80.4,22.9,77.6,25.8,75.8L25.8,75.8z M11.6,95.6c0-3.9,3.1-7,7-7c3.9,0,7,3.1,7,7v4.7c0,3.9-3.1,7-7,7c-3.9,0-7-3.1-7-7V95.6z
	 M4.5,121.6c0-4.9,2.5-9.4,6.7-12c2,1.6,4.6,2.6,7.4,2.6c2.8,0,5.4-1,7.4-2.6c1.8,1.1,3.3,2.6,4.4,4.4c-1,2.4-1.6,4.9-1.6,7.6v3.5
	H4.5V121.6z M33.8,121.6c0-4.9,2.5-9.4,6.7-12c2,1.6,4.6,2.6,7.4,2.6c2.8,0,5.4-1,7.4-2.6c1.8,1.1,3.3,2.6,4.4,4.4
	c-1,2.4-1.6,4.9-1.6,7.6v3.5H33.8V121.6z M63.1,121.6c0-4.9,2.5-9.4,6.7-12c2,1.6,4.6,2.6,7.4,2.6c2.8,0,5.4-1,7.4-2.6
	c4.2,2.6,6.7,7.1,6.7,12v3.5H63.1V121.6z M120.6,125.1H96.2v-3.5c0-2.7-0.6-5.3-1.6-7.6c1.1-1.8,2.7-3.3,4.4-4.4
	c2,1.6,4.6,2.6,7.4,2.6c2.8,0,5.4-1,7.4-2.6c4.2,2.6,6.7,7.1,6.7,12L120.6,125.1L120.6,125.1z M120.6,125.1"/>
</svg>
