<svg xmlns="http://www.w3.org/2000/svg" viewBox="0 0 500 500"><defs><style>.a{fill:#2b387d;}</style></defs><path class="a" d="M470.31,369.45l-68.16-68.19a48.6,48.6,0,0,0-34.51-14.12,50.92,50.92,0,0,0-36.23,15.1l-26.53,26.53c-20.62-11.46-48-27.22-76.48-55.67s-44.17-55.76-55.7-76.49l26.56-26.53c19.75-19.79,20.15-51.53.91-70.76L132,31.17A48.39,48.39,0,0,0,97.5,17,51,51,0,0,0,61.89,31.45C56,36.16,26.66,62.09,15.72,115.56.39,190.41,35.61,262.42,137.27,364.11,250.83,477.64,347.78,486.46,374.79,486.46a88.49,88.49,0,0,0,9.91-.45c53-6.2,71.93-29.73,85.77-46.9,17.95-22.25,17.89-51.55-.16-69.66Zm-22.62,51.29c-13,16.14-25.3,31.39-66.39,36.2a60.68,60.68,0,0,1-6.51.26c-24.17,0-111.23-8.2-216.83-113.78-93.75-93.78-126.65-158.11-113.57-222C53.94,74.79,79.28,55,80.27,54.22l.87-.65.77-.78A22,22,0,0,1,97.5,46.24a19.33,19.33,0,0,1,13.81,5.61L179.47,120c7.84,7.83,7.43,21-.92,29.37l-30,30-.49.51c-7.83,8.63-6.91,20.28-2.6,27.86,12.45,22.46,29.49,53.21,62.28,86s63.38,49.71,85.77,62.13a26.43,26.43,0,0,0,12.66,3.37,23.36,23.36,0,0,0,17.77-8.17l28.19-28.18a21.83,21.83,0,0,1,15.53-6.52A19.48,19.48,0,0,1,381.48,322l68.11,68.14c8.66,8.69,5.08,22-1.9,30.62Zm0,0"/><path class="a" d="M298,88.67c25.14,2.9,54.75,18.13,75.41,38.8,20.87,20.87,36.14,50.77,38.89,76.19a14.62,14.62,0,0,0,14.53,13.05,14.44,14.44,0,0,0,1.6-.09,14.62,14.62,0,0,0,13-16.12c-3.48-32.12-21.6-68-47.28-93.72-25.44-25.44-61-43.52-92.77-47.18A14.63,14.63,0,0,0,298,88.67Zm0,0"/><path class="a" d="M284.32,150c13.61,1.57,32.43,11.65,44.75,24s22.54,31.42,24,45.17a14.64,14.64,0,0,0,14.52,13.06,14.3,14.3,0,0,0,1.6-.09,14.63,14.63,0,0,0,13-16.13c-2.55-23.46-18.12-48.41-32.43-62.71s-38.88-29.68-62.09-32.37A14.64,14.64,0,0,0,284.32,150Zm0,0"/></svg>