<?xml version="1.0" encoding="utf-8"?>
<!-- Generator: Adobe Illustrator 23.0.1, SVG Export Plug-In . SVG Version: 6.00 Build 0)  -->
<svg version="1.1" id="Capa_1" xmlns="http://www.w3.org/2000/svg" xmlns:xlink="http://www.w3.org/1999/xlink" x="0px" y="0px"
	 viewBox="-49 141 512 512" style="enable-background:new -49 141 512 512; fill-opacity: .05;" xml:space="preserve" >
<path d="M461.1,415.4l-1.7-10.8l-10.8-1.7c-0.8-0.1-14.5-2.2-35.1-1.8c0.9-8.5,1.4-17,1.4-25.5c0-62-24.1-120.2-68-164.1
	s-102.1-68-164.1-68c-62,0-120.2,24.1-164,68S-49,313.7-49,375.6s24.1,120.2,67.9,164c43.8,43.8,102.1,68,164,68
	c8.5,0,17-0.5,25.5-1.4c-0.4,20.6,1.7,34.3,1.8,35.1L212,652l10.8,1.7c0.7,0.1,12.1,1.9,29.5,1.9c9.7,0,21.4-0.5,34.1-2.2
	c47.7-6.2,88.8-25.4,118.9-55.5c30.1-30.1,49.3-71.2,55.5-118.9C465.5,443.4,461.3,416.5,461.1,415.4z M383.1,403.6
	c-5.5,0.8-11,1.7-16.3,2.8c-7.1-10.9-10.3-21.6-10.8-23.3c-6.1-28-22.9-42.4-51.3-44.1c-3.8-0.2-10.5-1.6-13.2-8.5
	c-3.7-9.2,0.9-23.7,8.7-27.8c6.7-3.5,15.6-4.5,25-5.5c5.7-0.6,11.6-1.2,17.5-2.5c8.5-1.8,15.8-4.8,21.5-8.8c13.4,27,21,57.4,21,89.6
	C385,385,384.3,394.3,383.1,403.6z M256.9,187.6c-3.3,8.4-9.3,19.4-19.6,25.8c-9.9,6.2-22.2,7-37.5,2.6
	c-11.5-3.3-21.6-13.8-24.5-25.6c-1.6-6.4-0.8-12,2.4-16.8c1.8,0,3.5-0.1,5.3-0.1C209.1,173.6,234,178.6,256.9,187.6z M47.4,226
	c16,2.8,29.2,10.9,33.9,21.1c3.4,7.4,2,15.7-4.3,24.6c-29.5,42-15.7,76.2,5,92.7c11.1,8.9,25,13.8,39.1,13.9c0.1,0,0.2,0,0.3,0
	c15.4,0,29.2-5.9,38.9-16.6c1.4-1.5,14-14.5,31.7-0.3c1.9,1.5,17.8,15,6.4,31c-29.3,41.3-13,85.1-4.7,101.9c5,10,1.5,17.3-3,20.5
	c-5.8,4.1-13.3,2.4-20.2-4.6c-1.4-1.4-4-7.4-6-11.8c-6.2-14.2-15.6-35.6-38.1-54.1c-5.7-4.7-11.7-9.7-18-15.1
	c-15.6-13.2-31.7-26.8-44.6-35.9c-17.6-12.3-35.9-20.2-52.1-27.1c-10.6-4.5-20.6-8.8-29.3-13.9C-11.9,302.5,12.1,258.1,47.4,226z
	 M-18.8,385.6c6,2.8,12.2,5.5,18.6,8.2c15.6,6.7,31.7,13.6,46.8,24.1c11.8,8.3,27.4,21.4,42.4,34.2c6.4,5.4,12.5,10.6,18.3,15.4
	c17,14,24.1,30.1,29.7,43c3.7,8.3,6.8,15.5,12.1,20.8c11,11.2,23.3,15.7,34.6,15.7c9.2,0,17.7-3,24.4-7.7
	c18-12.8,23.1-36.8,12.5-58.2c-6-12.1-17.7-43.1,2.3-71.3c8.6-12.1,11.5-26.5,8.3-40.4c-2.8-12-10-23.1-20.4-31.4
	c-10.3-8.3-22.8-13-35.1-13.1c-0.2,0-0.5,0-0.7,0c-14,0-27.1,5.9-36.8,16.7c-9.2,10.1-26.7,7.9-37.4-0.6
	c-14.5-11.6-14.2-30.6,0.9-52.1c12.5-17.8,14.9-37.1,7-54.4c-6-12.9-17.4-23.5-32-30.5c20.6-12.8,43.7-22,68.4-26.8
	c-0.9,6.6-0.6,13.5,1.1,20.4c5.4,22,23.6,41,45.3,47.3c9.1,2.6,17.8,3.9,26,3.9c13.1,0,25-3.3,35.6-9.9
	c16.2-10.1,25.6-25.8,30.8-38.2c26.1,15.1,48.5,35.9,65.5,60.6l-1.4,0.2c-0.1-0.4,0.1-1.2,0.3-1.5c-0.8,1.1-5.2,3.9-12,5.4
	c-4.4,0.9-9.3,1.5-14.5,2c-11.2,1.2-23.9,2.6-35.7,8.7c-21.5,11.3-32.1,41.9-22.6,65.5c6.4,16,21.1,26.2,39.4,27.3
	c13.3,0.8,20.3,4.1,23.8,20.8l0.2,0.7c0.2,0.6,3,11.4,10,24.3c-27.4,9.8-51.3,24.6-70.7,44c-29.7,29.7-48.7,70-55.2,116.9
	c-9.3,1.3-18.6,1.9-27.9,1.9C75,577.6-13.5,492.4-18.8,385.6z M430.9,476c-5.6,41.2-21.3,75.1-46.9,100.6
	c-25.5,25.5-59.4,41.3-100.6,46.9c-8.5,1.1-16.5,1.7-23.6,1.9l86.5-86.5l-21.2-21.2l-86.5,86.5c0.2-7.1,0.8-15.1,1.9-23.6
	c5.6-41.2,21.3-75.1,46.9-100.6s59.4-41.3,100.6-46.9c18.5-2.5,34.5-2.3,44.6-1.7C433.2,441.6,433.4,457.5,430.9,476z"/>
</svg>
