<svg xmlns="http://www.w3.org/2000/svg" viewBox="0 0 500 500"><defs><style>.a{fill:#2a377c;}</style></defs><path class="a" d="M249.86,448.53c-110.87,0-201.59-89.46-201.59-198.8S139,50.93,249.86,50.93s201.6,89.46,201.6,198.8-90.72,198.8-201.6,198.8Zm0-377.72c-100.79,0-181.43,79.52-181.43,178.92s80.64,178.92,181.43,178.92S431.3,349.13,431.3,249.73,350.66,70.81,249.86,70.81Zm0,0"/><path class="a" d="M249.86,451.88A205,205,0,0,1,105.08,392.5c-38.83-38.29-60.21-89-60.21-142.77S66.25,145.25,105.08,107a206.2,206.2,0,0,1,289.57,0c38.83,38.29,60.21,89,60.21,142.77S433.48,354.21,394.65,392.5A205,205,0,0,1,249.86,451.88Zm0-397.59a198.17,198.17,0,0,0-140,57.41c-37.55,37-58.23,86.05-58.23,138s20.68,101,58.23,138a199.32,199.32,0,0,0,279.93,0c37.55-37,58.22-86.05,58.22-138s-20.67-101-58.22-138A198.18,198.18,0,0,0,249.86,54.29Zm0,377.71c-49.65,0-96.15-18.88-130.92-53.16a181.56,181.56,0,0,1,0-258.22c34.77-34.28,81.27-53.16,130.92-53.16S346,86.34,380.79,120.62a181.56,181.56,0,0,1,0,258.22C346,413.12,299.52,432,249.86,432Zm0-357.83c-47.84,0-92.62,18.18-126.1,51.2a174.87,174.87,0,0,0,0,248.72c33.48,33,78.26,51.2,126.1,51.2s92.63-18.18,126.11-51.2a174.89,174.89,0,0,0,0-248.72C342.49,92.35,297.71,74.17,249.86,74.17Z"/><path class="a" d="M249.86,110.57c-6,0-10.08-4-10.08-9.94V21.12c0-6,4-9.94,10.08-9.94s10.08,4,10.08,9.94v79.51c0,6-4,9.94-10.08,9.94Zm0,0"/><path class="a" d="M249.86,113.93c-7.93,0-13.48-5.47-13.48-13.3V21.12c0-7.83,5.55-13.3,13.48-13.3s13.49,5.47,13.49,13.3v79.51C263.35,108.46,257.8,113.93,249.86,113.93Zm0-99.4c-4.18,0-6.67,2.46-6.67,6.59v79.51c0,4.13,2.49,6.59,6.67,6.59s6.68-2.46,6.68-6.59V21.12C256.54,17,254,14.53,249.86,14.53Z"/><path class="a" d="M249.86,110.57c-6,0-10.08-4-10.08-9.94V21.12c0-6,4-9.94,10.08-9.94s10.08,4,10.08,9.94v79.51c0,6-4,9.94-10.08,9.94Zm0,0"/><path class="a" d="M249.86,113.93c-7.93,0-13.48-5.47-13.48-13.3V21.12c0-7.83,5.55-13.3,13.48-13.3s13.49,5.47,13.49,13.3v79.51C263.35,108.46,257.8,113.93,249.86,113.93Zm0-99.4c-4.18,0-6.67,2.46-6.67,6.59v79.51c0,4.13,2.49,6.59,6.67,6.59s6.68-2.46,6.68-6.59V21.12C256.54,17,254,14.53,249.86,14.53Z"/><path class="a" d="M481.7,259.67H401.06c-6.05,0-10.08-4-10.08-9.94s4-9.94,10.08-9.94H481.7c6.05,0,10.08,4,10.08,9.94s-4,9.94-10.08,9.94Zm0,0"/><path class="a" d="M481.7,263H401.06c-7.94,0-13.48-5.47-13.48-13.3s5.54-13.3,13.48-13.3H481.7c7.94,0,13.48,5.47,13.48,13.3S489.64,263,481.7,263Zm-80.64-19.88c-4.18,0-6.68,2.46-6.68,6.58s2.5,6.58,6.68,6.58H481.7c4.18,0,6.67-2.46,6.67-6.58s-2.49-6.58-6.67-6.58Z"/><path class="a" d="M249.86,488.29c-6,0-10.08-4-10.08-9.94V398.83c0-6,4-9.94,10.08-9.94s10.08,4,10.08,9.94v79.52c0,6-4,9.94-10.08,9.94Zm0,0"/><path class="a" d="M249.86,491.64c-7.93,0-13.48-5.46-13.48-13.29V398.83c0-7.83,5.55-13.3,13.48-13.3s13.49,5.47,13.49,13.3v79.52C263.35,486.18,257.8,491.64,249.86,491.64Zm0-99.4c-4.18,0-6.67,2.47-6.67,6.59v79.52c0,4.12,2.49,6.58,6.67,6.58s6.68-2.46,6.68-6.58V398.83C256.54,394.71,254,392.24,249.86,392.24Z"/><path class="a" d="M98.67,259.67H18C12,259.67,8,255.7,8,249.73s4-9.94,10.08-9.94H98.67c6,0,10.08,4,10.08,9.94s-4,9.94-10.08,9.94Zm0,0"/><path class="a" d="M98.67,263H18c-7.94,0-13.48-5.47-13.48-13.3s5.54-13.3,13.48-13.3H98.67c7.94,0,13.48,5.47,13.48,13.3S106.61,263,98.67,263ZM18,243.15c-4.18,0-6.67,2.46-6.67,6.58s2.49,6.58,6.67,6.58H98.67c4.18,0,6.68-2.46,6.68-6.58s-2.5-6.58-6.68-6.58Z"/><path class="a" d="M249.86,229.85c-22.17,0-40.31-17.89-40.31-39.76s18.14-39.76,40.31-39.76,40.32,17.89,40.32,39.76S272,229.85,249.86,229.85Zm0-59.64c-12.09,0-20.16,7.95-20.16,19.88S237.77,210,249.86,210,270,202,270,190.09s-8.06-19.88-20.16-19.88Zm0,0"/><path class="a" d="M249.86,233.21c-24.1,0-43.72-19.34-43.72-43.12S225.76,147,249.86,147s43.73,19.34,43.73,43.11S274,233.21,249.86,233.21Zm0-79.52c-20.35,0-36.91,16.33-36.91,36.4s16.56,36.41,36.91,36.41,36.92-16.34,36.92-36.41S270.22,153.69,249.86,153.69Zm0,59.64c-13.87,0-23.56-9.56-23.56-23.24s9.69-23.23,23.56-23.23,23.57,9.55,23.57,23.23S263.74,213.33,249.86,213.33Zm0-39.76c-10.17,0-16.75,6.49-16.75,16.52s6.58,16.53,16.75,16.53,16.76-6.49,16.76-16.53S260,173.57,249.86,173.57Z"/><path class="a" d="M320.42,329.25c-6.05,0-10.08-4-10.08-9.94V299.43c0-15.91-14.11-29.82-30.24-29.82H219.63c-16.13,0-30.24,13.91-30.24,29.82v19.88c0,6-4,9.94-10.08,9.94s-10.08-4-10.08-9.94V299.43c0-27.83,22.17-49.7,50.4-49.7H280.1c28.22,0,50.4,21.87,50.4,49.7v19.88c0,6-4,9.94-10.08,9.94Zm0,0"/><path class="a" d="M320.42,332.61c-7.94,0-13.48-5.47-13.48-13.3V299.43c0-14.1-12.54-26.46-26.84-26.46H219.62c-14.29,0-26.83,12.36-26.83,26.46v19.88c0,7.83-5.54,13.3-13.48,13.3s-13.49-5.47-13.49-13.3V299.43c0-29.75,23.64-53.06,53.8-53.06H280.1c30.17,0,53.81,23.31,53.81,53.06v19.88C333.91,327.14,328.36,332.61,320.42,332.61Zm-100.8-66.36H280.1c17.93,0,33.65,15.51,33.65,33.18v19.88c0,4.12,2.49,6.58,6.67,6.58s6.68-2.46,6.68-6.58V299.43c0-26-20.64-46.34-47-46.34H219.62c-26.35,0-47,20.35-47,46.34v19.88c0,4.12,2.5,6.58,6.68,6.58s6.67-2.46,6.67-6.58V299.43C186,281.76,201.7,266.25,219.62,266.25Z"/></svg>