<svg id="Capa_1" enable-background="new 0 0 512 512" height="512" viewBox="0 0 512 512" width="512" xmlns="http://www.w3.org/2000/svg"><g><path d="m242.07 367.406c8.296 0 15.029-6.712 15.029-14.959 0-8.248-6.733-14.959-15.029-14.959h-18.258c.014-.528.032-1.059.032-1.58 0-61.272-50.048-111.12-111.566-111.12s-111.566 49.848-111.566 111.12c0 25.636 16.747 60.884 51.196 107.76 24.353 33.137 48.328 59.247 49.336 60.342 2.84 3.084 6.841 4.838 11.034 4.838 4.192 0 8.194-1.754 11.034-4.838 1.009-1.095 24.983-27.205 49.336-60.342 22.058-30.014 36.845-55.253 44.638-76.262zm-129.736 103.853c-9.111-10.574-22.721-26.943-36.253-45.357-39.476-53.715-45.37-79.441-45.37-89.995 0-44.73 36.59-81.12 81.566-81.12s81.567 36.39 81.567 81.12c0 30.991-46.183 94.626-81.51 135.352z"/><path d="m98.156 160.622c2.786 2.533 6.382 3.929 10.139 3.929.411 0 .842-.02 1.263-.05 2.424-.209 4.909-.309 7.374-.309h64.252c8.286 0 15.029-6.712 15.029-14.959 0-.1 0-.189-.01-.289-.07-3.929-1.663-7.619-4.488-10.382-2.826-2.762-6.573-4.288-10.53-4.288h-64.252c-3.276 0-6.602.14-9.879.409-3.777.319-7.274 2.024-9.829 4.817-2.555 2.762-3.948 6.352-3.948 10.092 0 .419.02.838.06 1.247.311 3.76 2.024 7.24 4.819 9.783z"/><path d="m14.167 259.81c.29.02.581.03.881.03 7.945 0 14.528-6.193 14.988-14.092v-.01c.611-10.541 3.106-20.733 7.424-30.307 4.178-9.285 9.939-17.711 17.132-25.061 2.755-2.812 4.268-6.522 4.258-10.451 0-4.069-1.613-7.869-4.538-10.701-2.815-2.742-6.543-4.249-10.49-4.249-4.088 0-7.905 1.606-10.76 4.518-19.678 20.085-31.41 46.553-33.033 74.526-.019.29-.029.579-.029.869-.01 7.918 6.212 14.47 14.167 14.928z"/><path d="m319.477 365.182c-2.835-3.022-6.833-4.747-10.991-4.747-3.817 0-7.454 1.437-10.249 4.029-3.036 2.822-4.779 6.822-4.769 10.96 0 3.8 1.443 7.409 4.048 10.182 4.89 5.225 8.717 11.189 11.362 17.731 2.745 6.792 4.138 13.992 4.138 21.401 0 4.787-.591 9.534-1.753 14.112-.01.05-.03.11-.04.159l-.01.03v.02c-.311 1.216-.471 2.473-.471 3.72 0 6.821 4.649 12.775 11.291 14.47 1.232.309 2.495.469 3.747.469 6.863 0 12.845-4.617 14.548-11.239v-.01c1.824-7.07 2.746-14.38 2.746-21.73 0-11.229-2.124-22.189-6.312-32.561-4.06-10.022-9.871-19.107-17.285-26.996z"/><path d="m277.988 478.522c-1.583 0-3.146.249-4.659.738-.01 0-.01 0-.01 0-.07.02-.13.04-.19.059-5.701 1.835-11.662 2.762-17.714 2.762h-49.945c-8.286 0-15.029 6.712-15.029 14.959s6.743 14.959 15.029 14.959h49.964c9.288 0 18.445-1.446 27.212-4.298 6.212-2.025 10.379-7.749 10.37-14.241-.01-1.566-.261-3.121-.751-4.628-2.024-6.161-7.765-10.31-14.277-10.31z"/><path d="m251.904 164.235h35.568c8.284 0 15-6.716 15-15s-6.716-15-15-15h-35.568c-8.284 0-15 6.716-15 15s6.716 15 15 15z"/><path d="m112.277 324.979c8.284 0 15 6.716 15 15v.199c0 8.284-6.716 15-15 15s-15-6.716-15-15v-.199c0-8.284 6.716-15 15-15m0-30c-24.813 0-45 20.187-45 45v.199c0 24.813 20.187 45 45 45s45-20.187 45-45v-.199c0-24.813-20.187-45-45-45z"/><path d="m504.474 75.688-128.234-73.693c-4.642-2.668-10.353-2.659-14.987.023-4.633 2.682-7.487 7.629-7.487 12.983v3.753 143.634 120.388c0 8.284 6.716 15 15 15s15-6.716 15-15v-111.708l120.708-69.369c4.655-2.675 7.526-7.636 7.526-13.005 0-5.37-2.87-10.33-7.526-13.006zm-120.708 60.779v-95.546l83.13 47.773z"/></g></svg>