<svg xmlns="http://www.w3.org/2000/svg" viewBox="0 0 500 500"><defs><style>.a{fill:#2b387d;}</style></defs><path class="a" d="M382.72,162.93a75.2,75.2,0,1,1,75.2-75.2,75.29,75.29,0,0,1-75.2,75.2Zm0-120.32a45.12,45.12,0,1,0,45.12,45.12,45.18,45.18,0,0,0-45.12-45.12Zm0,0"/><path class="a" d="M382.72,493.79a75.2,75.2,0,1,1,75.2-75.2,75.29,75.29,0,0,1-75.2,75.2Zm0-120.31a45.12,45.12,0,1,0,45.12,45.11,45.17,45.17,0,0,0-45.12-45.11Zm0,0"/><path class="a" d="M92,328.36a75.2,75.2,0,1,1,75.2-75.2A75.29,75.29,0,0,1,92,328.36ZM92,208a45.12,45.12,0,1,0,45.12,45.12A45.18,45.18,0,0,0,92,208Zm0,0"/><path class="a" d="M144.32,238.52a15,15,0,0,1-7.46-28.09L322.93,104.35a15,15,0,0,1,14.87,26.13L151.74,236.56a15.09,15.09,0,0,1-7.42,2Zm0,0"/><path class="a" d="M330.37,404a15,15,0,0,1-7.43-2L136.88,295.89a15,15,0,0,1,14.88-26.13L337.82,375.84A15.05,15.05,0,0,1,330.37,404Zm0,0"/></svg>