<svg xmlns="http://www.w3.org/2000/svg" viewBox="0 0 500 500"><defs><style>.a{fill:#2a377c;}</style></defs><path class="a" d="M14.65,500H280.29a14.64,14.64,0,0,0,14.64-14.65V454.1a44,44,0,0,0-29.29-41.43V393.61a42.1,42.1,0,0,0-42.06-42.05H71.35a42.09,42.09,0,0,0-42,42.05v19.06A44,44,0,0,0,0,454.1v31.25A14.65,14.65,0,0,0,14.65,500Zm56.7-119.14H223.58a12.77,12.77,0,0,1,12.76,12.75v16.55H58.6V393.61a12.76,12.76,0,0,1,12.75-12.75Zm-42,73.24A14.66,14.66,0,0,1,44,439.45H251a14.67,14.67,0,0,1,14.66,14.65v16.6H29.3Zm0,0"/><path class="a" d="M168.74,305a43.93,43.93,0,0,0,78.73-31.63A172.94,172.94,0,0,0,283.81,263L421,445.13a43.95,43.95,0,1,0,70.22-52.86L354,210.09a172.45,172.45,0,0,0,20-32,43.95,43.95,0,0,0,52.17-66.93L355.72,17.5A43.93,43.93,0,0,0,277,49.13,172.46,172.46,0,0,0,150.43,144.4a44,44,0,0,0-52.18,66.94Zm164.93-73.19,19.56,26-23.4,17.62-19.56-26a173.65,173.65,0,0,0,23.4-17.62ZM464.88,430.4a14.66,14.66,0,0,1-20.51-2.89L347.45,298.77l23.4-17.62,96.92,128.74a14.66,14.66,0,0,1-2.89,20.51ZM311.8,32.23a14.67,14.67,0,0,1,20.52,2.89l70.48,93.63a14.65,14.65,0,1,1-23.4,17.62L308.91,52.74a14.66,14.66,0,0,1,2.89-20.51ZM290.37,76.82l60.76,80.71a143.49,143.49,0,0,1-117,88.11l-60.76-80.71a143.34,143.34,0,0,1,117-88.11ZM124.55,173.2a14.65,14.65,0,0,1,20.52,2.89l70.48,93.63h0a14.65,14.65,0,1,1-23.4,17.62l-70.49-93.62a14.65,14.65,0,0,1,2.89-20.52Zm0,0"/></svg>