<?xml version="1.0" encoding="utf-8"?>
<!-- Generator: Adobe Illustrator 25.4.1, SVG Export Plug-In . SVG Version: 6.00 Build 0)  -->
<svg version="1.1" id="Mode_Isolation" xmlns="http://www.w3.org/2000/svg" xmlns:xlink="http://www.w3.org/1999/xlink" x="0px"
	 y="0px" viewBox="0 0 500 500" style="enable-background:new 0 0 500 500;" xml:space="preserve">
<style type="text/css">
	.st0{fill:#2A377C;}
	.st1{fill:#2B387D;}
	.st2{fill:none;stroke:#2A377C;stroke-width:30;stroke-linecap:round;stroke-linejoin:round;stroke-miterlimit:10;}
	.st3{clip-path:url(#SVGID_00000025408776062258629850000000954596965007954877_);}
	.st4{fill:#2B387D;stroke:#2B387D;stroke-width:2;stroke-miterlimit:10;}
	.st5{fill:#2B387D;stroke:#2B387D;stroke-width:5;stroke-miterlimit:10;}
	.st6{fill-rule:evenodd;clip-rule:evenodd;fill:#2B387D;}
	.st7{fill:#67B5A9;}
	.st8{fill:#D96552;}
	.st9{fill:#FCC104;}
	.st10{fill:#FFFFFF;}
	.st11{clip-path:url(#SVGID_00000030484156663747861270000003960978799579337102_);}
	.st12{fill-rule:evenodd;clip-rule:evenodd;fill:#FFFFFF;}
</style>
<path class="st8" d="M404.01,175.52C404.01,281.58,250,489.19,250,489.19S95.99,281.58,95.99,175.52
	c0-85.06,68.95-154.01,154.01-154.01S404.01,90.46,404.01,175.52z"/>
<g>
	<path class="st10" d="M327.08,107.76h-49.74V84.53c0-3.43-2.78-6.21-6.21-6.21h-44.25c-3.43,0-6.21,2.78-6.21,6.21v23.23h-49.74
		c-3.43,0-6.21,2.78-6.21,6.21v25.02c0,3.43,2.78,6.21,6.21,6.21h1.12l9.23,138.71c0.22,3.26,2.93,5.8,6.2,5.8h123.07
		c3.27,0,5.98-2.54,6.2-5.8l9.23-138.71h1.12c3.43,0,6.21-2.78,6.21-6.21v-25.02C333.29,110.54,330.51,107.76,327.08,107.76
		L327.08,107.76z M233.09,90.74h31.82v17.02h-31.82V90.74z M177.13,120.19h143.73v12.59H177.13V120.19z M304.72,277.29H193.28
		l-8.79-132.09h129.02L304.72,277.29z M304.72,277.29"/>
	<path class="st10" d="M227.56,187.44c4.97-4.97,11.58-7.71,18.62-7.71c7.03,0,13.64,2.74,18.62,7.71c3.3,3.31,5.62,7.34,6.8,11.73
		c-2.43-1.81-5.88-1.61-8.09,0.59c-2.43,2.43-2.43,6.36,0,8.79l10.82,10.82c1.17,1.17,2.75,1.82,4.39,1.82
		c1.65,0,3.23-0.65,4.39-1.82l10.82-10.82c2.43-2.43,2.43-6.36,0-8.79c-2.43-2.43-6.36-2.43-8.78,0l-0.63,0.63
		c-1.2-8.2-4.98-15.77-10.94-21.73c-7.32-7.32-17.05-11.35-27.4-11.35c-10.35,0-20.09,4.03-27.4,11.35c-2.43,2.43-2.43,6.36,0,8.78
		C221.2,189.87,225.13,189.87,227.56,187.44L227.56,187.44z M227.56,187.44"/>
	<path class="st10" d="M212.85,222.73l0.63-0.63c1.2,8.2,4.97,15.77,10.94,21.73c7.32,7.32,17.05,11.35,27.4,11.35
		c10.35,0,20.09-4.03,27.4-11.35c2.43-2.43,2.43-6.36,0-8.78c-2.43-2.43-6.36-2.43-8.78,0c-4.97,4.97-11.59,7.71-18.62,7.71
		c-7.03,0-13.64-2.74-18.62-7.71c-3.3-3.31-5.62-7.34-6.8-11.73c1.09,0.81,2.39,1.23,3.7,1.23c1.59,0,3.18-0.61,4.39-1.82
		c2.43-2.43,2.43-6.36,0-8.79l-10.82-10.82c-2.43-2.43-6.36-2.43-8.78,0l-10.82,10.82c-2.43,2.43-2.43,6.36,0,8.79
		C206.5,225.16,210.43,225.16,212.85,222.73L212.85,222.73z M212.85,222.73"/>
</g>
</svg>
