<?xml version="1.0" encoding="utf-8"?>
<!-- Generator: Adobe Illustrator 25.4.1, SVG Export Plug-In . SVG Version: 6.00 Build 0)  -->
<svg version="1.1" id="Mode_Isolation" xmlns="http://www.w3.org/2000/svg" xmlns:xlink="http://www.w3.org/1999/xlink" x="0px"
	 y="0px" viewBox="0 0 500 500" style="enable-background:new 0 0 500 500;" xml:space="preserve">
<style type="text/css">
	.st0{fill:#2A377C;}
	.st1{fill:#2B387D;}
	.st2{fill:none;stroke:#2A377C;stroke-width:30;stroke-linecap:round;stroke-linejoin:round;stroke-miterlimit:10;}
	.st3{clip-path:url(#SVGID_00000126300485446483531900000012713763113628133001_);}
	.st4{fill:#2B387D;stroke:#2B387D;stroke-width:2;stroke-miterlimit:10;}
	.st5{fill:#2B387D;stroke:#2B387D;stroke-width:5;stroke-miterlimit:10;}
	.st6{fill-rule:evenodd;clip-rule:evenodd;fill:#2B387D;}
	.st7{fill:#67B5A9;}
	.st8{fill:#D96552;}
	.st9{fill:#FCC104;}
	.st10{fill:#FFFFFF;}
	.st11{clip-path:url(#SVGID_00000174564784801946731370000001282954111162227075_);}
	.st12{fill-rule:evenodd;clip-rule:evenodd;fill:#FFFFFF;}
</style>
<path class="st0" d="M400.28,175.52c0,106.06-154.01,313.67-154.01,313.67S92.25,281.58,92.25,175.52
	c0-85.06,68.95-154.01,154.01-154.01S400.28,90.46,400.28,175.52z"/>
<path class="st10" d="M350.15,153.33c2.57-0.92,4.29-3.35,4.29-6.08c0-2.73-1.73-5.16-4.3-6.07l-103.58-36.55
	c-1.39-0.49-2.9-0.49-4.29,0l-103.58,36.55c-2.58,0.91-4.3,3.34-4.3,6.07c0,2.73,1.71,5.17,4.29,6.08l41.03,14.59v42.06
	c0,6.94,7.24,12.81,21.52,17.45c12.45,4.04,27.79,6.27,43.19,6.27c15.4,0,30.74-2.22,43.19-6.27c14.28-4.64,21.52-10.51,21.52-17.45
	v-42.06l16.94-6.02v58.27c-7.53,2.66-12.95,9.85-12.95,18.29c0,8.43,5.41,15.63,12.95,18.29v24.62c0,3.56,2.89,6.45,6.45,6.45
	c3.56,0,6.45-2.89,6.45-6.45v-24.62c7.54-2.66,12.95-9.85,12.95-18.29c0-8.43-5.41-15.63-12.95-18.29v-62.86L350.15,153.33z
	 M332.5,244.96c-3.58,0-6.5-2.91-6.5-6.5c0-3.58,2.92-6.5,6.5-6.5c3.58,0,6.5,2.92,6.5,6.5C339,242.05,336.09,244.96,332.5,244.96
	L332.5,244.96z M244.4,117.55l84.27,29.73l-84.27,29.96l-84.27-29.96L244.4,117.55z M296.22,209.01c-1.24,1.24-5.66,4.23-15.64,7.08
	c-10.65,3.04-23.5,4.71-36.17,4.71c-12.67,0-25.52-1.67-36.17-4.71c-9.98-2.85-14.41-5.83-15.64-7.08v-36.5l49.66,17.65
	c0.7,0.25,1.43,0.37,2.16,0.37c0.73,0,1.46-0.13,2.16-0.37l49.66-17.65L296.22,209.01L296.22,209.01z M296.22,209.01"/>
</svg>
