<?xml version="1.0" encoding="utf-8"?>
<!-- Generator: Adobe Illustrator 25.4.1, SVG Export Plug-In . SVG Version: 6.00 Build 0)  -->
<svg version="1.1" id="Mode_Isolation" xmlns="http://www.w3.org/2000/svg" xmlns:xlink="http://www.w3.org/1999/xlink" x="0px"
	 y="0px" viewBox="0 0 500 500" style="enable-background:new 0 0 500 500;" xml:space="preserve">
<style type="text/css">
	.st0{fill:#2A377C;}
	.st1{fill:#2B387D;}
	.st2{fill:none;stroke:#2A377C;stroke-width:30;stroke-linecap:round;stroke-linejoin:round;stroke-miterlimit:10;}
	.st3{clip-path:url(#SVGID_00000016759349694045237260000004538291285210926526_);}
	.st4{fill:#2B387D;stroke:#2B387D;stroke-width:2;stroke-miterlimit:10;}
	.st5{fill:#2B387D;stroke:#2B387D;stroke-width:5;stroke-miterlimit:10;}
	.st6{fill-rule:evenodd;clip-rule:evenodd;fill:#2B387D;}
	.st7{fill:#67B5A9;}
	.st8{fill:#D96552;}
	.st9{fill:#FCC104;}
	.st10{fill:#FFFFFF;}
	.st11{clip-path:url(#SVGID_00000137128970048057224390000016882265286407947916_);}
	.st12{fill-rule:evenodd;clip-rule:evenodd;fill:#FFFFFF;}
</style>
<g>
	<path class="st1" d="M405.52,101.42H302.7V53.41c0-7.09-5.75-12.84-12.84-12.84H198.4c-7.09,0-12.84,5.75-12.84,12.84v48.01H82.75
		c-7.09,0-12.84,5.75-12.84,12.84v51.71c0,7.09,5.75,12.84,12.84,12.84h2.31l19.08,286.72c0.45,6.75,6.05,11.99,12.81,11.99h254.37
		c6.76,0,12.36-5.24,12.81-11.99l19.08-286.72h2.31c7.09,0,12.84-5.75,12.84-12.84v-51.71
		C418.36,107.17,412.61,101.42,405.52,101.42L405.52,101.42z M211.24,66.25h65.78v35.17h-65.78V66.25z M95.59,127.11h297.09v26.03
		H95.59V127.11z M359.31,451.84H128.96L110.8,178.82h266.67L359.31,451.84z M359.31,451.84"/>
	<path class="st1" d="M199.81,266.12c10.28-10.28,23.94-15.94,38.48-15.94c14.54,0,28.2,5.66,38.48,15.94
		c6.83,6.83,11.61,15.17,14.06,24.25c-5.03-3.74-12.16-3.34-16.72,1.22c-5.01,5.01-5.01,13.15,0,18.16l22.36,22.36
		c2.41,2.41,5.68,3.76,9.08,3.76c3.41,0,6.67-1.35,9.08-3.76L337,309.75c5.01-5.01,5.01-13.15,0-18.16
		c-5.01-5.01-13.14-5.01-18.16,0l-1.3,1.3c-2.47-16.95-10.29-32.6-22.61-44.92c-15.13-15.13-35.24-23.46-56.64-23.46
		c-21.4,0-41.52,8.33-56.64,23.46c-5.01,5.01-5.01,13.14,0,18.16C186.67,271.14,194.8,271.14,199.81,266.12L199.81,266.12z
		 M199.81,266.12"/>
	<path class="st1" d="M169.42,339.07l1.3-1.3c2.47,16.95,10.28,32.6,22.61,44.92c15.13,15.13,35.24,23.46,56.64,23.46
		c21.4,0,41.52-8.33,56.64-23.46c5.01-5.01,5.01-13.14,0-18.16c-5.01-5.01-13.14-5.01-18.16,0c-10.28,10.28-23.95,15.94-38.48,15.94
		c-14.54,0-28.2-5.66-38.48-15.94c-6.83-6.83-11.61-15.17-14.06-24.25c2.26,1.68,4.95,2.54,7.64,2.54c3.29,0,6.57-1.25,9.08-3.76
		c5.01-5.01,5.01-13.14,0-18.16l-22.37-22.36c-5.01-5.01-13.14-5.01-18.16,0l-22.37,22.36c-5.01,5.01-5.01,13.15,0,18.16
		C156.28,344.08,164.41,344.08,169.42,339.07L169.42,339.07z M169.42,339.07"/>
</g>
</svg>
