<?xml version="1.0" encoding="utf-8"?>
<!-- Generator: Adobe Illustrator 25.4.1, SVG Export Plug-In . SVG Version: 6.00 Build 0)  -->
<svg version="1.1" id="Mode_Isolation" xmlns="http://www.w3.org/2000/svg" xmlns:xlink="http://www.w3.org/1999/xlink" x="0px"
	 y="0px" viewBox="0 0 500 500" style="enable-background:new 0 0 500 500;" xml:space="preserve">
<style type="text/css">
	.st0{fill:#2A377C;}
	.st1{fill:#2B387D;}
	.st2{fill:none;stroke:#2A377C;stroke-width:30;stroke-linecap:round;stroke-linejoin:round;stroke-miterlimit:10;}
	.st3{clip-path:url(#SVGID_00000030468779665646138910000011993801109753912963_);}
	.st4{fill:#2B387D;stroke:#2B387D;stroke-width:2;stroke-miterlimit:10;}
	.st5{fill:#2B387D;stroke:#2B387D;stroke-width:5;stroke-miterlimit:10;}
	.st6{fill-rule:evenodd;clip-rule:evenodd;fill:#2B387D;}
	.st7{fill:#67B5A9;}
	.st8{fill:#D96552;}
	.st9{fill:#FCC104;}
	.st10{fill:#FFFFFF;}
	.st11{clip-path:url(#SVGID_00000161618716885758576350000014294804784185708955_);}
	.st12{fill-rule:evenodd;clip-rule:evenodd;fill:#FFFFFF;}
</style>
<path class="st1" d="M254.72,464.73c42.95,0,81.78-17.65,110.03-45.89s45.89-67.07,45.89-110.03c0-58.84-69.43-161.21-115.91-229.47
	c-10-14.71-18.83-28.24-27.07-40.6c-1.18-1.77-2.94-3.53-4.71-4.71c-7.06-4.71-16.47-2.35-21.18,4.71
	c-7.65,12.36-16.47,25.3-27.07,40.6C168.23,147.59,98.8,250.56,98.8,309.39c0,42.95,17.65,81.78,45.89,110.03
	C172.93,447.07,211.77,464.73,254.72,464.73z M240.01,95.81c5.3-7.65,10-15.3,14.71-21.77c4.71,6.47,9.41,14.12,14.71,21.77
	c44.13,65.9,110.61,163.57,110.61,212.99c0,34.71-14.12,65.9-36.48,88.84c-22.95,22.95-54.13,36.48-88.84,36.48
	s-65.9-14.12-88.84-36.48c-22.95-22.95-36.48-54.13-36.48-88.84C129.39,259.38,195.88,161.12,240.01,95.81z"/>
<path class="st1" d="M307.08,401.18c15.89-8.83,28.83-21.77,37.66-36.48c9.41-14.71,14.71-32.36,15.3-50.6
	c0.59-8.24-5.88-15.3-14.12-15.89c-8.24-0.59-15.3,5.88-15.89,14.12c-0.59,12.94-4.71,25.3-11.18,35.89
	c-6.47,10.59-15.89,20-27.07,25.89c-7.06,4.12-10,13.53-5.88,20.59C290.61,402.95,300.02,405.3,307.08,401.18z"/>
</svg>
