<?xml version="1.0" encoding="utf-8"?>
<!-- Generator: Adobe Illustrator 25.4.1, SVG Export Plug-In . SVG Version: 6.00 Build 0)  -->
<svg version="1.1" id="Mode_Isolation" xmlns="http://www.w3.org/2000/svg" xmlns:xlink="http://www.w3.org/1999/xlink" x="0px"
	 y="0px" viewBox="0 0 500 500" style="enable-background:new 0 0 500 500;" xml:space="preserve">
<style type="text/css">
	.st0{fill:#2A377C;}
	.st1{fill:#2B387D;}
	.st2{fill:none;stroke:#2A377C;stroke-width:30;stroke-linecap:round;stroke-linejoin:round;stroke-miterlimit:10;}
	.st3{clip-path:url(#SVGID_00000082356784034906902030000011573169786093605262_);}
	.st4{fill:#2B387D;stroke:#2B387D;stroke-width:2;stroke-miterlimit:10;}
	.st5{fill:#2B387D;stroke:#2B387D;stroke-width:5;stroke-miterlimit:10;}
	.st6{fill-rule:evenodd;clip-rule:evenodd;fill:#2B387D;}
	.st7{fill:#67B5A9;}
	.st8{fill:#D96552;}
	.st9{fill:#FCC104;}
	.st10{fill:#FFFFFF;}
	.st11{clip-path:url(#SVGID_00000151504520131629717970000006143464700088248739_);}
	.st12{fill-rule:evenodd;clip-rule:evenodd;fill:#FFFFFF;}
</style>
<path class="st0" d="M397.51,175.52c0,106.06-154.01,313.67-154.01,313.67S89.49,281.58,89.49,175.52
	c0-85.06,68.95-154.01,154.01-154.01S397.51,90.46,397.51,175.52z"/>
<g>
	<path class="st10" d="M330.72,97.19H154.37c-3.04,0-5.51,2.47-5.51,5.51v102.87c0,3.04,2.47,5.51,5.51,5.51h33.07
		c3.04,0,5.51-2.47,5.51-5.51c0-0.61-0.02-1.22-0.03-1.84h99.25c-0.01,0.61-0.03,1.22-0.03,1.84c0,3.04,2.47,5.51,5.51,5.51h33.07
		c3.04,0,5.51-2.47,5.51-5.51V102.7C336.23,99.65,333.76,97.19,330.72,97.19L330.72,97.19z M159.88,108.21h29.31
		c-0.73,17.12-6.1,33.51-15.66,47.76h-13.64V108.21z M159.88,200.06v-33.07h13.11c5.03,10.3,8.02,21.62,8.75,33.07H159.88z
		 M293,192.71H192.08c-1.41-10.67-4.54-21.12-9.29-30.78c10.71-16.04,16.68-34.47,17.42-53.72h84.66
		c0.73,19.25,6.71,37.69,17.42,53.72C297.54,171.58,294.41,182.04,293,192.71L293,192.71z M325.2,200.06h-21.87
		c0.73-11.45,3.72-22.76,8.75-33.07h13.11V200.06z M325.2,155.97h-13.64c-9.56-14.26-14.93-30.64-15.66-47.76h29.31V155.97z
		 M325.2,155.97"/>
	<path class="st10" d="M313.71,241.67c-2.37-12.79-13.61-22.51-27.08-22.51c-9.01,0-17.01,4.34-22.04,11.04
		c-5.03-6.7-13.04-11.04-22.04-11.04c-9.01,0-17.01,4.34-22.04,11.04c-5.03-6.7-13.04-11.04-22.04-11.04
		c-13.47,0-24.71,9.72-27.08,22.51c-12.79,2.37-22.51,13.61-22.51,27.08v11.02c0,3.04,2.47,5.51,5.51,5.51h176.35
		c3.04,0,5.51-2.47,5.51-5.51v-11.02C336.23,255.29,326.51,244.05,313.71,241.67L313.71,241.67z M192.94,274.27h-33.07v-5.51
		c0-9.12,7.42-16.53,16.53-16.53c9.12,0,16.53,7.42,16.53,16.53V274.27z M198.45,252.24c-3.83-5.11-9.4-8.84-15.82-10.32
		c2.06-6.79,8.37-11.74,15.82-11.74c7.45,0,13.76,4.95,15.82,11.74C207.86,243.41,202.29,247.14,198.45,252.24L198.45,252.24z
		 M237.03,274.27h-33.07v-5.51c0-9.12,7.42-16.53,16.53-16.53s16.53,7.42,16.53,16.53V274.27z M242.54,252.24
		c-3.83-5.11-9.4-8.84-15.82-10.32c2.06-6.79,8.37-11.74,15.82-11.74c7.45,0,13.76,4.95,15.82,11.74
		C251.94,243.41,246.38,247.14,242.54,252.24L242.54,252.24z M281.12,274.27h-33.07v-5.51c0-9.12,7.42-16.53,16.53-16.53
		c9.12,0,16.53,7.42,16.53,16.53V274.27z M286.63,252.24c-3.83-5.11-9.4-8.84-15.82-10.32c2.06-6.79,8.37-11.74,15.82-11.74
		s13.76,4.95,15.82,11.74C296.03,243.41,290.46,247.14,286.63,252.24L286.63,252.24z M325.2,274.27h-33.07v-5.51
		c0-9.12,7.42-16.53,16.53-16.53s16.53,7.42,16.53,16.53V274.27z M325.2,274.27"/>
	<path class="st10" d="M268.89,145.53l-40.41-20.21c-1.71-0.85-3.74-0.76-5.36,0.24c-1.62,1-2.61,2.78-2.61,4.69v40.41
		c0,1.91,0.99,3.68,2.61,4.69c0.88,0.55,1.89,0.82,2.9,0.82c0.84,0,1.69-0.19,2.46-0.58l40.41-20.21c1.87-0.93,3.05-2.84,3.05-4.93
		C271.93,148.37,270.75,146.46,268.89,145.53L268.89,145.53z M231.52,161.75v-22.58l22.58,11.29L231.52,161.75z M231.52,161.75"/>
</g>
</svg>
