<?xml version="1.0" encoding="utf-8"?>
<!-- Generator: Adobe Illustrator 25.4.1, SVG Export Plug-In . SVG Version: 6.00 Build 0)  -->
<svg version="1.1" id="Mode_Isolation" xmlns="http://www.w3.org/2000/svg" xmlns:xlink="http://www.w3.org/1999/xlink" x="0px"
	 y="0px" viewBox="0 0 500 500" style="enable-background:new 0 0 500 500;" xml:space="preserve">
<style type="text/css">
	.st0{fill:#2A377C;}
	.st1{fill:#2B387D;}
	.st2{fill:none;stroke:#2A377C;stroke-width:30;stroke-linecap:round;stroke-linejoin:round;stroke-miterlimit:10;}
	.st3{clip-path:url(#SVGID_00000133502884885507564730000009857815409070338239_);}
	.st4{fill:#2B387D;stroke:#2B387D;stroke-width:2;stroke-miterlimit:10;}
	.st5{fill:#2B387D;stroke:#2B387D;stroke-width:5;stroke-miterlimit:10;}
	.st6{fill-rule:evenodd;clip-rule:evenodd;fill:#2B387D;}
	.st7{fill:#67B5A9;}
	.st8{fill:#D96552;}
	.st9{fill:#FCC104;}
	.st10{fill:#FFFFFF;}
	.st11{clip-path:url(#SVGID_00000105398684932773011200000004836657146518388355_);}
	.st12{fill-rule:evenodd;clip-rule:evenodd;fill:#FFFFFF;}
</style>
<g>
	<path class="st1" d="M52.13,367c0-8.29,6.71-15,15-15h10.5c8.29,0,15,6.71,15,15s-6.71,15-15,15h-10.5
		C58.85,382,52.13,375.28,52.13,367L52.13,367z M67.13,262h25.5c8.29,0,15-6.71,15-15c0-8.29-6.71-15-15-15h-25.5
		c-8.29,0-15,6.71-15,15C52.13,255.28,58.85,262,67.13,262L67.13,262z M115.13,412h-48c-8.29,0-15,6.71-15,15s6.71,15,15,15h48
		c8.29,0,15-6.72,15-15S123.42,412,115.13,412L115.13,412z M259.13,265C258.69,265,259.58,265,259.13,265L259.13,265z
		 M188.09,194.12c0.92-13.91,12.56-25.52,26.49-26.42c27.55-1.79,44.21,9.15,53.32,18.64c14.66,15.26,17.59,37.06,17.47,52.67
		c-0.11,14.17-12.06,25.83-26.25,25.99c-15.64,0-37.83-3.14-52.61-17.53C197.11,238.3,186.27,221.6,188.09,194.12L188.09,194.12z
		 M227.45,225.97c5.5,5.36,15.53,8.56,27.88,8.98c-0.32-8.48-2.11-20.61-9.05-27.83c-6.7-6.97-15.98-10.11-28.34-9.57
		C217.39,209.91,220.51,219.21,227.45,225.97L227.45,225.97z M421.13,292h-55.5c-8.29,0-15,6.71-15,15s6.71,15,15,15h55.5
		c8.28,0,15-6.71,15-15S429.42,292,421.13,292L421.13,292z M421.13,172h-54.32c-10.73,0-20.82,4.19-28.39,11.81
		c-7.66,7.71-11.85,17.77-11.79,28.69c0,45.71-37.34,83.25-83.25,83.25s-83.25-37.54-83.25-83.25c0.06-10.93-4.12-20.99-11.79-28.69
		c-7.57-7.61-17.66-11.81-28.39-11.81H67.13c-8.29,0-15,6.71-15,15s6.71,15,15,15h52.82c2.69,0,5.22,1.05,7.12,2.96
		c1.99,2,3.06,6.04,3.06,7.54c-0.02,31.58,11.77,58.88,33.15,80.2c21.37,21.31,49.82,33.05,80.1,33.05
		c30.28,0,58.73-11.74,80.1-33.05c21.38-21.32,33.15-49.98,33.15-80.16c-0.02-2.88,1.07-5.58,3.06-7.58
		c1.9-1.91,4.43-2.96,7.12-2.96h54.32c8.28,0,15-6.71,15-15S429.42,172,421.13,172L421.13,172z M421.13,352h-30.75
		c-8.29,0-15,6.71-15,15s6.71,15,15,15h30.75c8.28,0,15-6.71,15-15S429.42,352,421.13,352L421.13,352z M421.13,412h-60.75
		c-8.29,0-15,6.71-15,15s6.71,15,15,15h60.75c8.28,0,15-6.72,15-15S429.42,412,421.13,412L421.13,412z M187.88,412h-12.75
		c-8.29,0-15,6.71-15,15s6.71,15,15,15h12.75c8.28,0,15-6.72,15-15S196.17,412,187.88,412L187.88,412z M330.38,352h-82.5
		c-8.28,0-15,6.71-15,15s6.71,15,15,15h82.5c8.28,0,15-6.71,15-15S338.67,352,330.38,352L330.38,352z M187.88,352h-50.25
		c-8.29,0-15,6.71-15,15s6.71,15,15,15h50.25c8.28,0,15-6.71,15-15S196.17,352,187.88,352L187.88,352z M142.88,307
		c0-8.29-6.71-15-15-15H67.13c-8.29,0-15,6.71-15,15s6.71,15,15,15h60.75C136.17,322,142.88,315.28,142.88,307L142.88,307z
		 M300.38,412h-52.5c-8.28,0-15,6.71-15,15s6.71,15,15,15h52.5c8.28,0,15-6.72,15-15S308.67,412,300.38,412L300.38,412z M421.13,232
		h-27c-8.29,0-15,6.71-15,15c0,8.28,6.71,15,15,15h27c8.28,0,15-6.71,15-15C436.13,238.71,429.42,232,421.13,232L421.13,232z
		 M335.43,84.62c1.82,27.48-9.02,44.18-18.43,53.34c-14.79,14.39-36.98,17.54-52.61,17.54c-14.19-0.16-26.14-11.82-26.25-25.99
		c-0.12-15.61,2.81-37.41,17.47-52.67c9.12-9.49,25.77-20.43,53.32-18.64C322.87,59.1,334.5,70.7,335.43,84.62L335.43,84.62z
		 M305.57,88.05c-0.9-0.04-1.79-0.06-2.66-0.06c-11.04,0-19.46,3.16-25.67,9.62c-6.94,7.22-8.73,19.35-9.05,27.83
		c12.34-0.42,22.37-3.63,27.87-8.98C303.01,109.71,306.12,100.41,305.57,88.05L305.57,88.05z M264.38,155.5
		C263.93,155.5,264.82,155.5,264.38,155.5L264.38,155.5z M264.38,155.5"/>
</g>
</svg>
