<?xml version="1.0" encoding="utf-8"?>
<!-- Generator: Adobe Illustrator 25.4.1, SVG Export Plug-In . SVG Version: 6.00 Build 0)  -->
<svg version="1.1" id="Mode_Isolation" xmlns="http://www.w3.org/2000/svg" xmlns:xlink="http://www.w3.org/1999/xlink" x="0px"
	 y="0px" viewBox="0 0 500 500" style="enable-background:new 0 0 500 500;" xml:space="preserve">
<style type="text/css">
	.st0{fill:#2A377C;}
	.st1{fill:#2B387D;}
	.st2{fill:none;stroke:#2A377C;stroke-width:30;stroke-linecap:round;stroke-linejoin:round;stroke-miterlimit:10;}
	.st3{clip-path:url(#SVGID_00000118369737505239540380000004976643763501901724_);}
	.st4{fill:#2B387D;stroke:#2B387D;stroke-width:2;stroke-miterlimit:10;}
	.st5{fill:#2B387D;stroke:#2B387D;stroke-width:5;stroke-miterlimit:10;}
	.st6{fill-rule:evenodd;clip-rule:evenodd;fill:#2B387D;}
	.st7{fill:#67B5A9;}
	.st8{fill:#D96552;}
	.st9{fill:#FCC104;}
	.st10{fill:#FFFFFF;}
	.st11{clip-path:url(#SVGID_00000044139018812378474840000013792798851076266161_);}
	.st12{fill-rule:evenodd;clip-rule:evenodd;fill:#FFFFFF;}
</style>
<g>
	<g>
		<path class="st1" d="M413.96,332.32V75.35c0-21.44-17.44-38.87-38.87-38.87c-21.43,0-38.87,17.44-38.87,38.87v54.81
			C303.22,96.4,257.23,75.4,206.42,75.4c-100.13,0-181.59,81.46-181.59,181.59c0,100.13,81.46,181.59,181.59,181.59
			c33.6,0,65.09-9.19,92.11-25.16c5.69,35.36,39.61,64.72,76.58,64.09c41.24,0.95,78.74-35.86,77.77-77.79
			C452.88,371.7,437.85,346.11,413.96,332.32L413.96,332.32z M362.06,75.35c0-7.19,5.85-13.03,13.03-13.03
			c7.18,0,13.03,5.84,13.03,13.03v64.92h-26.06V75.35z M193.5,101.78v25.46c0,21.43,17.44,38.87,38.87,38.87h25.95
			c7.18,0,13.03,5.84,13.03,13.02c0,7.19-5.85,13.03-13.03,13.03h-103.8c-21.43,0-38.87,17.44-38.87,38.87
			c0,7.18-5.84,13.03-13.02,13.03H51.21C57.45,168.48,117.9,108.02,193.5,101.78L193.5,101.78z M141.6,386.73v11.86
			c-49.89-22.93-85.67-71.47-90.39-128.68h51.42c21.43,0,38.87-17.44,38.87-38.87c0-7.18,5.85-13.03,13.03-13.03h103.8
			c21.43,0,38.87-17.44,38.87-38.87c0-21.44-17.44-38.87-38.87-38.87h-25.95c-7.18,0-13.03-5.85-13.03-13.03v-25.47
			c48.75,4.02,91.2,30.6,116.88,69.24v73.05H232.36c-21.43,0-38.87,17.44-38.87,38.87s17.44,38.87,38.87,38.87
			c7.18,0,13.03,5.85,13.03,13.03c0,7.18-5.85,13.02-13.03,13.02h-51.9C159.21,347.43,141.14,366.58,141.6,386.73L141.6,386.73z
			 M299.36,381.89c-25.96,19.37-58.13,30.85-92.94,30.85c-13.46,0-26.52-1.72-38.98-4.94v-21.07c-0.01-7.78,6.95-13.06,13.02-13.02
			h51.9c21.43,0,38.87-17.44,38.87-38.87c0-21.43-17.44-38.87-38.87-38.87c-7.18,0-13.03-5.84-13.03-13.02
			c0-7.18,5.85-13.03,13.03-13.03h103.85v62.41C317.48,343.12,304.23,361.13,299.36,381.89L299.36,381.89z M373.82,451.65
			c-27.72-0.66-50.45-23.76-50.68-51.5c-0.62-24.04,16.62-44.01,38.92-51.44V166.12h26.06v182.59c23.78,8.32,38.67,27.05,38.92,51
			C427.68,428.37,401.58,452.95,373.82,451.65L373.82,451.65z M373.82,451.65"/>
		<circle class="st1" cx="374.84" cy="399.13" r="18.09"/>
	</g>
</g>
</svg>
