<?xml version="1.0" encoding="utf-8"?>
<!-- Generator: Adobe Illustrator 25.4.1, SVG Export Plug-In . SVG Version: 6.00 Build 0)  -->
<svg version="1.1" id="Mode_Isolation" xmlns="http://www.w3.org/2000/svg" xmlns:xlink="http://www.w3.org/1999/xlink" x="0px"
	 y="0px" viewBox="0 0 500 500" style="enable-background:new 0 0 500 500;" xml:space="preserve">
<style type="text/css">
	.st0{fill:#2A377C;}
	.st1{fill:#2B387D;}
	.st2{fill:none;stroke:#2A377C;stroke-width:30;stroke-linecap:round;stroke-linejoin:round;stroke-miterlimit:10;}
	.st3{clip-path:url(#SVGID_00000116934816664136847060000008752640078629844910_);}
	.st4{fill:#2B387D;stroke:#2B387D;stroke-width:2;stroke-miterlimit:10;}
	.st5{fill:#2B387D;stroke:#2B387D;stroke-width:5;stroke-miterlimit:10;}
	.st6{fill-rule:evenodd;clip-rule:evenodd;fill:#2B387D;}
	.st7{fill:#67B5A9;}
	.st8{fill:#D96552;}
	.st9{fill:#FCC104;}
	.st10{fill:#FFFFFF;}
	.st11{clip-path:url(#SVGID_00000122715361152104973860000012770383551367234462_);}
	.st12{fill-rule:evenodd;clip-rule:evenodd;fill:#FFFFFF;}
</style>
<g>
	<path class="st1" d="M297.41,124.83c-4.85-3.5-11.53-2.96-15.75,1.27L159.7,248.06c-2.99,2.99-4.22,7.31-3.25,11.43
		s4,7.43,8.01,8.77l59.83,19.94l-42.49,84.99c-2.67,5.35-1.08,11.85,3.78,15.35c4.88,3.52,11.55,2.93,15.75-1.27L323.29,265.3
		c2.99-2.99,4.22-7.31,3.25-11.43c-0.97-4.11-4-7.43-8.01-8.77l-59.83-19.94l42.49-84.99C303.86,134.83,302.26,128.33,297.41,124.83
		z M292.09,262.01l-54.86,54.86l15.17-30.35c1.58-3.16,1.71-6.85,0.36-10.12c-1.35-3.27-4.06-5.78-7.41-6.9l-54.45-18.15
		l54.86-54.86l-15.17,30.35c-1.58,3.16-1.71,6.85-0.36,10.12c1.35,3.27,4.06,5.78,7.41,6.9L292.09,262.01z"/>
	<path class="st1" d="M437.44,268.88c6.74,0,12.2-5.46,12.2-12.2c0-114.6-93.54-208.13-208.13-208.13
		c-61.8,0-119.97,27.84-159.35,74.54v-12.75c0-6.74-5.46-12.2-12.2-12.2s-12.2,5.46-12.2,12.2v51.62c0,0.06,0,0.12,0,0.18v0.02
		c0,7.02,5.97,12.6,12.95,12.17l48.78-3.03c6.72-0.42,11.83-6.21,11.42-12.93c-0.42-6.72-6.23-11.83-12.93-11.42l-24.83,1.54
		c34.46-47.09,89.44-75.55,148.36-75.55c101.32,0,183.74,82.43,183.74,183.74C425.24,263.42,430.7,268.88,437.44,268.88z"/>
	<path class="st1" d="M413.05,415.22c6.74,0,12.2-5.46,12.2-12.2v-51.63c0.11-6.98-5.82-12.78-12.95-12.35l-48.78,3.03
		c-6.72,0.42-11.83,6.2-11.42,12.93c0.42,6.72,6.19,11.83,12.93,11.42l24.83-1.54c-34.46,47.09-89.44,75.55-148.36,75.55
		c-101.32,0-183.74-82.43-183.74-183.74c0-6.74-5.46-12.2-12.2-12.2s-12.2,5.46-12.2,12.2c0,114.6,93.54,208.13,208.13,208.13
		c61.92,0,120.05-27.93,159.35-74.54v12.75C400.85,409.76,406.31,415.22,413.05,415.22z"/>
</g>
</svg>
