<?xml version="1.0" encoding="utf-8"?>
<!-- Generator: Adobe Illustrator 25.4.1, SVG Export Plug-In . SVG Version: 6.00 Build 0)  -->
<svg version="1.1" id="Mode_Isolation" xmlns="http://www.w3.org/2000/svg" xmlns:xlink="http://www.w3.org/1999/xlink" x="0px"
	 y="0px" viewBox="0 0 500 500" style="enable-background:new 0 0 500 500;" xml:space="preserve">
<style type="text/css">
	.st0{fill:#2A377C;}
	.st1{fill:#2B387D;}
	.st2{fill:none;stroke:#2A377C;stroke-width:30;stroke-linecap:round;stroke-linejoin:round;stroke-miterlimit:10;}
	.st3{clip-path:url(#SVGID_00000036970183504351061450000005439792330921714055_);}
	.st4{fill:#2B387D;stroke:#2B387D;stroke-width:2;stroke-miterlimit:10;}
	.st5{fill:#2B387D;stroke:#2B387D;stroke-width:5;stroke-miterlimit:10;}
	.st6{fill-rule:evenodd;clip-rule:evenodd;fill:#2B387D;}
	.st7{fill:#67B5A9;}
	.st8{fill:#D96552;}
	.st9{fill:#FCC104;}
	.st10{fill:#FFFFFF;}
	.st11{clip-path:url(#SVGID_00000023974411521885111080000016735677510582580896_);}
	.st12{fill-rule:evenodd;clip-rule:evenodd;fill:#FFFFFF;}
</style>
<path class="st7" d="M397.51,175.52c0,106.06-154.01,313.67-154.01,313.67S89.49,281.58,89.49,175.52
	c0-85.06,68.95-154.01,154.01-154.01S397.51,90.46,397.51,175.52z"/>
<g>
	<path class="st10" d="M241.68,288.12c21.01,0,40.01-8.64,53.83-22.45c13.82-13.82,22.45-32.82,22.45-53.83
		c0-28.79-33.97-78.87-56.71-112.26c-4.89-7.2-9.21-13.82-13.24-19.86c-0.58-0.86-1.44-1.73-2.3-2.3c-3.45-2.3-8.06-1.15-10.36,2.3
		c-3.74,6.04-8.06,12.38-13.24,19.86c-22.74,33.39-56.71,83.76-56.71,112.55c0,21.01,8.64,40.01,22.45,53.83
		C201.67,279.48,220.67,288.12,241.68,288.12z M234.49,107.64c2.59-3.74,4.89-7.48,7.2-10.65c2.3,3.17,4.61,6.91,7.2,10.65
		c21.59,32.24,54.12,80.02,54.12,104.2c0,16.98-6.91,32.24-17.85,43.47c-11.23,11.23-26.48,17.85-43.47,17.85
		s-32.24-6.91-43.47-17.85c-11.23-11.23-17.85-26.48-17.85-43.47C180.37,187.66,212.9,139.59,234.49,107.64z"/>
	<path class="st10" d="M267.3,257.03c7.77-4.32,14.1-10.65,18.42-17.85c4.61-7.2,7.2-15.83,7.48-24.76
		c0.29-4.03-2.88-7.48-6.91-7.77c-4.03-0.29-7.48,2.88-7.77,6.91c-0.29,6.33-2.3,12.38-5.47,17.56c-3.17,5.18-7.77,9.79-13.24,12.67
		c-3.45,2.01-4.89,6.62-2.88,10.07C259.24,257.9,263.85,259.05,267.3,257.03z"/>
</g>
</svg>
