<?xml version="1.0" encoding="utf-8"?>
<!-- Generator: Adobe Illustrator 25.4.1, SVG Export Plug-In . SVG Version: 6.00 Build 0)  -->
<svg version="1.1" id="Mode_Isolation" xmlns="http://www.w3.org/2000/svg" xmlns:xlink="http://www.w3.org/1999/xlink" x="0px"
	 y="0px" viewBox="0 0 500 500" style="enable-background:new 0 0 500 500;" xml:space="preserve">
<style type="text/css">
	.st0{fill:#2A377C;}
	.st1{fill:#2B387D;}
	.st2{fill:none;stroke:#2A377C;stroke-width:30;stroke-linecap:round;stroke-linejoin:round;stroke-miterlimit:10;}
	.st3{clip-path:url(#SVGID_00000157265703625607397460000012826969720458058656_);}
	.st4{fill:#2B387D;stroke:#2B387D;stroke-width:2;stroke-miterlimit:10;}
	.st5{fill:#2B387D;stroke:#2B387D;stroke-width:5;stroke-miterlimit:10;}
	.st6{fill-rule:evenodd;clip-rule:evenodd;fill:#2B387D;}
	.st7{fill:#67B5A9;}
	.st8{fill:#D96552;}
	.st9{fill:#FCC104;}
	.st10{fill:#FFFFFF;}
	.st11{clip-path:url(#SVGID_00000059298146945389498800000016248293123018364087_);}
	.st12{fill-rule:evenodd;clip-rule:evenodd;fill:#FFFFFF;}
</style>
<path class="st7" d="M404.01,175.52C404.01,281.58,250,489.19,250,489.19S95.99,281.58,95.99,175.52
	c0-85.06,68.95-154.01,154.01-154.01S404.01,90.46,404.01,175.52z"/>
<g>
	<path class="st10" d="M149.4,236.85c0-4.38,3.55-7.94,7.94-7.94h5.56c4.38,0,7.94,3.55,7.94,7.94s-3.55,7.94-7.94,7.94h-5.56
		C152.96,244.78,149.4,241.23,149.4,236.85L149.4,236.85z M157.34,181.29h13.49c4.38,0,7.94-3.55,7.94-7.94
		c0-4.38-3.55-7.94-7.94-7.94h-13.49c-4.38,0-7.94,3.55-7.94,7.94C149.4,177.73,152.96,181.29,157.34,181.29L157.34,181.29z
		 M182.74,260.66h-25.4c-4.38,0-7.94,3.55-7.94,7.94c0,4.38,3.55,7.94,7.94,7.94h25.4c4.38,0,7.94-3.55,7.94-7.94
		C190.68,264.21,187.12,260.66,182.74,260.66L182.74,260.66z M258.94,182.87C258.7,182.88,259.17,182.87,258.94,182.87
		L258.94,182.87z M221.35,145.37c0.49-7.36,6.65-13.5,14.02-13.98c14.58-0.94,23.39,4.84,28.22,9.87
		c7.76,8.07,9.31,19.61,9.25,27.87c-0.06,7.5-6.38,13.67-13.89,13.75c-8.27,0-20.02-1.66-27.84-9.28
		C226.12,168.74,220.38,159.91,221.35,145.37L221.35,145.37z M242.17,162.22c2.91,2.84,8.22,4.53,14.75,4.75
		c-0.17-4.49-1.12-10.91-4.79-14.73c-3.54-3.69-8.46-5.35-14.99-5.06C236.85,153.72,238.5,158.64,242.17,162.22L242.17,162.22z
		 M344.66,197.16h-29.37c-4.38,0-7.94,3.55-7.94,7.94s3.55,7.94,7.94,7.94h29.37c4.38,0,7.94-3.55,7.94-7.94
		S349.04,197.16,344.66,197.16L344.66,197.16z M344.66,133.66h-28.74c-5.68,0-11.02,2.22-15.02,6.25c-4.06,4.08-6.27,9.4-6.24,15.18
		c0,24.19-19.76,44.05-44.05,44.05s-44.05-19.86-44.05-44.05c0.03-5.78-2.18-11.11-6.24-15.18c-4.01-4.03-9.34-6.25-15.02-6.25
		h-27.95c-4.38,0-7.94,3.55-7.94,7.94s3.55,7.94,7.94,7.94h27.95c1.42,0,2.76,0.56,3.77,1.57c1.05,1.06,1.62,3.2,1.62,3.99
		c-0.01,16.71,6.23,31.16,17.54,42.44c11.31,11.28,26.36,17.49,42.39,17.49s31.07-6.21,42.39-17.49
		c11.31-11.28,17.54-26.45,17.54-42.42c-0.01-1.53,0.57-2.95,1.62-4.01c1-1.01,2.34-1.57,3.77-1.57h28.74
		c4.38,0,7.94-3.55,7.94-7.94S349.04,133.66,344.66,133.66L344.66,133.66z M344.66,228.91h-16.27c-4.38,0-7.94,3.55-7.94,7.94
		s3.55,7.94,7.94,7.94h16.27c4.38,0,7.94-3.55,7.94-7.94S349.04,228.91,344.66,228.91L344.66,228.91z M344.66,260.66h-32.15
		c-4.38,0-7.94,3.55-7.94,7.94c0,4.38,3.55,7.94,7.94,7.94h32.15c4.38,0,7.94-3.55,7.94-7.94
		C352.6,264.21,349.04,260.66,344.66,260.66L344.66,260.66z M221.24,260.66h-6.75c-4.38,0-7.94,3.55-7.94,7.94
		c0,4.38,3.55,7.94,7.94,7.94h6.75c4.38,0,7.94-3.55,7.94-7.94C229.17,264.21,225.62,260.66,221.24,260.66L221.24,260.66z
		 M296.64,228.91h-43.65c-4.38,0-7.94,3.55-7.94,7.94s3.55,7.94,7.94,7.94h43.65c4.38,0,7.94-3.55,7.94-7.94
		S301.02,228.91,296.64,228.91L296.64,228.91z M221.24,228.91h-26.59c-4.38,0-7.94,3.55-7.94,7.94s3.55,7.94,7.94,7.94h26.59
		c4.38,0,7.94-3.55,7.94-7.94S225.62,228.91,221.24,228.91L221.24,228.91z M197.42,205.1c0-4.38-3.55-7.94-7.94-7.94h-32.15
		c-4.38,0-7.94,3.55-7.94,7.94s3.55,7.94,7.94,7.94h32.15C193.87,213.03,197.42,209.48,197.42,205.1L197.42,205.1z M280.76,260.66
		h-27.78c-4.38,0-7.94,3.55-7.94,7.94c0,4.38,3.55,7.94,7.94,7.94h27.78c4.38,0,7.94-3.55,7.94-7.94
		C288.7,264.21,285.15,260.66,280.76,260.66L280.76,260.66z M344.66,165.41h-14.29c-4.38,0-7.94,3.55-7.94,7.94
		c0,4.38,3.55,7.94,7.94,7.94h14.29c4.38,0,7.94-3.55,7.94-7.94C352.6,168.96,349.04,165.41,344.66,165.41L344.66,165.41z
		 M299.31,87.43c0.97,14.54-4.77,23.38-9.75,28.23c-7.82,7.62-19.57,9.28-27.84,9.28c-7.51-0.08-13.83-6.26-13.89-13.75
		c-0.06-8.26,1.49-19.8,9.25-27.87c4.82-5.02,13.64-10.81,28.22-9.87C292.66,73.92,298.82,80.06,299.31,87.43L299.31,87.43z
		 M283.51,89.24c-0.48-0.02-0.95-0.03-1.41-0.03c-5.84,0-10.3,1.67-13.58,5.09c-3.67,3.82-4.62,10.24-4.79,14.73
		c6.53-0.22,11.84-1.92,14.75-4.75C282.15,100.7,283.8,95.78,283.51,89.24L283.51,89.24z M261.72,124.93
		C261.48,124.93,261.95,124.93,261.72,124.93L261.72,124.93z M261.72,124.93"/>
</g>
</svg>
