<?xml version="1.0" encoding="utf-8"?>
<!-- Generator: Adobe Illustrator 25.4.1, SVG Export Plug-In . SVG Version: 6.00 Build 0)  -->
<svg version="1.1" id="Mode_Isolation" xmlns="http://www.w3.org/2000/svg" xmlns:xlink="http://www.w3.org/1999/xlink" x="0px"
	 y="0px" viewBox="0 0 500 500" style="enable-background:new 0 0 500 500;" xml:space="preserve">
<style type="text/css">
	.st0{fill:#2A377C;}
	.st1{fill:#2B387D;}
	.st2{fill:none;stroke:#2A377C;stroke-width:30;stroke-linecap:round;stroke-linejoin:round;stroke-miterlimit:10;}
	.st3{clip-path:url(#SVGID_00000164486319434591195110000011742561984708582529_);}
	.st4{fill:#2B387D;stroke:#2B387D;stroke-width:2;stroke-miterlimit:10;}
	.st5{fill:#2B387D;stroke:#2B387D;stroke-width:5;stroke-miterlimit:10;}
	.st6{fill-rule:evenodd;clip-rule:evenodd;fill:#2B387D;}
	.st7{fill:#67B5A9;}
	.st8{fill:#D96552;}
	.st9{fill:#FCC104;}
	.st10{fill:#FFFFFF;}
	.st11{clip-path:url(#SVGID_00000114765589118272665610000001553752603614840236_);}
	.st12{fill-rule:evenodd;clip-rule:evenodd;fill:#FFFFFF;}
</style>
<path class="st1" d="M308.1,60.46c-69.4,0-143.18,22.8-143.18,65.08v52.07c0,7.19,5.83,13.02,13.02,13.02s13.02-5.83,13.02-13.02
	v-13.56c27.62,17.42,73.23,26.58,117.15,26.58s89.53-9.16,117.15-26.58v13.56c0,12.73-32.02,33.04-92.21,38.06
	c-7.13,0.57-12.47,6.9-11.87,14.06c0.55,6.79,6.25,11.92,12.94,11.92c0.39,0,0.73-0.03,1.12-0.05
	c33.89-2.84,67.66-11.61,90.02-25.85v13.93c0,11.12-23.59,27.1-67.35,34.83c-7.05,1.25-11.79,8.02-10.54,15.07
	c1.12,6.3,6.61,10.75,12.78,10.75c0.75,0,1.54-0.05,2.29-0.21c26.48-4.66,47.67-12.29,62.82-21.97v13.59
	c0,11.12-23.59,27.1-67.35,34.83c-7.05,1.25-11.79,8.02-10.54,15.07c1.12,6.3,6.61,10.75,12.78,10.75c0.75,0,1.54-0.05,2.29-0.21
	c26.48-4.66,47.67-12.31,62.82-21.97v13.59c0,11.12-23.59,27.1-67.35,34.83c-7.05,1.25-11.79,8.02-10.54,15.07
	c1.12,6.3,6.61,10.75,12.78,10.75c0.75,0,1.54-0.05,2.29-0.21c26.48-4.66,47.67-12.31,62.82-21.97v13.59
	c0,12.73-32.02,33.04-92.21,38.06c-7.13,0.57-12.47,6.9-11.87,14.06c0.55,6.79,6.25,11.92,12.94,11.92c0.39,0,0.73-0.03,1.12-0.05
	c57.77-4.84,116.05-26.48,116.05-63.99V125.54C451.28,83.27,377.5,60.46,308.1,60.46z M308.1,164.59
	c-71.51,0-117.15-23.14-117.15-39.05s45.64-39.05,117.15-39.05s117.15,23.14,117.15,39.05S379.61,164.59,308.1,164.59z"/>
<path class="st1" d="M177.93,450.95c69.4,0,143.18-22.8,143.18-65.08V281.74c0-42.28-73.78-65.08-143.18-65.08
	s-143.18,22.8-143.18,65.08v104.13C34.75,428.15,108.53,450.95,177.93,450.95z M295.08,333.8c0,15.91-45.64,39.05-117.15,39.05
	S60.79,349.71,60.79,333.8v-13.56c27.62,17.42,73.23,26.58,117.15,26.58s89.53-9.16,117.15-26.58V333.8z M177.93,424.92
	c-71.51,0-117.15-23.14-117.15-39.05v-13.56c27.62,17.42,73.23,26.58,117.15,26.58s89.53-9.16,117.15-26.58v13.56
	C295.08,401.78,249.44,424.92,177.93,424.92z M177.93,242.69c71.51,0,117.15,23.14,117.15,39.05s-45.64,39.05-117.15,39.05
	S60.79,297.64,60.79,281.74S106.42,242.69,177.93,242.69z"/>
</svg>
