<?xml version="1.0" encoding="utf-8"?>
<!-- Generator: Adobe Illustrator 25.4.1, SVG Export Plug-In . SVG Version: 6.00 Build 0)  -->
<svg version="1.1" id="Mode_Isolation" xmlns="http://www.w3.org/2000/svg" xmlns:xlink="http://www.w3.org/1999/xlink" x="0px"
	 y="0px" viewBox="0 0 500 500" style="enable-background:new 0 0 500 500;" xml:space="preserve">
<style type="text/css">
	.st0{fill:#2A377C;}
	.st1{fill:#2B387D;}
	.st2{fill:none;stroke:#2A377C;stroke-width:30;stroke-linecap:round;stroke-linejoin:round;stroke-miterlimit:10;}
	.st3{clip-path:url(#SVGID_00000026140941990196776410000002911170181969382318_);}
	.st4{fill:#2B387D;stroke:#2B387D;stroke-width:2;stroke-miterlimit:10;}
	.st5{fill:#2B387D;stroke:#2B387D;stroke-width:5;stroke-miterlimit:10;}
	.st6{fill-rule:evenodd;clip-rule:evenodd;fill:#2B387D;}
	.st7{fill:#67B5A9;}
	.st8{fill:#D96552;}
	.st9{fill:#FCC104;}
	.st10{fill:#FFFFFF;}
	.st11{clip-path:url(#SVGID_00000067219834365268266350000006381422926958246309_);}
	.st12{fill-rule:evenodd;clip-rule:evenodd;fill:#FFFFFF;}
</style>
<g>
	<path class="st1" d="M416.55,85.21h-69.03V71.59c0-22.54-18.34-40.87-40.87-40.87h-109c-22.54,0-40.87,18.34-40.87,40.87v13.62
		H87.74c-37.56,0-68.12,30.56-68.12,68.12v218c0,37.56,30.56,68.12,68.12,68.12h328.81c37.56,0,68.12-30.56,68.12-68.12v-218
		C484.67,115.77,454.11,85.21,416.55,85.21L416.55,85.21z M184.02,71.59c0-7.51,6.11-13.62,13.62-13.62h109
		c7.51,0,13.62,6.11,13.62,13.62v13.62H184.02V71.59z M457.42,371.33c0,22.54-18.34,40.87-40.87,40.87H87.74
		c-22.54,0-40.87-18.34-40.87-40.87v-218c0-22.54,18.34-40.87,40.87-40.87h328.81c22.54,0,40.87,18.34,40.87,40.87V371.33z
		 M457.42,371.33"/>
	<path class="st1" d="M279.39,248.71h-13.62v-13.62c0-7.53-6.1-13.62-13.62-13.62c-7.53,0-13.62,6.1-13.62,13.62v13.62h-13.62
		c-7.53,0-13.62,6.1-13.62,13.62c0,7.53,6.1,13.62,13.62,13.62h13.62v13.62c0,7.53,6.1,13.62,13.62,13.62
		c7.53,0,13.62-6.1,13.62-13.62v-13.62h13.62c7.53,0,13.62-6.1,13.62-13.62C293.02,254.81,286.92,248.71,279.39,248.71
		L279.39,248.71z M279.39,248.71"/>
	<path class="st1" d="M252.14,166.96c-52.59,0-95.37,42.79-95.37,95.37s42.79,95.37,95.37,95.37s95.37-42.79,95.37-95.37
		S304.73,166.96,252.14,166.96L252.14,166.96z M252.14,330.46c-37.56,0-68.12-30.56-68.12-68.12s30.56-68.12,68.12-68.12
		s68.12,30.56,68.12,68.12S289.71,330.46,252.14,330.46L252.14,330.46z M252.14,330.46"/>
</g>
</svg>
