<?xml version="1.0" encoding="utf-8"?>
<!-- Generator: Adobe Illustrator 25.4.1, SVG Export Plug-In . SVG Version: 6.00 Build 0)  -->
<svg version="1.1" id="Mode_Isolation" xmlns="http://www.w3.org/2000/svg" xmlns:xlink="http://www.w3.org/1999/xlink" x="0px"
	 y="0px" viewBox="0 0 500 500" style="enable-background:new 0 0 500 500;" xml:space="preserve">
<style type="text/css">
	.st0{fill:#2A377C;}
	.st1{fill:#2B387D;}
	.st2{fill:none;stroke:#2A377C;stroke-width:30;stroke-linecap:round;stroke-linejoin:round;stroke-miterlimit:10;}
	.st3{clip-path:url(#SVGID_00000128454074610894110620000011475383809887069363_);}
	.st4{fill:#2B387D;stroke:#2B387D;stroke-width:2;stroke-miterlimit:10;}
	.st5{fill:#2B387D;stroke:#2B387D;stroke-width:5;stroke-miterlimit:10;}
	.st6{fill-rule:evenodd;clip-rule:evenodd;fill:#2B387D;}
	.st7{fill:#67B5A9;}
	.st8{fill:#D96552;}
	.st9{fill:#FCC104;}
	.st10{fill:#FFFFFF;}
	.st11{clip-path:url(#SVGID_00000065753711633400319280000006373673019965315766_);}
	.st12{fill-rule:evenodd;clip-rule:evenodd;fill:#FFFFFF;}
</style>
<g>
	<path class="st1" d="M345.41,257.36l-41.16-42.81c10.59-12.59,16.39-28.43,16.39-44.91c0-38.51-31.33-69.84-69.86-69.84
		c-38.51,0-69.84,31.33-69.84,69.84c0,38.52,31.33,69.85,69.84,69.85c14.46,0,28.25-4.36,40.02-12.65l41.49,43.15
		c1.73,1.81,4.06,2.8,6.57,2.8c2.36,0,4.59-0.9,6.3-2.55C348.79,266.76,348.9,260.99,345.41,257.36L345.41,257.36z M250.78,118.02
		c28.47,0,51.63,23.16,51.63,51.62c0,28.47-23.16,51.63-51.63,51.63c-28.45,0-51.61-23.16-51.61-51.63
		C199.16,141.18,222.32,118.02,250.78,118.02L250.78,118.02z M250.78,118.02"/>
	<path class="st1" d="M338.86,276.79c-3.61,0-6.97-1.43-9.46-4.04l-39.16-40.73c-11.79,7.51-25.36,11.46-39.46,11.46
		c-40.71,0-73.84-33.13-73.84-73.85c0-40.72,33.12-73.84,73.84-73.84c40.73,0,73.86,33.13,73.86,73.84
		c0,16.13-5.33,31.86-15.07,44.67l38.74,40.28c2.42,2.53,3.72,5.84,3.66,9.34c-0.07,3.51-1.5,6.77-4.03,9.2
		C345.48,275.49,342.26,276.79,338.86,276.79z M291.3,221.6l43.87,45.62c0.99,1.03,2.26,1.57,3.69,1.57c1.32,0,2.57-0.51,3.53-1.43
		c0.99-0.95,1.54-2.22,1.57-3.58c0.03-1.37-0.48-2.67-1.43-3.65l-43.65-45.4l2.32-2.75c9.96-11.85,15.45-26.88,15.45-42.34
		c0-36.31-29.54-65.84-65.86-65.84c-36.3,0-65.84,29.54-65.84,65.84c0,36.31,29.54,65.85,65.84,65.85c13.6,0,26.65-4.12,37.72-11.92
		L291.3,221.6z M250.78,225.27c-30.67,0-55.61-24.96-55.61-55.63c0-30.67,24.95-55.62,55.61-55.62c30.68,0,55.63,24.95,55.63,55.62
		C306.41,200.31,281.45,225.27,250.78,225.27z M250.78,122.02c-26.25,0-47.61,21.36-47.61,47.62c0,26.26,21.36,47.63,47.61,47.63
		c26.27,0,47.63-21.37,47.63-47.63C298.41,143.38,277.04,122.02,250.78,122.02z"/>
</g>
<g>
	<g>
		<g>
			<path class="st1" d="M383.74,87.61c-32.7-32.92-76.14-51.05-122.3-51.05c-25.99,0-51.59,5.8-74.05,16.78
				c-29.45,13.88-54.39,35.63-72.13,62.89c-18.27,28.09-27.94,60.69-27.94,94.28v23.31l-31.01,56.5c-0.04,0.06-0.07,0.13-0.1,0.19
				c-6.41,12.15-6.49,25.62-0.21,36.02c5.89,9.77,16.39,15.37,28.8,15.37h2.52v46.53c0,25.7,20.85,46.61,46.46,46.61
				c0.65,0,1.31-0.05,1.95-0.15l31.46-4.8v34.5c0,7.14,5.78,12.92,12.92,12.92h130.47c39.68,0,71.96-32.27,71.96-71.93v-71.15
				c33.16-32.62,52.08-77.46,52.08-123.98C434.43,164.08,416.36,120.45,383.74,87.61L383.74,87.61z M360.87,319.39
				c-2.66,2.45-4.17,5.89-4.17,9.51v76.69c0,25.42-20.69,46.1-46.12,46.1H193.03v-36.63c0-3.76-1.65-7.34-4.5-9.8
				c-2.85-2.45-6.64-3.54-10.37-2.97l-45.24,6.9c-10.98-0.46-19.76-9.59-19.76-20.76v-59.45c0-7.14-5.78-12.92-12.92-12.92H84.8
				c-2.25,0-5.24-0.5-6.68-2.88c-1.53-2.53-1.18-6.56,0.9-10.54l32.54-59.3c1.05-1.91,1.59-4.05,1.59-6.22v-26.62
				c0-28.58,8.21-56.31,23.76-80.2c15.13-23.26,36.42-41.81,61.57-53.64c0.06-0.03,0.12-0.05,0.18-0.09
				c18.96-9.29,40.67-14.19,62.78-14.19c80.92,0,147.02,66.47,147.33,148.12C408.77,251.69,391.31,291.37,360.87,319.39
				L360.87,319.39z M360.87,319.39"/>
			<path class="st1" d="M310.58,478.52H180.11c-7.67,0-13.92-6.24-13.92-13.92v-33.34l-30.31,4.62c-0.69,0.11-1.39,0.16-2.1,0.16
				c-26.17,0-47.46-21.36-47.46-47.61v-45.53H84.8c-12.77,0-23.58-5.78-29.66-15.85c-6.46-10.71-6.39-24.54,0.18-37l0.11-0.21
				l30.88-56.27v-23.05c0-33.79,9.72-66.58,28.1-94.83c17.84-27.42,42.92-49.29,72.54-63.25c22.58-11.04,48.33-16.88,74.48-16.88
				c46.43,0,90.11,18.24,123.01,51.35l0,0c32.81,33.03,50.98,76.91,51.16,123.55c0,46.37-18.97,91.68-52.08,124.4v70.73
				C383.53,445.8,350.81,478.52,310.58,478.52z M168.19,428.94v35.67c0,6.57,5.35,11.92,11.92,11.92h130.47
				c39.12,0,70.96-31.82,70.96-70.93v-71.57l0.3-0.29c32.9-32.37,51.78-77.29,51.78-123.26c-0.18-46.11-18.14-89.49-50.58-122.15
				c-32.52-32.73-75.7-50.76-121.59-50.76c-25.84,0-51.29,5.77-73.61,16.68c-29.3,13.81-54.1,35.43-71.73,62.54
				c-18.17,27.93-27.77,60.34-27.77,93.74v23.56l-0.12,0.23l-31.12,56.71c-6.22,11.81-6.31,24.9-0.22,35
				c5.71,9.46,15.89,14.89,27.94,14.89h3.52v47.53c0,25.15,20.39,45.61,45.46,45.61c0.6,0,1.2-0.05,1.79-0.14L168.19,428.94z
				 M310.58,452.68H192.03v-37.63c0-3.47-1.51-6.77-4.16-9.04c-2.64-2.27-6.12-3.27-9.56-2.74l-45.33,6.92l-0.1,0
				c-11.62-0.48-20.72-10.04-20.72-21.75v-59.45c0-6.57-5.35-11.92-11.92-11.92H84.8c-3.6,0-6.2-1.16-7.53-3.36
				c-1.7-2.82-1.37-7.23,0.87-11.52l32.55-59.32c0.96-1.75,1.47-3.74,1.47-5.74v-26.62c0-28.78,8.27-56.7,23.92-80.74
				c15.24-23.42,36.67-42.09,61.98-54l0.12-0.06c19.14-9.37,41-14.32,63.26-14.32c81.48,0,148.02,66.89,148.33,149.11
				c0,41.46-17.58,81.41-48.23,109.62l0,0c-2.45,2.25-3.85,5.45-3.85,8.77v76.69C357.7,431.56,336.56,452.68,310.58,452.68z
				 M194.03,450.68h116.55c24.88,0,45.12-20.23,45.12-45.1V328.9c0-3.88,1.64-7.61,4.49-10.24h0
				c30.24-27.83,47.58-67.25,47.58-108.14C407.46,129.4,341.81,63.4,261.44,63.4c-21.96,0-43.51,4.87-62.34,14.09
				c-0.02,0.01-0.09,0.05-0.16,0.08c-25.01,11.77-46.15,30.19-61.19,53.3c-15.44,23.72-23.59,51.26-23.59,79.65v26.62
				c0,2.34-0.59,4.65-1.72,6.7l-32.54,59.3c-1.91,3.65-2.26,7.31-0.92,9.54c1.2,1.98,3.82,2.4,5.82,2.4h15.44
				c7.67,0,13.92,6.24,13.92,13.92v59.45c0,10.61,8.21,19.26,18.71,19.75l45.14-6.89c4.02-0.61,8.09,0.56,11.17,3.2
				c3.08,2.65,4.85,6.5,4.85,10.55V450.68z"/>
		</g>
	</g>
</g>
</svg>
