<?xml version="1.0" encoding="utf-8"?>
<!-- Generator: Adobe Illustrator 25.4.1, SVG Export Plug-In . SVG Version: 6.00 Build 0)  -->
<svg version="1.1" id="Mode_Isolation" xmlns="http://www.w3.org/2000/svg" xmlns:xlink="http://www.w3.org/1999/xlink" x="0px"
	 y="0px" viewBox="0 0 500 500" style="enable-background:new 0 0 500 500;" xml:space="preserve">
<style type="text/css">
	.st0{fill:#2A377C;}
	.st1{fill:#2B387D;}
	.st2{fill:none;stroke:#2A377C;stroke-width:30;stroke-linecap:round;stroke-linejoin:round;stroke-miterlimit:10;}
	.st3{clip-path:url(#SVGID_00000099657271609114677010000010521017894929134261_);}
	.st4{fill:#2B387D;stroke:#2B387D;stroke-width:2;stroke-miterlimit:10;}
	.st5{fill:#2B387D;stroke:#2B387D;stroke-width:5;stroke-miterlimit:10;}
	.st6{fill-rule:evenodd;clip-rule:evenodd;fill:#2B387D;}
	.st7{fill:#67B5A9;}
	.st8{fill:#D96552;}
	.st9{fill:#FCC104;}
	.st10{fill:#FFFFFF;}
	.st11{clip-path:url(#SVGID_00000098196126531563752770000009264275795773004167_);}
	.st12{fill-rule:evenodd;clip-rule:evenodd;fill:#FFFFFF;}
</style>
<path class="st1" d="M461.86,207.74c5.31-1.89,8.86-6.92,8.86-12.57c-0.01-5.64-3.57-10.67-8.89-12.55l-214.01-75.51
	c-2.87-1.01-5.99-1.01-8.86,0L24.94,182.62c-5.32,1.88-8.88,6.91-8.89,12.55c-0.01,5.64,3.54,10.68,8.86,12.57l84.78,30.14v86.89
	c0,14.34,14.96,26.47,44.47,36.04c25.72,8.35,57.41,12.94,89.23,12.94c31.83,0,63.51-4.6,89.23-12.94
	c29.5-9.58,44.47-21.71,44.47-36.04v-86.89l35-12.44v120.4c-15.57,5.5-26.75,20.36-26.75,37.79c0,17.42,11.18,32.28,26.75,37.79
	v50.87c0,7.36,5.96,13.32,13.32,13.32c7.36,0,13.32-5.96,13.32-13.32v-50.87c15.57-5.5,26.75-20.36,26.75-37.79
	c0-17.43-11.18-32.28-26.75-37.79V215.96L461.86,207.74z M425.4,397.05c-7.4,0-13.43-6.02-13.43-13.43c0-7.4,6.03-13.43,13.43-13.43
	c7.4,0,13.43,6.03,13.43,13.43C438.83,391.02,432.81,397.05,425.4,397.05L425.4,397.05z M243.38,133.8l174.11,61.43l-174.11,61.9
	l-174.11-61.9L243.38,133.8z M350.44,322.76c-2.55,2.57-11.69,8.74-32.32,14.62c-22.01,6.28-48.55,9.74-74.74,9.74
	s-52.73-3.46-74.74-9.74c-20.63-5.88-29.77-12.05-32.32-14.62v-75.41l102.59,36.47c1.44,0.51,2.96,0.77,4.46,0.77
	c1.51,0,3.02-0.26,4.46-0.77l102.59-36.47L350.44,322.76L350.44,322.76z M350.44,322.76"/>
</svg>
