<?xml version="1.0" encoding="utf-8"?>
<!-- Generator: Adobe Illustrator 25.4.1, SVG Export Plug-In . SVG Version: 6.00 Build 0)  -->
<svg version="1.1" id="Mode_Isolation" xmlns="http://www.w3.org/2000/svg" xmlns:xlink="http://www.w3.org/1999/xlink" x="0px"
	 y="0px" viewBox="0 0 500 500" style="enable-background:new 0 0 500 500;" xml:space="preserve">
<style type="text/css">
	.st0{fill:#2A377C;}
	.st1{fill:#2B387D;}
	.st2{fill:none;stroke:#2A377C;stroke-width:30;stroke-linecap:round;stroke-linejoin:round;stroke-miterlimit:10;}
	.st3{clip-path:url(#SVGID_00000170237567324207180670000016104682622624266383_);}
	.st4{fill:#2B387D;stroke:#2B387D;stroke-width:2;stroke-miterlimit:10;}
	.st5{fill:#2B387D;stroke:#2B387D;stroke-width:5;stroke-miterlimit:10;}
	.st6{fill-rule:evenodd;clip-rule:evenodd;fill:#2B387D;}
	.st7{fill:#67B5A9;}
	.st8{fill:#D96552;}
	.st9{fill:#FCC104;}
	.st10{fill:#FFFFFF;}
	.st11{clip-path:url(#SVGID_00000122685848734461236770000001121494186596107434_);}
	.st12{fill-rule:evenodd;clip-rule:evenodd;fill:#FFFFFF;}
</style>
<g>
	<path class="st1" d="M445.79,243.78H414.5v-34.35l21.37-22.67c6.61-7,10.24-16.16,10.24-25.79V90.64
		c0-24.36-19.83-44.19-44.19-44.19c-24.36,0-44.19,19.82-44.19,44.19v70.33c0,9.63,3.63,18.78,10.24,25.79l21.37,22.67v34.35h-73.29
		c3.54-4.39,7.71-7.9,12.57-10.61c6.06-3.39,8.24-11.05,4.85-17.11c-3.39-6.06-11.05-8.24-17.11-4.85c-2.9,1.62-5.65,3.44-8.26,5.44
		v-5.24c0-6.95-5.63-12.57-12.58-12.57c-6.94,0-12.57,5.63-12.57,12.57v5.91c-2.85-2.26-5.88-4.3-9.1-6.1
		c-6.07-3.39-13.73-1.21-17.11,4.85c-3.38,6.06-1.21,13.73,4.85,17.11c4.86,2.71,9.03,6.23,12.57,10.61H144.46v-26.77h24.12
		c29.08,0,52.73-23.66,52.73-52.73c0-22.34-13.91-41.68-33.93-49.29c0.02-0.52,0.02-1.04,0.02-1.56c0-27.16-22.1-49.26-49.26-49.26
		c-26.95,0-48.92,21.76-49.26,48.63c-26.57,2.41-47.45,24.81-47.45,52c0,28.79,23.42,52.21,52.21,52.21h25.68v26.77H42.6
		c-6.94,0-12.57,5.63-12.57,12.58c0,57.21,22.28,110.99,62.73,151.44c40.45,40.45,94.23,62.73,151.44,62.73
		s110.99-22.28,151.44-62.73c40.45-40.45,62.73-94.23,62.73-151.44C458.36,249.41,452.73,243.78,445.79,243.78L445.79,243.78z
		 M382.88,160.97V90.64c0-10.5,8.54-19.04,19.04-19.04c10.5,0,19.04,8.54,19.04,19.04v70.33c0,3.19-1.2,6.22-3.39,8.54l-15.65,16.6
		l-15.65-16.6C384.09,167.19,382.88,164.16,382.88,160.97L382.88,160.97z M66.56,164.8c0-14.92,12.14-27.06,27.06-27.06
		c2.33,0,4.69,0.31,6.98,0.92c4.56,1.22,9.43-0.23,12.58-3.73c3.16-3.51,4.09-8.49,2.4-12.9c-1.05-2.75-1.58-5.64-1.58-8.59
		c0-13.3,10.81-24.12,24.11-24.12s24.12,10.82,24.12,24.12c0,2.44-0.37,4.87-1.1,7.2c-1.12,3.58-0.59,7.47,1.46,10.62
		c2.05,3.14,5.39,5.21,9.12,5.63c13.93,1.58,24.43,13.36,24.43,27.39c0,15.21-12.37,27.58-27.58,27.58H93.62
		C78.7,191.86,66.56,179.72,66.56,164.8L66.56,164.8z M55.59,268.93h61.02c12.51,13.2,11.74,19.59,9.73,35.98
		c-1.03,11,8.83,15.52,18.34,13.83c30.97,0,56.17,25.2,56.17,56.17c0,23.58-14.66,44.54-36.65,52.68
		C103.45,399.09,60.23,339.2,55.59,268.93L55.59,268.93z M194.94,438.86c19.23-15.11,31.06-38.47,31.06-63.95
		c0-42.17-32.26-76.94-73.39-80.94c0.26-8.09-0.78-16.17-5.27-25.05h110.66c6.54,25.43,25.04,46.28,49.41,55.86
		c3.96,35.17,30.27,63.66,64.35,70.93c-33.65,30.82-78.44,49.66-127.55,49.66C227.16,445.37,210.65,443.11,194.94,438.86
		L194.94,438.86z M393.45,372.2c-1.52,0.12-3.06,0.19-4.6,0.19c-31.3,0-56.77-25.43-56.82-56.72c0-0.04,0-0.09,0-0.13
		c0-5.7-3.83-10.68-9.33-12.15c-17.73-4.72-31.9-17.74-38.35-34.46H432.8C430.24,307.69,415.95,343.28,393.45,372.2L393.45,372.2z
		 M393.45,372.2"/>
</g>
</svg>
