<?xml version="1.0" encoding="utf-8"?>
<!-- Generator: Adobe Illustrator 25.4.1, SVG Export Plug-In . SVG Version: 6.00 Build 0)  -->
<svg version="1.1" id="Mode_Isolation" xmlns="http://www.w3.org/2000/svg" xmlns:xlink="http://www.w3.org/1999/xlink" x="0px"
	 y="0px" viewBox="0 0 500 500" style="enable-background:new 0 0 500 500;" xml:space="preserve">
<style type="text/css">
	.st0{fill:#2A377C;}
	.st1{fill:#2B387D;}
	.st2{fill:none;stroke:#2A377C;stroke-width:30;stroke-linecap:round;stroke-linejoin:round;stroke-miterlimit:10;}
	.st3{clip-path:url(#SVGID_00000173159727615268813560000007970591993071622053_);}
	.st4{fill:#2B387D;stroke:#2B387D;stroke-width:2;stroke-miterlimit:10;}
	.st5{fill:#2B387D;stroke:#2B387D;stroke-width:5;stroke-miterlimit:10;}
	.st6{fill-rule:evenodd;clip-rule:evenodd;fill:#2B387D;}
	.st7{fill:#67B5A9;}
	.st8{fill:#D96552;}
	.st9{fill:#FCC104;}
	.st10{fill:#FFFFFF;}
	.st11{clip-path:url(#SVGID_00000043445268105393703040000017069950557808817820_);}
	.st12{fill-rule:evenodd;clip-rule:evenodd;fill:#FFFFFF;}
</style>
<path class="st7" d="M396.99,175.52c0,106.06-154.01,313.67-154.01,313.67S88.97,281.58,88.97,175.52
	c0-85.06,68.95-154.01,154.01-154.01S396.99,90.46,396.99,175.52z"/>
<g>
	<path class="st10" d="M337.28,182.62h-15.44v-16.95l10.54-11.18c3.26-3.45,5.05-7.97,5.05-12.72v-34.69
		c0-12.02-9.78-21.8-21.8-21.8c-12.02,0-21.8,9.78-21.8,21.8v34.7c0,4.75,1.79,9.27,5.05,12.72l10.54,11.18v16.95h-36.15
		c1.75-2.16,3.8-3.9,6.2-5.24c2.99-1.67,4.06-5.45,2.39-8.44c-1.67-2.99-5.45-4.06-8.44-2.39c-1.43,0.8-2.79,1.7-4.07,2.68v-2.59
		c0-3.43-2.78-6.2-6.2-6.2c-3.43,0-6.2,2.78-6.2,6.2v2.91c-1.41-1.12-2.9-2.12-4.49-3.01c-2.99-1.67-6.77-0.6-8.44,2.39
		c-1.67,2.99-0.6,6.77,2.39,8.44c2.4,1.34,4.45,3.07,6.2,5.24h-63.99v-13.21h11.9c14.34,0,26.01-11.67,26.01-26.01
		c0-11.02-6.86-20.56-16.74-24.31c0.01-0.26,0.01-0.51,0.01-0.77c0-13.4-10.9-24.3-24.3-24.3c-13.3,0-24.13,10.73-24.3,23.99
		c-13.11,1.19-23.41,12.24-23.41,25.65c0,14.2,11.55,25.75,25.76,25.75h12.67v13.21h-37.84c-3.43,0-6.2,2.78-6.2,6.2
		c0,28.22,10.99,54.75,30.94,74.71c19.96,19.95,46.49,30.94,74.71,30.94s54.75-10.99,74.71-30.94
		c19.95-19.96,30.94-46.49,30.94-74.71C343.48,185.4,340.7,182.62,337.28,182.62L337.28,182.62z M306.24,141.77v-34.7
		c0-5.18,4.21-9.39,9.39-9.39c5.18,0,9.39,4.21,9.39,9.39v34.7c0,1.57-0.59,3.07-1.67,4.21l-7.72,8.19l-7.72-8.19
		C306.84,144.83,306.24,143.34,306.24,141.77L306.24,141.77z M150.2,143.66c0-7.36,5.99-13.35,13.35-13.35
		c1.15,0,2.31,0.15,3.45,0.46c2.25,0.6,4.65-0.11,6.21-1.84c1.56-1.73,2.02-4.19,1.19-6.36c-0.52-1.36-0.78-2.78-0.78-4.24
		c0-6.56,5.33-11.9,11.9-11.9s11.9,5.34,11.9,11.9c0,1.21-0.18,2.4-0.54,3.55c-0.55,1.76-0.29,3.69,0.72,5.24
		c1.01,1.55,2.66,2.57,4.5,2.78c6.87,0.78,12.05,6.59,12.05,13.51c0,7.5-6.1,13.61-13.61,13.61h-36.97
		C156.19,157.01,150.2,151.02,150.2,143.66L150.2,143.66z M144.79,195.03h30.1c6.17,6.51,5.79,9.66,4.8,17.75
		c-0.51,5.43,4.35,7.65,9.05,6.83c15.28,0,27.71,12.43,27.71,27.71c0,11.63-7.23,21.97-18.08,25.99
		C168.4,259.24,147.07,229.69,144.79,195.03L144.79,195.03z M213.53,278.85c9.49-7.45,15.32-18.98,15.32-31.55
		c0-20.8-15.91-37.96-36.21-39.93c0.13-3.99-0.39-7.97-2.6-12.36h54.59c3.23,12.54,12.35,22.83,24.37,27.56
		c1.95,17.35,14.93,31.4,31.74,34.99c-16.6,15.2-38.69,24.5-62.92,24.5C229.43,282.07,221.28,280.95,213.53,278.85L213.53,278.85z
		 M311.46,245.97c-0.75,0.06-1.51,0.09-2.27,0.09c-15.44,0-28-12.55-28.03-27.98c0-0.02,0-0.05,0-0.07c0-2.81-1.89-5.27-4.6-5.99
		c-8.74-2.33-15.73-8.75-18.92-17h73.23C329.61,214.15,322.56,231.7,311.46,245.97L311.46,245.97z M311.46,245.97"/>
</g>
</svg>
