<?xml version="1.0" encoding="utf-8"?>
<!-- Generator: Adobe Illustrator 25.4.1, SVG Export Plug-In . SVG Version: 6.00 Build 0)  -->
<svg version="1.1" id="Mode_Isolation" xmlns="http://www.w3.org/2000/svg" xmlns:xlink="http://www.w3.org/1999/xlink" x="0px"
	 y="0px" viewBox="0 0 500 500" style="enable-background:new 0 0 500 500;" xml:space="preserve">
<style type="text/css">
	.st0{fill:#2A377C;}
	.st1{fill:#2B387D;}
	.st2{fill:none;stroke:#2A377C;stroke-width:30;stroke-linecap:round;stroke-linejoin:round;stroke-miterlimit:10;}
	.st3{clip-path:url(#SVGID_00000094583243676166517620000001523832071358478738_);}
	.st4{fill:#2B387D;stroke:#2B387D;stroke-width:2;stroke-miterlimit:10;}
	.st5{fill:#2B387D;stroke:#2B387D;stroke-width:5;stroke-miterlimit:10;}
	.st6{fill-rule:evenodd;clip-rule:evenodd;fill:#2B387D;}
	.st7{fill:#67B5A9;}
	.st8{fill:#D96552;}
	.st9{fill:#FCC104;}
	.st10{fill:#FFFFFF;}
	.st11{clip-path:url(#SVGID_00000172413895116245208160000018206197141951935121_);}
	.st12{fill-rule:evenodd;clip-rule:evenodd;fill:#FFFFFF;}
</style>
<path class="st9" d="M404.01,175.52C404.01,281.58,250,489.19,250,489.19S95.99,281.58,95.99,175.52
	c0-85.06,68.95-154.01,154.01-154.01S404.01,90.46,404.01,175.52z"/>
<path class="st12" d="M294.89,87.33c12.4,0,22.46,10.06,22.46,22.46c0,12.4-10.06,22.46-22.46,22.46
	c-12.4,0-22.46-10.05-22.46-22.46C272.43,97.39,282.49,87.33,294.89,87.33L294.89,87.33z M221.88,229.42l-11.32-11.32l0.09,43.96
	c0,7.47,11.23,7.3,11.23,0V229.42z M204.36,209.37c-2.84,0.29-5.05,2.68-5.05,5.6v48.1c-1.22,6.62-11.14,5.81-11.14-1v-83.99
	c0-3.11-2.52-5.62-5.62-5.62s-5.62,2.52-5.62,5.62v23.28l-5.48-5.48c-1.31-1.31-1.81-2.7-1.64-4.52c0.8-8.58,1.76-24.18,2.5-32.03
	c0.21-2.27,1.56-4.01,3.71-4.78c18.83-6.76,33.24-7.71,52.36-1.82c-3.72,0.96-7.44,2.14-11.16,3.47
	c-6.26,2.25-10.46,7.65-11.09,14.28c-0.79,8.41-1.79,24.41-2.5,32.07C203.4,204.91,203.65,207.21,204.36,209.37L204.36,209.37z
	 M245.66,149.91c2.87-0.16,5.68-0.16,8.55,0.01c1.96-2.71,4.71-4.75,7.98-5.93c23.76-8.52,41.72-8.49,65.47,0.03
	c6.23,2.24,10.39,7.54,11.08,14.11c0.95,9.04,1.89,22.46,2.65,32.32c0.39,5.01-1.34,9.67-4.89,13.21l-12.46,12.46
	c-0.3,0.3-0.62,0.55-0.95,0.77v45.17c0,9.28-7.58,16.86-16.86,16.86c-4.07,0-7.81-1.46-10.73-3.87l-1.04,0.02
	c-2.91,2.41-6.65,3.86-10.71,3.86c-4.31,0-8.26-1.64-11.25-4.32c-2.99,2.69-6.94,4.32-11.25,4.32c-4.16,0-7.99-1.52-10.93-4.04
	l-0.63,0.01c-2.95,2.51-6.76,4.03-10.92,4.03c-4.32,0-8.27-1.64-11.25-4.32c-6.22,5.58-15.54,5.78-21.98,0.44l-1.04,0.02
	c-2.91,2.41-6.65,3.86-10.71,3.86c-9.29,0-16.86-7.58-16.86-16.86v-44.8l-13.43-13.43c-3.59-3.59-5.32-8.4-4.85-13.48
	c0.71-7.67,1.71-23.66,2.5-32.07c0.62-6.62,4.83-12.03,11.09-14.28c23.75-8.53,41.72-8.5,65.47,0.03
	C240.95,145.19,243.69,147.21,245.66,149.91L245.66,149.91z M271.42,152.71c3.76,0.97,7.51,2.15,11.26,3.5
	c6.23,2.24,10.39,7.54,11.08,14.11c0.95,9.04,1.89,22.45,2.65,32.31c0.18,2.36-0.1,4.62-0.82,6.74c2.78,0.34,4.93,2.71,4.93,5.58
	l0.09,47.09c0,7.47,11.23,7.3,11.23,0v-83.99c0-3.11,2.52-5.62,5.62-5.62c3.11,0,5.62,2.52,5.62,5.62v23.1l5.46-5.46
	c1.26-1.26,1.77-2.65,1.64-4.42c-0.75-9.68-1.74-23.85-2.6-32.01c-0.23-2.22-1.6-3.96-3.7-4.71
	C305.01,147.79,290.58,146.81,271.42,152.71L271.42,152.71z M289.27,218.1l-10.21,10.21c-0.29,0.29-0.6,0.54-0.93,0.75v32.99
	c0,6.81,9.92,7.63,11.14,1L289.27,218.1L289.27,218.1z M278.11,213.35v-15.6c0-3.11-2.52-5.62-5.62-5.62
	c-3.11,0-5.62,2.52-5.62,5.62v64.31c0,7.3-11.23,7.47-11.23,0l-0.09-30.28c0-3.11-2.52-5.62-5.62-5.62c-3.11,0-5.62,2.52-5.62,5.62
	v31.29c-1.22,6.62-11.14,5.8-11.14-1v-64.31c0-3.1-2.52-5.62-5.62-5.62c-3.1,0-5.62,2.52-5.62,5.62v15.79l-5.48-5.48
	c-1.31-1.31-1.81-2.7-1.64-4.52c0.8-8.58,1.76-24.18,2.5-32.03c0.21-2.27,1.56-4.01,3.71-4.79c9.02-3.24,19.3-5.73,28.92-5.73
	c9.33,0,20.23,2.61,29,5.76c2.09,0.75,3.46,2.49,3.7,4.71c0.86,8.15,1.86,22.33,2.6,32.01c0.14,1.77-0.37,3.16-1.64,4.42
	L278.11,213.35z M249.91,99.52c-12.4,0-22.46,10.05-22.46,22.46c0,12.4,10.06,22.46,22.46,22.46c12.4,0,22.46-10.06,22.46-22.46
	C272.37,109.58,262.31,99.52,249.91,99.52L249.91,99.52z M257.84,114.05c4.38,4.38,4.38,11.47,0,15.85
	c-4.38,4.38-11.47,4.38-15.85,0c-4.38-4.38-4.38-11.48,0-15.85C246.36,109.68,253.46,109.68,257.84,114.05L257.84,114.05z
	 M204.93,87.33c12.4,0,22.46,10.06,22.46,22.46c0,12.4-10.06,22.46-22.46,22.46c-12.4,0-22.46-10.05-22.46-22.46
	C182.48,97.39,192.53,87.33,204.93,87.33L204.93,87.33z M212.86,101.86c-4.38-4.38-11.47-4.38-15.85,0
	c-4.38,4.38-4.38,11.48,0,15.85c4.38,4.38,11.48,4.38,15.85,0C217.24,113.34,217.24,106.24,212.86,101.86L212.86,101.86z
	 M302.81,101.86c-4.38-4.38-11.47-4.38-15.85,0c-4.38,4.38-4.38,11.48,0,15.85c4.38,4.38,11.47,4.38,15.85,0
	C307.19,113.34,307.19,106.24,302.81,101.86L302.81,101.86z M302.81,101.86"/>
</svg>
