<?xml version="1.0" encoding="utf-8"?>
<!-- Generator: Adobe Illustrator 25.4.1, SVG Export Plug-In . SVG Version: 6.00 Build 0)  -->
<svg version="1.1" id="Mode_Isolation" xmlns="http://www.w3.org/2000/svg" xmlns:xlink="http://www.w3.org/1999/xlink" x="0px"
	 y="0px" viewBox="0 0 500 500" style="enable-background:new 0 0 500 500;" xml:space="preserve">
<style type="text/css">
	.st0{fill:#2A377C;}
	.st1{fill:#2B387D;}
	.st2{fill:none;stroke:#2A377C;stroke-width:30;stroke-linecap:round;stroke-linejoin:round;stroke-miterlimit:10;}
	.st3{clip-path:url(#SVGID_00000013180199069974025710000014698904416297235089_);}
	.st4{fill:#2B387D;stroke:#2B387D;stroke-width:2;stroke-miterlimit:10;}
	.st5{fill:#2B387D;stroke:#2B387D;stroke-width:5;stroke-miterlimit:10;}
	.st6{fill-rule:evenodd;clip-rule:evenodd;fill:#2B387D;}
	.st7{fill:#67B5A9;}
	.st8{fill:#D96552;}
	.st9{fill:#FCC104;}
	.st10{fill:#FFFFFF;}
	.st11{clip-path:url(#SVGID_00000085223514989949078360000001717571923136492976_);}
	.st12{fill-rule:evenodd;clip-rule:evenodd;fill:#FFFFFF;}
</style>
<path class="st9" d="M396.99,175.52c0,106.06-154.01,313.67-154.01,313.67S88.97,281.58,88.97,175.52
	c0-85.06,68.95-154.01,154.01-154.01S396.99,90.46,396.99,175.52z"/>
<g>
	<g>
		<path class="st10" d="M288.53,181.55l-20.07-20.87c5.16-6.14,7.99-13.86,7.99-21.9c0-18.78-15.28-34.05-34.06-34.05
			c-18.77,0-34.05,15.28-34.05,34.05c0,18.78,15.28,34.06,34.05,34.06c7.05,0,13.77-2.12,19.51-6.17l20.23,21.04
			c0.85,0.88,1.98,1.37,3.2,1.37c1.15,0,2.24-0.44,3.07-1.24C290.18,186.14,290.23,183.32,288.53,181.55L288.53,181.55z
			 M242.4,113.62c13.88,0,25.17,11.29,25.17,25.17c0,13.88-11.29,25.17-25.17,25.17c-13.87,0-25.16-11.29-25.16-25.17
			C217.23,124.91,228.52,113.62,242.4,113.62L242.4,113.62z M242.4,113.62"/>
		<path class="st10" d="M285.34,191.03c-1.76,0-3.4-0.7-4.61-1.97l-19.09-19.86c-5.75,3.66-12.36,5.59-19.24,5.59
			c-19.85,0-36-16.15-36-36.01c0-19.85,16.15-36,36-36c19.86,0,36.01,16.15,36.01,36c0,7.87-2.6,15.53-7.35,21.78l18.89,19.64
			c1.18,1.23,1.81,2.85,1.78,4.56c-0.03,1.71-0.73,3.3-1.96,4.48C288.57,190.39,287,191.03,285.34,191.03z M262.15,164.12
			l21.39,22.24c0.48,0.5,1.1,0.77,1.8,0.77c0.64,0,1.25-0.25,1.72-0.7c0.48-0.46,0.75-1.08,0.76-1.75c0.01-0.67-0.24-1.3-0.7-1.78
			l-21.28-22.13l1.13-1.34c4.86-5.78,7.53-13.11,7.53-20.64c0-17.7-14.4-32.1-32.11-32.1c-17.7,0-32.1,14.4-32.1,32.1
			c0,17.7,14.4,32.11,32.1,32.11c6.63,0,12.99-2.01,18.39-5.81L262.15,164.12z M242.39,165.91c-14.95,0-27.11-12.17-27.11-27.12
			c0-14.95,12.16-27.12,27.11-27.12c14.96,0,27.12,12.16,27.12,27.12C269.52,153.74,257.35,165.91,242.39,165.91z M242.39,115.57
			c-12.8,0-23.21,10.41-23.21,23.22c0,12.8,10.41,23.22,23.21,23.22c12.81,0,23.22-10.42,23.22-23.22
			C265.62,125.98,255.2,115.57,242.39,115.57z"/>
	</g>
	<g>
		<g>
			<g>
				<path class="st10" d="M307.22,98.79C291.27,82.74,270.1,73.9,247.59,73.9c-12.67,0-25.15,2.83-36.1,8.18
					c-14.36,6.77-26.52,17.37-35.17,30.66c-8.91,13.69-13.62,29.59-13.62,45.97v11.36l-15.12,27.55c-0.02,0.03-0.03,0.06-0.05,0.09
					c-3.12,5.92-3.16,12.49-0.1,17.56c2.87,4.76,7.99,7.49,14.04,7.49h1.23v22.69c0,12.53,10.16,22.73,22.65,22.73
					c0.32,0,0.64-0.02,0.95-0.07l15.34-2.34v16.82c0,3.48,2.82,6.3,6.3,6.3h63.61c19.34,0,35.08-15.73,35.08-35.07v-34.69
					c16.17-15.9,25.39-37.77,25.39-60.44C331.93,136.08,323.12,114.8,307.22,98.79L307.22,98.79z M296.07,211.8
					c-1.3,1.19-2.03,2.87-2.03,4.64v37.39c0,12.39-10.09,22.47-22.48,22.47h-57.31v-17.86c0-1.83-0.8-3.58-2.2-4.78
					c-1.39-1.2-3.24-1.73-5.05-1.45l-22.06,3.37c-5.35-0.22-9.64-4.68-9.64-10.12v-28.98c0-3.48-2.82-6.3-6.3-6.3h-7.53
					c-1.1,0-2.55-0.24-3.25-1.4c-0.74-1.23-0.57-3.2,0.44-5.14l15.87-28.91c0.51-0.93,0.78-1.97,0.78-3.03v-12.98
					c0-13.94,4-27.46,11.58-39.1c7.38-11.34,17.76-20.38,30.02-26.15c0.03-0.01,0.06-0.03,0.09-0.04
					c9.24-4.53,19.83-6.92,30.61-6.92c39.45,0,71.68,32.41,71.83,72.21C319.42,178.79,310.91,198.14,296.07,211.8L296.07,211.8z
					 M296.07,211.8"/>
				<path class="st10" d="M271.55,289.38h-63.61c-3.74,0-6.79-3.04-6.79-6.79v-16.25l-14.78,2.25c-0.34,0.05-0.68,0.08-1.02,0.08
					c-12.76,0-23.14-10.41-23.14-23.21v-22.2h-0.74c-6.23,0-11.5-2.82-14.46-7.73c-3.15-5.22-3.11-11.96,0.09-18.04l0.05-0.1
					l15.06-27.44v-11.24c0-16.47,4.74-32.46,13.7-46.23c8.7-13.37,20.93-24.03,35.37-30.84c11.01-5.38,23.56-8.23,36.31-8.23
					c22.64,0,43.93,8.89,59.97,25.03l0,0c16,16.1,24.86,37.5,24.94,60.24c0,22.61-9.25,44.7-25.39,60.65v34.49
					C307.12,273.43,291.16,289.38,271.55,289.38z M202.13,265.2v17.39c0,3.2,2.61,5.81,5.81,5.81h63.61
					c19.08,0,34.59-15.51,34.59-34.58v-34.89l0.15-0.14c16.04-15.78,25.24-37.68,25.24-60.1c-0.09-22.48-8.85-43.63-24.66-59.55
					c-15.85-15.96-36.91-24.75-59.28-24.75c-12.6,0-25.01,2.81-35.89,8.13c-14.28,6.73-26.38,17.27-34.97,30.49
					c-8.86,13.62-13.54,29.42-13.54,45.7v11.49l-0.06,0.11l-15.17,27.65c-3.03,5.76-3.08,12.14-0.11,17.07
					c2.78,4.61,7.75,7.26,13.62,7.26h1.72v23.17c0,12.26,9.94,22.24,22.17,22.24c0.29,0,0.59-0.02,0.87-0.07L202.13,265.2z
					 M271.55,276.78h-57.8v-18.34c0-1.69-0.74-3.3-2.03-4.41c-1.29-1.11-2.99-1.59-4.66-1.34l-22.1,3.37l-0.05,0
					c-5.66-0.24-10.1-4.89-10.1-10.61v-28.98c0-3.2-2.61-5.81-5.81-5.81h-7.53c-1.75,0-3.02-0.57-3.67-1.64
					c-0.83-1.37-0.67-3.53,0.42-5.61l15.87-28.92c0.47-0.85,0.72-1.82,0.72-2.8v-12.98c0-14.03,4.03-27.64,11.66-39.37
					c7.43-11.42,17.88-20.52,30.22-26.33l0.06-0.03c9.33-4.57,19.99-6.98,30.84-6.98c39.72,0,72.17,32.61,72.32,72.7
					c0,20.21-8.57,39.69-23.51,53.44l0,0c-1.19,1.1-1.88,2.66-1.88,4.28v37.39C294.52,266.48,284.22,276.78,271.55,276.78z
					 M214.73,275.81h56.82c12.13,0,22-9.86,22-21.99v-37.39c0-1.89,0.8-3.71,2.19-4.99h0c14.74-13.57,23.2-32.79,23.2-52.72
					c-0.15-39.55-32.16-71.73-71.34-71.73c-10.71,0-21.22,2.38-30.39,6.87c-0.01,0.01-0.04,0.02-0.08,0.04
					c-12.19,5.74-22.5,14.72-29.83,25.99c-7.53,11.56-11.5,24.99-11.5,38.83v12.98c0,1.14-0.29,2.27-0.84,3.27l-15.87,28.91
					c-0.93,1.78-1.1,3.57-0.45,4.65c0.58,0.97,1.86,1.17,2.84,1.17H169c3.74,0,6.79,3.04,6.79,6.79v28.98c0,5.17,4,9.39,9.12,9.63
					l22.01-3.36c1.96-0.3,3.95,0.27,5.45,1.56c1.5,1.29,2.37,3.17,2.37,5.15V275.81z"/>
			</g>
		</g>
	</g>
</g>
</svg>
