<?xml version="1.0" encoding="utf-8"?>
<!-- Generator: Adobe Illustrator 25.4.1, SVG Export Plug-In . SVG Version: 6.00 Build 0)  -->
<svg version="1.1" id="Mode_Isolation" xmlns="http://www.w3.org/2000/svg" xmlns:xlink="http://www.w3.org/1999/xlink" x="0px"
	 y="0px" viewBox="0 0 500 500" style="enable-background:new 0 0 500 500;" xml:space="preserve">
<style type="text/css">
	.st0{fill:#2A377C;}
	.st1{fill:#2B387D;}
	.st2{fill:none;stroke:#2A377C;stroke-width:30;stroke-linecap:round;stroke-linejoin:round;stroke-miterlimit:10;}
	.st3{clip-path:url(#SVGID_00000131329803741930107370000001471201775193440384_);}
	.st4{fill:#2B387D;stroke:#2B387D;stroke-width:2;stroke-miterlimit:10;}
	.st5{fill:#2B387D;stroke:#2B387D;stroke-width:5;stroke-miterlimit:10;}
	.st6{fill-rule:evenodd;clip-rule:evenodd;fill:#2B387D;}
	.st7{fill:#67B5A9;}
	.st8{fill:#D96552;}
	.st9{fill:#FCC104;}
	.st10{fill:#FFFFFF;}
	.st11{clip-path:url(#SVGID_00000022531391287826910840000010558661528517299607_);}
	.st12{fill-rule:evenodd;clip-rule:evenodd;fill:#FFFFFF;}
</style>
<path class="st0" d="M404.01,175.52C404.01,281.58,250,489.19,250,489.19S95.99,281.58,95.99,175.52
	c0-85.06,68.95-154.01,154.01-154.01S404.01,90.46,404.01,175.52z"/>
<g>
	<path class="st10" d="M322.05,107.68H291.8v-5.97c0-9.88-8.04-17.91-17.91-17.91h-47.77c-9.88,0-17.91,8.04-17.91,17.91v5.97
		h-30.25c-16.46,0-29.85,13.39-29.85,29.85v95.53c0,16.46,13.39,29.85,29.85,29.85h144.1c16.46,0,29.85-13.39,29.85-29.85v-95.53
		C351.9,121.07,338.51,107.68,322.05,107.68L322.05,107.68z M220.15,101.71c0-3.29,2.68-5.97,5.97-5.97h47.77
		c3.29,0,5.97,2.68,5.97,5.97v5.97h-59.71V101.71z M339.96,233.07c0,9.88-8.04,17.91-17.91,17.91h-144.1
		c-9.88,0-17.91-8.04-17.91-17.91v-95.53c0-9.88,8.04-17.91,17.91-17.91h144.1c9.88,0,17.91,8.04,17.91,17.91V233.07z
		 M339.96,233.07"/>
	<path class="st10" d="M261.94,179.33h-5.97v-5.97c0-3.3-2.67-5.97-5.97-5.97s-5.97,2.67-5.97,5.97v5.97h-5.97
		c-3.3,0-5.97,2.67-5.97,5.97c0,3.3,2.67,5.97,5.97,5.97h5.97v5.97c0,3.3,2.67,5.97,5.97,5.97s5.97-2.67,5.97-5.97v-5.97h5.97
		c3.3,0,5.97-2.67,5.97-5.97C267.91,182,265.24,179.33,261.94,179.33L261.94,179.33z M261.94,179.33"/>
	<path class="st10" d="M250,143.5c-23.05,0-41.8,18.75-41.8,41.8s18.75,41.8,41.8,41.8s41.8-18.75,41.8-41.8S273.05,143.5,250,143.5
		L250,143.5z M250,215.15c-16.46,0-29.85-13.39-29.85-29.85s13.39-29.85,29.85-29.85c16.46,0,29.85,13.39,29.85,29.85
		S266.46,215.15,250,215.15L250,215.15z M250,215.15"/>
</g>
</svg>
