<?xml version="1.0" encoding="utf-8"?>
<!-- Generator: Adobe Illustrator 25.4.1, SVG Export Plug-In . SVG Version: 6.00 Build 0)  -->
<svg version="1.1" id="Mode_Isolation" xmlns="http://www.w3.org/2000/svg" xmlns:xlink="http://www.w3.org/1999/xlink" x="0px"
	 y="0px" viewBox="0 0 500 500" style="enable-background:new 0 0 500 500;" xml:space="preserve">
<style type="text/css">
	.st0{fill:#2A377C;}
	.st1{fill:#2B387D;}
	.st2{fill:none;stroke:#2A377C;stroke-width:30;stroke-linecap:round;stroke-linejoin:round;stroke-miterlimit:10;}
	.st3{clip-path:url(#SVGID_00000039840239478729764260000005041425568995903635_);}
	.st4{fill:#2B387D;stroke:#2B387D;stroke-width:2;stroke-miterlimit:10;}
	.st5{fill:#2B387D;stroke:#2B387D;stroke-width:5;stroke-miterlimit:10;}
	.st6{fill-rule:evenodd;clip-rule:evenodd;fill:#2B387D;}
	.st7{fill:#67B5A9;}
	.st8{fill:#D96552;}
	.st9{fill:#FCC104;}
	.st10{fill:#FFFFFF;}
	.st11{clip-path:url(#SVGID_00000171000271355633113720000016279717109014117053_);}
	.st12{fill-rule:evenodd;clip-rule:evenodd;fill:#FFFFFF;}
</style>
<path class="st6" d="M350.27,34.72c28.66,0,51.9,23.24,51.9,51.9c0,28.66-23.24,51.9-51.9,51.9c-28.66,0-51.9-23.24-51.9-51.9
	C298.37,57.96,321.61,34.72,350.27,34.72L350.27,34.72z M181.54,363.11l-26.16-26.16l0.21,101.59c0,17.26,25.95,16.86,25.95,0
	V363.11z M141.06,316.76c-6.56,0.66-11.68,6.2-11.68,12.93v111.16c-2.81,15.3-25.74,13.42-25.74-2.32V244.42c0-7.18-5.82-13-13-13
	c-7.18,0-13,5.82-13,13v53.81l-12.67-12.66c-3.02-3.02-4.19-6.23-3.79-10.44c1.85-19.84,4.07-55.88,5.78-74.03
	c0.49-5.24,3.6-9.28,8.57-11.06c43.53-15.63,76.82-17.81,121.02-4.22c-8.61,2.23-17.21,4.94-25.8,8.02
	c-14.46,5.19-24.19,17.69-25.63,33c-1.83,19.43-4.13,56.4-5.78,74.12C138.83,306.47,139.41,311.77,141.06,316.76L141.06,316.76z
	 M236.5,179.36c6.62-0.37,13.12-0.37,19.75,0.01c4.54-6.27,10.88-10.99,18.45-13.7c54.9-19.7,96.42-19.63,151.31,0.07
	c14.41,5.17,24.01,17.42,25.6,32.61c2.2,20.9,4.36,51.9,6.11,74.68c0.89,11.58-3.1,22.34-11.29,30.53l-28.79,28.79
	c-0.68,0.68-1.42,1.27-2.2,1.77v104.4c0,21.46-17.51,38.97-38.97,38.97c-9.41,0-18.05-3.36-24.8-8.95l-2.4,0.04
	c-6.74,5.56-15.37,8.91-24.75,8.91c-9.97,0-19.09-3.78-25.99-9.98c-6.9,6.21-16.03,9.99-26.01,9.99c-9.62,0-18.46-3.52-25.26-9.34
	l-1.45,0.02c-6.81,5.8-15.63,9.32-25.24,9.32c-9.98,0-19.1-3.79-26.01-9.99c-14.37,12.9-35.9,13.35-50.79,1.03l-2.4,0.04
	c-6.74,5.56-15.37,8.91-24.75,8.91c-21.46,0-38.97-17.51-38.97-38.97V334.99L46.6,303.94c-8.29-8.29-12.3-19.4-11.21-31.15
	c1.65-17.72,3.95-54.68,5.78-74.12c1.44-15.31,11.17-27.8,25.63-32.99c54.9-19.71,96.42-19.63,151.31,0.07
	C225.62,168.44,231.95,173.12,236.5,179.36L236.5,179.36z M296.04,185.83c8.68,2.24,17.35,4.97,26.02,8.08
	c14.4,5.17,24,17.42,25.6,32.61c2.2,20.9,4.36,51.89,6.12,74.68c0.42,5.45-0.23,10.68-1.91,15.59c6.42,0.79,11.4,6.26,11.4,12.9
	l0.21,108.84c0,17.26,25.96,16.86,25.96,0V244.42c0-7.18,5.82-13,13-13c7.18,0,13,5.82,13,13v53.39l12.61-12.61
	c2.92-2.92,4.1-6.13,3.78-10.23c-1.72-22.37-4.03-55.13-6.01-73.97c-0.54-5.14-3.71-9.15-8.54-10.88
	C373.66,174.46,340.32,172.19,296.04,185.83L296.04,185.83z M337.28,336.95l-23.59,23.59c-0.67,0.67-1.39,1.25-2.16,1.74v76.25
	c0,15.74,22.93,17.62,25.74,2.32L337.28,336.95L337.28,336.95z M311.49,325.98v-36.06c0-7.18-5.82-13-13-13s-13,5.82-13,13v148.63
	c0,16.86-25.95,17.26-25.95,0l-0.21-69.99c0-7.18-5.82-13-13-13c-7.18,0-13,5.82-13,13v72.31c-2.82,15.3-25.74,13.42-25.74-2.32
	V289.92c0-7.18-5.82-13-13-13c-7.18,0-13,5.82-13,13v36.48l-12.66-12.67c-3.02-3.02-4.19-6.23-3.8-10.44
	c1.85-19.83,4.07-55.88,5.78-74.02c0.49-5.24,3.6-9.28,8.57-11.06c20.84-7.48,44.6-13.25,66.83-13.25
	c21.56,0.01,46.76,6.04,67.02,13.31c4.83,1.74,8,5.75,8.54,10.88c1.98,18.84,4.29,51.6,6.01,73.97c0.31,4.1-0.86,7.3-3.78,10.22
	L311.49,325.98z M246.33,62.9c-28.66,0-51.9,23.24-51.9,51.9c0,28.66,23.24,51.9,51.9,51.9c28.66,0,51.9-23.24,51.9-51.9
	C298.23,86.14,274.99,62.9,246.33,62.9L246.33,62.9z M264.65,96.48c10.11,10.11,10.11,26.52,0,36.64
	c-10.11,10.12-26.52,10.12-36.63,0c-10.12-10.11-10.12-26.52,0-36.64C238.13,86.37,254.53,86.37,264.65,96.48L264.65,96.48z
	 M142.38,34.72c28.66,0,51.9,23.24,51.9,51.9c0,28.66-23.24,51.9-51.9,51.9c-28.66,0-51.9-23.24-51.9-51.9
	C90.48,57.96,113.72,34.72,142.38,34.72L142.38,34.72z M160.7,68.3c-10.11-10.11-26.52-10.11-36.63,0
	c-10.12,10.11-10.11,26.52,0,36.64c10.12,10.12,26.52,10.12,36.63,0C170.81,94.83,170.81,78.42,160.7,68.3L160.7,68.3z M368.59,68.3
	c-10.12-10.11-26.52-10.11-36.63,0c-10.11,10.11-10.11,26.52,0,36.64c10.12,10.12,26.52,10.12,36.63,0
	C378.7,94.83,378.7,78.42,368.59,68.3L368.59,68.3z M368.59,68.3"/>
</svg>
