<?xml version="1.0" encoding="utf-8"?>
<!-- Generator: Adobe Illustrator 25.4.1, SVG Export Plug-In . SVG Version: 6.00 Build 0)  -->
<svg version="1.1" id="Mode_Isolation" xmlns="http://www.w3.org/2000/svg" xmlns:xlink="http://www.w3.org/1999/xlink" x="0px"
	 y="0px" viewBox="0 0 500 500" style="enable-background:new 0 0 500 500;" xml:space="preserve">
<style type="text/css">
	.st0{fill:#2A377C;}
	.st1{fill:#2B387D;}
	.st2{fill:none;stroke:#2A377C;stroke-width:30;stroke-linecap:round;stroke-linejoin:round;stroke-miterlimit:10;}
	.st3{clip-path:url(#SVGID_00000137841655504488763010000008544891759530195859_);}
	.st4{fill:#2B387D;stroke:#2B387D;stroke-width:2;stroke-miterlimit:10;}
	.st5{fill:#2B387D;stroke:#2B387D;stroke-width:5;stroke-miterlimit:10;}
	.st6{fill-rule:evenodd;clip-rule:evenodd;fill:#2B387D;}
	.st7{fill:#67B5A9;}
	.st8{fill:#D96552;}
	.st9{fill:#FCC104;}
	.st10{fill:#FFFFFF;}
	.st11{clip-path:url(#SVGID_00000123408373996055459220000016491493097351965847_);}
	.st12{fill-rule:evenodd;clip-rule:evenodd;fill:#FFFFFF;}
</style>
<path class="st9" d="M400.28,175.52c0,106.06-154.01,313.67-154.01,313.67S92.25,281.58,92.25,175.52
	c0-85.06,68.95-154.01,154.01-154.01S400.28,90.46,400.28,175.52z"/>
<g>
	<g>
		<path class="st10" d="M361.52,209.34l-22.56-22.49c6.19-6.08,10.31-10.12,10.44-10.25c3.86-3.75,6.35-9.25,6.35-15.27
			c0-11.66-9.23-21.09-20.75-21.5c-0.39-11.28-9.4-20.32-20.72-20.72c-0.41-11.64-10.11-21.13-22.22-20.72
			c-0.48-4.77-2.54-9.4-6.18-13.04c-8.39-8.39-22.05-8.39-30.43-0.01l-9.14,9.12l-9.06-9.06c-4.05-4.05-9.46-6.28-15.22-6.28
			c-11.72,0-21.09,9.24-21.49,20.74c-11.33,0.39-20.5,9.5-20.73,21.06c-11.54,0.57-20.67,10.17-20.4,21.95
			c-5.02,0.44-9.69,2.6-13.28,6.2c-8.31,8.31-8.46,21.97,0,30.43l7.44,7.44l-22.46,22.4c-2.7,2.69-2.68,7.06,0.01,9.74l70.06,69.6
			c2.68,2.66,7.02,2.66,9.7-0.01l25.64-25.64c2.85-2.85,5.98-4.25,9.79-5.35c3.9,1.12,6.99,2.53,9.8,5.35l25.64,25.64
			c2.67,2.67,7.01,2.69,9.7,0.01l70.06-69.6C364.21,216.4,364.21,212.03,361.52,209.34L361.52,209.34z M216.52,95.12
			c3.01-3.01,7.98-3.03,11.01,0l23.61,23.62c3.04,3.04,3.04,7.97,0,11.01c-3.02,3.02-7.99,3.02-11.01,0l-23.61-23.62
			C213.48,103.1,213.48,98.16,216.52,95.12L216.52,95.12z M195.8,115.85c3.02-3.02,7.99-3.02,11.01,0l23.61,23.62
			c1.46,1.46,2.26,3.41,2.26,5.5c0,4.32-3.44,7.77-7.77,7.77c-2.09,0-4.04-0.8-5.5-2.26l-23.62-23.62
			C192.78,123.84,192.77,118.87,195.8,115.85L195.8,115.85z M175.4,136.89c3.01-3.01,7.98-3.02,11.01,0l23.29,23.29
			c3.04,3.04,3.04,7.97,0,11.01c-3.01,3.01-7.98,3.03-11.01,0c-3.42-3.42,8.76,8.77-23.29-23.29
			C172.37,144.88,172.38,139.91,175.4,136.89L175.4,136.89z M155.84,158.79c3.02-3.02,7.98-3.02,11.01,0l22.12,22.12
			c3.04,3.04,3.04,7.97,0,11.01c-3.01,3.01-7.98,3.02-11.01,0l-22.12-22.12C152.82,166.77,152.83,161.8,155.84,158.79L155.84,158.79
			z M226.8,253.31l-20.8,20.8l-60.31-59.91l17.59-17.54l4.97,4.97c8.39,8.39,22.05,8.39,30.44,0c4-4,6.09-9.2,6.28-14.46
			c11.51-0.4,20.33-9.63,20.72-20.72c11.2-0.39,20.32-9.31,20.71-20.72c5.47-0.19,10.58-2.39,14.45-6.27
			c8.39-8.39,8.39-22.05,0-30.44l-4.84-4.84l9.13-9.11c3.04-3.04,7.98-3.04,11.01,0c3.03,3.02,3.05,7.96,0,11.01
			c-2.68,2.68-2.68,7.03,0,9.71c2.68,2.68,7.03,2.68,9.71,0c0.11-0.12-0.41,0.41,1.41-1.41c3.02-3.01,7.98-3.02,11.01,0
			c3.04,3.04,3.04,7.97,0,11.01c-2.68,2.68-2.68,7.03,0,9.71c2.68,2.68,7.03,2.68,9.71,0c0,0,0.01-0.01,0.01-0.01
			c3-2.99,7.97-3.02,11,0.01c2.91,2.91,3.16,7.77,0,11.01c-2.68,2.68-2.68,7.03,0,9.71c2.68,2.68,7.03,2.68,9.71,0
			c3.04-3.03,7.98-3.03,11.01,0c3.04,3.04,3.05,7.95,0.02,10.99c-1.33,1.3-43.04,42.21-61.67,60.84
			c-11.07,11.07-20.23,13.17-29.1,15.2C241.5,244.59,233.75,246.36,226.8,253.31L226.8,253.31z M286.62,274.11
			c0,0-20.81-20.82-21.58-21.55c6.88-2.62,14.51-6.94,22.76-15.19c10.3-10.3,27.68-27.43,41.36-40.89l17.77,17.71L286.62,274.11z
			 M286.62,274.11"/>
	</g>
</g>
</svg>
