<?xml version="1.0" encoding="utf-8"?>
<!-- Generator: Adobe Illustrator 25.4.1, SVG Export Plug-In . SVG Version: 6.00 Build 0)  -->
<svg version="1.1" id="Mode_Isolation" xmlns="http://www.w3.org/2000/svg" xmlns:xlink="http://www.w3.org/1999/xlink" x="0px"
	 y="0px" viewBox="0 0 500 500" style="enable-background:new 0 0 500 500;" xml:space="preserve">
<style type="text/css">
	.st0{fill:#2A377C;}
	.st1{fill:#2B387D;}
	.st2{fill:none;stroke:#2A377C;stroke-width:30;stroke-linecap:round;stroke-linejoin:round;stroke-miterlimit:10;}
	.st3{clip-path:url(#SVGID_00000013190903554881681690000017467232154001657790_);}
	.st4{fill:#2B387D;stroke:#2B387D;stroke-width:2;stroke-miterlimit:10;}
	.st5{fill:#2B387D;stroke:#2B387D;stroke-width:5;stroke-miterlimit:10;}
	.st6{fill-rule:evenodd;clip-rule:evenodd;fill:#2B387D;}
	.st7{fill:#67B5A9;}
	.st8{fill:#D96552;}
	.st9{fill:#FCC104;}
	.st10{fill:#FFFFFF;}
	.st11{clip-path:url(#SVGID_00000168824404991406354410000014893805446726645920_);}
	.st12{fill-rule:evenodd;clip-rule:evenodd;fill:#FFFFFF;}
</style>
<g>
	<g>
		<path class="st1" d="M476.72,303.48l-44.18-44.04c12.12-11.9,20.19-19.82,20.45-20.08c7.55-7.34,12.44-18.12,12.44-29.9
			c0-22.85-18.08-41.31-40.65-42.1c-0.77-22.09-18.41-39.8-40.57-40.57c-0.8-22.8-19.79-41.38-43.52-40.59
			c-0.94-9.33-4.98-18.41-12.11-25.55c-16.43-16.43-43.18-16.43-59.6-0.01L251.06,78.5l-17.74-17.75
			c-7.94-7.94-18.53-12.31-29.81-12.31c-22.96,0-41.31,18.1-42.09,40.62c-22.19,0.77-40.15,18.61-40.59,41.24
			c-22.6,1.12-40.47,19.92-39.95,43c-9.84,0.87-18.97,5.1-26.01,12.14c-16.27,16.27-16.57,43.04,0,59.61l14.56,14.56l-43.99,43.87
			c-5.29,5.27-5.26,13.83,0.02,19.07l137.21,136.32c5.25,5.22,13.75,5.22,18.99-0.03l50.22-50.22c5.57-5.57,11.71-8.33,19.18-10.47
			c7.64,2.19,13.69,4.96,19.2,10.47l50.22,50.22c5.23,5.23,13.73,5.26,18.99,0.03L476.7,322.55
			C481.99,317.3,481.99,308.74,476.72,303.48L476.72,303.48z M192.73,79.78c5.89-5.89,15.63-5.93,21.56,0l46.25,46.25
			c5.95,5.95,5.95,15.61,0,21.56c-5.91,5.91-15.65,5.91-21.57,0l-46.25-46.25C186.78,95.4,186.78,85.73,192.73,79.78L192.73,79.78z
			 M152.14,120.36c5.91-5.91,15.65-5.91,21.56,0l46.25,46.25c2.86,2.86,4.43,6.68,4.43,10.78c0,8.46-6.74,15.21-15.21,15.21
			c-4.1,0-7.92-1.57-10.78-4.43l-46.25-46.25C146.23,136.01,146.23,126.28,152.14,120.36L152.14,120.36z M112.19,161.59
			c5.9-5.9,15.63-5.92,21.56,0l45.61,45.61c5.95,5.95,5.95,15.62,0,21.56c-5.9,5.9-15.63,5.93-21.56,0
			c-6.69-6.69,17.16,17.17-45.61-45.61C106.27,177.22,106.29,167.49,112.19,161.59L112.19,161.59z M73.9,204.47
			c5.91-5.91,15.63-5.92,21.56-0.01l43.33,43.33c5.95,5.95,5.95,15.62,0,21.57c-5.9,5.9-15.63,5.92-21.56,0L73.9,226.02
			C67.98,220.1,68,210.37,73.9,204.47L73.9,204.47z M212.87,389.6l-40.74,40.74L54.01,312.99l34.45-34.35l9.73,9.73
			c16.43,16.43,43.18,16.43,59.61,0c7.84-7.84,11.93-18.03,12.29-28.31c22.53-0.78,39.82-18.85,40.59-40.58
			c21.93-0.77,39.8-18.23,40.57-40.59c10.72-0.36,20.73-4.69,28.31-12.27c16.43-16.43,16.43-43.18,0-59.61l-9.48-9.48l17.89-17.84
			c5.95-5.95,15.62-5.95,21.56,0c5.93,5.92,5.97,15.6,0,21.56c-5.25,5.26-5.25,13.77,0,19.02c5.25,5.26,13.77,5.25,19.02,0
			c0.22-0.24-0.79,0.79,2.76-2.76c5.91-5.9,15.64-5.92,21.56,0c5.95,5.95,5.95,15.62,0,21.56c-5.26,5.25-5.26,13.77,0,19.02
			c5.25,5.26,13.77,5.26,19.02,0c0.01-0.01,0.02-0.02,0.02-0.02c5.88-5.86,15.6-5.91,21.54,0.02c5.7,5.7,6.19,15.23,0,21.56
			c-5.25,5.26-5.25,13.78,0,19.02c5.26,5.26,13.78,5.26,19.02,0c5.95-5.94,15.62-5.94,21.56,0c5.95,5.95,5.96,15.56,0.04,21.53
			c-2.61,2.56-84.29,82.67-120.77,119.15c-21.67,21.67-39.63,25.79-56.99,29.77C241.65,372.5,226.48,375.98,212.87,389.6
			L212.87,389.6z M330.03,430.34c0,0-40.75-40.78-42.26-42.2c13.48-5.13,28.43-13.6,44.57-29.74c20.16-20.16,54.21-53.73,81-80.09
			l34.8,34.69L330.03,430.34z M330.03,430.34"/>
	</g>
</g>
</svg>
