<?xml version="1.0" encoding="utf-8"?>
<!-- Generator: Adobe Illustrator 25.4.1, SVG Export Plug-In . SVG Version: 6.00 Build 0)  -->
<svg version="1.1" id="Mode_Isolation" xmlns="http://www.w3.org/2000/svg" xmlns:xlink="http://www.w3.org/1999/xlink" x="0px"
	 y="0px" viewBox="0 0 500 500" style="enable-background:new 0 0 500 500;" xml:space="preserve">
<style type="text/css">
	.st0{fill:#2A377C;}
	.st1{fill:#2B387D;}
	.st2{fill:none;stroke:#2A377C;stroke-width:30;stroke-linecap:round;stroke-linejoin:round;stroke-miterlimit:10;}
	.st3{clip-path:url(#SVGID_00000138539077289344811090000014740469382831759250_);}
	.st4{fill:#2B387D;stroke:#2B387D;stroke-width:2;stroke-miterlimit:10;}
	.st5{fill:#2B387D;stroke:#2B387D;stroke-width:5;stroke-miterlimit:10;}
	.st6{fill-rule:evenodd;clip-rule:evenodd;fill:#2B387D;}
	.st7{fill:#67B5A9;}
	.st8{fill:#D96552;}
	.st9{fill:#FCC104;}
	.st10{fill:#FFFFFF;}
	.st11{clip-path:url(#SVGID_00000021080007259039062200000003687443778238044045_);}
	.st12{fill-rule:evenodd;clip-rule:evenodd;fill:#FFFFFF;}
</style>
<path class="st5" d="M472.6,271.01L402,115.51c-1.61-3.59-5.17-5.9-9.1-5.9h-106c-5.02-19.6-22.67-33.3-42.9-33.3
	s-37.88,13.7-42.9,33.3h-106c-3.87-0.08-7.43,2.11-9.1,5.6l-70.6,155.4c-0.54,1.41-0.84,2.89-0.9,4.4
	c-0.05,44.52,35.98,80.65,80.5,80.7c44.52,0.05,80.65-35.98,80.7-80.5c0.01-1.41-0.3-2.82-0.9-4.1l-64.2-141.5h90.1
	c3.51,16.84,16.52,30.09,33.3,33.9v207.1h-44.6c-17.27,0.17-31.23,14.13-31.4,31.4v21c0,5.5,4.8,9.6,10.4,9.6h150.2
	c5.5,0,10.4-4.1,10.4-9.6v-21c-0.17-17.27-14.13-31.23-31.4-31.4H254v-207.1c16.74-3.88,29.72-17.09,33.3-33.9h90.1l-64.2,141.5
	c-0.59,1.29-0.9,2.68-0.9,4.1c0,44.52,36.09,80.6,80.6,80.6c44.52,0,80.6-36.09,80.6-80.6C473.51,273.76,473.2,272.33,472.6,271.01
	L472.6,271.01z M95.1,144.21l55.1,121.4H40L95.1,144.21z M95.1,336.21c-30,0-55-22.6-59.8-50.6h119.5
	C150.1,313.61,125.1,336.21,95.1,336.21L95.1,336.21z M309,402.01v10.6H178v-10.6c0.14-6.24,5.16-11.26,11.4-11.4h108.2
	C303.84,390.75,308.86,395.77,309,402.01L309,402.01z M244,144.71c-13.36,0-24.2-10.83-24.2-24.2c0-13.36,10.84-24.2,24.2-24.2
	c13.37,0,24.2,10.84,24.2,24.2C268.19,133.87,257.36,144.7,244,144.71L244,144.71z M448,265.61H337.8l55.1-121.4L448,265.61z
	 M392.9,336.21c-30,0-55-22.6-59.8-50.6h119.5C447.9,313.61,422.9,336.21,392.9,336.21L392.9,336.21z M392.9,336.21"/>
</svg>
