<?xml version="1.0" encoding="utf-8"?>
<!-- Generator: Adobe Illustrator 25.4.1, SVG Export Plug-In . SVG Version: 6.00 Build 0)  -->
<svg version="1.1" id="Mode_Isolation" xmlns="http://www.w3.org/2000/svg" xmlns:xlink="http://www.w3.org/1999/xlink" x="0px"
	 y="0px" viewBox="0 0 500 500" style="enable-background:new 0 0 500 500;" xml:space="preserve">
<style type="text/css">
	.st0{fill:#2A377C;}
	.st1{fill:#2B387D;}
	.st2{fill:none;stroke:#2A377C;stroke-width:30;stroke-linecap:round;stroke-linejoin:round;stroke-miterlimit:10;}
	.st3{clip-path:url(#SVGID_00000049184595683906977800000013839009694334144688_);}
	.st4{fill:#2B387D;stroke:#2B387D;stroke-width:2;stroke-miterlimit:10;}
	.st5{fill:#2B387D;stroke:#2B387D;stroke-width:5;stroke-miterlimit:10;}
	.st6{fill-rule:evenodd;clip-rule:evenodd;fill:#2B387D;}
	.st7{fill:#67B5A9;}
	.st8{fill:#D96552;}
	.st9{fill:#FCC104;}
	.st10{fill:#FFFFFF;}
	.st11{clip-path:url(#SVGID_00000136382537145094061330000001007631104929568929_);}
	.st12{fill-rule:evenodd;clip-rule:evenodd;fill:#FFFFFF;}
</style>
<path class="st1" d="M427.82,168.77c-6.28-12.55-18.9-20.35-32.93-20.35H113.87c-33.84,0-61.36,27.53-61.36,61.36v147.27
	c0,20.3,16.52,36.82,36.82,36.82h18.88c8.5,14.66,24.36,24.55,42.49,24.55s33.98-9.89,42.49-24.55h137.57
	c8.5,14.66,24.36,24.55,42.49,24.55c18.13,0,33.98-9.89,42.49-24.55h18.88c20.3,0,36.82-16.52,36.82-36.82v-46.03
	C471.42,236.94,437.43,192.3,427.82,168.77z M426.94,222.06c7.35,15.61,12.74,32.15,16.04,49.09h-69.74v-49.09H426.94z
	 M150.69,393.87c-13.53,0-24.55-11.01-24.55-24.55s11.01-24.55,24.55-24.55s24.55,11.01,24.55,24.55S164.23,393.87,150.69,393.87z
	 M373.24,393.87c-13.53,0-24.55-11.01-24.55-24.55s11.01-24.55,24.55-24.55s24.55,11.01,24.55,24.55S386.77,393.87,373.24,393.87z
	 M434.6,369.33h-12.27c0-27.07-22.02-49.09-49.09-49.09s-49.09,22.02-49.09,49.09H199.78c0-27.07-22.02-49.09-49.09-49.09
	s-49.09,22.02-49.09,49.09H89.33c-6.77,0-12.27-5.51-12.27-12.27v-12.27h12.27c6.78,0,12.27-5.49,12.27-12.27
	c0-6.78-5.49-12.27-12.27-12.27H77.05V209.78c0-20.3,16.52-36.82,36.82-36.82h281.01c4.68,0,8.88,2.6,10.98,6.78l8.88,17.76h-53.78
	c-6.78,0-12.27,5.49-12.27,12.27v73.64c0,6.78,5.49,12.27,12.27,12.27h85.32c0.38,5.1,0.59,10.22,0.59,15.33v9.21H434.6
	c-6.78,0-12.27,5.49-12.27,12.27c0,6.78,5.49,12.27,12.27,12.27h12.27v12.27C446.87,363.82,441.37,369.33,434.6,369.33z"/>
<path class="st1" d="M311.87,197.51H236.6c-6.78,0-12.27,5.49-12.27,12.27v73.64c0,6.78,5.49,12.27,12.27,12.27h75.27
	c6.78,0,12.27-5.49,12.27-12.27v-73.64C324.15,203.01,318.65,197.51,311.87,197.51z M299.6,271.15h-50.73v-49.09h50.73V271.15z"/>
<path class="st1" d="M187.51,197.51h-73.64c-6.78,0-12.27,5.49-12.27,12.27v73.64c0,6.78,5.49,12.27,12.27,12.27h73.64
	c6.78,0,12.27-5.49,12.27-12.27v-73.64C199.78,203.01,194.29,197.51,187.51,197.51z M175.24,271.15h-49.09v-49.09h49.09V271.15z"/>
</svg>
