<?xml version="1.0" encoding="utf-8"?>
<!-- Generator: Adobe Illustrator 25.4.1, SVG Export Plug-In . SVG Version: 6.00 Build 0)  -->
<svg version="1.1" id="Mode_Isolation" xmlns="http://www.w3.org/2000/svg" xmlns:xlink="http://www.w3.org/1999/xlink" x="0px"
	 y="0px" viewBox="0 0 500 500" style="enable-background:new 0 0 500 500;" xml:space="preserve">
<style type="text/css">
	.st0{fill:#2A377C;}
	.st1{fill:#2B387D;}
	.st2{fill:none;stroke:#2A377C;stroke-width:30;stroke-linecap:round;stroke-linejoin:round;stroke-miterlimit:10;}
	.st3{clip-path:url(#SVGID_00000124140928052137515350000009186817560197391497_);}
	.st4{fill:#2B387D;stroke:#2B387D;stroke-width:2;stroke-miterlimit:10;}
	.st5{fill:#2B387D;stroke:#2B387D;stroke-width:5;stroke-miterlimit:10;}
	.st6{fill-rule:evenodd;clip-rule:evenodd;fill:#2B387D;}
	.st7{fill:#67B5A9;}
	.st8{fill:#D96552;}
	.st9{fill:#FCC104;}
	.st10{fill:#FFFFFF;}
	.st11{clip-path:url(#SVGID_00000044885456602368141040000003480515794758594982_);}
	.st12{fill-rule:evenodd;clip-rule:evenodd;fill:#FFFFFF;}
</style>
<g>
	<g>
		<path class="st1" d="M426.79,164.69h-114c-8.29,0-15,6.71-15,15v45h-30v-129c0-5.2-2.69-10.03-7.11-12.76
			c-4.42-2.73-9.95-2.98-14.59-0.66l-60,30c-5.08,2.54-8.29,7.73-8.29,13.41v99h-30v-159c0-5.2-2.69-10.03-7.11-12.76
			c-4.42-2.73-9.95-2.98-14.59-0.66l-60,30c-5.08,2.54-8.29,7.73-8.29,13.41v324c0,8.29,6.71,15,15,15h354c8.28,0,15-6.72,15-15
			v-240C441.79,171.4,435.07,164.69,426.79,164.69L426.79,164.69z M207.79,134.96l30-15v104.73h-30V134.96z M87.79,104.96l30-15
			v134.73h-30V104.96z M177.79,404.69h-30v-90h30V404.69z M411.79,404.69h-204v-105c0-8.29-6.72-15-15-15h-60c-8.29,0-15,6.71-15,15
			v105h-30v-150h225c8.28,0,15-6.71,15-15v-45h84V404.69z M411.79,404.69"/>
	</g>
	<path class="st1" d="M309.79,284.69c-8.29,0-15,6.71-15,15v30c0,8.29,6.71,15,15,15c8.28,0,15-6.71,15-15v-30
		C324.79,291.4,318.07,284.69,309.79,284.69L309.79,284.69z M309.79,284.69"/>
	<path class="st1" d="M249.79,284.69c-8.29,0-15,6.71-15,15v30c0,8.29,6.71,15,15,15c8.28,0,15-6.71,15-15v-30
		C264.79,291.4,258.07,284.69,249.79,284.69L249.79,284.69z M249.79,284.69"/>
	<path class="st1" d="M369.79,344.69c8.28,0,15-6.71,15-15v-30c0-8.29-6.72-15-15-15c-8.29,0-15,6.71-15,15v30
		C354.79,337.97,361.5,344.69,369.79,344.69L369.79,344.69z M369.79,344.69"/>
</g>
</svg>
