<?xml version="1.0" encoding="utf-8"?>
<!-- Generator: Adobe Illustrator 25.4.1, SVG Export Plug-In . SVG Version: 6.00 Build 0)  -->
<svg version="1.1" id="Mode_Isolation" xmlns="http://www.w3.org/2000/svg" xmlns:xlink="http://www.w3.org/1999/xlink" x="0px"
	 y="0px" viewBox="0 0 500 500" style="enable-background:new 0 0 500 500;" xml:space="preserve">
<style type="text/css">
	.st0{fill:#2A377C;}
	.st1{fill:#2B387D;}
	.st2{fill:none;stroke:#2A377C;stroke-width:30;stroke-linecap:round;stroke-linejoin:round;stroke-miterlimit:10;}
	.st3{clip-path:url(#SVGID_00000016048788537179144330000017465628735439222677_);}
	.st4{fill:#2B387D;stroke:#2B387D;stroke-width:2;stroke-miterlimit:10;}
	.st5{fill:#2B387D;stroke:#2B387D;stroke-width:5;stroke-miterlimit:10;}
	.st6{fill-rule:evenodd;clip-rule:evenodd;fill:#2B387D;}
	.st7{fill:#67B5A9;}
	.st8{fill:#D96552;}
	.st9{fill:#FCC104;}
	.st10{fill:#FFFFFF;}
	.st11{clip-path:url(#SVGID_00000140709033005803845040000010410519070166111660_);}
	.st12{fill-rule:evenodd;clip-rule:evenodd;fill:#FFFFFF;}
</style>
<g>
	<path class="st1" d="M93.8,322.36c-33.1,0-60.02-26.93-60.02-60.02s26.93-60.02,60.02-60.02s60.02,26.92,60.02,60.02
		S126.9,322.36,93.8,322.36z M93.8,229.56c-18.07,0-32.78,14.7-32.78,32.78c0,18.07,14.7,32.78,32.78,32.78
		c18.07,0,32.78-14.7,32.78-32.78C126.58,244.26,111.87,229.56,93.8,229.56z"/>
</g>
<g>
	<path class="st1" d="M248.97,322.36c-33.1,0-60.02-26.93-60.02-60.02s26.93-60.02,60.02-60.02s60.02,26.92,60.02,60.02
		S282.06,322.36,248.97,322.36z M248.97,229.56c-18.07,0-32.78,14.7-32.78,32.78c0,18.07,14.7,32.78,32.78,32.78
		c18.07,0,32.78-14.7,32.78-32.78C281.74,244.26,267.04,229.56,248.97,229.56z"/>
</g>
<g>
	<path class="st1" d="M404.13,322.36c-33.1,0-60.02-26.93-60.02-60.02s26.92-60.02,60.02-60.02s60.02,26.92,60.02,60.02
		S437.23,322.36,404.13,322.36z M404.13,229.56c-18.07,0-32.78,14.7-32.78,32.78c0,18.07,14.7,32.78,32.78,32.78
		c18.07,0,32.78-14.7,32.78-32.78C436.91,244.26,422.21,229.56,404.13,229.56z"/>
</g>
</svg>
