<?xml version="1.0" encoding="utf-8"?>
<!-- Generator: Adobe Illustrator 25.4.1, SVG Export Plug-In . SVG Version: 6.00 Build 0)  -->
<svg version="1.1" id="Mode_Isolation" xmlns="http://www.w3.org/2000/svg" xmlns:xlink="http://www.w3.org/1999/xlink" x="0px"
	 y="0px" viewBox="0 0 500 500" style="enable-background:new 0 0 500 500;" xml:space="preserve">
<style type="text/css">
	.st0{fill:#2A377C;}
	.st1{fill:#2B387D;}
	.st2{fill:none;stroke:#2A377C;stroke-width:30;stroke-linecap:round;stroke-linejoin:round;stroke-miterlimit:10;}
	.st3{clip-path:url(#SVGID_00000091699775563669656620000004888119555834246553_);}
	.st4{fill:#2B387D;stroke:#2B387D;stroke-width:2;stroke-miterlimit:10;}
	.st5{fill:#2B387D;stroke:#2B387D;stroke-width:5;stroke-miterlimit:10;}
	.st6{fill-rule:evenodd;clip-rule:evenodd;fill:#2B387D;}
	.st7{fill:#67B5A9;}
	.st8{fill:#D96552;}
	.st9{fill:#FCC104;}
	.st10{fill:#FFFFFF;}
	.st11{clip-path:url(#SVGID_00000183229446688043235550000012935317876847940284_);}
	.st12{fill-rule:evenodd;clip-rule:evenodd;fill:#FFFFFF;}
</style>
<g>
	<g>
		<path class="st4" d="M180.77,355.2c0,27.72-22.55,50.27-50.27,50.27c-66.69-2.76-66.68-97.8,0-100.55
			C158.22,304.93,180.77,327.48,180.77,355.2L180.77,355.2z M156.08,355.2c0-14.11-11.48-25.58-25.58-25.58
			c-33.94,1.41-33.92,49.76,0,51.16C144.6,380.78,156.08,369.31,156.08,355.2L156.08,355.2z M156.08,355.2"/>
		<path class="st4" d="M455.66,286.91v69.74c0,6.48-5,11.78-11.34,12.29c4.97,43.73-30.23,83.01-74.28,82.73
			c-44.02,0.27-79.23-38.97-74.28-82.68h-13.91v12.16c-0.65,16.38-24.05,16.37-24.69,0V369h-31.16
			c-6.72,46.69-46.97,82.68-95.49,82.68C26.6,450.14-2.44,311.29,90.2,267.56v-27.92c-12.17,4.6-23.72,11.55-35.31,21.12
			c-5.26,4.34-13.04,3.6-17.38-1.66c-4.34-5.26-3.6-13.04,1.66-17.38c16.64-13.74,33.68-23.09,52.03-28.4l13.38-120.95h-3.39
			c-16.38-0.65-16.37-24.05,0-24.69h17.25c0.02,0,0.03,0,0.05,0h170.3c16.38,0.65,16.37,24.05,0,24.69h-9.42l32.99,135.03h66.71
			v-45.92c0-6.82,5.53-12.35,12.35-12.35h31.94c16.38,0.65,16.37,24.05,0,24.69h-19.6v34.08
			C432.99,231.65,455.66,256.68,455.66,286.91L455.66,286.91z M253.93,92.37h-18.06V227.4h51.05L253.93,92.37z M116.56,208.6
			c31.47-2.95,64.51,4.28,90.17,18.8h4.45V92.37h-81.76L116.56,208.6z M114.89,260c53.98-9.38,106,30.78,111.47,84.31h30.31
			c-5.14-68.78-70.61-119.7-141.77-110.71V260z M202.29,355.2c0-39.58-32.2-71.78-71.79-71.78c-95.23,3.94-95.2,139.64,0,143.57
			C170.08,426.99,202.29,394.78,202.29,355.2L202.29,355.2z M420.05,376.97c0-5.48-0.9-10.74-2.53-15.68
			c-0.17-0.42-0.31-0.85-0.43-1.29c-6.96-19.25-25.43-33.05-47.05-33.05c-66.35,2.75-66.33,97.3,0,100.03
			C397.62,426.99,420.05,404.55,420.05,376.97L420.05,376.97z M430.97,333.78v-46.87c0-19.2-15.62-34.82-34.82-34.82H239.46
			c23.97,23.99,39.39,56.11,41.98,92.21h21.41C327.15,293.62,398.67,287.58,430.97,333.78L430.97,333.78z M430.97,333.78"/>
	</g>
	<path class="st4" d="M370.06,364.62L370.06,364.62c-6.83,0-12.35,5.53-12.35,12.35c0.65,16.38,24.05,16.38,24.7,0
		C382.4,370.15,376.87,364.62,370.06,364.62L370.06,364.62z M370.06,364.62"/>
</g>
</svg>
