<?xml version="1.0" encoding="utf-8"?>
<!-- Generator: Adobe Illustrator 25.4.1, SVG Export Plug-In . SVG Version: 6.00 Build 0)  -->
<svg version="1.1" id="Mode_Isolation" xmlns="http://www.w3.org/2000/svg" xmlns:xlink="http://www.w3.org/1999/xlink" x="0px"
	 y="0px" viewBox="0 0 500 500" style="enable-background:new 0 0 500 500;" xml:space="preserve">
<style type="text/css">
	.st0{fill:#2A377C;}
	.st1{fill:#2B387D;}
	.st2{fill:none;stroke:#2A377C;stroke-width:30;stroke-linecap:round;stroke-linejoin:round;stroke-miterlimit:10;}
	.st3{clip-path:url(#SVGID_00000124155659129168815650000008747012668543092125_);}
	.st4{fill:#2B387D;stroke:#2B387D;stroke-width:2;stroke-miterlimit:10;}
	.st5{fill:#2B387D;stroke:#2B387D;stroke-width:5;stroke-miterlimit:10;}
	.st6{fill-rule:evenodd;clip-rule:evenodd;fill:#2B387D;}
	.st7{fill:#67B5A9;}
	.st8{fill:#D96552;}
	.st9{fill:#FCC104;}
	.st10{fill:#FFFFFF;}
	.st11{clip-path:url(#SVGID_00000026867666546664582500000014839592176578987957_);}
	.st12{fill-rule:evenodd;clip-rule:evenodd;fill:#FFFFFF;}
</style>
<g>
	<path class="st1" d="M455.33,22.49H41.82c-7.14,0-12.92,5.78-12.92,12.92v241.21c0,7.14,5.78,12.92,12.92,12.92h77.53
		c7.14,0,12.92-5.78,12.92-12.92c0-1.44-0.04-2.87-0.06-4.31h232.72c-0.03,1.44-0.06,2.87-0.06,4.31c0,7.14,5.78,12.92,12.92,12.92
		h77.53c7.13,0,12.92-5.78,12.92-12.92V35.41C468.25,28.27,462.46,22.49,455.33,22.49L455.33,22.49z M54.74,48.33h68.72
		c-1.72,40.15-14.31,78.56-36.73,111.99H54.74V48.33z M54.74,263.7v-77.53h30.75c11.8,24.16,18.81,50.69,20.52,77.53H54.74z
		 M366.89,246.47H130.26c-3.3-25.02-10.66-49.53-21.78-72.17c25.11-37.6,39.12-80.83,40.84-125.97h198.51
		c1.72,45.15,15.73,88.37,40.84,125.97C377.54,196.94,370.19,221.45,366.89,246.47L366.89,246.47z M442.4,263.7h-51.28
		c1.71-26.84,8.72-53.38,20.52-77.53h30.75V263.7z M442.4,160.33h-31.99C388,126.9,375.41,88.48,373.69,48.33h68.72V160.33z
		 M442.4,160.33"/>
	<path class="st1" d="M415.46,361.29c-5.57-30-31.92-52.79-63.51-52.79c-21.12,0-39.89,10.18-51.69,25.89
		c-11.8-15.71-30.57-25.89-51.69-25.89s-39.89,10.18-51.69,25.89c-11.8-15.71-30.57-25.89-51.69-25.89
		c-31.59,0-57.94,22.79-63.51,52.79c-30,5.57-52.79,31.92-52.79,63.51v25.84c0,7.14,5.78,12.92,12.92,12.92h413.51
		c7.14,0,12.92-5.78,12.92-12.92V424.8C468.25,393.21,445.45,366.86,415.46,361.29L415.46,361.29z M132.27,437.72H54.74V424.8
		c0-21.37,17.39-38.77,38.77-38.77s38.77,17.39,38.77,38.77V437.72z M145.19,386.08c-8.99-11.98-22.05-20.72-37.1-24.21
		c4.83-15.91,19.63-27.53,37.1-27.53s32.27,11.62,37.1,27.53C167.24,365.36,154.19,374.1,145.19,386.08L145.19,386.08z
		 M235.65,437.72h-77.53V424.8c0-21.37,17.39-38.77,38.77-38.77s38.77,17.39,38.77,38.77V437.72z M248.57,386.08
		c-8.99-11.98-22.05-20.72-37.1-24.21c4.83-15.91,19.63-27.53,37.1-27.53s32.27,11.62,37.1,27.53
		C270.62,365.36,257.56,374.1,248.57,386.08L248.57,386.08z M339.03,437.72h-77.53V424.8c0-21.37,17.39-38.77,38.77-38.77
		s38.77,17.39,38.77,38.77V437.72z M351.95,386.08c-8.99-11.98-22.05-20.72-37.1-24.21c4.83-15.91,19.63-27.53,37.1-27.53
		c17.47,0,32.27,11.62,37.1,27.53C374,365.36,360.94,374.1,351.95,386.08L351.95,386.08z M442.4,437.72h-77.53V424.8
		c0-21.37,17.39-38.77,38.77-38.77s38.77,17.39,38.77,38.77V437.72z M442.4,437.72"/>
	<path class="st1" d="M310.35,135.85l-94.76-47.38c-4.01-2-8.76-1.79-12.57,0.57c-3.81,2.35-6.13,6.52-6.13,10.99v94.76
		c0,4.48,2.32,8.64,6.13,10.99c2.07,1.28,4.43,1.93,6.79,1.93c1.97,0,3.96-0.45,5.78-1.36l94.76-47.38
		c4.38-2.19,7.14-6.66,7.14-11.56C317.49,142.51,314.73,138.04,310.35,135.85L310.35,135.85z M222.73,173.88v-52.95l52.95,26.47
		L222.73,173.88z M222.73,173.88"/>
</g>
</svg>
