<?xml version="1.0" encoding="utf-8"?>
<!-- Generator: Adobe Illustrator 25.4.1, SVG Export Plug-In . SVG Version: 6.00 Build 0)  -->
<svg version="1.1" id="Mode_Isolation" xmlns="http://www.w3.org/2000/svg" xmlns:xlink="http://www.w3.org/1999/xlink" x="0px"
	 y="0px" viewBox="0 0 500 500" style="enable-background:new 0 0 500 500;" xml:space="preserve">
<style type="text/css">
	.st0{fill:#2A377C;}
	.st1{fill:#2B387D;}
	.st2{fill:none;stroke:#2A377C;stroke-width:30;stroke-linecap:round;stroke-linejoin:round;stroke-miterlimit:10;}
	.st3{clip-path:url(#SVGID_00000052097404259411881460000015985921283681701504_);}
	.st4{fill:#2B387D;stroke:#2B387D;stroke-width:2;stroke-miterlimit:10;}
	.st5{fill:#2B387D;stroke:#2B387D;stroke-width:5;stroke-miterlimit:10;}
	.st6{fill-rule:evenodd;clip-rule:evenodd;fill:#2B387D;}
	.st7{fill:#67B5A9;}
	.st8{fill:#D96552;}
	.st9{fill:#FCC104;}
	.st10{fill:#FFFFFF;}
	.st11{clip-path:url(#SVGID_00000016064878173352652420000006443218196691346603_);}
	.st12{fill-rule:evenodd;clip-rule:evenodd;fill:#FFFFFF;}
</style>
<path class="st8" d="M400.28,175.52c0,106.06-154.01,313.67-154.01,313.67S92.25,281.58,92.25,175.52
	c0-85.06,68.95-154.01,154.01-154.01S400.28,90.46,400.28,175.52z"/>
<g>
	<g>
		<g>
			<path class="st10" d="M214.14,230.78c0,13.86-11.28,25.14-25.14,25.14c-33.35-1.38-33.34-48.9,0-50.27
				C202.86,205.64,214.14,216.92,214.14,230.78L214.14,230.78z M201.79,230.78c0-7.05-5.74-12.79-12.79-12.79
				c-16.97,0.7-16.96,24.88,0,25.58C196.05,243.57,201.79,237.83,201.79,230.78L201.79,230.78z M201.79,230.78"/>
			<path class="st10" d="M189,256.42c-17.53-0.73-25.51-13.8-25.51-25.64s7.98-24.91,25.49-25.63c14.16,0,25.66,11.5,25.66,25.64
				C214.64,244.92,203.14,256.42,189,256.42z M189,206.14c-11.79,0.49-24.51,8.4-24.51,24.63c0,11.38,7.67,23.94,24.53,24.64
				c13.56,0,24.62-11.05,24.62-24.64C213.64,217.2,202.59,206.14,189,206.14z M189,244.07c-9.09-0.37-13.22-7.15-13.22-13.29
				c0-6.14,4.13-12.91,13.2-13.29c7.35,0,13.31,5.96,13.31,13.29C202.29,238.11,196.33,244.07,189,244.07z M189,218.49
				c-5.88,0.24-12.22,4.19-12.22,12.29c0,8.1,6.35,12.05,12.24,12.29c6.76,0,12.27-5.51,12.27-12.29
				C201.29,224,195.78,218.49,189,218.49z"/>
		</g>
		<g>
			<path class="st10" d="M351.58,196.63v34.87c0,3.24-2.5,5.89-5.67,6.15c2.49,21.86-15.12,41.5-37.14,41.37
				c-22.01,0.14-39.61-19.49-37.14-41.34h-6.96v6.08c-0.33,8.19-12.02,8.19-12.35,0v-6.08h-15.58
				c-3.36,23.34-23.49,41.34-47.74,41.34c-51.95-0.77-66.47-70.2-20.15-92.06V173c-6.08,2.3-11.86,5.77-17.66,10.56
				c-2.63,2.17-6.52,1.8-8.69-0.83c-2.17-2.63-1.8-6.52,0.83-8.69c8.32-6.87,16.84-11.54,26.02-14.2l6.69-60.48h-1.69
				c-8.19-0.33-8.19-12.02,0-12.35h8.62c0.01,0,0.02,0,0.02,0h85.15c8.19,0.33,8.18,12.02,0,12.35h-4.71l16.5,67.52h33.36v-22.96
				c0-3.41,2.76-6.17,6.18-6.17h15.97c8.19,0.33,8.19,12.03,0,12.35h-9.8v17.04C340.25,169,351.58,181.52,351.58,196.63
				L351.58,196.63z M250.72,99.36h-9.03v67.52h25.53L250.72,99.36z M182.03,157.48c15.74-1.47,32.25,2.14,45.08,9.4h2.22V99.36
				h-40.88L182.03,157.48z M181.2,183.18c26.99-4.69,53,15.39,55.73,42.16h15.15c-2.57-34.39-35.31-59.85-70.89-55.35V183.18z
				 M224.89,230.78c0-19.79-16.1-35.89-35.89-35.89c-47.62,1.97-47.6,69.82,0,71.78C208.79,266.67,224.89,250.57,224.89,230.78
				L224.89,230.78z M333.78,241.66c0-2.74-0.45-5.37-1.27-7.84c-0.08-0.21-0.15-0.42-0.22-0.64c-3.48-9.63-12.71-16.52-23.53-16.52
				c-33.18,1.37-33.17,48.65,0,50.02C322.56,266.67,333.78,255.45,333.78,241.66L333.78,241.66z M339.24,220.07v-23.43
				c0-9.6-7.81-17.41-17.41-17.41h-78.34c11.98,11.99,19.69,28.05,20.99,46.1h10.71C287.32,199.99,323.08,196.97,339.24,220.07
				L339.24,220.07z M339.24,220.07"/>
			<path class="st10" d="M308.54,279.52c-10.54,0-20.69-4.57-27.88-12.57c-7.12-7.93-10.6-18.38-9.59-28.77h-5.9v5.58
				c-0.18,4.57-3.59,6.64-6.67,6.64c0,0,0,0,0,0c-3.09,0-6.49-2.07-6.67-6.62l0-5.6h-14.65c-1.73,11.32-7.45,21.71-16.14,29.3
				c-8.88,7.76-20.26,12.04-32.04,12.04c-12.29-0.18-23.31-4.24-31.87-11.73c-7.75-6.78-13.26-16.26-15.52-26.7
				c-2.26-10.45-1.17-21.39,3.07-30.79c4.64-10.28,12.82-18.45,23.67-23.65v-12.91c-5.74,2.26-11.25,5.61-16.84,10.22
				c-2.84,2.34-7.05,1.94-9.39-0.9c-1.14-1.37-1.67-3.11-1.5-4.88c0.17-1.77,1.02-3.38,2.39-4.51c8.33-6.87,16.79-11.52,25.88-14.2
				l6.59-59.59h-1.14c-4.57-0.18-6.64-3.59-6.64-6.67c0-3.09,2.07-6.49,6.62-6.67l93.82,0c4.57,0.18,6.64,3.59,6.64,6.67
				c0,3.09-2.07,6.49-6.62,6.67l-4.09,0l16.25,66.52h32.46v-22.46c0-3.68,2.99-6.67,6.68-6.67h15.97c4.57,0.18,6.64,3.59,6.64,6.67
				c0,3.09-2.07,6.49-6.62,6.67l-9.32,0v16.1c14.83,2.12,25.95,14.92,25.95,29.94v34.87c0,3.28-2.43,6.08-5.62,6.58
				c1.04,10.41-2.43,20.9-9.57,28.85c-7.24,8.06-17.5,12.63-28.12,12.58C308.69,279.52,308.62,279.52,308.54,279.52z M264.17,237.18
				h8.02l-0.06,0.56c-1.16,10.29,2.22,20.69,9.28,28.54c7,7.79,16.88,12.24,27.14,12.24c0.15,0,0.29,0,0.44,0
				c10.27,0,20.15-4.46,27.16-12.25c7.06-7.86,10.44-18.27,9.27-28.56l-0.06-0.51l0.52-0.04c2.92-0.23,5.21-2.72,5.21-5.65v-34.87
				c0-14.67-10.97-27.14-25.52-29.01l-0.44-0.06v-17.98h10.3c3.87-0.15,5.64-3.05,5.64-5.67c0-2.62-1.77-5.52-5.66-5.68l-15.95,0
				c-3.13,0-5.68,2.54-5.68,5.67v23.46h-34.25l-0.09-0.38l-16.65-68.14h5.35c3.87-0.15,5.64-3.05,5.64-5.67
				c0-2.62-1.77-5.52-5.66-5.67l-93.78,0c-3.87,0.15-5.64,3.05-5.64,5.67c0,2.62,1.77,5.52,5.66,5.67l2.23,0l-6.79,61.36l-0.32,0.09
				c-9.07,2.63-17.52,7.24-25.84,14.11c-1.17,0.96-1.89,2.33-2.04,3.83c-0.14,1.51,0.31,2.98,1.27,4.15
				c1.99,2.41,5.58,2.75,7.99,0.76c5.89-4.86,11.71-8.34,17.8-10.64l0.68-0.26v15l-0.29,0.14c-10.77,5.09-18.89,13.14-23.47,23.29
				c-4.16,9.21-5.23,19.93-3.01,30.17c2.22,10.23,7.61,19.53,15.2,26.16c8.39,7.33,19.18,11.31,31.22,11.48
				c23.57,0,43.89-17.59,47.24-40.91l0.06-0.43h16.51v6.58c0.15,3.87,3.05,5.64,5.67,5.64c0,0,0,0,0,0c2.62,0,5.52-1.77,5.67-5.66
				L264.17,237.18z M308.77,267.17c-17.44-0.72-25.38-13.73-25.38-25.51c0-11.78,7.93-24.79,25.36-25.51
				c10.73,0,20.37,6.77,24.02,16.85c0.07,0.25,0.14,0.45,0.21,0.63c0.87,2.61,1.3,5.3,1.3,8.03
				C334.28,255.73,322.84,267.17,308.77,267.17z M308.77,217.16c-11.73,0.49-24.38,8.36-24.38,24.51c0,11.32,7.64,23.82,24.4,24.51
				c13.49,0,24.49-10.99,24.49-24.51c0-2.62-0.42-5.2-1.24-7.68c-0.07-0.18-0.15-0.41-0.22-0.66
				C328.32,223.66,319.06,217.16,308.77,217.16z M189,267.17c-11.21-0.46-20.59-4.59-27.15-11.93c-5.84-6.54-9.05-15.23-9.06-24.45
				c0-16.81,11.32-35.36,36.19-36.39c20.09,0,36.41,16.33,36.41,36.39C225.39,250.85,209.07,267.17,189,267.17z M189,195.39
				c-16.95,0.7-35.21,12.08-35.21,35.39s18.26,34.69,35.23,35.39c19.5,0,35.37-15.88,35.37-35.39
				C224.39,211.27,208.52,195.39,189,195.39z M252.62,225.83h-16.14l-0.05-0.45c-1.3-12.71-8.1-24.58-18.66-32.59
				c-10.55-7.99-23.85-11.32-36.49-9.12l-0.59,0.1v-14.23l0.44-0.06c17.65-2.23,35.64,2.91,49.34,14.11
				c13.05,10.66,20.9,25.47,22.11,41.7L252.62,225.83z M237.38,224.83h14.16c-1.32-15.74-9.02-30.09-21.7-40.46
				c-13.38-10.93-30.9-16.01-48.14-13.95v12.17c12.74-2.04,26.07,1.37,36.68,9.41C229.04,200.07,235.94,212.02,237.38,224.83z
				 M275.5,225.83h-11.49l-0.03-0.46c-1.25-17.32-8.65-33.58-20.85-45.79l-0.85-0.85h79.55c9.88,0,17.91,8.03,17.91,17.91v25.02
				l-0.91-1.3c-7.47-10.68-19.82-16.41-33.04-15.33c-13.25,1.08-24.52,8.75-30.16,20.52L275.5,225.83z M264.94,224.83h9.93
				c5.84-11.93,17.34-19.69,30.84-20.8c13.06-1.07,25.29,4.33,33.03,14.5v-21.9c0-9.32-7.59-16.91-16.91-16.91h-77.15
				C256.44,191.89,263.61,207.84,264.94,224.83z M267.85,167.38h-26.66V98.86h9.92l0.09,0.38L267.85,167.38z M242.19,166.38h24.39
				l-16.25-66.52h-8.14V166.38z M229.84,167.38h-2.86l-0.11-0.06c-13.04-7.38-29.37-10.78-44.79-9.34l-0.61,0.06l6.54-59.17h41.83
				V167.38z M227.25,166.38h1.59V99.86h-39.93l-6.31,57.06C197.99,155.61,214.23,159.04,227.25,166.38z"/>
		</g>
	</g>
	<g>
		<path class="st10" d="M308.78,235.49L308.78,235.49c-3.41,0-6.18,2.76-6.18,6.17c0.33,8.19,12.03,8.19,12.35,0
			C314.95,238.25,312.19,235.49,308.78,235.49L308.78,235.49z M308.78,235.49"/>
		<path class="st10" d="M308.78,248.31c-3.09,0-6.49-2.07-6.67-6.62c0-3.7,2.99-6.69,6.67-6.69h0c3.68,0,6.67,2.99,6.67,6.67
			C315.27,246.23,311.87,248.31,308.78,248.31C308.78,248.31,308.78,248.31,308.78,248.31z M308.77,235.99
			c-3.13,0-5.67,2.54-5.67,5.67c0.15,3.87,3.05,5.64,5.68,5.64c0,0,0,0,0,0c2.62,0,5.52-1.77,5.67-5.66
			C314.45,238.54,311.91,235.99,308.77,235.99L308.77,235.99z"/>
	</g>
</g>
</svg>
