<?xml version="1.0" encoding="utf-8"?>
<!-- Generator: Adobe Illustrator 25.4.1, SVG Export Plug-In . SVG Version: 6.00 Build 0)  -->
<svg version="1.1" id="Mode_Isolation" xmlns="http://www.w3.org/2000/svg" xmlns:xlink="http://www.w3.org/1999/xlink" x="0px"
	 y="0px" viewBox="0 0 500 500" style="enable-background:new 0 0 500 500;" xml:space="preserve">
<style type="text/css">
	.st0{fill:#2A377C;}
	.st1{fill:#2B387D;}
	.st2{fill:none;stroke:#2A377C;stroke-width:30;stroke-linecap:round;stroke-linejoin:round;stroke-miterlimit:10;}
	.st3{clip-path:url(#SVGID_00000054237448314458864670000013373098997488867234_);}
	.st4{fill:#2B387D;stroke:#2B387D;stroke-width:2;stroke-miterlimit:10;}
	.st5{fill:#2B387D;stroke:#2B387D;stroke-width:5;stroke-miterlimit:10;}
	.st6{fill-rule:evenodd;clip-rule:evenodd;fill:#2B387D;}
	.st7{fill:#67B5A9;}
	.st8{fill:#D96552;}
	.st9{fill:#FCC104;}
	.st10{fill:#FFFFFF;}
	.st11{clip-path:url(#SVGID_00000145042957083021925160000002290364910391386797_);}
	.st12{fill-rule:evenodd;clip-rule:evenodd;fill:#FFFFFF;}
</style>
<path class="st1" d="M464.78,55.63c-40.4,0-74.75,26.35-86.79,62.76c-60.23-55.54-149.76-64.43-219.9-22.46V69.36
	c0-7.28-5.9-13.18-13.18-13.18c-7.28,0-13.18,5.9-13.18,13.18v92.6h-25.48v-92.6c0-7.28-5.9-13.18-13.18-13.18
	c-7.28,0-13.18,5.9-13.18,13.18v92.6H54.39v-92.6c0-7.28-5.9-13.18-13.18-13.18s-13.18,5.9-13.18,13.18v105.78
	c0,23.36,12.38,43.87,30.93,55.34l-8.41,178.43c-1.12,23.85,17.84,43.92,41.9,43.92c24.09,0,43.28-20.32,41.88-44.37l-0.78-13.49
	c83.09,70.66,209.42,53.95,271.45-36.04l-3.99,51.53c-1.73,22.36,15.99,41.5,38.41,41.5c21.25,0,38.53-17.28,38.53-38.53V68.81
	C477.96,61.53,472.06,55.63,464.78,55.63z M92.45,426.47c-8.87,0-15.99-7.39-15.57-16.32l8.03-170.5c5.16,0.65,9.14,0.63,13.26,0.31
	l9.84,170.03C108.53,418.9,101.46,426.47,92.45,426.47z M56.71,188.32h72.7C117.07,222.24,69.03,222.2,56.71,188.32z M131.26,355.29
	l-7.12-123.05c20.21-11.04,33.95-32.5,33.95-57.11v-47.51c66.08-49.71,160.56-40.22,215.3,23.95v128.14
	c0,7.28,5.9,13.18,13.18,13.18h19.9C375.1,418.59,213.73,454.52,131.26,355.29z M451.6,413.42c0,6.71-5.46,12.17-12.17,12.17
	c-7.05,0-12.67-5.99-12.12-13.1l10.19-131.76c0.6-7.65-5.46-14.2-13.14-14.2h-24.61V147.02c0-31.34,22.29-57.58,51.85-63.69V413.42z
	"/>
<path class="st1" d="M251.82,160.79c-50.88,0-92.27,41.39-92.27,92.27s41.39,92.27,92.27,92.27s92.27-41.39,92.27-92.27
	S302.7,160.79,251.82,160.79z M251.82,318.97c-36.34,0-65.91-29.57-65.91-65.91s29.57-65.91,65.91-65.91s65.91,29.57,65.91,65.91
	S288.17,318.97,251.82,318.97z"/>
</svg>
