<?xml version="1.0" encoding="utf-8"?>
<!-- Generator: Adobe Illustrator 25.4.1, SVG Export Plug-In . SVG Version: 6.00 Build 0)  -->
<svg version="1.1" id="Mode_Isolation" xmlns="http://www.w3.org/2000/svg" xmlns:xlink="http://www.w3.org/1999/xlink" x="0px"
	 y="0px" viewBox="0 0 500 500" style="enable-background:new 0 0 500 500;" xml:space="preserve">
<style type="text/css">
	.st0{fill:#2A377C;}
	.st1{fill:#2B387D;}
	.st2{fill:none;stroke:#2A377C;stroke-width:30;stroke-linecap:round;stroke-linejoin:round;stroke-miterlimit:10;}
	.st3{clip-path:url(#SVGID_00000129915315820904301950000001386759210357092266_);}
	.st4{fill:#2B387D;stroke:#2B387D;stroke-width:2;stroke-miterlimit:10;}
	.st5{fill:#2B387D;stroke:#2B387D;stroke-width:5;stroke-miterlimit:10;}
	.st6{fill-rule:evenodd;clip-rule:evenodd;fill:#2B387D;}
	.st7{fill:#67B5A9;}
	.st8{fill:#D96552;}
	.st9{fill:#FCC104;}
	.st10{fill:#FFFFFF;}
	.st11{clip-path:url(#SVGID_00000090984453718939154840000015283399600481283738_);}
	.st12{fill-rule:evenodd;clip-rule:evenodd;fill:#FFFFFF;}
</style>
<path class="st8" d="M404.01,175.52C404.01,281.58,250,489.19,250,489.19S95.99,281.58,95.99,175.52
	c0-85.06,68.95-154.01,154.01-154.01S404.01,90.46,404.01,175.52z"/>
<path class="st10" d="M340.54,117.61c-3.43-6.85-10.32-11.11-17.98-11.11H169.15c-18.47,0-33.5,15.03-33.5,33.5v80.4
	c0,11.08,9.02,20.1,20.1,20.1h10.31c4.64,8,13.3,13.4,23.19,13.4s18.55-5.4,23.19-13.4h75.1c4.64,8,13.3,13.4,23.19,13.4
	s18.55-5.4,23.19-13.4h10.31c11.08,0,20.1-9.02,20.1-20.1v-25.13C364.35,154.83,345.79,130.46,340.54,117.61z M340.06,146.7
	c4.01,8.52,6.95,17.55,8.76,26.8h-38.07v-26.8H340.06z M189.25,240.5c-7.39,0-13.4-6.01-13.4-13.4c0-7.39,6.01-13.4,13.4-13.4
	c7.39,0,13.4,6.01,13.4,13.4C202.65,234.49,196.64,240.5,189.25,240.5z M310.75,240.5c-7.39,0-13.4-6.01-13.4-13.4
	c0-7.39,6.01-13.4,13.4-13.4c7.39,0,13.4,6.01,13.4,13.4C324.15,234.49,318.14,240.5,310.75,240.5z M344.25,227.1h-6.7
	c0-14.78-12.02-26.8-26.8-26.8c-14.78,0-26.8,12.02-26.8,26.8h-67.89c0-14.78-12.02-26.8-26.8-26.8s-26.8,12.02-26.8,26.8h-6.7
	c-3.69,0-6.7-3.01-6.7-6.7v-6.7h6.7c3.7,0,6.7-3,6.7-6.7c0-3.7-3-6.7-6.7-6.7h-6.7V140c0-11.08,9.02-20.1,20.1-20.1h153.41
	c2.55,0,4.85,1.42,5.99,3.7l4.85,9.7h-29.36c-3.7,0-6.7,3-6.7,6.7v40.2c0,3.7,3,6.7,6.7,6.7h46.58c0.21,2.79,0.32,5.58,0.32,8.37
	v5.03h-6.7c-3.7,0-6.7,3-6.7,6.7c0,3.7,3,6.7,6.7,6.7h6.7v6.7C350.95,224.1,347.94,227.1,344.25,227.1z"/>
<path class="st10" d="M277.25,133.3h-41.09c-3.7,0-6.7,3-6.7,6.7v40.2c0,3.7,3,6.7,6.7,6.7h41.09c3.7,0,6.7-3,6.7-6.7V140
	C283.95,136.3,280.95,133.3,277.25,133.3z M270.55,173.5h-27.69v-26.8h27.69V173.5z"/>
<path class="st10" d="M209.35,133.3h-40.2c-3.7,0-6.7,3-6.7,6.7v40.2c0,3.7,3,6.7,6.7,6.7h40.2c3.7,0,6.7-3,6.7-6.7V140
	C216.05,136.3,213.05,133.3,209.35,133.3z M202.65,173.5h-26.8v-26.8h26.8V173.5z"/>
</svg>
