<?xml version="1.0" encoding="utf-8"?>
<!-- Generator: Adobe Illustrator 25.4.1, SVG Export Plug-In . SVG Version: 6.00 Build 0)  -->
<svg version="1.1" id="Mode_Isolation" xmlns="http://www.w3.org/2000/svg" xmlns:xlink="http://www.w3.org/1999/xlink" x="0px"
	 y="0px" viewBox="0 0 500 500" style="enable-background:new 0 0 500 500;" xml:space="preserve">
<style type="text/css">
	.st0{fill:#2A377C;}
	.st1{fill:#2B387D;}
	.st2{fill:none;stroke:#2A377C;stroke-width:30;stroke-linecap:round;stroke-linejoin:round;stroke-miterlimit:10;}
	.st3{clip-path:url(#SVGID_00000092425520486066453150000011481016374589405613_);}
	.st4{fill:#2B387D;stroke:#2B387D;stroke-width:2;stroke-miterlimit:10;}
	.st5{fill:#2B387D;stroke:#2B387D;stroke-width:5;stroke-miterlimit:10;}
	.st6{fill-rule:evenodd;clip-rule:evenodd;fill:#2B387D;}
	.st7{fill:#67B5A9;}
	.st8{fill:#D96552;}
	.st9{fill:#FCC104;}
	.st10{fill:#FFFFFF;}
	.st11{clip-path:url(#SVGID_00000052810147088247389320000000366789221778478228_);}
	.st12{fill-rule:evenodd;clip-rule:evenodd;fill:#FFFFFF;}
</style>
<g>
	<g>
		<path class="st1" d="M465.15,447.18h-12.81V99.47c0-6.11-4.32-11.37-10.31-12.57L184.87,35.65c-3.76-0.75-7.67,0.22-10.63,2.66
			c-2.97,2.43-4.69,6.07-4.69,9.91v193.08h-52.11v-89.7c0-7.08-5.74-12.81-12.81-12.81c-7.08,0-12.81,5.74-12.81,12.81v89.7H78.99
			c-7.08,0-12.81,5.74-12.81,12.81v193.08H53.36c-7.08,0-12.81,5.74-12.81,12.81c0,7.08,5.74,12.81,12.81,12.81h411.78
			c7.08,0,12.81-5.74,12.81-12.81C477.96,452.92,472.23,447.18,465.15,447.18L465.15,447.18z M195.18,63.84l231.52,46.15v337.2
			h-77.74v-27.77c29.21-5.95,51.26-31.84,51.26-62.78c0-33.74-26.46-89.7-64.07-89.7c-37.52,0-64.07,55.93-64.07,89.7
			c0,30.94,22.05,56.83,51.26,62.78v27.77h-76.89V254.11c0-7.08-5.74-12.81-12.81-12.81h-38.44V63.84z M336.14,395.07
			c-21.2,0-38.44-17.25-38.44-38.44c0-24.07,20.29-64.07,38.44-64.07c18.3,0,38.44,40.18,38.44,64.07
			C374.59,377.82,357.34,395.07,336.14,395.07L336.14,395.07z M91.81,266.92h129v180.26h-129V266.92z M91.81,266.92"/>
	</g>
	<path class="st1" d="M130.25,318.18h52.11c7.08,0,12.81-5.74,12.81-12.81s-5.74-12.81-12.81-12.81h-52.11
		c-7.08,0-12.81,5.74-12.81,12.81S123.17,318.18,130.25,318.18L130.25,318.18z M130.25,318.18"/>
	<path class="st1" d="M182.37,343.81h-52.11c-7.08,0-12.81,5.74-12.81,12.81s5.74,12.81,12.81,12.81h52.11
		c7.08,0,12.81-5.74,12.81-12.81S189.45,343.81,182.37,343.81L182.37,343.81z M182.37,343.81"/>
	<path class="st1" d="M182.37,395.07h-52.11c-7.08,0-12.81,5.74-12.81,12.81s5.74,12.81,12.81,12.81h52.11
		c7.08,0,12.81-5.74,12.81-12.81S189.45,395.07,182.37,395.07L182.37,395.07z M182.37,395.07"/>
	<path class="st1" d="M233.63,138.77h51.26c7.08,0,12.81-5.74,12.81-12.81s-5.74-12.81-12.81-12.81h-51.26
		c-7.08,0-12.81,5.74-12.81,12.81S226.55,138.77,233.63,138.77L233.63,138.77z M233.63,138.77"/>
	<path class="st1" d="M284.88,190.03c7.08,0,12.81-5.74,12.81-12.81s-5.74-12.81-12.81-12.81h-51.26c-7.08,0-12.81,5.74-12.81,12.81
		s5.74,12.81,12.81,12.81H284.88z M284.88,190.03"/>
	<path class="st1" d="M336.14,190.03h51.26c7.08,0,12.81-5.74,12.81-12.81s-5.74-12.81-12.81-12.81h-51.26
		c-7.08,0-12.81,5.74-12.81,12.81S329.06,190.03,336.14,190.03L336.14,190.03z M336.14,190.03"/>
	<path class="st1" d="M336.14,241.29h51.26c7.08,0,12.81-5.74,12.81-12.81s-5.74-12.81-12.81-12.81h-51.26
		c-7.08,0-12.81,5.74-12.81,12.81S329.06,241.29,336.14,241.29L336.14,241.29z M336.14,241.29"/>
</g>
</svg>
