<?xml version="1.0" encoding="utf-8"?>
<!-- Generator: Adobe Illustrator 25.4.1, SVG Export Plug-In . SVG Version: 6.00 Build 0)  -->
<svg version="1.1" id="Mode_Isolation" xmlns="http://www.w3.org/2000/svg" xmlns:xlink="http://www.w3.org/1999/xlink" x="0px"
	 y="0px" viewBox="0 0 500 500" style="enable-background:new 0 0 500 500;" xml:space="preserve">
<style type="text/css">
	.st0{fill:#2A377C;}
	.st1{fill:#2B387D;}
	.st2{fill:none;stroke:#2A377C;stroke-width:30;stroke-linecap:round;stroke-linejoin:round;stroke-miterlimit:10;}
	.st3{clip-path:url(#SVGID_00000163063122463785904100000001589026611187259051_);}
	.st4{fill:#2B387D;stroke:#2B387D;stroke-width:2;stroke-miterlimit:10;}
	.st5{fill:#2B387D;stroke:#2B387D;stroke-width:5;stroke-miterlimit:10;}
	.st6{fill-rule:evenodd;clip-rule:evenodd;fill:#2B387D;}
	.st7{fill:#67B5A9;}
	.st8{fill:#D96552;}
	.st9{fill:#FCC104;}
	.st10{fill:#FFFFFF;}
	.st11{clip-path:url(#SVGID_00000040537847934882201860000000716695791325684645_);}
	.st12{fill-rule:evenodd;clip-rule:evenodd;fill:#FFFFFF;}
</style>
<path class="st1" d="M304.45,205.38c6.16,6.16,16.14,6.16,22.3,0c6.16-6.16,6.16-16.14,0-22.3
	c-47.23-47.24-127.34-32.65-155.03,27.98h-16.86c-8.71,0-15.77,7.06-15.77,15.77c0,8.71,7.06,15.77,15.77,15.77h8.62
	c-0.46,5.4-0.49,10.74,0,16.52h-8.62c-8.71,0-15.77,7.06-15.77,15.77c0,8.71,7.06,15.77,15.77,15.77h16.86
	c27.84,60.96,108.02,75,155.03,27.98c6.16-6.16,6.16-16.14,0-22.3c-6.16-6.16-16.14-6.16-22.3,0c-26.86,26.86-71.79,24.93-96-5.69
	h18.49c8.71,0,15.77-7.06,15.77-15.77c0-8.71-7.06-15.77-15.77-15.77h-31.74c-0.72-5.64-0.72-10.85,0-16.52h31.74
	c8.71,0,15.77-7.06,15.77-15.77c0-8.71-7.06-15.77-15.77-15.77h-18.49C232.67,180.44,277.59,178.51,304.45,205.38L304.45,205.38z"/>
<path class="st1" d="M385.73,114.12c-75.02-75.02-196.44-75.03-271.47,0c-75.02,75.02-75.03,196.44,0,271.47
	c75.01,75.02,196.44,75.03,271.47,0C460.75,310.57,460.76,189.15,385.73,114.12L385.73,114.12z M250,410.28
	c-88.46,0-160.42-71.96-160.42-160.42S161.54,89.43,250,89.43s160.42,71.97,160.42,160.42S338.46,410.28,250,410.28L250,410.28z
	 M250,410.28"/>
</svg>
