<?xml version="1.0" encoding="utf-8"?>
<!-- Generator: Adobe Illustrator 25.4.1, SVG Export Plug-In . SVG Version: 6.00 Build 0)  -->
<svg version="1.1" id="Mode_Isolation" xmlns="http://www.w3.org/2000/svg" xmlns:xlink="http://www.w3.org/1999/xlink" x="0px"
	 y="0px" viewBox="0 0 500 500" style="enable-background:new 0 0 500 500;" xml:space="preserve">
<style type="text/css">
	.st0{fill:#2A377C;}
	.st1{fill:#2B387D;}
	.st2{fill:none;stroke:#2A377C;stroke-width:30;stroke-linecap:round;stroke-linejoin:round;stroke-miterlimit:10;}
	.st3{clip-path:url(#SVGID_00000137826570081401485580000014538691250951436707_);}
	.st4{fill:#2B387D;stroke:#2B387D;stroke-width:2;stroke-miterlimit:10;}
	.st5{fill:#2B387D;stroke:#2B387D;stroke-width:5;stroke-miterlimit:10;}
	.st6{fill-rule:evenodd;clip-rule:evenodd;fill:#2B387D;}
	.st7{fill:#67B5A9;}
	.st8{fill:#D96552;}
	.st9{fill:#FCC104;}
	.st10{fill:#FFFFFF;}
	.st11{clip-path:url(#SVGID_00000171685014707955280640000005471824295466924213_);}
	.st12{fill-rule:evenodd;clip-rule:evenodd;fill:#FFFFFF;}
</style>
<path class="st0" d="M423.92,76.19c-11.6-11.6-27.6-18.32-45.04-18.96c-16.56-0.64-33.52,4-48.88,13.44
	c-6.8,4.16-8.96,13.04-4.8,19.76c4.16,6.8,13.04,8.96,19.76,4.8c20.88-12.8,44.96-12.24,58.56,1.36c8,8,11.68,19.6,10.32,32.64
	c-1.44,14.16-8.4,28.08-19.6,39.28c-11.2,11.2-25.2,18.16-39.28,19.6c-13.04,1.28-24.64-2.4-32.64-10.32c-5.2-5.2-12.08-8-19.36-8
	c-7.36,0-14.24,2.88-19.44,8c-5.2,5.2-8,12.08-8,19.44c0,7.36,2.88,14.24,8.08,19.44c5.2,5.2,12.08,8,19.36,8
	c7.36,0,14.24-2.88,19.44-8c1.12-1.12,2.16-2.32,3.04-3.6c7.6,2.72,15.76,4.16,24.4,4.16c2.64,0,5.36-0.16,8.08-0.4
	c0.24,0,0.48-0.08,0.72-0.08l2.48,35.92c0.56,8.16-2.48,16.16-8.24,22l-134.16,134c-7.52,7.52-19.84,7.52-27.36,0l-99.92-99.92
	c-3.68-3.68-5.68-8.56-5.68-13.68c0-5.2,2-10,5.68-13.68L225.52,147.3c5.76-5.76,13.76-8.8,21.92-8.24l119.12,7.92
	c7.92,0.56,14.8-5.44,15.36-13.44c0.56-7.92-5.44-14.8-13.44-15.36l-119.12-7.92c-16.4-1.12-32.56,4.96-44.16,16.64L71.12,260.98
	c-9.12,9.12-14.08,21.2-14.08,34.08s5.04,24.96,14.08,34.08l99.84,99.84c9.36,9.36,21.76,14.08,34.08,14.08s24.64-4.72,34.08-14.08
	L373.2,294.9c11.68-11.68,17.76-27.84,16.64-44.32l-2.88-42.08c10.08-4.8,19.44-11.44,27.76-19.68c15.84-15.84,25.76-36,27.84-56.72
	C444.72,110.26,438.08,90.42,423.92,76.19L423.92,76.19z M423.92,76.19"/>
</svg>
