<svg xmlns="http://www.w3.org/2000/svg" viewBox="0 0 500 500"><defs><style>.a{fill:#2a377c;}</style></defs><path class="a" d="M420.11,80.18A238.66,238.66,0,0,0,250.24,9.82h0A240.23,240.23,0,0,0,80.37,419.92,240.23,240.23,0,0,0,420.11,80.18ZM435.8,352.64H365.49a316.14,316.14,0,0,0,16.42-88.51h79.93a210.47,210.47,0,0,1-26,88.51ZM250.24,460.05c-30-17.83-54.81-45.46-72.69-79.26H322.93c-17.88,33.8-42.73,61.43-72.69,79.26ZM164.83,352.64a286.22,286.22,0,0,1-18.08-88.51h207a286.22,286.22,0,0,1-18.08,88.51ZM38.64,264.13h79.93A316.14,316.14,0,0,0,135,352.64H64.68a210.47,210.47,0,0,1-26-88.51Zm26-116.66H135A316.07,316.07,0,0,0,118.57,236H38.64a210.43,210.43,0,0,1,26-88.51ZM250.24,40.05c30,17.83,54.81,45.47,72.69,79.27H177.55c17.88-33.8,42.73-61.44,72.69-79.27Zm85.41,107.42A286.22,286.22,0,0,1,353.73,236h-207a286.22,286.22,0,0,1,18.08-88.51ZM461.84,236H381.91a316.07,316.07,0,0,0-16.42-88.51H435.8a210.43,210.43,0,0,1,26,88.51ZM354.22,119.32c-13.38-28.9-31.18-54.44-52.55-75a212.51,212.51,0,0,1,115.45,75Zm-155.41-75c-21.37,20.59-39.17,46.13-52.55,75H83.36a212.55,212.55,0,0,1,115.45-75Zm-52.55,336.5c13.38,28.9,31.18,54.44,52.55,75a212.53,212.53,0,0,1-115.45-75Zm155.41,75c21.37-20.58,39.17-46.12,52.55-75h62.9a212.49,212.49,0,0,1-115.45,75Zm0,0"/></svg>