<?xml version="1.0" encoding="utf-8"?>
<!-- Generator: Adobe Illustrator 23.0.1, SVG Export Plug-In . SVG Version: 6.00 Build 0)  -->
<svg version="1.1" id="Calque_1" xmlns="http://www.w3.org/2000/svg" xmlns:xlink="http://www.w3.org/1999/xlink" x="0px" y="0px"
	 viewBox="0 0 130 130" style="enable-background:new 0 0 130 130;" xml:space="preserve">
<g>
	<path d="M57.3,72.8l18.3-10.6L57.3,51.7V72.8z M57.3,72.8"/>
	<path d="M64.3,5.9C33.2,5.9,8,31.1,8,62.2s25.2,56.3,56.3,56.3s56.3-25.2,56.3-56.3S95.4,5.9,64.3,5.9L64.3,5.9z M99.5,62.3
		c0,0,0,11.4-1.4,16.9c-0.8,3-3.2,5.4-6.2,6.2c-5.5,1.5-27.5,1.5-27.5,1.5s-22,0-27.5-1.5c-3-0.8-5.4-3.2-6.2-6.2
		c-1.5-5.5-1.5-16.9-1.5-16.9s0-11.4,1.5-16.9c0.8-3,3.2-5.5,6.2-6.3c5.5-1.5,27.5-1.5,27.5-1.5s22,0,27.5,1.5
		c3,0.8,5.4,3.2,6.2,6.2C99.6,50.8,99.5,62.3,99.5,62.3L99.5,62.3z M99.5,62.3"/>
</g>
</svg>
