<svg id="Calque_1" data-name="Calque 1" xmlns="http://www.w3.org/2000/svg" viewBox="0 0 14.84 14.3"><defs><style>.cls-1{fill:#d96451;}.cls-2{fill:#fbc000;}.cls-3{fill:#67b4a8;}</style></defs><path class="cls-1" d="M4.32,9.18c.11.25.34.71.55,1.09s.44.69.44.69l-.72.29a11.37,11.37,0,0,0-1.1.54,2.23,2.23,0,0,1-3-.65,2.3,2.3,0,0,1-.3-.88,2.17,2.17,0,0,1,.11-.91,2.52,2.52,0,0,1,.43-.83A2.43,2.43,0,0,1,1.47,8,2.19,2.19,0,0,1,4.32,9.18Z" transform="translate(-0.16 -0.62)"/><path class="cls-2" d="M9.7,7.8A22,22,0,0,0,7.9,9.1c-.62.51-1.11,1-1.11,1S6.5,9.5,6.1,8.82,5.17,7.46,4.84,7a4,4,0,0,1,.38-5.55,4.12,4.12,0,0,1,5.91.94,3.51,3.51,0,0,1,.39,3A4.47,4.47,0,0,1,9.7,7.8Z" transform="translate(-0.16 -0.62)"/><path class="cls-3" d="M9.77,13.94c-.29-.27-.81-.76-1.3-1.15l-.63-.49-.28-.19s.37-.32.8-.74.91-1,1.16-1.28a3.62,3.62,0,0,1,2-1.2,2.8,2.8,0,0,1,2.31.52A3.05,3.05,0,0,1,15,11.67,3.25,3.25,0,0,1,14.81,13a2.76,2.76,0,0,1-.69,1.11A3.08,3.08,0,0,1,9.77,13.94Z" transform="translate(-0.16 -0.62)"/></svg>