<?xml version="1.0" encoding="UTF-8"?>
<!-- Generator: Adobe Illustrator 25.0.0, SVG Export Plug-In . SVG Version: 6.00 Build 0)  -->
<svg version="1.1" id="layer" xmlns="http://www.w3.org/2000/svg" xmlns:xlink="http://www.w3.org/1999/xlink" x="0px" y="0px" viewBox="0 0 600 274.7" style="enable-background:new 0 0 600 274.7;" xml:space="preserve">
<style type="text/css">
	.st0{fill:#009648;}
	.st1{fill:#009CDC;}
	.st2{fill:#0075BC;}
</style>
<path class="st0" d="M278.3,102.6c0-9,0-11.1-0.6-29.3c-0.2-4.3-0.6-22.8-0.8-26.6c5.2,1,9.1,1.2,14.3,1.2c5.2,0,9.4-0.4,14.5-1.2  c-1.5,31-2.1,56.8-2.1,88.3c0,14.4,0.4,27.7,0.6,39h3.7c6,0,35.9,0,48.2-1.9c-0.6,2.3-1,3.5-1,8.2c0,3.1,0.2,4.3,1,7  c-10.6-0.4-28.5-1.2-39.7-1.2c-13.3,0-24.5,0.4-39.7,1.2c0-3.3,1.5-50.8,1.5-56v-28.7H278.3z M437.6,14.6c1.2-1.3,3.5-4,2.4-8.4  c-1.2-5-6.4-7.1-11.5-5.9c-3.6,0.9-6.4,4.3-8.4,7.7l-15.8,29.1l11.2-1.8L437.6,14.6z M401.3,59.3c19.1,0,21.2,0,28.9,0.4l19.5,1  c-0.6-1.6-1-4.5-1-7.6c0-2.5,0.4-4.1,1-6.5c-15,0.4-28.7,1.2-38.2,1.2c-11.2,0-27.4-0.6-37.6-1.2c1.5,20.5,1.9,60,1.9,68.7  c0,9.4-0.4,34.4-0.8,46.3c-0.2,8.6-0.6,17-1,25.6c13.3-0.8,26.4-1.2,38.8-1.2c13.3,0,25.8,0.4,38.2,1.2c-0.8-2.3-1-4.3-1-7.4  c0-2.9,0.2-4.9,1-6.8c-17.7,0.8-44.3,1.4-49.6,1.4v-55.5c9.6,0,19.3,0.2,28.9,0.4c5.2,0.2,10.6,0.6,16,1c-0.6-1.4-1-4.1-1-7  c0-3.1,0.4-5.1,1-7.4c-11,1.2-34.3,1.4-44.9,1.4L401.3,59.3L401.3,59.3z M544.9,130c-6.4,0.4-12.7,0.8-19.1,0.8  c-7.3,0-14.3-0.6-21.6-0.8l21.2-50.4L544.9,130z M568.4,187.2c3.7-0.2,9.6-1.2,15.4-1.2s13.1,1,16.2,1.2  c-9.3-19.9-23.1-50.8-31-68.7c-7.5-17.2-19.9-45.9-29.9-74c-2.3,0.6-4.4,1-6.7,1c-2.5,0-4.6-0.4-6.9-1c-5,16.8-17,43.5-38,89.8  l-24.1,52.9c2.9-0.4,5.8-1.2,9.3-1.2c3.3,0,7.3,0.8,10,1.2c3.3-11.7,10-28.7,16.6-44.5c8.3-0.4,16.6-0.8,24.9-0.8  c8.9,0,17.7,0.4,26.6,0.8l8.7,21.7L568.4,187.2z M278.4,243.5c0,2.5-0.1,9.1-0.3,11.4l-0.7,12.2c1.1-0.3,2.2-0.5,3.6-0.5  c1.2,0,3,0.4,4,0.5c-0.6-8.1-0.7-9-0.8-14c-0.2-9.3-0.3-15.7-0.3-27.7c9.4,8.5,31.3,30,42.6,42.2c0.6-0.1,1.2-0.2,1.9-0.2  c0.5,0,1.2,0.1,1.8,0.2c0-2.2-0.1-6.8-0.1-8.7c0-4.6-0.1-17.2-0.1-22.3c0-12.8,0.2-19.1,1-29.7c-1.1,0.3-2.1,0.5-3.7,0.5  c-1.6,0-2.8-0.3-3.8-0.5c0.6,7.2,1.1,14.8,1.1,22.2v19.5c-2-1.6-2.8-2.2-4.4-3.8l-10.5-10.2c-10.8-10.4-18.7-18.5-27.2-27.8  c-0.7,0.1-1.3,0.2-2,0.2c-0.7,0-1.4-0.1-2.1-0.2c0.1,8.2,0.2,16.4,0.2,24.7v12H278.4z M372.5,242.6c-2.8,0.2-5.4,0.3-8.2,0.3  c-3.1,0-6.1-0.3-9.3-0.3l9.1-21.6L372.5,242.6z M382.5,267.1c1.6-0.1,4.1-0.5,6.6-0.5c2.5,0,5.6,0.4,7,0.5  c-4-8.5-9.9-21.8-13.3-29.4c-3.2-7.4-8.5-19.7-12.8-31.7c-1,0.3-1.9,0.4-2.9,0.4c-1.1,0-2-0.2-2.9-0.4c-2.1,7.2-7.3,18.6-16.3,38.5  l-10.3,22.7c1.2-0.2,2.5-0.5,4-0.5c1.4,0,3.1,0.3,4.3,0.5c1.4-5,4.3-12.3,7.1-19.1c3.6-0.2,7.1-0.4,10.7-0.4c3.8,0,7.6,0.2,11.4,0.4  l3.7,9.3L382.5,267.1z M419.8,222.6c0-3.3,0.1-6.7,0.2-9.8c6.1,0,12.5,0.1,17.7,0.6c-0.3-1.4-0.4-2.2-0.4-3.2c0-0.7,0.2-1.8,0.4-3.3  c-8.5,0.4-16.4,0.5-23.8,0.5c-6.9,0-16.7-0.1-23.8-0.5c0.3,1.1,0.5,2.2,0.5,3.3c0,1.1-0.2,2.2-0.5,3.2c4.6-0.4,13.1-0.6,13.9-0.6  h4.4c0.1,3.4,0.2,6.5,0.2,9.8l0.1,24.5c0,6.7-0.5,13.4-0.9,20.1c3.2-0.4,4.5-0.5,6.1-0.5c1.1,0,3.9,0.3,6.5,0.5  c-0.3-2.5-0.6-5.4-0.6-12L419.8,222.6L419.8,222.6z M457.8,206.8c-1.8,0.3-3.8,0.5-5.8,0.5s-4.2-0.3-6.2-0.5  c0.3,4.5,0.4,11.3,0.4,15.8v23.9c0,0.8,0,3.4,0.2,4.7c2,13.6,14.8,17,25.5,17c4.8,0,10.8-1.2,15-3.8c5.9-3.7,8.9-8.4,9.1-18.8  c0.2-8.9,0.4-27,0.9-34.5l0.3-4.2c-1.3,0.2-2.8,0.5-4.2,0.5c-1.4,0-2.8-0.3-4-0.5c0.7,11.4,0.8,22.9,0.8,34.3  c0,7.2-0.4,9.9-1.2,11.9c-2,5.4-7.7,9.1-14.9,9.1c-6.2,0-11-1.9-13.6-5.4c-2.6-3.4-2.8-6.6-2.8-20.6c0-7.6,0-16,0.3-22.7  L457.8,206.8z M522.7,211.6c1.3-0.1,4.6-0.4,6.3-0.4c2.9,0,5.9,0.4,8.3,2.2c3.1,2.3,3.7,5.4,3.7,9.1c0,5.7-3.3,12.1-12.2,12.1  c-2.3,0-4.4-0.2-6.1-0.3V211.6L522.7,211.6z M537.3,237.2c8.1-1.5,15.5-6.5,15.5-16.2c0-3.7-1.4-7.3-4.1-9.8  c-3.8-3.6-8.2-4.3-14-4.3c-2,0-12.4,0.4-14.7,0.4c-4.5,0-6.8-0.3-8.9-0.4c0.6,11.3,0.6,12.6,0.6,24.1c0,17-0.1,18.9-0.8,36.2  c2-0.3,4.1-0.5,6.1-0.5c2.2,0,4.2,0.4,6,0.5c0-2.3-0.4-13.6-0.4-16.2v-12.5h2.1c4.8,6.7,10.3,14.4,14.9,21.3c1.3,2,3.3,5.3,4.6,7.3  c2.7-0.4,3.7-0.5,7.2-0.5c3.2,0,5.4,0.3,7.9,0.5c-5.6-6.9-8-10-15.1-19.8c-1.3-1.8-3.3-4.7-4.6-6.6L537.3,237.2z M578.5,212.3  c8.2,0,9.1,0,12.4,0.2l8.4,0.4c-0.3-0.7-0.4-1.9-0.4-3.2c0-1.1,0.2-1.8,0.4-2.8c-6.4,0.2-12.3,0.5-16.4,0.5  c-4.8,0-11.7-0.3-16.1-0.5c0.6,8.8,0.8,25.7,0.8,29.4c0,4-0.2,14.8-0.4,19.9c-0.1,3.7-0.3,7.3-0.4,11c5.7-0.4,11.3-0.5,16.6-0.5  c5.7,0,11,0.2,16.4,0.5c-0.4-1-0.4-1.8-0.4-3.2c0-1.2,0.1-2.1,0.4-2.9c-7.6,0.3-19,0.6-21.3,0.6v-23.8c4.1,0,8.3,0.1,12.4,0.2  c2.2,0.1,4.6,0.3,6.9,0.4c-0.3-0.6-0.4-1.8-0.4-3c0-1.3,0.2-2.2,0.4-3.2c-4.7,0.5-14.7,0.6-19.2,0.6L578.5,212.3L578.5,212.3z"/>
<path class="st1" d="M74,93.2l1.1,0.3l-0.3,1.2l-1-0.5L74,93.2z M71.3,41.1h2.5l0.1-0.4l0.2-0.8l1,0.1l0.3-0.2l0.6-0.4l0.5-0.3  L75,38.7L72.8,40l-2.5,0.3l0,0l-1.5,0.8l0,0h1.3C70.1,41.1,71.5,41.5,71.3,41.1 M86.7,72.2c-0.5-0.8,0.8-0.4,0.8-0.4h1.2l1-0.9  l0.9-0.5l1.1-4l3.6-1.1l-0.7,1.4l-1.1,0.9l-0.4,1.3l-1.6,2l-0.2,2.4L91,74.5l-2,1.6l-1.7,1L86.7,76l-3-0.8l-1.9-1.1l0.7,0.2  c0.7,0.2,0.9-0.5,0.9-0.5l1.2,0.2l1.1-0.6C85.5,73.4,87.1,73,86.7,72.2 M83.5,70.2c-0.4-0.6-1.4-0.3-1.4-0.3l0.6-0.8l1.2-0.7  l2.8-1.6l1.8,0.5l0.4,1.7l-1.2,0.7l-2.4,0.7C85.4,70.2,83.9,70.8,83.5,70.2 M225.7,150.9l0.4-5.1c0,0,0.4,2.6,1.3,4.1  c0.9,1.5,0.4,2.2,0.4,2.2l1.1,3.1l0.5,0.8l-0.6,4.1l-0.2,2.6c-0.1,0.3-0.1,0.6-0.2,0.8l-1.3-2.3l-0.5-4.3l-1-3.5L225.7,150.9z   M168.1,40.1l2.8-0.9l0,0c0.3,0.2,0.7,0.3,1,0.5l1.3,0.7l0,0l0,0H169l-5.4,0.4l-6.5-0.2l-5.4,0.4l-10.5-0.5l-7.2-0.8l-2.2,0.8  l1.1,1.8l-1.8,2.9c-0.9,0.5-2.6,0.1-2.6,0.1l-3.3,0.1l-1.2-0.3l-1.4,0.8l-3.7,0.2l-1.9,1.1l-2.8,0.1l-7,1c0,0-0.8,0.5-1.2-0.3  c-0.5-0.8-7.7-4-7.7-4l-2.2-0.6l-1.2,0.7l-3-0.8l-1,0.6l-2-0.8L91,41l-7,0.4l-2.3-0.3h-4.2h-0.4l1.3-0.8l0.1-0.1l1.5-0.9l2-1.1  l2,0.2l4.1-2.4l4.8-2.7l4.9-2.8l2,1.1l4.5-1.2l1.4-0.8l2.2,0.6l1.1-0.7l1.6,0.4l4.7,0.4l-0.3,1l-0.8,0.4l-0.8,0.5l-3.3,0.2l-1.7,0.6  c0,0-0.5-0.8-1.2-0.3c-0.8,0.4-3.2,0.5-3.2,0.5l-1-0.3l-1.4,0.8l-0.6,1.7l1.4,0.4l1.7-1l2.8,0.4l4.5,0.3l1.6,0.4l3.2-1.9l1.3-0.7  l1.9,0.5l0.6,1.1l1.7-1l2.3,0.6l4.4-2.5l0.6-2.2l8.5,0.1l0.7,1.1l5.3,0.4l9.7,3.6c0,0,1.7,0,3,0.4c1.2,0.3,2.2,1.3,3.1,0.8  c0.9-0.5,2.6,0.9,2.6,0.9l1.6,0.6L168.1,40.1z M130.6,54.6c-0.8-0.2,0.2-0.8,0.2-0.8l2.5-1.3l2-0.1l2.1,0.2l-0.4,1.5l-3.6,1.2  C133.4,55.3,131.4,54.8,130.6,54.6 M148.1,62.6l-2.8,4.7l0.6,2.2l1.2-0.7l-0.4-2l1.6-0.9l0.5-2l2.1-1.2l2.1-1.2l-4-0.6L148.1,62.6z   M101.8,55l0.9-0.5l0.5-1.7l-1.1-1.9l-1.4-0.3L99.3,51l-0.8,3c0.7,1.2,2.4,1.6,2.4,1.6L101.8,55z M73.9,40.6L73.8,41l-0.4,1.6  l-1.7,0.8l-0.4,1.4l1.4,0.4l0.3-1l1.6-0.9l1.3-1.6l1.6-0.8h-0.4l1.3-0.8l-3.2-0.3l-1-0.1L73.9,40.6z M81.9,94.7l0.9,1.5l0.9-0.5  l-0.6-1.6L81.9,94.7z M79.7,98L79,98.4l-0.4,1.3l1.5,0.4l0.9-1.6l0.9-0.5l0.3-1.2l-1.3-0.5L79.7,98z M93.4,116.3l1.7,1.4l1.5,0.4  l-0.2-1.5l-1.3-0.8l-1.5-0.5L93.4,116.3z M82.8,105.3l-0.7,1l1.4,2.4l0.8-1.5l0.4-1.4l-0.5-0.9l-0.4-0.6l-1.8-0.5L82.8,105.3z"/>
<path class="st2" d="M75,38.7l1.5,0.4L76,39.4l-0.6,0.4L75.1,40l3.2,0.3l0.1-0.1l1.6-0.9l2-1.1l2,0.2l4.1-2.4l4.8-2.7l4.9-2.8l2,1.1  l4.5-1.2l1.4-0.8l2.1,0.6l1.1-0.7l1.6,0.4l4.7,0.4l-0.3,1l-0.8,0.4l-0.8,0.4l-3.3,0.2l-1.7,0.6c0,0-0.4-0.8-1.2-0.3  s-3.2,0.5-3.2,0.5l-1-0.3l-1.4,0.8l-0.6,1.7l1.4,0.4l1.7-1l2.8,0.4l4.5,0.3l1.6,0.4l3.2-1.8l1.3-0.8l1.9,0.5l0.6,1.1l1.8-1l2.2,0.6  l4.4-2.5l0.6-2.2l8.5,0.1l0.7,1.1l5.2,0.4l9.7,3.6c0,0,1.8,0,3,0.3s2.2,1.3,3.1,0.8c0.9-0.5,2.6,0.9,2.6,0.9l1.6,0.6l4.6,2.5  l2.8-0.9c-6.6-3.2-13.6-5.9-21-7.8c-27.8-7.3-56-3.4-79.6,8.9l2.5-0.3L75,38.7z"/>
<path class="st0" d="M77.1,223.1c1.1,8.9-1.8,14.7-3.4,17.1c-0.4,0.5-0.7,0.9-1.1,1.4c-0.4-0.9-0.7-1.7-1.1-2.5  c-2.2-4.2-4.6-8-7.5-11.2c-2.8-3.2-5.9-6.2-9.4-8.9c-3.5-2.7-6.7-4.8-9.6-6c0,0,13.5,15.2,20,31.8c0.3,0.7,0.6,1.4,0.8,2.1  c-0.5,0-1,0.1-1.5,0.1c0,0-70.3-3.7-63.9-86.1c0,0,0.8-8.9,2.5-1.4c0.6,2.9,2,5.9,4.2,8.6c3.6,4.4,9.3,8.2,17.5,9.4  c5.6,0.9,16.2,2.4,26.5,7.5c8.5,4.3,16.8,11,21.8,22.1C74.9,211.8,76.4,217.1,77.1,223.1 M244.1,161c0,0-3.4,7.6-12.9,16.2  c-12.2,11.2-34.4,24.2-72.2,25.1c-50.7,1.3-67.1,26.7-72.9,38.3c-0.5,1-0.9,1.9-1.3,2.7c6,0,10.3-0.3,13.8-0.8c5.6-0.7,9.1-1.8,14-3  c7.9-1.8,25.3-6.6,28-8.5c0,0-10.3,12.8-32.4,18.4c0,0-8.9,2.5-15.8,3.6c-1.6,0.3-3.1,0.4-4.3,0.5c8.9,7.5,28.4,18.2,42.2,20.2  C215.7,286,251.7,177.1,244.1,161"/>
<path class="st2" d="M95.1,221.1L95.1,221.1L95.1,221.1z"/>
<path class="st2" d="M206.2,66.6c0.2,0.2,0.4,0.4,0.5,0.6C206.6,67,206.4,66.8,206.2,66.6 M204.4,64.6c0.2,0.2,0.4,0.5,0.6,0.7  C204.8,65,204.6,64.8,204.4,64.6 M207.9,68.7l0.5,0.6L207.9,68.7z M202.5,62.5c0.3,0.3,0.5,0.6,0.8,0.9  C203,63.1,202.8,62.8,202.5,62.5 M200.5,60.4c0.4,0.4,0.7,0.7,1.1,1.1C201.2,61.1,200.8,60.8,200.5,60.4 M175.6,41.6  c7.4,4.1,14.2,9,20.3,14.5C189.9,50.6,183,45.7,175.6,41.6 M209.6,70.8l0.4,0.6L209.6,70.8z M196.1,56.2c0.6,0.5,1.2,1.1,1.8,1.6  C197.3,57.3,196.7,56.8,196.1,56.2 M198.4,58.3c0.5,0.4,0.9,0.9,1.4,1.3C199.3,59.2,198.8,58.8,198.4,58.3 M218.1,83.7  c4.4,7.9,7.9,16.3,10.3,25.1C226.1,100.1,222.6,91.6,218.1,83.7 M211.2,72.9c0.2,0.2,0.3,0.5,0.5,0.7  C211.5,73.4,211.3,73.1,211.2,72.9 M212.7,75c0.2,0.3,0.4,0.6,0.6,0.8C213.1,75.6,212.9,75.3,212.7,75 M214.1,77.2  c0.2,0.4,0.5,0.8,0.7,1.1C214.6,77.9,214.4,77.5,214.1,77.2 M216.9,81.5c0.4,0.7,0.9,1.5,1.3,2.2C217.7,83,217.3,82.2,216.9,81.5   M215.5,79.3c0.3,0.5,0.6,1,1,1.6C216.2,80.4,215.8,79.8,215.5,79.3 M175.3,41.4l0.1,0.1L175.3,41.4L175.3,41.4z M173.3,40.4  L173.3,40.4L173.3,40.4z M172,39.7c-0.3-0.2-0.7-0.4-1-0.5l0,0L172,39.7z M94.9,221.3l-0.4,0.3l0.6-0.5L94.9,221.3z"/>
<path class="st1" d="M222.8,168.7l-1.9,6.9c-0.9,0.8-1.9,1.6-3,2.4l1.1-4.2l2-5.6L222.8,168.7z M214.9,179.3l-0.2,0.9  c1-0.6,1.9-1.3,2.8-1.9l-1.4,0.4L214.9,179.3z M175.7,182.1l-1.2,1.2l-0.3,1.1l1.3,2.2l1.8-1.1l0.7-3l-1.1-1.2L175.7,182.1z"/>
<path class="st1" d="M209,182.9l-0.1,0.7c-0.9,0.5-1.8,0.9-2.7,1.3l-0.3-0.5l-0.2-2.6l-3.3-2.7l0.5-1.8l0.5-2.7l0.8-2.9l0.4,4.2  l0.5,0.8l0.9,1.5l1.3,0.4l0.2,1.6L209,182.9z M200.8,185c-1.3-0.3-2.5-0.6-2.5-0.6l1.9,3.2c1.4-0.5,2.7-1.1,3.9-1.7l-0.2-0.3  L200.8,185z"/>
<polygon class="st2" points="93.9,195.4 93.9,195.6 94.1,195.2 "/>
<path class="st2" d="M110.2,166.9l0.8-3l-0.5-4.4l0.6-2.2l-1.6-2.7l0.3-1.2l-2.3-1.9l0.3-1.1l0.3-3.8l-0.8-2.4l-0.7-0.6l-0.4-2.4  l-0.3-1.3l-0.8-1.3l-0.2-1.5l0.1-2.1l-1-0.3l-0.5-0.9l-1.1-1.8l-0.7-0.2l-0.4,1.6l0.2,2.1l-0.3,0.9l1.1,1.9l-1,3.9l0.5,3.6l0.8,1.3  l0.9,1.6l-0.8,5.6l1.1,1.8v3.2l1.4,2.5l0.8,1.3l0.8,1.3l1.5,2.5l0.9,1.6l0.4,2.7l2,1.2c1.4-1.5,2.8-3.1,4.2-4.6l-3.2-0.2  L110.2,166.9z"/>
<path class="st2" d="M137.1,146.5l-1.5,0.3L134,144l-1.5-2.5l-1.7-2.9l-0.6-1l-2.6-0.1l-1.2,1.6l-0.8,1.4l1.8,3.1l1.6,2.7l1.2,0.5  l0.3,2.7l1.1,1.9l0.8,0.1c2.2-2,4.2-3.8,6.1-5.4h-0.4L137.1,146.5z"/>
<path class="st2" d="M228.5,162.7c-0.1,0.3-0.1,0.6-0.2,0.8l-1.3-2.3l-0.5-4.3l-1-3.5l0.2-2.5l0.4-5.1c0,0,0.4,2.6,1.3,4.1  c0.9,1.5,0.4,2.2,0.4,2.2l1.1,3.1l0.5,0.8l-0.6,4.1L228.5,162.7z M177.4,185.6l-1.8,1.1l-1.3-2.2l0.3-1.1l1.2-1.2l1.3-0.7l1.1,1.2  L177.4,185.6z M228.5,109.1l-0.3,0.6l-0.7,2.6l-1.2,2.1l-5.3-3.7l-5-2.9l-0.7,2.4l-0.7,2.7l1.1,1.8l2.6,4.4l-0.5,1.9l5,5.6l-0.6,2.1  l0.1,4.5l-0.2,3.1l-2.4,5.5l-0.9,3.2l-1.3,1.2l-1.1,0.6l-2.8,1.6l-1.4,5.2l-0.2,2.8l1.8,0.9l0.7,1.2l1.2,2l0.6,1.1l-1.7,6.4  l-0.9,0.5l-1.1-0.2l-1.3,4.7l-1.1-1.9l-0.1-1.9l-2.6-1.8l-1,0.6l-1.4,1.9l-0.6-0.6l-2.3-5l-3.2,0.3l0.6-2.3l-1.7-2.1l-1.6-2.8  l-2.2-3.1l-1.6,0.9L191,156l-2.8,1.6l-2.5,3.4l-2.7,1.5l-2,3.6l-2.6,1.5l-2,2.5l-0.8,2.8l-0.7,6.1l-1.5,0.8l-1.4,0.8l-1.3,1.7  l-0.9-0.2l-0.6-4.1l-2-3.5l-0.3-2.7l0.3-1.4l-2.3-4l-0.6-3.4l1-3.7l-0.6-1.1l-1.4,0.8l-0.3,1.1l-1.4-0.3l-0.5-0.7l-1.6-2.4l-1-1.7  l-1.5-3.1l-4.8-1.2l-2.1,0.2l-2.6-0.7l-6.3-1.6l-1-1.8l0,0c-0.5,0.6-1,1.3-1.6,2l0.2,0.1l-0.4,1.5l0.9,1.7l2.2,1.1l0.9,1.5l-1.1,4.2  L136,162l-3.6,1.6l-1.3,0.7l-4.4,2.2l-1-0.3c-1.5,2.2-3.1,4.4-4.8,6.7l2.7-0.3l-0.5,1.9l-1.8,2.8l-1.4,1.9l-3.1,2.9l-3.2,2.2  l-0.6,0.4c-8.5,13.1-14.1,24.4-18.1,33.2c11.5-9.6,29.4-18.8,56.8-20.6c3.8-0.3,7.4-0.6,10.8-1c7.2-1.1,13.7-2.2,19.6-3.4  c6.8-1.6,12.7-3.4,17.7-5.4l-1.9-3.2c0,0,1.1,0.3,2.5,0.6l3.2,0.6l0.2,0.3c0.7-0.3,1.4-0.6,2.1-0.9l-0.3-0.5l-0.2-2.6l-3.3-2.7  l0.5-1.8l0.5-2.7l0.8-2.9l0.4,4.2l0.5,0.8l0.9,1.5l1.3,0.3l0.2,1.6l1.6,2.6l-0.1,0.7c2.1-1.1,4.1-2.3,5.8-3.4l0.2-0.9l1.1-0.6  l1.4-0.4l0.4-0.3l1.1-4.2l2-5.6l1.8,0.5l-1.9,6.9c2.6-2.2,4.5-4.2,5.9-6c0.5-1.7,1.1-3.4,1.6-5.1  C233.4,145.7,233.2,126.7,228.5,109.1"/>
<path class="st1" d="M118.4,177.2c-1.8,2.6-3.5,5.1-5.1,7.6l0.7-0.4l3.2-2.2l3.1-2.9l1.4-1.9l1.8-2.8l0.5-1.9l-2.7,0.3  C120.3,174.4,119.4,175.8,118.4,177.2"/>
<path class="st1" d="M93.9,195.4l0.3-0.2c1.3-2.1,2.6-4,3.6-5.6c3.2-4.8,8.2-10.9,13.9-17.1l-2-1.2l-0.4-2.7l-1-1.6l-1.4-2.5  l-0.8-1.4l-0.8-1.3l-1.4-2.5v-3.2l-1.1-1.8l0.8-5.6l-1-1.6l-0.7-1.3l-0.5-3.6l1.1-3.9l-1.1-1.9l0.3-0.9l-0.2-2.1l0.4-1.6l0.7,0.2  l1.1,1.8l0.5,0.8l1,0.3l-0.1,2.1l0.2,1.5l0.7,1.3l0.3,1.3l0.4,2.4l0.7,0.6l0.8,2.4l-0.3,3.8l-0.3,1.1l2.3,1.9l-0.3,1.2l1.6,2.7  l-0.6,2.1l0.6,4.5l-0.8,2.9l2.4,0.8l3.2,0.2c5.5-5.9,11.4-11.7,16.6-16.5l-0.8-0.1l-1.1-1.9l-0.3-2.7l-1.2-0.5l-1.6-2.7l-1.8-3.1  l0.8-1.4l1.2-1.6l2.6,0.1l0.6,1l1.7,2.9l1.5,2.5l1.6,2.8l1.5-0.3l1-0.6l0.4,0.1c2.9-2.5,5.4-4.4,7.2-5.5c0,0-2,2.4-5.2,6.5l0,0  l1.1,1.8l6.3,1.6l2.6,0.7l2.1-0.2l4.8,1.2l1.5,3.1l1,1.7l1.6,2.4l0.5,0.7l1.4,0.4l0.3-1.1l1.4-0.8l0.6,1.1l-1,3.7l0.6,3.4l2.3,4  l-0.3,1.4l0.3,2.7l2,3.5l0.6,4.1l0.9,0.2l1.3-1.7l1.4-0.8l1.5-0.8l0.7-6.1l0.8-2.8l2-2.5l2.6-1.5l2-3.6l2.7-1.5l2.5-3.4l2.7-1.6  l1.5-0.8l1.5-0.9l2.2,3.1l1.6,2.8l1.7,2.1l-0.6,2.3l3.2-0.3l2.3,5l0.6,0.6l1.4-1.9l1-0.6l2.6,1.8l0.1,1.9l1.1,1.9l1.3-4.7l1.1,0.2  l0.9-0.5l1.7-6.4l-0.6-1.1l-1.2-2l-0.7-1.2l-1.8-0.9l0.2-2.8l1.4-5.2l2.8-1.6l1.1-0.6l1.3-1.2l0.9-3.2l2.4-5.5l0.2-3.1l-0.1-4.5  l0.6-2.1l-5-5.6l0.5-1.9l-2.6-4.4l-1.1-1.8l0.7-2.8l0.7-2.4l5,2.9l5.3,3.7l1.2-2.1l0.7-2.6l0.3-0.6l0,0l-0.1-0.2  c-2.4-8.8-5.8-17.3-10.3-25.1l0,0c-0.4-0.7-0.9-1.5-1.3-2.2c-0.1-0.2-0.2-0.4-0.4-0.6c-0.3-0.5-0.6-1-1-1.6c-0.2-0.3-0.4-0.7-0.7-1  c-0.2-0.4-0.5-0.8-0.7-1.1c-0.3-0.4-0.6-0.9-0.9-1.3c-0.2-0.3-0.4-0.6-0.6-0.8c-0.3-0.5-0.7-1-1-1.5c-0.2-0.2-0.3-0.4-0.5-0.7  c-0.4-0.5-0.7-1-1.1-1.5l-0.5-0.6c-0.4-0.5-0.8-1-1.2-1.5l-0.5-0.6c-0.4-0.5-0.8-1-1.2-1.5c-0.2-0.2-0.4-0.4-0.5-0.6  c-0.4-0.5-0.8-0.9-1.2-1.3c-0.2-0.2-0.4-0.5-0.6-0.7c-0.4-0.4-0.7-0.8-1.1-1.2c-0.3-0.3-0.5-0.6-0.8-0.9c-0.3-0.3-0.6-0.7-0.9-1  c-0.4-0.4-0.7-0.7-1.1-1.1c-0.2-0.3-0.5-0.5-0.7-0.8c-0.5-0.4-0.9-0.9-1.4-1.3l-0.5-0.5c-0.6-0.6-1.2-1.1-1.8-1.6l-0.1-0.1  c-6.1-5.5-12.9-10.4-20.3-14.5l0,0l-0.2-0.1l-0.1-0.1l0,0l0.8,0.6l-0.5,1.2L177,45l0.2,2.4l2.6,2.1l0.4,2.8l-1.9,7.2l-2.5,0.1  l-0.4,1.3l-3.6-0.3l-1.1-0.2l-1.5-0.2l-2.4,1.5l-4.2,2.4l-1.2,3.5l-1.3,0.7l-1.2-0.3l-1.5,0.9h-2.8l-0.8,3l-0.6,0.4l-1.9-0.5  l-1.5,1.6l-1.2-0.3l-2.6,0.5l-3.5-1.3l-1.6,0.9l-3.4,0.2l-1.3,0.1l-0.3,1.1l-1.1,1.4l-1.7-1.2l-3-0.8l0.3-1.8l0.2-1.8l0.7,0.2  l1.7-0.1l1.4,2.4l1.1-0.6l0.5-2l-1.5-0.4l-1.3-1.6l-0.5-0.9l-2-1.7l0.3-1.2l-0.8-0.2l-1.9-0.1l-4.5-1.2l-1.5-0.4l-1-0.2l-1.6,0.9  l-1.2,0.7l-0.8,0.4l-2,1.1l-1.1,0.6l-3.2,0.3l-5.3,0.5l-2.3,1.3l-2,1.1l-0.4,1.6l3.1,0.8l0.5-0.3l1.2,0.3l-0.5,2l-1.2,0.7l-0.4,1.6  l-1.5,0.8l-0.4,1.4l1.4-0.8l2.9,0.8l0.9-0.5l0.5-1.8l1.5-0.8l0.4,0.6l2.2-1.2l1.2-0.7l0.5-2l0.7-0.5l1.6-0.6l1.6-0.1l3.5-2l1.4,0.8  l0.7,1.2l-0.9,0.5l-1,0.6h-2.1l-1.8,1l-0.8,3.1l0.3,0.5l2.7,0.7l1.9,0.4l0.6,1l-1.6,0.9l-2-0.5l-1.4-0.6l-1.2,0.7l0.4,0.7l-0.4,1.4  l-1.1,0.6l-2.5-1.5l-0.8,0.9l-1.5-0.4l-0.4,1.6l-1.5,1.1l-0.8-1.3l-1.1-0.3l-2.2-0.4l-0.9,0.5c-0.9,0.5-0.5-0.9-0.5-0.9l-0.6-1.1  l-2-0.5l0.4-1.5l0.9-0.5l1.2-2l0.9-0.5l-0.4-0.6l-1.1-0.3l-1,1.1l-2,1.1l-1.6,2l-2.6-0.7l-2.1,0.3l-1.2,0.7l-1.5,0.1l-2.1-0.6  l-0.9,0.5l-0.8,0.4l-0.9,0.5l-2.8-0.7c0,0-0.4-0.6-1.2-0.8c-0.8-0.2,0.2-0.8,0.2-0.8l-1.1-0.7l-1.1,0.6l0.6,1.1l0.5,0.9l-0.5,1.9  l-0.3,2.1l-2.7,1.6l-1.2,0.7l-2.9-1.1l-1.1-1.8l-0.7-1.2l-0.8-1.4l-1.2,0.7l-2,1.1l-0.5,1.7L64,84.6l-2.2,1.3l-1.9,2.7l2.7,0.7  l-0.9,3.2l4.9,1.3l1.6,0.5l1.4-0.8l0.2-0.8l1.9-1.1l1-0.6l1.5-0.8l1.7,0.9l0.6,0.1l0.9-0.5l1.5-0.8l1-0.8l0.8,0.2l0.3,1.2l1.5,0.8  l0.5,0.1l2.1,0.4l0.8,0.2l-0.5,2l0.9,1.6L86,96.9l0.4,2l0.8,0.8l-0.3,1.2l0.7,1.2l-0.4,1.3l-1,0.6l-0.2,0.8l0.7,1.2l1.8-1l0.5-1.9  h1.1l1.1,1.3l0.4-1.6l-1-0.7l-0.5-0.9l-0.3-0.5l-0.6-1.1l-0.8-1.3l0.5-2l-0.6-0.9l0.3-0.8l0.5-1.8l1.1-0.6l0.9,0.2l-0.4,1.4l0.5,1.3  l0.8,1.3l0.7,1.3l-0.3,1.1l1,1.3l0.5,0.9l-1.2,4.6l0.1,2l0.8,1.3l-0.4,1.4l0.7,1.2l-0.2,0.8l1.3-0.7l1.4-0.7l0.3-1.1l-0.3-2.1  l0.9-0.5l1.4,0.4l1.5-0.3l0.6,1h1.7l1.2-0.7l0.3-1.1l1.2-1.8l0.8-0.4l1.5-0.8l1.9-0.6l2-1.1l0.7-0.4l1.7,0.4l-0.2,0.7l1.2,2  l-0.3,1.1l3-0.9l1.9-1.1l1.5-0.8l1.8,0.5l-0.5,1.8l-1.8,1l-0.7,0.4l-0.2,0.9l1.8,0.5l0.4,2l0.6,1.1l0.8,1.3l-0.5,1.7l-1.2,1.3  l-0.7-0.2l-3.6-0.8l-0.6-1.1l-1.4-1l-0.7-1.2l-2.9-0.7l-1.4,0.8l-1.8-0.5l-2.7,0.2l-1.1-0.3l-1.8-0.2l-1.1-0.3l-0.7,2.5l-1,0.6  l0.2,2.9l1.8,0.5l1.7,1.2l2.3,0.6l2.6,2.7l2.7-0.4l0.6,1.1l-0.6,2.6l-2,1.1l-0.3,1.1l-3,1.7l-1.4,0.8l-0.6,0.5L101,129l0.2-0.9  l-2-1.1l-2.4,0.1l-1.1-0.3l-1.2-2l-2.8-0.9l-0.5-1.5l-1.7-2.9l-1.4-0.4l-1-0.2l-2,0.3l-1,2.2l-3.8-1l0.1-1.4l-0.9-1.6l-1.5-2.5  l-1-2.5l-0.9-1.5l-1.6-1.1l0.3-1.2l1.7-1l0.3-0.9L78,105l0.5-1.7l-3.1-0.8l-1.7-1.4l-2-0.5L71,99.4l-2.5-0.6l-2.3-1.4l-1.8-0.5  l-2-0.7l-0.5-0.9L61.1,94l-0.4-0.7l-0.9-0.2L58,95l-1.1-0.3L56,95.2l-2.8,1.6L52,97.1l-1.9,1.1l-1.8,0.2l-2.5,0.2L44,98.1l-1.1,1.7  l-1.5,0.9l-1,1l-1.8,1l-1.1,0.6l-1.4,1.8l-1.3,1.8l-1.2,2.1l-0.2,0.9l-1.1,1l-0.4,1.3l-2.3,1.1l-0.5,1.9l-0.8,2.1l-0.5,1.9l0.2,3.1  l-0.5,7.6l-0.5,2l0.8,2.8l1.1,1.8l0.6,2.8l1.8,0.5l1,1.7l1.1,1.9l2.4,1.8l6.4,1.7l1.1,1.8l1.7,0.4l-0.1,3.1l1.3,2.1l2.7,0.9l0.7,1.2  l-0.3,2.7l-0.6,2.3l-1,2.5l-0.9,2.3l-0.5,1.8l1,2.4l0.9,1.1c0,0,0.9,1.4,1.2,1.9c0.3,0.5,0.5,3.6,0.5,3.6l-0.1,2.4  c2.6,1,5.3,2.2,8,3.7c8.3,4.6,16.3,11.7,20.9,22.9c1.6,3.9,2.7,8.3,3.3,13.3c2.9-8.1,7.8-16.9,12.1-23.7L93.9,195.4z"/>
<path class="st1" d="M126.1,166.3l1,0.3l4.4-2.2l1.3-0.7l3.6-1.6l5.3-3.1l1.1-4.2l-0.9-1.5l-2.2-1.1l-0.9-1.7l0.4-1.5l-0.1-0.1  C135.6,153.4,131.1,159.3,126.1,166.3"/>
<polygon class="st2" points="80.1,235.3 80.2,235.2 80.2,235.1 "/>
<path class="st2" d="M82.4,74.3c0.7,0.2,0.9-0.5,0.9-0.5l1.2,0.2l1.1-0.6c0,0,1.6-0.5,1.1-1.2c-0.5-0.8,0.8-0.4,0.8-0.4h1.2l1-0.9  l0.9-0.5l1.1-4l3.6-1.1l-0.7,1.4l-1.1,0.9l-0.4,1.3l-1.6,2l-0.2,2.4L91,74.5l-1.9,1.6l-1.7,1L86.8,76l-3-0.8l-1.9-1.1L82.4,74.3z   M82.7,69l1.2-0.7l2.8-1.6l1.8,0.5l0.4,1.7l-1.2,0.7l-2.4,0.7c0,0-1.5,0.5-1.9-0.1S82,69.8,82,69.8L82.7,69z M99.2,50.9l1.4-0.4  l1.3,0.4l1.2,1.9l-0.5,1.7l-0.9,0.5l-1,0.5c0,0-1.7-0.5-2.4-1.6L99.2,50.9z M130.8,53.8l2.5-1.3l2-0.1l2.1,0.2l-0.4,1.6l-3.6,1.2  c0,0-2-0.5-2.9-0.7C129.7,54.4,130.8,53.8,130.8,53.8 M148.1,62.6l0.9-1.7l4,0.6l-2.1,1.2l-2.1,1.2l-0.5,2l-1.5,0.9l0.3,2l-1.2,0.7  l-0.6-2.2L148.1,62.6z M74,93.2l1.1,0.3l-0.3,1.2l-1-0.5L74,93.2z M79,98.4l0.7-0.4l1.2-1.7l1.3,0.5L81.9,98L81,98.5l-0.9,1.6  l-1.5-0.4L79,98.4z M83.1,94l0.6,1.6l-0.9,0.5l-0.9-1.4L83.1,94z M84.3,104.9l0.5,0.9l-0.4,1.4l-0.8,1.5l-1.4-2.4l0.7-1l-0.6-1.5  l1.8,0.5L84.3,104.9z M93.7,115.3l1.5,0.5l1.3,0.8l0.2,1.5l-1.5-0.4l-1.7-1.4L93.7,115.3z M49.2,173.4c-0.3-0.5-1.2-1.9-1.2-1.9  l-0.9-1.1l-0.9-2.4l0.5-1.8l0.9-2.3l0.9-2.5l0.6-2.3l0.3-2.6l-0.7-1.2l-2.7-0.9l-1.3-2.1l0.1-3.1l-1.7-0.4L42,147l-6.4-1.7l-2.4-1.8  l-1.1-1.9l-1-1.7l-1.8-0.5l-0.6-2.8l-1.1-1.8l-0.8-2.8l0.5-2l0.5-7.6l-0.2-3.1l0.5-1.9l0.8-2.1l0.5-1.9l2.3-1.1l0.4-1.3l1.1-1  l0.2-0.9l1.2-2.1l1.4-1.8l1.3-1.8l1.1-0.6l1.8-1l1-1l1.6-0.9l1.1-1.7l1.8,0.5l2.5-0.2l1.8-0.2l1.9-1.1l1.2-0.2l2.8-1.6l0.9-0.5  l1.1,0.3l1.8-1.9l0.9,0.2l0.4,0.7l0.8,1.4l0.5,0.9l2,0.7l1.8,0.5l2.3,1l2.5,0.6l0.7,1.2l2,0.5l1.6,1.4l3.1,0.8l-0.5,1.8l-1.2,1.7  l-0.2,0.9l-1.7,1l-0.3,1.2l1.6,1.1l0.9,1.5l1,2.5l1.5,2.5l0.9,1.6l-0.1,1.4l3.8,1l1-2.2l2-0.3l0.9,0.2l1.4,0.4l1.7,2.9l0.8,1.3  l2.8,0.9l1.2,2l1.1,0.3l2.4-0.1l2,1.1l-0.3,0.9l2.9,0.5l0.6-0.5l1.4-0.8l3-1.7l0.3-1.1l2-1.1l0.6-2.6l-0.6-1.1l-2.7,0.4l-2.6-2.7  l-2.3-0.6l-1.7-1.2l-1.8-0.5l-0.2-2.9l1-0.6l0.7-2.6l1.1,0.3l1.8,0.2l1.1,0.3l2.7-0.2l1.8,0.5l1.4-0.8l2.9,0.8l0.7,1.2l1.4,1  l0.6,1.1l3.6,0.8l0.7,0.2l1.2-1.3l0.5-1.7l-0.8-1.3l-0.6-1.1l-0.4-2l-1.8-0.5l0.2-0.9l0.7-0.4l1.8-1l0.5-1.8l-1.8-0.5l-1.5,0.8  l-1.9,1.1l-3,0.9l0.3-1.1l-1.2-2l0.2-0.7l-1.7-0.4l-0.7,0.4l-2,1.1l-1.9,0.6l-1.5,0.8l-0.8,0.4l-1.2,1.8l-0.3,1.1l-1.2,0.7h-1.8  l-0.6-1l-1.5,0.3l-1.4-0.4l-0.9,0.5l0.3,2.1l-0.3,1.1l-1.4,0.7l-1.3,0.7l0.2-0.8l-0.7-1.1l0.4-1.4l-0.8-1.3l-0.1-2l1.2-4.6l-0.5-0.9  l-1-1.3l0.3-1.1l-0.8-1.3L91,95l-0.5-1.3l0.4-1.4L90,92.1l-1.1,0.6l-0.5,1.7l-0.3,0.9l0.5,0.9l-0.5,2l0.7,1.3l0.6,1.1l0.3,0.5  l0.5,0.8l1,0.7l0,1.8l-1.1-1.3H89l-0.5,1.9l-1.8,1l-0.7-1.2l0.2-0.8l1-0.6l0.3-1.2l-0.7-1.2l0.3-1.2L86.3,99l-0.4-2l0.4-1.3l-1-1.6  l0.5-2L85,91.9l-2.1-0.4l-0.5-0.1l-1.5-0.8l-0.3-1.2l-0.8-0.2l-1,0.8l-1.5,0.8l-0.9,0.5l-0.5-0.1l-1.7-0.9l-1.5,0.8l-1,0.6l-1.9,1.1  l-0.2,0.8l-1.4,0.8l-1.6-0.5l-4.9-1.3l0.9-3.2l-2.7-0.7l1.9-2.7l2.2-1.3l2.4-1.4l0.5-1.7l2-1.1l1.2-0.7l0.8,1.4l0.7,1.2l1.1,1.9  l2.9,1l1.2-0.7l2.7-1.6l0.3-2.1l0.5-1.9l-0.5-0.8l-0.6-1.1l1.1-0.6l1.1,0.7c0,0-1,0.6-0.2,0.8c0.8,0.2,1.2,0.8,1.2,0.8l2.8,0.7  l0.9-0.5l0.8-0.5l0.9-0.5l2.2,0.6l1.5-0.1l1.2-0.7l2.1-0.3l2.6,0.7l1.6-2l2-1.1l1-1.1l1.1,0.3l0.4,0.6l-0.9,0.5l-1.2,2l-0.9,0.5  l-0.4,1.5l2,0.5l0.6,1.1c0,0-0.4,1.5,0.5,0.9l0.9-0.5l2.2,0.4l1.1,0.3l0.8,1.3l1.5-1.1l0.4-1.6l1.5,0.4l0.8-0.9l2.5,1.5l1.1-0.6  l0.4-1.4L116,79l1.2-0.7l1.4,0.7l2,0.5l1.6-0.9l-0.6-1l-1.9-0.4l-2.7-0.7l-0.3-0.5l0.8-3.1l1.8-1l2.1,0.1l1-0.6l0.9-0.5l-0.7-1.2  l-1.4-0.8l-3.5,2l-1.6,0.1l-1.6,0.6l-0.7,0.5l-0.5,2l-1.2,0.7l-2.2,1.2l-0.4-0.6l-1.5,0.8l-0.5,1.8l-0.9,0.5l-2.9-0.8l-1.3,0.8  l0.4-1.4l1.5-0.8l0.4-1.5l1.2-0.7l0.5-2l-1.2-0.3l-0.5,0.3l-3.1-0.8l0.4-1.6l2-1.1l2.3-1.3l5.3-0.5l3.2-0.3l1.1-0.6l2-1.1l0.8-0.4  l1.2-0.7l1.6-0.9l1,0.2l1.5,0.4l4.5,1.2l1.9,0.1l0.8,0.2l-0.3,1.2l2,1.7l0.5,0.8l1.3,1.6l1.5,0.4l-0.5,2l-1.1,0.6l-1.4-2.4l-1.7,0.1  l-0.7-0.2l-0.2,1.8l-0.3,1.8l3,0.8l1.7,1.2l1.1-1.4l0.1-1.5l1.3-0.1l3.1-0.2l1.6-0.9l3.5,1.3l2.6-0.5l1.2,0.3l1.5-1.6l1.9,0.5  l0.6-0.4l0.8-3h2.8l1.5-0.9l1.2,0.3l1.3-0.7l1.2-3.5l4.2-2.4l2.4-1.5l1.5,0.3l1.1,0.1l3.5,0.4l0.4-1.3l2.5-0.1l1.9-7.2l-0.4-2.8  l-2.6-2.1l-0.2-2.4l-1-1.8L176,42l-0.8-0.6c-0.7-0.4-1.3-0.7-2-1.1H169l-5.4,0.4l-6.5-0.2l-5.4,0.4l-10.5-0.5l-7.2-0.8l-2.2,0.8  l1.1,1.9l-1.8,2.9c-0.9,0.5-2.6,0.1-2.6,0.1l-3.5,0.1l-1.2-0.3l-1.4,0.8l-3.7,0.2l-1.9,1.1l-2.8,0.1l-7,1c0,0-0.8,0.4-1.2-0.3  c-0.5-0.8-7.7-3.9-7.7-3.9l-2.2-0.6l-1.2,0.7l-3-0.8l-1,0.6l-2-0.8l2.1-2.2l-7,0.4l-2.3-0.3h-4.2l-1.6,0.8l-1.3,1.6l-1.6,0.9l-0.3,1  L71.1,45l0.4-1.4l1.7-0.8l0.4-1.6h-2.5c0.3,0.4-1.2,0-1.2,0h-1.2C43,55,22.9,78.8,14.9,108.9c-5.2,19.3-4.7,38.8,0.3,56.8  c3.5,4.1,8.8,7.5,16.2,9c4.1,0.8,10.9,2.1,18.1,4.8l0.2-2.4C49.7,176.9,49.5,173.9,49.2,173.4"/>
</svg>