<?xml version="1.0" encoding="iso-8859-1"?>
<!-- Generator: Adobe Illustrator 24.3.0, SVG Export Plug-In . SVG Version: 6.00 Build 0)  -->
<svg version="1.1" xmlns="http://www.w3.org/2000/svg" x="0px" y="0px"
     width="510.236px" height="283.465px" viewBox="0 0 510.236 283.465" enable-background="new 0 0 510.236 283.465"
     xml:space="preserve">
<g id="Calque_1" display="none">
	<g display="inline">
		<g>
			<path fill="#CC1235" d="M294.28,44.221c-1.329-0.683-2.277-1.974-2.845-3.869c-0.124-0.405-0.292-1-0.502-1.787
				c-0.215-0.802-0.369-1.408-0.464-1.819c-0.445-1.884-0.253-3.473,0.576-4.764c0.83-1.293,2.179-2.189,4.048-2.689
				c1.856-0.497,3.469-0.395,4.84,0.308c1.37,0.702,2.334,1.98,2.892,3.834c0.246,0.807,0.422,1.41,0.527,1.802
				c0.102,0.379,0.248,0.98,0.439,1.804c0.455,1.926,0.276,3.519-0.539,4.776c-0.817,1.259-2.179,2.145-4.091,2.657
				C297.236,44.99,295.608,44.906,294.28,44.221z M300.515,40.585c0.398-0.709,0.46-1.653,0.191-2.83
				c-0.198-0.852-0.336-1.425-0.415-1.719c-0.087-0.324-0.254-0.889-0.501-1.698c-0.351-1.14-0.884-1.921-1.6-2.34
				c-0.714-0.419-1.529-0.505-2.442-0.26c-0.928,0.249-1.596,0.732-2.006,1.452c-0.411,0.72-0.475,1.661-0.195,2.82
				c0.096,0.412,0.241,0.984,0.437,1.715c0.192,0.716,0.352,1.284,0.478,1.702c0.337,1.146,0.86,1.928,1.567,2.348
				c0.708,0.42,1.534,0.505,2.475,0.253C299.447,41.776,300.117,41.295,300.515,40.585z"/>
			<path fill="#CC1235" d="M312.351,39.379c-1.314-0.687-2.236-2.015-2.763-3.982l-2.3-8.582c-0.041-0.154-0.03-0.293,0.037-0.417
				c0.065-0.122,0.174-0.204,0.33-0.246l1.939-0.519c0.154-0.041,0.294-0.025,0.419,0.045c0.125,0.072,0.209,0.185,0.25,0.34
				l2.3,8.582c0.298,1.11,0.785,1.877,1.462,2.298c0.679,0.422,1.503,0.502,2.472,0.242c0.971-0.26,1.644-0.742,2.02-1.446
				c0.376-0.703,0.417-1.611,0.119-2.721l-2.3-8.582c-0.041-0.154-0.027-0.294,0.045-0.419c0.073-0.123,0.186-0.207,0.34-0.249
				l1.94-0.52c0.154-0.041,0.291-0.024,0.409,0.048c0.118,0.074,0.197,0.188,0.238,0.343l2.3,8.582
				c0.527,1.968,0.397,3.578-0.39,4.827c-0.787,1.251-2.129,2.131-4.027,2.64C315.278,40.156,313.664,40.068,312.351,39.379z"/>
			<path fill="#CC1235" d="M332.802,35.075c-0.125-0.072-0.207-0.178-0.245-0.319l-3.113-11.618l-3.901,1.045
				c-0.141,0.038-0.273,0.021-0.398-0.051c-0.125-0.072-0.207-0.186-0.249-0.34l-0.424-1.583c-0.041-0.154-0.03-0.293,0.035-0.416
				c0.065-0.122,0.175-0.205,0.33-0.246l10.775-2.887c0.154-0.041,0.294-0.025,0.419,0.045c0.125,0.072,0.207,0.186,0.249,0.34
				l0.424,1.583c0.041,0.154,0.027,0.294-0.045,0.419c-0.072,0.125-0.186,0.207-0.34,0.249l-3.88,1.04l3.113,11.618
				c0.038,0.141,0.024,0.273-0.041,0.396c-0.066,0.123-0.175,0.205-0.33,0.246l-1.983,0.531
				C333.059,35.164,332.926,35.148,332.802,35.075z"/>
			<path fill="#CC1235" d="M345.495,31.674c-0.125-0.072-0.207-0.178-0.245-0.319l-3.684-13.748c-0.041-0.154-0.024-0.29,0.05-0.409
				c0.074-0.118,0.181-0.195,0.322-0.233l2.024-0.542c0.154-0.041,0.289-0.028,0.406,0.038c0.116,0.068,0.194,0.178,0.236,0.333
				l3.684,13.748c0.038,0.141,0.024,0.273-0.041,0.396c-0.066,0.123-0.175,0.205-0.33,0.246l-2.024,0.542
				C345.753,31.763,345.62,31.746,345.495,31.674z"/>
			<path fill="#CC1235" d="M354.984,29.132c-0.125-0.072-0.207-0.178-0.245-0.319l-3.684-13.748c-0.041-0.154-0.024-0.29,0.05-0.409
				c0.074-0.118,0.181-0.195,0.322-0.233l1.981-0.531c0.154-0.041,0.29-0.029,0.406,0.038c0.116,0.068,0.194,0.178,0.236,0.333
				l3.141,11.724l6.685-1.791c0.154-0.041,0.294-0.025,0.419,0.045c0.123,0.073,0.206,0.18,0.243,0.319l0.407,1.518
				c0.038,0.141,0.02,0.274-0.051,0.398c-0.072,0.125-0.186,0.207-0.34,0.249l-9.172,2.458
				C355.241,29.221,355.109,29.204,354.984,29.132z"/>
		</g>
		<g>
			<path fill="#CC1235" d="M305.898,77.005c-0.118-0.083-0.191-0.195-0.216-0.339l-2.468-13.995
				c-0.028-0.157-0.004-0.295,0.073-0.412c0.076-0.115,0.191-0.188,0.35-0.216l5.245-0.925c4.227-0.745,6.727,0.824,7.502,4.706
				c0.175,0.827,0.287,1.384,0.338,1.671c0.048,0.271,0.132,0.826,0.25,1.663c0.295,2.017,0.015,3.591-0.841,4.725
				c-0.856,1.134-2.353,1.888-4.488,2.265l-5.352,0.944C306.147,77.115,306.016,77.087,305.898,77.005z M311.096,73.671
				c1.189-0.21,2.002-0.625,2.439-1.25c0.436-0.624,0.561-1.554,0.372-2.792c-0.123-0.866-0.203-1.405-0.241-1.621
				c-0.04-0.228-0.149-0.756-0.324-1.583c-0.236-1.169-0.682-1.981-1.338-2.434c-0.657-0.453-1.586-0.574-2.79-0.362l-2.623,0.462
				l1.774,10.061L311.096,73.671z"/>
			<path fill="#CC1235" d="M324.235,73.771c-0.118-0.083-0.189-0.195-0.214-0.339l-2.468-13.995
				c-0.028-0.157-0.004-0.295,0.071-0.411c0.076-0.115,0.193-0.189,0.35-0.216l9.48-1.672c0.157-0.028,0.295,0,0.413,0.082
				c0.118,0.083,0.192,0.203,0.22,0.36l0.254,1.441c0.028,0.157-0.001,0.292-0.085,0.403c-0.084,0.111-0.205,0.18-0.362,0.208
				l-7.051,1.243l0.663,3.762l6.579-1.16c0.157-0.028,0.295-0.001,0.413,0.082s0.19,0.203,0.218,0.36l0.239,1.354
				c0.028,0.159,0,0.292-0.084,0.403c-0.084,0.112-0.205,0.18-0.362,0.208l-6.579,1.16l0.686,3.891l7.223-1.274
				c0.157-0.028,0.295-0.004,0.411,0.071c0.117,0.077,0.189,0.192,0.216,0.35l0.258,1.462c0.028,0.157,0,0.292-0.084,0.403
				s-0.205,0.18-0.362,0.208l-9.653,1.702C324.483,73.882,324.353,73.854,324.235,73.771z"/>
			<path fill="#CC1235" d="M342.6,70.312c-0.986-0.227-1.772-0.612-2.355-1.159c-0.584-0.548-0.957-1.192-1.117-1.932
				c-0.02-0.114,0.005-0.225,0.074-0.333c0.071-0.108,0.169-0.175,0.298-0.198l1.957-0.345c0.157-0.028,0.293-0.015,0.406,0.04
				c0.113,0.054,0.224,0.138,0.332,0.252c0.23,0.462,0.627,0.812,1.195,1.052c0.566,0.24,1.294,0.282,2.182,0.125
				c1.003-0.177,1.731-0.48,2.18-0.905c0.449-0.427,0.622-0.934,0.519-1.522c-0.068-0.387-0.254-0.687-0.557-0.899
				c-0.303-0.212-0.735-0.37-1.292-0.471c-0.557-0.101-1.375-0.197-2.455-0.288c-1.762-0.102-3.096-0.414-3.999-0.934
				c-0.905-0.521-1.466-1.397-1.684-2.63c-0.146-0.831-0.048-1.613,0.296-2.347c0.344-0.732,0.909-1.36,1.696-1.884
				c0.786-0.522,1.746-0.883,2.878-1.083c1.191-0.21,2.254-0.184,3.196,0.078c0.94,0.264,1.69,0.667,2.253,1.211
				c0.561,0.544,0.91,1.121,1.048,1.733c0.02,0.114-0.005,0.227-0.074,0.335c-0.071,0.108-0.169,0.174-0.298,0.196l-2.042,0.36
				c-0.316,0.056-0.554-0.035-0.713-0.273c-0.153-0.446-0.501-0.779-1.041-1.002c-0.542-0.223-1.172-0.27-1.888-0.143
				c-0.787,0.139-1.382,0.398-1.78,0.779c-0.398,0.38-0.546,0.857-0.445,1.43c0.068,0.387,0.239,0.689,0.514,0.907
				c0.275,0.217,0.673,0.381,1.195,0.488c0.521,0.108,1.269,0.201,2.243,0.28c1.327,0.061,2.397,0.207,3.213,0.431
				c0.816,0.226,1.45,0.579,1.905,1.06c0.455,0.483,0.756,1.145,0.905,1.991c0.164,0.931,0.052,1.783-0.337,2.553
				s-1.014,1.416-1.874,1.937c-0.862,0.522-1.901,0.89-3.12,1.105C344.722,70.536,343.584,70.537,342.6,70.312z"/>
			<path fill="#CC1235" d="M364.073,66.769c-0.101-0.07-0.163-0.171-0.186-0.3l0.009-0.201l2.715-14.776
				c0.08-0.382,0.306-0.607,0.679-0.673l2.365-0.417c0.372-0.066,0.662,0.069,0.868,0.4l7.605,12.957l0.076,0.186
				c0.023,0.129-0.005,0.245-0.083,0.347c-0.078,0.103-0.174,0.164-0.289,0.184l-1.913,0.337c-0.3,0.053-0.532-0.045-0.694-0.298
				l-1.448-2.427l-6.363,1.122l-0.531,2.776c-0.066,0.293-0.25,0.465-0.552,0.518l-1.912,0.337
				C364.289,66.863,364.175,66.84,364.073,66.769z M367.726,60.583l4.859-0.857l-3.597-6.192L367.726,60.583z"/>
			<path fill="#CC1235" d="M384.172,62.017c-1.261-0.82-2.09-2.155-2.49-4.005c-0.083-0.384-0.201-1.015-0.355-1.889
				c-0.157-0.888-0.264-1.535-0.32-1.938c-0.252-1.848,0.077-3.38,0.985-4.596c0.908-1.216,2.344-1.998,4.309-2.345
				c1.275-0.225,2.424-0.202,3.448,0.068c1.023,0.271,1.862,0.74,2.519,1.407c0.657,0.668,1.084,1.471,1.279,2.412l0.008,0.043
				c0.02,0.114-0.009,0.22-0.088,0.314c-0.079,0.096-0.177,0.153-0.291,0.173l-2.086,0.368c-0.171,0.03-0.307,0.014-0.408-0.05
				c-0.099-0.063-0.196-0.19-0.288-0.381c-0.371-0.851-0.855-1.412-1.449-1.685c-0.595-0.271-1.329-0.33-2.203-0.176
				c-2.05,0.361-2.916,1.695-2.597,4.003c0.053,0.39,0.151,0.986,0.292,1.788c0.142,0.804,0.257,1.411,0.345,1.824
				c0.49,2.278,1.76,3.237,3.81,2.875c0.859-0.152,1.526-0.458,1.998-0.918c0.474-0.461,0.74-1.154,0.798-2.08
				c0.022-0.211,0.069-0.363,0.14-0.458c0.073-0.093,0.195-0.157,0.366-0.187l2.086-0.368c0.129-0.023,0.248,0.001,0.356,0.07
				c0.108,0.071,0.168,0.17,0.175,0.302c0.138,0.951,0.013,1.853-0.377,2.704c-0.389,0.853-1.017,1.58-1.886,2.183
				c-0.869,0.605-1.942,1.02-3.216,1.244C387.052,63.072,385.431,62.837,384.172,62.017z"/>
			<path fill="#CC1235" d="M404.573,59.606c-0.118-0.083-0.191-0.195-0.216-0.339l-2.089-11.845l-3.977,0.701
				c-0.144,0.025-0.274-0.003-0.392-0.085c-0.118-0.083-0.19-0.203-0.218-0.36l-0.285-1.614c-0.028-0.157-0.004-0.295,0.071-0.411
				c0.076-0.115,0.192-0.189,0.35-0.216l10.986-1.937c0.157-0.028,0.295,0,0.413,0.082c0.118,0.083,0.19,0.203,0.218,0.36
				l0.285,1.614c0.028,0.157,0.001,0.295-0.082,0.413c-0.083,0.118-0.203,0.19-0.36,0.218l-3.956,0.698l2.089,11.845
				c0.025,0.144,0,0.274-0.075,0.39c-0.077,0.117-0.193,0.189-0.35,0.216l-2.021,0.356
				C404.821,59.717,404.689,59.689,404.573,59.606z"/>
			<path fill="#CC1235" d="M417.514,57.324c-0.118-0.083-0.191-0.195-0.216-0.339l-2.468-13.995
				c-0.028-0.157-0.004-0.295,0.073-0.412c0.076-0.115,0.191-0.188,0.35-0.216l9.48-1.672c0.157-0.028,0.295,0,0.413,0.082
				c0.117,0.083,0.19,0.203,0.218,0.36l0.254,1.441c0.028,0.157-0.001,0.292-0.084,0.403c-0.084,0.111-0.205,0.18-0.362,0.208
				l-7.052,1.244l0.663,3.762l6.579-1.16c0.157-0.028,0.295-0.001,0.413,0.082c0.118,0.083,0.192,0.203,0.22,0.36l0.239,1.354
				c0.028,0.159-0.001,0.292-0.085,0.403c-0.084,0.112-0.205,0.18-0.362,0.208l-6.579,1.16l0.686,3.891l7.223-1.274
				c0.157-0.028,0.295-0.004,0.411,0.071c0.117,0.077,0.19,0.192,0.218,0.35l0.258,1.462c0.028,0.157-0.001,0.292-0.085,0.403
				c-0.084,0.111-0.205,0.18-0.362,0.208l-9.651,1.702C417.762,57.435,417.632,57.407,417.514,57.324z"/>
			<path fill="#CC1235" d="M435.266,53.04c-1.249-0.799-2.05-2.202-2.404-4.208l-1.543-8.75c-0.028-0.157-0.004-0.295,0.071-0.411
				c0.076-0.115,0.192-0.189,0.35-0.216l1.978-0.349c0.157-0.028,0.295,0,0.413,0.082c0.118,0.083,0.19,0.203,0.218,0.36l1.543,8.75
				c0.2,1.132,0.62,1.938,1.258,2.416c0.638,0.48,1.452,0.632,2.442,0.457c0.988-0.174,1.701-0.595,2.137-1.264
				c0.437-0.668,0.555-1.568,0.356-2.701l-1.543-8.75c-0.028-0.157-0.001-0.295,0.082-0.413c0.083-0.117,0.203-0.19,0.36-0.218
				l1.978-0.349c0.157-0.028,0.292,0.001,0.403,0.084c0.111,0.084,0.18,0.205,0.208,0.362l1.543,8.75
				c0.354,2.006,0.084,3.599-0.809,4.775c-0.893,1.178-2.307,1.938-4.241,2.279C438.115,54.069,436.516,53.84,435.266,53.04z"/>
			<path fill="#CC1235" d="M452.704,51.119c-0.118-0.083-0.189-0.195-0.214-0.339l-2.468-13.995
				c-0.028-0.157-0.004-0.295,0.071-0.411c0.076-0.115,0.193-0.189,0.35-0.216l5.568-0.982c1.763-0.311,3.214-0.146,4.355,0.495
				c1.14,0.642,1.842,1.715,2.108,3.22c0.184,1.045,0.089,1.968-0.288,2.766c-0.376,0.798-0.987,1.434-1.836,1.909l4.084,4.931
				c0.059,0.079,0.094,0.154,0.106,0.226c0.023,0.129-0.005,0.245-0.083,0.347c-0.078,0.103-0.175,0.164-0.289,0.184l-1.978,0.349
				c-0.229,0.04-0.417,0.018-0.565-0.066c-0.148-0.085-0.288-0.204-0.419-0.359l-3.65-4.609l-2.945,0.519l0.91,5.159
				c0.025,0.144-0.003,0.274-0.085,0.392c-0.083,0.118-0.203,0.19-0.36,0.218l-1.978,0.349
				C452.952,51.23,452.822,51.202,452.704,51.119z M457.167,42.108c0.859-0.152,1.472-0.454,1.834-0.911
				c0.363-0.455,0.48-1.048,0.351-1.78c-0.129-0.73-0.442-1.255-0.942-1.573c-0.498-0.319-1.179-0.401-2.039-0.25l-2.989,0.527
				l0.796,4.514L457.167,42.108z"/>
			<path fill="#CC1235" d="M472.165,47.466c-0.986-0.227-1.77-0.612-2.354-1.159c-0.585-0.548-0.957-1.192-1.117-1.932
				c-0.02-0.114,0.005-0.225,0.074-0.333c0.069-0.108,0.169-0.175,0.298-0.198l1.955-0.345c0.159-0.028,0.294-0.015,0.407,0.039
				c0.112,0.055,0.224,0.138,0.332,0.252c0.228,0.462,0.627,0.812,1.194,1.053c0.567,0.24,1.294,0.282,2.184,0.125
				c1.003-0.177,1.729-0.48,2.178-0.905c0.45-0.427,0.622-0.934,0.519-1.522c-0.068-0.387-0.254-0.687-0.557-0.899
				c-0.303-0.212-0.733-0.37-1.291-0.471c-0.557-0.101-1.375-0.197-2.455-0.288c-1.762-0.102-3.096-0.414-4.001-0.934
				c-0.904-0.521-1.465-1.398-1.682-2.63c-0.146-0.831-0.048-1.613,0.296-2.347c0.343-0.731,0.909-1.36,1.695-1.884
				c0.788-0.522,1.748-0.883,2.88-1.083c1.189-0.21,2.254-0.184,3.194,0.078c0.94,0.264,1.692,0.667,2.253,1.211
				c0.561,0.544,0.91,1.121,1.048,1.733c0.02,0.114-0.003,0.226-0.074,0.335c-0.069,0.108-0.169,0.174-0.298,0.196l-2.042,0.36
				c-0.315,0.056-0.552-0.036-0.713-0.273c-0.153-0.446-0.499-0.779-1.041-1.002c-0.542-0.223-1.17-0.27-1.887-0.144
				c-0.789,0.139-1.382,0.398-1.78,0.779c-0.398,0.38-0.548,0.857-0.447,1.43c0.068,0.387,0.241,0.689,0.515,0.906
				c0.273,0.218,0.672,0.381,1.193,0.488c0.521,0.108,1.269,0.201,2.245,0.28c1.325,0.062,2.397,0.207,3.212,0.431
				c0.816,0.226,1.45,0.579,1.905,1.06c0.455,0.483,0.757,1.145,0.906,1.991c0.164,0.931,0.052,1.783-0.337,2.553
				c-0.39,0.771-1.014,1.416-1.876,1.937c-0.861,0.521-1.901,0.89-3.119,1.105C474.289,47.69,473.151,47.691,472.165,47.466z"/>
		</g>
		<g>
			<path fill="#CC1235" d="M304.716,111.291c-0.094-0.079-0.148-0.184-0.159-0.315l0.027-0.2l3.991-14.483
				c0.114-0.374,0.359-0.579,0.735-0.612l2.392-0.209c0.378-0.033,0.655,0.126,0.83,0.475l6.447,13.57l0.061,0.192
				c0.011,0.13-0.026,0.244-0.113,0.338c-0.088,0.096-0.189,0.148-0.304,0.158l-1.936,0.169c-0.305,0.027-0.528-0.091-0.667-0.357
				l-1.23-2.544l-6.438,0.563l-0.769,2.719c-0.093,0.286-0.29,0.441-0.595,0.468l-1.936,0.169
				C304.923,111.404,304.81,111.371,304.716,111.291z M308.894,105.447l4.915-0.43l-3.043-6.482L308.894,105.447z"/>
			<path fill="#CC1235" d="M324.481,109.54c-0.111-0.093-0.171-0.211-0.184-0.357l-1.24-14.179c-0.014-0.159,0.025-0.29,0.118-0.394
				c0.093-0.103,0.212-0.161,0.358-0.173l2.045-0.179c0.159-0.014,0.289,0.022,0.392,0.108c0.104,0.087,0.162,0.209,0.176,0.368
				l1.058,12.091l6.893-0.603c0.159-0.014,0.294,0.026,0.405,0.117c0.111,0.093,0.173,0.213,0.186,0.357l0.137,1.565
				c0.013,0.146-0.028,0.273-0.121,0.384c-0.093,0.111-0.219,0.172-0.378,0.186l-9.459,0.828
				C324.718,109.672,324.591,109.633,324.481,109.54z"/>
			<path fill="#CC1235" d="M341.27,108.071c-0.111-0.093-0.173-0.211-0.186-0.357l-1.048-11.982l-4.023,0.352
				c-0.146,0.013-0.273-0.027-0.383-0.119c-0.111-0.093-0.172-0.219-0.186-0.378l-0.143-1.632c-0.014-0.159,0.022-0.294,0.107-0.404
				c0.085-0.108,0.208-0.171,0.367-0.185l11.113-0.972c0.159-0.014,0.294,0.026,0.405,0.117c0.111,0.093,0.172,0.219,0.186,0.378
				l0.143,1.632c0.014,0.159-0.025,0.294-0.117,0.405s-0.219,0.172-0.378,0.186l-4.002,0.35l1.048,11.982
				c0.013,0.146-0.024,0.273-0.109,0.382c-0.087,0.11-0.208,0.171-0.367,0.185l-2.045,0.179
				C341.507,108.203,341.379,108.164,341.27,108.071z"/>
			<path fill="#CC1235" d="M354.361,106.926c-0.111-0.093-0.173-0.211-0.186-0.357l-1.239-14.157
				c-0.014-0.159,0.022-0.294,0.108-0.404c0.085-0.108,0.207-0.171,0.367-0.185l9.59-0.839c0.159-0.014,0.294,0.026,0.405,0.117
				c0.109,0.093,0.172,0.219,0.186,0.378l0.128,1.458c0.014,0.159-0.026,0.291-0.118,0.394c-0.093,0.103-0.22,0.161-0.379,0.175
				l-7.134,0.624l0.333,3.806l6.655-0.582c0.159-0.014,0.294,0.025,0.405,0.117c0.111,0.093,0.173,0.219,0.187,0.378l0.12,1.37
				c0.014,0.161-0.026,0.291-0.12,0.394c-0.093,0.104-0.22,0.161-0.379,0.175l-6.655,0.582l0.344,3.936l7.307-0.639
				c0.159-0.014,0.294,0.022,0.404,0.107c0.11,0.087,0.173,0.208,0.187,0.367l0.129,1.479c0.014,0.159-0.026,0.291-0.12,0.394
				c-0.093,0.103-0.22,0.161-0.379,0.175l-9.763,0.854C354.598,107.058,354.471,107.019,354.361,106.926z"/>
			<path fill="#CC1235" d="M371.169,105.456c-0.111-0.093-0.171-0.211-0.184-0.357l-1.239-14.157
				c-0.014-0.159,0.022-0.294,0.107-0.404c0.085-0.108,0.208-0.171,0.367-0.185l5.632-0.493c1.784-0.156,3.214,0.135,4.295,0.873
				c1.08,0.739,1.686,1.869,1.819,3.392c0.092,1.057-0.083,1.968-0.528,2.73c-0.444,0.762-1.108,1.343-1.995,1.741l3.639,5.268
				c0.052,0.084,0.08,0.161,0.086,0.234c0.011,0.13-0.026,0.244-0.113,0.338c-0.086,0.096-0.189,0.148-0.304,0.158l-2.001,0.175
				c-0.232,0.02-0.417-0.019-0.557-0.115c-0.14-0.098-0.269-0.229-0.386-0.394l-3.234-4.909l-2.979,0.261l0.457,5.218
				c0.013,0.146-0.027,0.273-0.119,0.383c-0.093,0.111-0.219,0.172-0.378,0.186l-2.001,0.175
				C371.407,105.588,371.28,105.548,371.169,105.456z M376.401,96.868c0.869-0.076,1.506-0.324,1.906-0.748
				c0.402-0.422,0.57-1.002,0.505-1.742c-0.065-0.739-0.331-1.289-0.802-1.649c-0.469-0.361-1.14-0.503-2.009-0.426l-3.023,0.264
				l0.399,4.566L376.401,96.868z"/>
			<path fill="#CC1235" d="M389.089,103.888c-0.111-0.093-0.173-0.211-0.186-0.357l-1.239-14.157
				c-0.014-0.159,0.022-0.294,0.108-0.404c0.085-0.108,0.207-0.171,0.367-0.185l1.696-0.148c0.275-0.024,0.496,0.08,0.662,0.315
				l7.066,9.111l-0.83-9.482c-0.014-0.159,0.02-0.294,0.107-0.404c0.085-0.108,0.207-0.171,0.367-0.185l1.87-0.164
				c0.159-0.014,0.294,0.026,0.405,0.117c0.109,0.093,0.172,0.219,0.186,0.378l1.237,14.136c0.014,0.159-0.026,0.294-0.117,0.405
				c-0.093,0.111-0.213,0.171-0.357,0.184l-1.719,0.15c-0.29,0.025-0.517-0.079-0.685-0.312l-7.024-8.896l0.812,9.285
				c0.013,0.146-0.024,0.273-0.109,0.382c-0.085,0.11-0.208,0.171-0.367,0.185l-1.869,0.163
				C389.326,104.02,389.199,103.981,389.089,103.888z"/>
			<path fill="#CC1235" d="M406.313,102.402c-0.094-0.079-0.148-0.184-0.159-0.315l0.027-0.2l3.991-14.483
				c0.114-0.374,0.359-0.579,0.735-0.612l2.392-0.209c0.378-0.033,0.655,0.126,0.83,0.475l6.447,13.57l0.061,0.192
				c0.011,0.13-0.026,0.244-0.113,0.338c-0.088,0.096-0.189,0.148-0.304,0.158l-1.936,0.169c-0.305,0.027-0.528-0.091-0.667-0.357
				l-1.23-2.544l-6.438,0.563l-0.769,2.719c-0.093,0.286-0.29,0.441-0.595,0.468l-1.936,0.169
				C406.52,102.516,406.407,102.483,406.313,102.402z M410.492,96.559l4.915-0.43l-3.043-6.482L410.492,96.559z"/>
			<path fill="#CC1235" d="M427.841,100.497c-0.111-0.093-0.173-0.211-0.186-0.357l-1.048-11.982l-4.023,0.352
				c-0.146,0.013-0.273-0.027-0.383-0.119s-0.172-0.219-0.186-0.378l-0.143-1.632c-0.014-0.159,0.022-0.294,0.107-0.404
				c0.085-0.108,0.208-0.171,0.367-0.185l11.113-0.972c0.159-0.014,0.294,0.026,0.405,0.117c0.111,0.093,0.172,0.219,0.186,0.378
				l0.143,1.632c0.014,0.159-0.025,0.294-0.117,0.405c-0.093,0.111-0.219,0.172-0.378,0.186l-4.002,0.35l1.048,11.982
				c0.013,0.146-0.024,0.273-0.109,0.382c-0.087,0.11-0.208,0.171-0.367,0.185l-2.045,0.179
				C428.079,100.629,427.95,100.59,427.841,100.497z"/>
			<path fill="#CC1235" d="M440.93,99.352c-0.111-0.093-0.171-0.211-0.184-0.357l-1.24-14.179c-0.014-0.159,0.025-0.29,0.118-0.394
				c0.093-0.103,0.212-0.161,0.358-0.173l2.087-0.183c0.159-0.014,0.291,0.022,0.393,0.108c0.102,0.087,0.16,0.209,0.174,0.368
				l1.24,14.179c0.013,0.146-0.024,0.273-0.109,0.382c-0.085,0.11-0.208,0.171-0.367,0.185l-2.087,0.183
				C441.168,99.484,441.041,99.445,440.93,99.352z"/>
			<path fill="#CC1235" d="M450.716,98.496c-0.111-0.093-0.171-0.211-0.184-0.357l-1.239-14.157
				c-0.014-0.159,0.022-0.294,0.107-0.404c0.085-0.108,0.208-0.171,0.367-0.185l9.459-0.828c0.159-0.014,0.294,0.026,0.405,0.117
				c0.111,0.093,0.173,0.219,0.187,0.378l0.137,1.567c0.013,0.144-0.028,0.273-0.121,0.382c-0.093,0.111-0.219,0.174-0.378,0.187
				l-6.958,0.609l0.358,4.088l6.523-0.571c0.161-0.014,0.296,0.025,0.406,0.117c0.109,0.093,0.171,0.213,0.184,0.357l0.137,1.565
				c0.013,0.146-0.028,0.273-0.119,0.383c-0.093,0.111-0.219,0.172-0.38,0.186l-6.523,0.571l0.47,5.371
				c0.013,0.146-0.028,0.273-0.121,0.384c-0.093,0.111-0.219,0.172-0.378,0.186l-1.957,0.171
				C450.954,98.628,450.826,98.589,450.716,98.496z"/>
			<path fill="#CC1235" d="M468.746,96.7c-0.963-0.312-1.71-0.764-2.244-1.36c-0.535-0.597-0.849-1.271-0.944-2.022
				c-0.01-0.115,0.025-0.224,0.103-0.325c0.078-0.102,0.183-0.16,0.314-0.171l1.978-0.173c0.161-0.014,0.294,0.011,0.402,0.075
				c0.106,0.064,0.211,0.157,0.309,0.28c0.187,0.48,0.554,0.864,1.097,1.153s1.265,0.394,2.164,0.315
				c1.015-0.089,1.764-0.327,2.249-0.712c0.486-0.386,0.701-0.876,0.649-1.471c-0.034-0.391-0.193-0.706-0.477-0.944
				c-0.284-0.238-0.698-0.433-1.245-0.582c-0.547-0.149-1.353-0.316-2.421-0.501c-1.747-0.255-3.048-0.683-3.904-1.279
				c-0.855-0.598-1.337-1.52-1.447-2.767c-0.074-0.84,0.093-1.612,0.499-2.312c0.405-0.699,1.024-1.276,1.853-1.729
				c0.83-0.452,1.818-0.728,2.963-0.828c1.203-0.105,2.262,0.013,3.175,0.357c0.914,0.345,1.627,0.811,2.139,1.403
				c0.512,0.591,0.809,1.196,0.893,1.817c0.01,0.115-0.023,0.225-0.103,0.327c-0.078,0.102-0.183,0.158-0.314,0.17l-2.066,0.181
				c-0.319,0.028-0.547-0.084-0.687-0.334c-0.113-0.458-0.429-0.82-0.95-1.089c-0.52-0.269-1.142-0.371-1.867-0.307
				c-0.798,0.07-1.411,0.276-1.841,0.621c-0.43,0.343-0.62,0.806-0.57,1.386c0.034,0.391,0.18,0.707,0.435,0.948
				c0.253,0.241,0.636,0.438,1.146,0.591c0.51,0.153,1.247,0.311,2.212,0.474c1.315,0.177,2.37,0.415,3.162,0.709
				c0.793,0.296,1.394,0.703,1.805,1.222c0.411,0.52,0.654,1.207,0.729,2.062c0.082,0.942-0.104,1.781-0.558,2.514
				c-0.456,0.734-1.133,1.322-2.037,1.766c-0.903,0.444-1.971,0.721-3.203,0.829C470.843,97.108,469.709,97.01,468.746,96.7z"/>
		</g>
		<g>
			<path fill="#CC1235" d="M304.683,144.786c-0.102-0.102-0.154-0.225-0.154-0.372v-14.211c0-0.16,0.047-0.291,0.143-0.393
				c0.094-0.101,0.221-0.152,0.382-0.152h9.626c0.16,0,0.291,0.052,0.393,0.152c0.1,0.102,0.152,0.233,0.152,0.393v1.463
				c0,0.16-0.052,0.288-0.152,0.382c-0.102,0.094-0.233,0.142-0.393,0.142h-7.161v3.82h6.68c0.16,0,0.291,0.05,0.393,0.152
				s0.154,0.233,0.154,0.393v1.375c0,0.16-0.052,0.288-0.154,0.382s-0.233,0.142-0.393,0.142h-6.68v3.951h7.335
				c0.16,0,0.291,0.047,0.393,0.142s0.154,0.222,0.154,0.382v1.485c0,0.16-0.052,0.288-0.154,0.382s-0.233,0.142-0.393,0.142h-9.8
				C304.909,144.939,304.785,144.888,304.683,144.786z"/>
			<path fill="#CC1235" d="M321.556,144.786c-0.102-0.102-0.152-0.225-0.152-0.372v-14.211c0-0.16,0.047-0.291,0.142-0.393
				c0.094-0.101,0.222-0.152,0.382-0.152h1.702c0.277,0,0.487,0.123,0.633,0.372l6.243,9.692v-9.518c0-0.16,0.047-0.291,0.142-0.393
				c0.094-0.101,0.222-0.152,0.382-0.152h1.877c0.16,0,0.291,0.052,0.393,0.152c0.102,0.102,0.152,0.233,0.152,0.393v14.19
				c0,0.16-0.05,0.291-0.152,0.393c-0.102,0.102-0.225,0.152-0.372,0.152h-1.724c-0.291,0-0.51-0.123-0.655-0.372l-6.222-9.473v9.32
				c0,0.146-0.047,0.27-0.142,0.372c-0.094,0.102-0.222,0.152-0.382,0.152h-1.878C321.782,144.939,321.658,144.888,321.556,144.786z
				"/>
			<path fill="#CC1235" d="M346.528,144.808c-0.087-0.087-0.131-0.196-0.131-0.327l0.044-0.196l5.24-14.08
				c0.145-0.362,0.407-0.545,0.786-0.545h2.401c0.378,0,0.64,0.183,0.786,0.545l5.24,14.08l0.043,0.196
				c0,0.131-0.047,0.241-0.142,0.327c-0.094,0.087-0.199,0.131-0.317,0.131h-1.943c-0.305,0-0.516-0.139-0.632-0.414l-1.005-2.642
				h-6.461l-1.005,2.642c-0.116,0.276-0.327,0.414-0.633,0.414h-1.941C346.725,144.939,346.617,144.894,346.528,144.808z
				 M351.2,139.35h4.934l-2.467-6.723L351.2,139.35z"/>
			<path fill="#CC1235" d="M367.399,143.65c-1.092-1.003-1.638-2.525-1.638-4.562v-8.885c0-0.16,0.047-0.291,0.143-0.393
				c0.094-0.101,0.221-0.152,0.382-0.152h2.007c0.16,0,0.291,0.052,0.393,0.152c0.102,0.102,0.154,0.233,0.154,0.393v8.885
				c0,1.15,0.273,2.016,0.818,2.598c0.547,0.582,1.322,0.872,2.325,0.872c1.005,0,1.78-0.291,2.325-0.872
				c0.545-0.582,0.819-1.448,0.819-2.598v-8.885c0-0.16,0.05-0.291,0.152-0.393c0.102-0.101,0.233-0.152,0.393-0.152h2.008
				c0.16,0,0.288,0.052,0.382,0.152c0.094,0.102,0.142,0.233,0.142,0.393v8.885c0,2.037-0.542,3.559-1.626,4.562
				c-1.084,1.005-2.608,1.506-4.573,1.506C370.025,145.156,368.489,144.655,367.399,143.65z"/>
			<path fill="#CC1235" d="M384.905,144.786c-0.102-0.102-0.154-0.225-0.154-0.372v-14.211c0-0.16,0.047-0.291,0.143-0.393
				c0.094-0.101,0.221-0.152,0.382-0.152h1.702c0.276,0,0.487,0.123,0.632,0.372l6.245,9.692v-9.518c0-0.16,0.046-0.291,0.142-0.393
				c0.094-0.101,0.221-0.152,0.382-0.152h1.877c0.16,0,0.291,0.052,0.393,0.152c0.1,0.102,0.152,0.233,0.152,0.393v14.19
				c0,0.16-0.052,0.291-0.152,0.393c-0.102,0.102-0.227,0.152-0.372,0.152h-1.725c-0.291,0-0.509-0.123-0.655-0.372l-6.222-9.473
				v9.32c0,0.146-0.047,0.27-0.142,0.372c-0.094,0.102-0.222,0.152-0.382,0.152h-1.876
				C385.13,144.939,385.007,144.888,384.905,144.786z"/>
			<path fill="#CC1235" d="M403.613,144.786c-0.102-0.102-0.154-0.225-0.154-0.372v-14.233c0-0.16,0.052-0.286,0.154-0.382
				c0.102-0.094,0.225-0.142,0.372-0.142h2.095c0.16,0,0.286,0.047,0.382,0.142c0.094,0.096,0.142,0.222,0.142,0.382v14.233
				c0,0.146-0.047,0.27-0.142,0.372c-0.096,0.102-0.222,0.152-0.382,0.152h-2.095C403.838,144.939,403.715,144.888,403.613,144.786z
				"/>
			<path fill="#CC1235" d="M415.248,144.567c-0.932-0.393-1.638-0.909-2.118-1.55c-0.48-0.64-0.735-1.338-0.764-2.095
				c0-0.116,0.044-0.221,0.131-0.317c0.088-0.094,0.196-0.142,0.327-0.142h1.987c0.16,0,0.291,0.037,0.393,0.11
				s0.196,0.174,0.283,0.306c0.146,0.495,0.477,0.909,0.994,1.244c0.516,0.335,1.226,0.501,2.127,0.501
				c1.019,0,1.788-0.171,2.304-0.513c0.516-0.341,0.775-0.81,0.775-1.407c0-0.393-0.131-0.72-0.393-0.982s-0.659-0.492-1.191-0.688
				c-0.531-0.196-1.32-0.432-2.368-0.71c-1.718-0.407-2.977-0.946-3.776-1.616c-0.801-0.668-1.201-1.629-1.201-2.881
				c0-0.844,0.233-1.597,0.699-2.26c0.466-0.661,1.131-1.182,1.998-1.561c0.865-0.378,1.873-0.566,3.023-0.566
				c1.209,0,2.252,0.21,3.134,0.632c0.88,0.423,1.549,0.95,2.008,1.584c0.458,0.633,0.702,1.262,0.731,1.888
				c0,0.116-0.044,0.222-0.131,0.317c-0.088,0.094-0.196,0.142-0.327,0.142h-2.074c-0.321,0-0.539-0.131-0.655-0.393
				c-0.073-0.466-0.358-0.854-0.851-1.168c-0.495-0.314-1.107-0.469-1.835-0.469c-0.799,0-1.43,0.152-1.888,0.458
				c-0.458,0.305-0.687,0.749-0.687,1.331c0,0.393,0.116,0.72,0.349,0.982c0.233,0.262,0.597,0.49,1.092,0.688
				c0.495,0.196,1.215,0.419,2.161,0.665c1.296,0.291,2.325,0.618,3.09,0.982c0.764,0.364,1.328,0.822,1.692,1.375
				c0.364,0.554,0.545,1.259,0.545,2.118c0,0.946-0.259,1.765-0.775,2.456c-0.516,0.691-1.244,1.218-2.182,1.582
				c-0.94,0.364-2.027,0.545-3.265,0.545C417.299,145.156,416.178,144.96,415.248,144.567z"/>
		</g>
		<path fill="#2B8F75" d="M66.527,97.715c37.687,0,38.1,23.449,38.1,33.936c0,10.487,0,78.094,0,92.513
			c0,14.419-0.406,45.432-38.1,45.432s-37.274-38.878-37.274-45.432s0-86.942,0-92.513S28.84,97.715,66.527,97.715z M56.114,131.121
			c0,16.876,0,94.428,0,105.793c0,16.141,21.639,16.468,21.639,0c0-12.573,0-87.6,0-105.793
			C77.753,114.615,56.114,114.245,56.114,131.121z M421.212,256.572c-8.98,0-16.26,2.916-16.26,6.512s7.28,6.512,16.26,6.512
			c8.98,0,16.26-2.916,16.26-6.512S430.192,256.572,421.212,256.572z M421.191,168.077c-13.981,0-25.314,13.421-25.314,29.976
			c0,5.633,2.934,13.349,6.802,21.079c0.222,0.445,0.854,0.466,1.107,0.038l8.294-14.053c0.319-0.541,0.226-1.209-0.18-1.688
			c-1.769-2.092-2.87-4.82-2.873-7.937c-0.004-4.776,2.946-9.215,7.35-11.063c8.003-3.358,16.706,2.251,16.973,10.903
			c0.151,4.882-2.804,9.483-7.292,11.411c-2.393,1.028-4.841,1.228-7.113,0.796c-0.555-0.106-1.12,0.117-1.407,0.604l-10.506,17.799
			c-0.23,0.39-0.233,0.876-0.009,1.269c5.468,9.56,11.317,17.952,13.388,20.857c0.385,0.54,1.179,0.534,1.564-0.006
			c4.269-5.99,24.531-35.199,24.531-50.01C446.505,181.498,435.172,168.077,421.191,168.077z M148.81,269.394
			c-25.252,0-25.499-21.868-25.499-31.012V90.949c0-0.704,0.571-1.275,1.275-1.275h24.794c0.704,0,1.275,0.571,1.275,1.275V234.36
			c0,5.466-0.137,14.017,10.721,14.017s10.666-9.301,10.666-14.017V90.949c0-0.704,0.571-1.275,1.275-1.275h24.196
			c0.705,0,1.276,0.572,1.275,1.277l-0.245,176.51c0,0.247-0.201,0.447-0.448,0.447l-24.913-0.002c-0.247,0-0.447-0.2-0.447-0.448
			v-9.332c0-0.448-0.595-0.624-0.824-0.239C167.189,265.802,159.556,269.394,148.81,269.394z M240.21,152.624
			c-16.894,0-25.526-8.411-25.11-32.935c0.404-23.794,12.03-26.08,35.283-26.08l10.587,0c0.423,0,0.767-0.343,0.767-0.767v-14.77
			c0-6.882-2.18-11.878-10.678-11.878c-8.759,0-10.575,6.812-10.575,11.878l0,7.376c0,0.422-0.341,0.765-0.764,0.767L217.302,86.3
			c-0.407,0.002-0.744-0.303-0.768-0.709c-0.05-0.846-0.134-2.399-0.213-4.411c-0.411-10.549,2.23-33.719,35.067-33.719
			c30.239,0,37.234,17.551,37.234,36.753l0,67.254c0,0.423-0.343,0.767-0.767,0.767h-23.659c-0.423,0-0.767-0.343-0.767-0.767
			c0,0,0-5.643,0-8.895c0-0.486-0.647-0.658-0.881-0.233C260.629,145.825,254.991,152.624,240.21,152.624z M261.282,109.116
			c0-0.42-0.338-0.762-0.759-0.767l-9.704-0.101c-6.838,0-10.61,3.074-10.61,11.371c0,11.385,6.363,12.851,10.66,12.851
			c4.297,0,10.412-2.588,10.412-10.264V109.116z M240.21,267.478c-16.894,0-25.526-8.411-25.11-32.935
			c0.404-23.794,12.03-26.08,35.283-26.08l10.587,0c0.423,0,0.767-0.343,0.767-0.767v-14.77c0-6.882-2.18-11.878-10.678-11.878
			c-8.759,0-10.575,6.812-10.575,11.878l0,7.376c0,0.422-0.341,0.765-0.764,0.767l-22.417,0.086
			c-0.407,0.002-0.744-0.303-0.768-0.709c-0.05-0.846-0.134-2.399-0.213-4.411c-0.411-10.549,2.23-33.719,35.067-33.719
			c30.239,0,37.234,17.551,37.234,36.753l0,67.254c0,0.423-0.343,0.767-0.767,0.767h-23.659c-0.423,0-0.767-0.343-0.767-0.767
			c0,0,0-5.643,0-8.895c0-0.486-0.647-0.658-0.881-0.233C260.629,260.679,254.991,267.478,240.21,267.478z M261.282,223.97
			c0-0.42-0.338-0.762-0.759-0.767l-9.704-0.101c-6.838,0-10.61,3.074-10.61,11.371c0,11.385,6.363,12.851,10.66,12.851
			c4.297,0,10.412-2.588,10.412-10.264V223.97z M327.194,267.478c-16.894,0-25.526-8.411-25.11-32.935
			c0.404-23.794,12.03-26.08,35.283-26.08l10.587,0c0.423,0,0.767-0.343,0.767-0.767v-14.77c0-6.882-2.18-11.878-10.678-11.878
			c-8.759,0-10.575,6.812-10.575,11.878l0,7.376c0,0.422-0.341,0.765-0.764,0.767l-22.417,0.086
			c-0.407,0.002-0.744-0.303-0.768-0.709c-0.05-0.846-0.134-2.399-0.213-4.411c-0.411-10.549,2.23-33.719,35.067-33.719
			c30.239,0,37.234,17.551,37.234,36.753l0,67.254c0,0.423-0.343,0.767-0.767,0.767h-23.659c-0.423,0-0.767-0.343-0.767-0.767
			c0,0,0-5.643,0-8.895c0-0.486-0.647-0.658-0.881-0.233C347.614,260.679,341.975,267.478,327.194,267.478z M348.267,223.97
			c0-0.42-0.338-0.762-0.759-0.767l-9.704-0.101c-6.838,0-10.61,3.074-10.61,11.371c0,11.385,6.363,12.851,10.66,12.851
			s10.412-2.588,10.412-10.264V223.97z"/>
	</g>
</g>
<g id="Calque_2">
	<g>
		<g>
			<path fill="#CC1235" d="M274.961,55.532c-1.273-0.654-2.181-1.89-2.724-3.705c-0.119-0.388-0.279-0.958-0.481-1.711
				c-0.206-0.768-0.354-1.348-0.444-1.742c-0.426-1.804-0.242-3.326,0.551-4.562c0.794-1.238,2.086-2.096,3.876-2.575
				c1.777-0.476,3.322-0.378,4.635,0.295c1.312,0.672,2.235,1.896,2.77,3.672c0.236,0.773,0.404,1.35,0.505,1.726
				c0.097,0.363,0.238,0.939,0.421,1.727c0.435,1.844,0.264,3.369-0.517,4.573c-0.782,1.206-2.087,2.054-3.918,2.544
				C277.791,56.268,276.233,56.187,274.961,55.532z M280.931,52.049c0.381-0.679,0.441-1.582,0.183-2.71
				c-0.19-0.816-0.322-1.364-0.397-1.646c-0.083-0.31-0.243-0.851-0.479-1.626c-0.336-1.092-0.846-1.84-1.532-2.24
				c-0.684-0.401-1.464-0.483-2.339-0.249c-0.889,0.238-1.529,0.701-1.921,1.39c-0.393,0.69-0.455,1.591-0.187,2.701
				c0.092,0.395,0.231,0.942,0.419,1.642c0.184,0.686,0.337,1.229,0.458,1.63c0.323,1.097,0.824,1.846,1.501,2.249
				c0.678,0.402,1.469,0.484,2.37,0.242C279.908,53.19,280.55,52.73,280.931,52.049z"/>
			<path fill="#CC1235" d="M292.265,50.895c-1.259-0.658-2.141-1.929-2.646-3.814l-2.202-8.218c-0.04-0.148-0.028-0.281,0.035-0.399
				c0.062-0.116,0.167-0.196,0.316-0.236l1.856-0.497c0.148-0.04,0.282-0.024,0.401,0.043c0.12,0.069,0.2,0.177,0.24,0.325
				l2.202,8.218c0.285,1.063,0.752,1.797,1.4,2.2c0.65,0.404,1.439,0.481,2.367,0.232c0.93-0.249,1.574-0.71,1.934-1.385
				c0.36-0.673,0.399-1.542,0.114-2.606l-2.202-8.218c-0.04-0.148-0.026-0.281,0.043-0.401c0.069-0.118,0.178-0.199,0.326-0.238
				l1.858-0.498c0.148-0.04,0.279-0.023,0.391,0.046c0.113,0.071,0.189,0.18,0.228,0.328l2.202,8.218
				c0.505,1.884,0.381,3.426-0.374,4.623c-0.754,1.198-2.039,2.041-3.856,2.528C295.068,51.638,293.523,51.554,292.265,50.895z"/>
			<path fill="#CC1235" d="M311.849,46.774c-0.12-0.069-0.198-0.17-0.234-0.306l-2.981-11.125l-3.735,1.001
				c-0.135,0.036-0.262,0.02-0.381-0.049s-0.199-0.178-0.238-0.326l-0.406-1.515c-0.04-0.148-0.028-0.281,0.034-0.398
				c0.062-0.116,0.168-0.196,0.316-0.236l10.318-2.765c0.148-0.04,0.282-0.024,0.401,0.043c0.12,0.069,0.199,0.178,0.238,0.326
				l0.406,1.515c0.04,0.148,0.026,0.281-0.043,0.401s-0.178,0.199-0.326,0.238l-3.715,0.996l2.981,11.125
				c0.036,0.135,0.023,0.261-0.039,0.379c-0.063,0.118-0.168,0.196-0.316,0.236l-1.899,0.509
				C312.095,46.859,311.967,46.843,311.849,46.774z"/>
			<path fill="#CC1235" d="M324.004,43.517c-0.12-0.069-0.198-0.17-0.234-0.306l-3.527-13.165c-0.04-0.148-0.023-0.278,0.048-0.392
				c0.071-0.113,0.173-0.187,0.309-0.223l1.938-0.519c0.148-0.04,0.276-0.027,0.389,0.036c0.111,0.065,0.186,0.171,0.226,0.318
				l3.527,13.165c0.036,0.135,0.023,0.261-0.039,0.379c-0.063,0.118-0.168,0.196-0.316,0.236l-1.938,0.519
				C324.25,43.602,324.124,43.586,324.004,43.517z"/>
			<path fill="#CC1235" d="M333.09,41.082c-0.12-0.069-0.198-0.17-0.234-0.306l-3.527-13.165c-0.04-0.148-0.023-0.278,0.048-0.392
				c0.071-0.113,0.173-0.187,0.309-0.223l1.897-0.508c0.148-0.04,0.278-0.028,0.389,0.036c0.111,0.065,0.186,0.171,0.226,0.318
				l3.008,11.227l6.401-1.715c0.148-0.04,0.282-0.024,0.401,0.043c0.118,0.069,0.197,0.172,0.233,0.306l0.389,1.454
				c0.036,0.135,0.019,0.262-0.049,0.381c-0.069,0.12-0.178,0.199-0.326,0.238l-8.783,2.353
				C333.336,41.167,333.209,41.151,333.09,41.082z"/>
			<path fill="#CC1235" d="M354.617,35.467c-0.12-0.069-0.198-0.17-0.234-0.306l-3.522-13.145c-0.04-0.148-0.028-0.281,0.035-0.399
				c0.062-0.116,0.167-0.196,0.316-0.236l4.927-1.32c3.97-1.064,6.486,0.224,7.549,3.863c0.236,0.775,0.39,1.296,0.462,1.565
				c0.068,0.255,0.194,0.777,0.377,1.565c0.45,1.899,0.314,3.424-0.408,4.578c-0.722,1.154-2.087,1.998-4.092,2.535l-5.027,1.347
				C354.863,35.552,354.736,35.536,354.617,35.467z M359.297,31.853c1.117-0.299,1.857-0.763,2.222-1.396
				c0.364-0.632,0.405-1.529,0.122-2.694c-0.19-0.816-0.311-1.324-0.365-1.526c-0.057-0.214-0.205-0.709-0.441-1.483
				c-0.322-1.096-0.816-1.833-1.48-2.21c-0.664-0.378-1.56-0.415-2.691-0.112l-2.463,0.66l2.532,9.449L359.297,31.853z"/>
			<path fill="#CC1235" d="M371.839,30.852c-0.12-0.069-0.197-0.171-0.233-0.306l-3.522-13.145c-0.04-0.148-0.028-0.281,0.034-0.398
				c0.062-0.116,0.168-0.196,0.316-0.236l8.904-2.386c0.148-0.04,0.282-0.024,0.401,0.043c0.12,0.069,0.2,0.177,0.24,0.325
				l0.363,1.354c0.04,0.148,0.023,0.279-0.048,0.392c-0.071,0.113-0.18,0.189-0.328,0.228l-6.622,1.774l0.947,3.534l6.179-1.656
				c0.148-0.04,0.281-0.026,0.401,0.043c0.12,0.069,0.199,0.178,0.238,0.326l0.341,1.272c0.04,0.149,0.025,0.279-0.046,0.391
				c-0.071,0.114-0.18,0.189-0.328,0.228l-6.179,1.656l0.979,3.655l6.784-1.818c0.148-0.04,0.281-0.028,0.398,0.034
				c0.118,0.063,0.196,0.168,0.236,0.316l0.368,1.373c0.04,0.148,0.025,0.279-0.046,0.391c-0.071,0.113-0.18,0.189-0.328,0.228
				l-9.066,2.429C372.085,30.937,371.959,30.921,371.839,30.852z"/>
			<path fill="#CC1235" d="M389.07,26.019c-0.96-0.134-1.741-0.436-2.343-0.909c-0.603-0.474-1.012-1.057-1.227-1.75
				c-0.029-0.107-0.014-0.215,0.043-0.324c0.058-0.109,0.146-0.181,0.267-0.214l1.838-0.492c0.148-0.04,0.278-0.038,0.391,0.004
				c0.112,0.042,0.225,0.113,0.338,0.213c0.258,0.422,0.666,0.723,1.228,0.904c0.56,0.182,1.258,0.161,2.092-0.062
				c0.942-0.252,1.611-0.602,2.004-1.046c0.393-0.445,0.516-0.943,0.368-1.495c-0.097-0.363-0.3-0.634-0.607-0.811
				c-0.307-0.177-0.732-0.292-1.272-0.341c-0.54-0.05-1.328-0.073-2.366-0.069c-1.689,0.05-2.988-0.137-3.893-0.557
				c-0.907-0.421-1.515-1.211-1.826-2.368c-0.209-0.78-0.18-1.535,0.086-2.263c0.267-0.727,0.754-1.373,1.461-1.939
				c0.706-0.564,1.592-0.988,2.655-1.273c1.118-0.3,2.135-0.364,3.055-0.192c0.919,0.173,1.668,0.495,2.25,0.967
				c0.581,0.472,0.962,0.994,1.144,1.565c0.029,0.107,0.014,0.217-0.043,0.325c-0.058,0.109-0.147,0.18-0.268,0.212l-1.918,0.514
				c-0.297,0.08-0.531,0.012-0.703-0.201c-0.183-0.413-0.543-0.701-1.077-0.869c-0.535-0.167-1.14-0.159-1.813,0.021
				c-0.739,0.198-1.285,0.495-1.633,0.892c-0.348,0.395-0.45,0.863-0.305,1.401c0.097,0.363,0.286,0.638,0.566,0.822
				c0.28,0.185,0.674,0.307,1.18,0.366c0.506,0.059,1.228,0.086,2.163,0.08c1.271-0.052,2.304-0.003,3.101,0.143
				c0.797,0.147,1.432,0.431,1.906,0.853c0.474,0.422,0.816,1.03,1.029,1.824c0.234,0.875,0.198,1.697-0.108,2.464
				s-0.849,1.435-1.626,2.004c-0.779,0.569-1.739,1.008-2.884,1.315C391.113,26.056,390.027,26.152,389.07,26.019z"/>
		</g>
		<g>
			<path fill="#CC1235" d="M284.316,87.56c-0.096-0.067-0.156-0.163-0.178-0.287l0.009-0.193l2.6-14.15
				c0.076-0.366,0.293-0.582,0.65-0.645l2.265-0.399c0.356-0.063,0.633,0.066,0.832,0.383l7.283,12.407l0.073,0.178
				c0.022,0.123-0.005,0.235-0.079,0.332c-0.074,0.099-0.166,0.157-0.277,0.176l-1.832,0.323c-0.287,0.051-0.51-0.043-0.665-0.286
				l-1.387-2.324l-6.093,1.074l-0.508,2.659c-0.063,0.281-0.24,0.445-0.529,0.496l-1.831,0.323
				C284.523,87.651,284.414,87.629,284.316,87.56z M287.814,81.637l4.653-0.82l-3.444-5.93L287.814,81.637z"/>
			<path fill="#CC1235" d="M303.563,83.01c-1.207-0.785-2.001-2.063-2.385-3.835c-0.08-0.368-0.192-0.971-0.34-1.809
				c-0.15-0.85-0.253-1.47-0.307-1.856c-0.241-1.77,0.073-3.236,0.943-4.401c0.87-1.165,2.245-1.913,4.126-2.245
				c1.221-0.215,2.322-0.193,3.301,0.065c0.98,0.26,1.783,0.709,2.413,1.347c0.63,0.64,1.038,1.409,1.225,2.31l0.007,0.042
				c0.019,0.109-0.009,0.21-0.085,0.301c-0.076,0.092-0.17,0.147-0.279,0.166l-1.997,0.352c-0.164,0.029-0.294,0.013-0.391-0.048
				c-0.095-0.06-0.187-0.182-0.276-0.364c-0.355-0.815-0.819-1.353-1.388-1.614c-0.57-0.259-1.273-0.316-2.11-0.168
				c-1.963,0.346-2.792,1.623-2.487,3.834c0.051,0.373,0.144,0.944,0.28,1.713c0.136,0.77,0.246,1.351,0.33,1.747
				c0.469,2.181,1.685,3.099,3.648,2.753c0.823-0.145,1.461-0.438,1.913-0.879c0.454-0.441,0.708-1.105,0.764-1.991
				c0.021-0.202,0.066-0.348,0.134-0.438c0.07-0.089,0.187-0.15,0.35-0.179l1.997-0.352c0.123-0.022,0.237,0.001,0.341,0.067
				c0.104,0.068,0.16,0.163,0.168,0.289c0.133,0.911,0.012,1.775-0.361,2.59c-0.373,0.816-0.974,1.513-1.806,2.091
				c-0.832,0.579-1.859,0.976-3.08,1.192C306.32,84.021,304.769,83.795,303.563,83.01z"/>
			<path fill="#CC1235" d="M323.098,80.701c-0.113-0.079-0.182-0.187-0.207-0.325l-2-11.343l-3.808,0.671
				c-0.138,0.024-0.263-0.003-0.376-0.082c-0.113-0.079-0.182-0.194-0.209-0.345l-0.272-1.545c-0.027-0.151-0.004-0.282,0.068-0.394
				c0.072-0.11,0.184-0.181,0.335-0.207l10.52-1.855c0.151-0.027,0.283,0,0.396,0.078c0.113,0.079,0.182,0.194,0.209,0.345
				l0.272,1.545c0.027,0.151,0.001,0.283-0.078,0.396c-0.079,0.113-0.194,0.182-0.345,0.209l-3.788,0.668l2,11.343
				c0.024,0.138,0,0.262-0.072,0.374c-0.074,0.112-0.184,0.181-0.335,0.207l-1.936,0.341
				C323.336,80.807,323.21,80.78,323.098,80.701z"/>
			<path fill="#CC1235" d="M335.49,78.516c-0.113-0.079-0.183-0.187-0.207-0.325l-2.363-13.402c-0.027-0.151-0.004-0.282,0.07-0.394
				c0.072-0.11,0.183-0.18,0.335-0.207l9.078-1.601c0.151-0.027,0.283,0,0.396,0.078c0.112,0.079,0.182,0.194,0.209,0.345
				l0.243,1.38c0.027,0.151-0.001,0.28-0.08,0.386c-0.081,0.106-0.196,0.172-0.347,0.199l-6.753,1.191l0.635,3.603l6.3-1.111
				c0.151-0.027,0.283-0.001,0.396,0.078c0.113,0.079,0.184,0.194,0.21,0.345l0.229,1.297c0.027,0.152-0.001,0.28-0.081,0.386
				c-0.08,0.107-0.196,0.172-0.347,0.199l-6.3,1.111l0.657,3.726l6.917-1.22c0.151-0.027,0.282-0.004,0.394,0.068
				c0.112,0.074,0.182,0.184,0.209,0.335l0.247,1.4c0.027,0.151-0.001,0.28-0.081,0.386c-0.081,0.106-0.196,0.172-0.347,0.199
				l-9.242,1.63C335.728,78.622,335.604,78.595,335.49,78.516z"/>
			<path fill="#CC1235" d="M352.49,74.414c-1.196-0.765-1.963-2.109-2.302-4.03l-1.477-8.379c-0.027-0.151-0.004-0.282,0.068-0.394
				c0.072-0.11,0.184-0.181,0.335-0.207l1.894-0.334c0.151-0.027,0.283,0,0.396,0.078c0.113,0.079,0.182,0.194,0.209,0.345
				l1.477,8.379c0.191,1.084,0.594,1.856,1.204,2.314c0.611,0.459,1.39,0.605,2.338,0.438c0.946-0.167,1.629-0.57,2.046-1.211
				c0.419-0.639,0.532-1.502,0.341-2.586l-1.477-8.379c-0.027-0.151-0.001-0.283,0.078-0.396c0.079-0.112,0.194-0.182,0.345-0.209
				l1.894-0.334c0.151-0.027,0.28,0.001,0.386,0.08c0.106,0.081,0.172,0.196,0.199,0.347l1.477,8.379
				c0.339,1.921,0.081,3.446-0.775,4.573c-0.855,1.128-2.209,1.855-4.062,2.182C355.218,75.399,353.687,75.18,352.49,74.414z"/>
			<path fill="#CC1235" d="M369.188,72.574c-0.113-0.079-0.181-0.187-0.205-0.325l-2.363-13.402
				c-0.027-0.151-0.004-0.282,0.068-0.394c0.072-0.11,0.184-0.181,0.335-0.207l5.332-0.94c1.689-0.298,3.077-0.14,4.17,0.474
				c1.091,0.614,1.764,1.642,2.018,3.084c0.176,1.001,0.085,1.885-0.276,2.649c-0.36,0.764-0.945,1.373-1.758,1.828l3.911,4.722
				c0.056,0.076,0.09,0.147,0.102,0.216c0.022,0.123-0.004,0.235-0.079,0.332c-0.074,0.099-0.168,0.157-0.277,0.176l-1.894,0.334
				c-0.22,0.039-0.4,0.017-0.541-0.063c-0.142-0.082-0.276-0.196-0.401-0.344l-3.495-4.413l-2.82,0.497l0.871,4.94
				c0.024,0.138-0.003,0.263-0.082,0.376c-0.079,0.113-0.194,0.182-0.345,0.209l-1.894,0.334
				C369.426,72.68,369.301,72.653,369.188,72.574z M373.462,63.945c0.823-0.145,1.41-0.435,1.756-0.872
				c0.348-0.436,0.46-1.003,0.336-1.704c-0.123-0.699-0.424-1.202-0.902-1.507c-0.477-0.305-1.129-0.384-1.952-0.239l-2.862,0.505
				l0.762,4.322L373.462,63.945z"/>
			<path fill="#CC1235" d="M387.824,69.076c-0.944-0.217-1.695-0.587-2.254-1.11c-0.56-0.525-0.916-1.141-1.07-1.85
				c-0.019-0.109,0.005-0.216,0.071-0.319s0.161-0.168,0.285-0.189l1.872-0.33c0.152-0.027,0.282-0.014,0.39,0.038
				c0.107,0.052,0.214,0.132,0.318,0.242c0.219,0.443,0.601,0.778,1.143,1.008c0.543,0.23,1.24,0.27,2.091,0.12
				c0.961-0.169,1.656-0.459,2.086-0.867c0.431-0.409,0.596-0.894,0.497-1.457c-0.065-0.37-0.243-0.657-0.534-0.861
				c-0.291-0.203-0.702-0.354-1.236-0.451s-1.317-0.188-2.351-0.275c-1.687-0.098-2.965-0.397-3.831-0.894
				c-0.865-0.499-1.403-1.338-1.611-2.519c-0.14-0.796-0.046-1.545,0.283-2.247c0.328-0.7,0.87-1.302,1.623-1.804
				c0.754-0.5,1.673-0.846,2.758-1.037c1.139-0.201,2.159-0.176,3.059,0.075c0.9,0.253,1.62,0.638,2.157,1.159
				s0.872,1.074,1.003,1.659c0.019,0.109-0.003,0.217-0.071,0.32c-0.066,0.103-0.162,0.166-0.285,0.188l-1.956,0.345
				c-0.302,0.053-0.529-0.034-0.683-0.262c-0.146-0.427-0.478-0.746-0.997-0.96c-0.519-0.214-1.12-0.258-1.807-0.137
				c-0.755,0.133-1.323,0.381-1.704,0.746c-0.382,0.363-0.524,0.821-0.428,1.369c0.065,0.37,0.23,0.66,0.494,0.868
				c0.262,0.208,0.643,0.365,1.143,0.468c0.499,0.103,1.216,0.193,2.15,0.268c1.269,0.059,2.296,0.198,3.075,0.413
				c0.781,0.216,1.389,0.555,1.824,1.015c0.435,0.462,0.725,1.097,0.868,1.907c0.157,0.892,0.049,1.707-0.322,2.445
				c-0.373,0.738-0.971,1.356-1.796,1.855c-0.824,0.499-1.82,0.853-2.986,1.058C389.858,69.291,388.768,69.292,387.824,69.076z"/>
		</g>
		<g>
			<path fill="#CC1235" d="M284.29,120.018c-0.09-0.076-0.141-0.176-0.152-0.301l0.026-0.191l3.822-13.869
				c0.109-0.358,0.344-0.554,0.704-0.586l2.291-0.2c0.362-0.032,0.627,0.121,0.795,0.454l6.173,12.995l0.059,0.184
				c0.011,0.125-0.025,0.233-0.108,0.324c-0.084,0.092-0.181,0.142-0.291,0.151l-1.853,0.162c-0.292,0.026-0.505-0.088-0.639-0.342
				l-1.178-2.436l-6.165,0.539l-0.737,2.604c-0.089,0.274-0.278,0.422-0.57,0.448l-1.853,0.162
				C284.489,120.126,284.381,120.095,284.29,120.018z M288.291,114.422l4.706-0.412l-2.914-6.207L288.291,114.422z"/>
			<path fill="#CC1235" d="M303.217,118.341c-0.106-0.089-0.164-0.202-0.176-0.342l-1.188-13.577
				c-0.013-0.153,0.024-0.277,0.113-0.377c0.089-0.099,0.203-0.154,0.343-0.166l1.958-0.171c0.153-0.013,0.277,0.021,0.375,0.103
				c0.1,0.084,0.155,0.2,0.168,0.353l1.013,11.578l6.6-0.577c0.153-0.013,0.282,0.025,0.387,0.112
				c0.106,0.089,0.166,0.204,0.178,0.342l0.131,1.499c0.012,0.139-0.027,0.261-0.116,0.367c-0.089,0.106-0.21,0.165-0.362,0.178
				l-9.058,0.792C303.445,118.468,303.323,118.43,303.217,118.341z"/>
			<path fill="#CC1235" d="M319.294,116.935c-0.106-0.089-0.165-0.202-0.178-0.342l-1.004-11.474l-3.852,0.337
				c-0.139,0.012-0.261-0.025-0.367-0.114s-0.165-0.21-0.178-0.362l-0.137-1.563c-0.013-0.153,0.021-0.281,0.102-0.387
				c0.082-0.104,0.199-0.164,0.352-0.177l10.642-0.931c0.153-0.013,0.282,0.025,0.387,0.112c0.106,0.089,0.165,0.21,0.178,0.362
				l0.137,1.563c0.013,0.153-0.024,0.282-0.112,0.387c-0.089,0.106-0.21,0.165-0.362,0.178l-3.832,0.335l1.004,11.474
				c0.012,0.139-0.023,0.261-0.104,0.366c-0.083,0.105-0.199,0.164-0.352,0.177l-1.958,0.171
				C319.522,117.061,319.399,117.024,319.294,116.935z"/>
			<path fill="#CC1235" d="M331.83,115.838c-0.106-0.089-0.166-0.202-0.178-0.342l-1.186-13.557
				c-0.013-0.153,0.021-0.281,0.104-0.387c0.082-0.104,0.198-0.164,0.352-0.177l9.183-0.803c0.152-0.013,0.282,0.025,0.387,0.112
				c0.104,0.089,0.165,0.21,0.178,0.362l0.122,1.396c0.013,0.153-0.025,0.279-0.113,0.377c-0.089,0.099-0.21,0.155-0.363,0.168
				l-6.831,0.598l0.319,3.645l6.372-0.558c0.153-0.013,0.282,0.024,0.387,0.112s0.166,0.209,0.179,0.362l0.115,1.312
				c0.013,0.154-0.025,0.279-0.115,0.377c-0.089,0.1-0.21,0.155-0.363,0.168l-6.372,0.558l0.33,3.769l6.997-0.612
				c0.153-0.013,0.281,0.021,0.387,0.102c0.105,0.083,0.165,0.199,0.179,0.352l0.124,1.416c0.013,0.153-0.025,0.279-0.115,0.377
				s-0.21,0.155-0.363,0.168l-9.349,0.818C332.058,115.965,331.936,115.927,331.83,115.838z"/>
			<path fill="#CC1235" d="M347.926,114.43c-0.106-0.089-0.164-0.202-0.176-0.342l-1.186-13.557
				c-0.013-0.153,0.021-0.281,0.102-0.387c0.082-0.104,0.199-0.164,0.352-0.177l5.393-0.472c1.708-0.149,3.078,0.129,4.113,0.836
				c1.034,0.707,1.614,1.789,1.742,3.248c0.089,1.012-0.08,1.885-0.506,2.615c-0.425,0.73-1.061,1.286-1.911,1.667l3.484,5.045
				c0.049,0.081,0.076,0.154,0.083,0.224c0.011,0.125-0.025,0.233-0.108,0.324c-0.083,0.092-0.181,0.142-0.291,0.151l-1.916,0.168
				c-0.222,0.019-0.4-0.018-0.534-0.11c-0.134-0.094-0.258-0.219-0.37-0.377l-3.097-4.701l-2.853,0.25l0.437,4.997
				c0.012,0.139-0.025,0.261-0.114,0.367c-0.089,0.106-0.21,0.165-0.362,0.178l-1.916,0.168
				C348.153,114.556,348.032,114.519,347.926,114.43z M352.935,106.206c0.832-0.073,1.442-0.311,1.826-0.716
				c0.385-0.404,0.545-0.96,0.483-1.668c-0.062-0.707-0.317-1.234-0.768-1.579c-0.449-0.346-1.092-0.481-1.924-0.408l-2.895,0.253
				l0.383,4.372L352.935,106.206z"/>
			<path fill="#CC1235" d="M365.085,112.929c-0.106-0.089-0.166-0.202-0.178-0.342l-1.186-13.557
				c-0.013-0.153,0.021-0.281,0.104-0.387c0.082-0.104,0.198-0.164,0.352-0.177l1.624-0.142c0.263-0.023,0.475,0.077,0.634,0.302
				l6.766,8.724l-0.794-9.08c-0.013-0.153,0.019-0.281,0.102-0.387c0.082-0.104,0.198-0.164,0.352-0.177l1.791-0.157
				c0.152-0.013,0.282,0.025,0.387,0.112c0.104,0.089,0.165,0.21,0.178,0.362l1.184,13.537c0.013,0.153-0.025,0.282-0.112,0.387
				c-0.089,0.106-0.204,0.164-0.342,0.176l-1.646,0.144c-0.277,0.024-0.495-0.075-0.655-0.298l-6.726-8.519l0.778,8.891
				c0.012,0.139-0.023,0.261-0.104,0.366s-0.199,0.164-0.352,0.177l-1.79,0.157C365.313,113.055,365.191,113.017,365.085,112.929z"
				/>
			<path fill="#CC1235" d="M381.579,111.506c-0.09-0.076-0.141-0.176-0.152-0.301l0.026-0.191l3.822-13.869
				c0.109-0.358,0.344-0.554,0.704-0.586l2.291-0.2c0.362-0.032,0.627,0.121,0.795,0.454l6.173,12.995l0.059,0.184
				c0.011,0.125-0.025,0.233-0.108,0.324c-0.084,0.092-0.181,0.142-0.291,0.151l-1.853,0.162c-0.292,0.026-0.505-0.088-0.639-0.342
				l-1.178-2.436l-6.165,0.539l-0.737,2.604c-0.089,0.274-0.278,0.422-0.57,0.448l-1.853,0.162
				C381.778,111.615,381.669,111.583,381.579,111.506z M385.58,105.91l4.706-0.412l-2.914-6.207L385.58,105.91z"/>
			<path fill="#CC1235" d="M402.194,109.682c-0.106-0.089-0.165-0.202-0.178-0.342l-1.004-11.474l-3.852,0.337
				c-0.139,0.012-0.261-0.025-0.367-0.114c-0.106-0.089-0.165-0.21-0.178-0.362l-0.137-1.563c-0.013-0.153,0.021-0.281,0.102-0.387
				c0.082-0.104,0.199-0.164,0.352-0.177l10.642-0.931c0.153-0.013,0.282,0.025,0.387,0.112c0.106,0.089,0.165,0.21,0.178,0.362
				l0.137,1.563c0.013,0.153-0.024,0.282-0.112,0.387c-0.089,0.106-0.21,0.165-0.362,0.178l-3.832,0.335l1.004,11.474
				c0.012,0.139-0.023,0.261-0.104,0.366c-0.083,0.105-0.199,0.164-0.352,0.177l-1.958,0.171
				C402.422,109.809,402.298,109.771,402.194,109.682z"/>
			<path fill="#CC1235" d="M414.728,108.585c-0.106-0.089-0.164-0.202-0.176-0.342l-1.188-13.577
				c-0.013-0.153,0.024-0.277,0.113-0.377c0.089-0.099,0.203-0.154,0.343-0.166l1.999-0.175c0.153-0.013,0.278,0.021,0.376,0.103
				c0.098,0.084,0.154,0.2,0.167,0.353l1.188,13.577c0.012,0.139-0.023,0.261-0.104,0.366s-0.199,0.164-0.352,0.177l-1.999,0.175
				C414.956,108.712,414.834,108.674,414.728,108.585z"/>
			<path fill="#CC1235" d="M424.099,107.766c-0.106-0.089-0.164-0.202-0.176-0.342l-1.186-13.557
				c-0.013-0.153,0.021-0.281,0.102-0.387c0.082-0.104,0.199-0.164,0.352-0.177l9.058-0.792c0.153-0.013,0.282,0.025,0.387,0.112
				c0.106,0.089,0.166,0.209,0.18,0.362l0.131,1.501c0.012,0.138-0.027,0.261-0.116,0.366c-0.089,0.106-0.209,0.166-0.362,0.179
				l-6.663,0.583l0.342,3.915l6.246-0.546c0.154-0.013,0.283,0.024,0.389,0.112c0.104,0.089,0.164,0.204,0.176,0.342l0.131,1.499
				c0.012,0.139-0.027,0.261-0.114,0.367c-0.089,0.106-0.21,0.165-0.364,0.178l-6.246,0.546l0.45,5.144
				c0.012,0.139-0.027,0.261-0.116,0.367s-0.21,0.165-0.362,0.178l-1.874,0.164C424.326,107.892,424.204,107.854,424.099,107.766z"
				/>
			<path fill="#CC1235" d="M441.365,106.046c-0.922-0.298-1.638-0.732-2.148-1.302c-0.513-0.571-0.813-1.217-0.904-1.936
				c-0.01-0.11,0.024-0.214,0.099-0.312s0.175-0.153,0.3-0.164l1.894-0.166c0.154-0.013,0.282,0.01,0.385,0.072
				c0.102,0.061,0.202,0.151,0.296,0.268c0.179,0.46,0.531,0.827,1.051,1.104c0.52,0.276,1.211,0.377,2.073,0.302
				c0.972-0.085,1.69-0.313,2.153-0.682c0.465-0.37,0.672-0.839,0.622-1.408c-0.033-0.375-0.185-0.676-0.457-0.904
				c-0.272-0.228-0.669-0.414-1.192-0.557s-1.295-0.302-2.318-0.479c-1.672-0.244-2.919-0.654-3.739-1.224
				c-0.819-0.572-1.281-1.456-1.385-2.65c-0.07-0.805,0.089-1.543,0.478-2.214c0.388-0.669,0.981-1.222,1.774-1.655
				c0.795-0.433,1.741-0.697,2.838-0.793c1.152-0.101,2.166,0.012,3.041,0.341c0.875,0.33,1.558,0.777,2.048,1.343
				c0.49,0.566,0.775,1.146,0.855,1.74c0.01,0.11-0.022,0.216-0.099,0.313c-0.075,0.097-0.176,0.151-0.3,0.162l-1.978,0.173
				c-0.305,0.027-0.524-0.08-0.657-0.32c-0.109-0.438-0.411-0.785-0.909-1.043s-1.094-0.355-1.788-0.294
				c-0.764,0.067-1.351,0.265-1.763,0.595c-0.412,0.329-0.594,0.772-0.546,1.327c0.033,0.375,0.172,0.677,0.416,0.908
				c0.243,0.231,0.609,0.419,1.097,0.566c0.488,0.146,1.194,0.298,2.118,0.454c1.259,0.169,2.27,0.397,3.028,0.679
				c0.76,0.283,1.335,0.674,1.729,1.17c0.393,0.498,0.627,1.156,0.698,1.975c0.079,0.902-0.1,1.705-0.534,2.408
				c-0.436,0.703-1.085,1.266-1.951,1.691c-0.864,0.425-1.888,0.691-3.067,0.794C443.372,106.437,442.286,106.343,441.365,106.046z"
				/>
			<path fill="#CC1235" d="M461.126,104.724c-0.106-0.089-0.165-0.202-0.178-0.342l-1.186-13.557
				c-0.013-0.153,0.021-0.281,0.104-0.387c0.082-0.104,0.198-0.164,0.352-0.177l9.183-0.803c0.153-0.013,0.282,0.025,0.387,0.112
				c0.104,0.089,0.165,0.21,0.178,0.362l0.122,1.396c0.013,0.153-0.025,0.279-0.113,0.377c-0.089,0.099-0.21,0.155-0.363,0.168
				l-6.831,0.598l0.319,3.645l6.372-0.558c0.153-0.013,0.282,0.024,0.387,0.112s0.166,0.209,0.18,0.362l0.115,1.312
				c0.013,0.153-0.025,0.279-0.115,0.377s-0.21,0.155-0.363,0.168l-6.372,0.558l0.33,3.769l6.997-0.612
				c0.153-0.013,0.281,0.021,0.387,0.102s0.165,0.199,0.179,0.352l0.124,1.416c0.013,0.153-0.025,0.279-0.115,0.377
				c-0.089,0.099-0.21,0.155-0.363,0.168l-9.349,0.818C461.353,104.851,461.231,104.813,461.126,104.724z"/>
			<path fill="#CC1235" d="M477.222,103.316c-0.106-0.089-0.164-0.202-0.176-0.342l-1.186-13.557
				c-0.013-0.153,0.021-0.281,0.102-0.387c0.082-0.104,0.199-0.164,0.352-0.177l1.624-0.142c0.264-0.023,0.475,0.077,0.635,0.302
				l6.764,8.725l-0.794-9.08c-0.013-0.153,0.021-0.281,0.102-0.387c0.082-0.104,0.199-0.164,0.352-0.177l1.791-0.157
				c0.153-0.013,0.282,0.025,0.387,0.112c0.106,0.089,0.165,0.21,0.178,0.362l1.184,13.537c0.013,0.153-0.024,0.282-0.112,0.387
				s-0.202,0.164-0.342,0.176l-1.644,0.144c-0.277,0.024-0.497-0.075-0.656-0.3l-6.726-8.517l0.778,8.891
				c0.012,0.139-0.023,0.261-0.104,0.366s-0.199,0.164-0.352,0.177l-1.791,0.157C477.449,103.443,477.327,103.405,477.222,103.316z"
				/>
		</g>
		<g>
			<path fill="#CC1235" d="M284.264,152.113c-0.083-0.083-0.125-0.188-0.125-0.313l0.042-0.188l5.017-13.483
				c0.139-0.347,0.389-0.522,0.752-0.522h2.299c0.362,0,0.612,0.175,0.752,0.522l5.017,13.483l0.041,0.188
				c0,0.125-0.045,0.23-0.136,0.313c-0.09,0.083-0.191,0.125-0.303,0.125h-1.861c-0.292,0-0.494-0.133-0.605-0.397l-0.962-2.53
				h-6.187l-0.962,2.53c-0.111,0.264-0.314,0.397-0.607,0.397h-1.859C284.452,152.238,284.348,152.196,284.264,152.113z
				 M288.737,146.887h4.724l-2.362-6.438L288.737,146.887z"/>
			<path fill="#CC1235" d="M304.249,151.005c-1.045-0.961-1.569-2.418-1.569-4.369v-8.508c0-0.153,0.045-0.279,0.137-0.376
				c0.09-0.096,0.211-0.146,0.366-0.146h1.922c0.153,0,0.279,0.05,0.376,0.146c0.098,0.098,0.147,0.223,0.147,0.376v8.508
				c0,1.101,0.261,1.931,0.783,2.488c0.523,0.557,1.266,0.836,2.227,0.836c0.962,0,1.705-0.279,2.227-0.836
				c0.522-0.557,0.784-1.387,0.784-2.488v-8.508c0-0.153,0.048-0.279,0.146-0.376c0.098-0.096,0.223-0.146,0.376-0.146h1.923
				c0.153,0,0.276,0.05,0.366,0.146c0.09,0.098,0.136,0.223,0.136,0.376v8.508c0,1.951-0.519,3.408-1.557,4.369
				c-1.038,0.962-2.498,1.442-4.379,1.442C306.764,152.447,305.293,151.967,304.249,151.005z"/>
			<path fill="#CC1235" d="M321.013,152.093c-0.098-0.098-0.147-0.216-0.147-0.356v-13.609c0-0.153,0.045-0.279,0.137-0.376
				c0.09-0.096,0.211-0.146,0.366-0.146h1.63c0.264,0,0.467,0.118,0.605,0.356l5.98,9.281v-9.115c0-0.153,0.044-0.279,0.136-0.376
				c0.09-0.096,0.211-0.146,0.366-0.146h1.798c0.153,0,0.279,0.05,0.376,0.146c0.096,0.098,0.146,0.223,0.146,0.376v13.588
				c0,0.153-0.05,0.279-0.146,0.376c-0.098,0.098-0.217,0.146-0.356,0.146h-1.652c-0.279,0-0.487-0.118-0.627-0.356l-5.958-9.071
				v8.925c0,0.14-0.045,0.258-0.136,0.356c-0.09,0.098-0.213,0.146-0.366,0.146h-1.796
				C321.228,152.238,321.11,152.19,321.013,152.093z"/>
			<path fill="#CC1235" d="M338.927,152.093c-0.098-0.098-0.147-0.216-0.147-0.356v-13.629c0-0.153,0.05-0.274,0.147-0.366
				c0.098-0.09,0.216-0.136,0.356-0.136h2.006c0.153,0,0.274,0.045,0.366,0.136c0.09,0.092,0.136,0.213,0.136,0.366v13.629
				c0,0.14-0.045,0.258-0.136,0.356c-0.092,0.098-0.213,0.146-0.366,0.146h-2.006C339.143,152.238,339.025,152.19,338.927,152.093z"
				/>
			<path fill="#CC1235" d="M350.069,151.883c-0.892-0.376-1.569-0.87-2.028-1.484c-0.459-0.612-0.704-1.282-0.732-2.006
				c0-0.111,0.042-0.211,0.125-0.303c0.085-0.09,0.188-0.136,0.314-0.136h1.903c0.153,0,0.279,0.035,0.376,0.105
				c0.098,0.07,0.188,0.166,0.271,0.293c0.14,0.474,0.456,0.87,0.952,1.191c0.494,0.321,1.174,0.48,2.037,0.48
				c0.975,0,1.712-0.163,2.206-0.491c0.494-0.327,0.742-0.776,0.742-1.347c0-0.376-0.125-0.69-0.376-0.94s-0.631-0.471-1.14-0.659
				c-0.509-0.188-1.264-0.414-2.267-0.679c-1.645-0.389-2.851-0.905-3.616-1.547c-0.767-0.64-1.15-1.56-1.15-2.759
				c0-0.808,0.223-1.53,0.669-2.164c0.446-0.633,1.083-1.132,1.913-1.495c0.828-0.362,1.793-0.542,2.894-0.542
				c1.158,0,2.157,0.201,3.001,0.605c0.843,0.405,1.483,0.91,1.923,1.516c0.439,0.607,0.672,1.209,0.7,1.808
				c0,0.111-0.042,0.213-0.125,0.303c-0.085,0.09-0.188,0.136-0.314,0.136h-1.986c-0.308,0-0.516-0.125-0.627-0.376
				c-0.07-0.446-0.343-0.818-0.815-1.118c-0.474-0.3-1.06-0.449-1.757-0.449c-0.766,0-1.369,0.146-1.808,0.439
				c-0.439,0.292-0.658,0.717-0.658,1.274c0,0.376,0.111,0.69,0.334,0.94c0.223,0.251,0.572,0.47,1.045,0.659
				c0.474,0.188,1.164,0.401,2.069,0.637c1.241,0.278,2.227,0.592,2.959,0.94c0.732,0.348,1.271,0.787,1.62,1.317
				c0.348,0.531,0.522,1.206,0.522,2.028c0,0.905-0.248,1.69-0.742,2.352s-1.191,1.166-2.089,1.515
				c-0.9,0.348-1.941,0.522-3.126,0.522C352.033,152.447,350.959,152.259,350.069,151.883z"/>
		</g>
		<path fill="#2B8F75" d="M57.389,107.933c36.089,0,36.485,22.454,36.485,32.496s0,74.782,0,88.59
			c0,13.808-0.389,43.505-36.485,43.505s-35.693-37.229-35.693-43.505s0-83.255,0-88.59C21.696,135.095,21.3,107.933,57.389,107.933
			z M47.417,139.922c0,16.16,0,90.423,0,101.306c0,15.456,20.721,15.77,20.721,0c0-12.039,0-83.885,0-101.306
			C68.139,124.116,47.417,123.762,47.417,139.922z M397.031,260.053c-8.6,0-15.571,2.792-15.571,6.236
			c0,3.444,6.971,6.236,15.571,6.236c8.599,0,15.571-2.792,15.571-6.236C412.602,262.845,405.63,260.053,397.031,260.053z
			 M397.011,175.311c-13.388,0-24.241,12.852-24.241,28.705c0,5.394,2.81,12.783,6.514,20.185c0.213,0.426,0.818,0.447,1.06,0.037
			l7.942-13.457c0.306-0.518,0.216-1.158-0.172-1.617c-1.694-2.003-2.749-4.615-2.751-7.6c-0.004-4.574,2.821-8.824,7.039-10.594
			c7.663-3.216,15.997,2.155,16.253,10.441c0.144,4.675-2.685,9.081-6.983,10.927c-2.291,0.984-4.635,1.176-6.811,0.762
			c-0.532-0.101-1.073,0.112-1.348,0.579l-10.061,17.044c-0.22,0.373-0.224,0.839-0.008,1.216
			c5.236,9.154,10.837,17.191,12.82,19.972c0.368,0.517,1.129,0.511,1.497-0.005c4.088-5.736,23.49-33.706,23.49-47.889
			C421.252,188.163,410.399,175.311,397.011,175.311z M136.182,272.331c-24.181,0-24.417-20.941-24.417-29.697v-141.18
			c0-0.674,0.547-1.221,1.221-1.221h23.743c0.674,0,1.221,0.547,1.221,1.221v137.329c0,5.234-0.131,13.423,10.266,13.423
			c10.397,0,10.214-8.906,10.214-13.423V101.454c0-0.674,0.547-1.221,1.221-1.221h23.17c0.675,0,1.222,0.548,1.221,1.223
			l-0.235,169.024c0,0.236-0.192,0.428-0.429,0.428l-23.856-0.002c-0.237,0-0.428-0.192-0.428-0.429v-8.936
			c0-0.429-0.57-0.597-0.789-0.229C153.782,268.891,146.472,272.331,136.182,272.331z M223.706,160.513
			c-16.178,0-24.444-8.055-24.045-31.538C200.048,106.19,211.181,104,233.447,104l10.138,0c0.405,0,0.734-0.329,0.734-0.734V89.123
			c0-6.591-2.087-11.374-10.225-11.374c-8.388,0-10.127,6.523-10.127,11.374l0,7.064c0,0.404-0.327,0.733-0.731,0.734l-21.466,0.082
			c-0.39,0.001-0.712-0.29-0.735-0.679c-0.048-0.81-0.129-2.297-0.204-4.224c-0.394-10.102,2.136-32.289,33.58-32.289
			c28.957,0,35.655,16.807,35.655,35.194l0,64.402c0,0.405-0.329,0.734-0.734,0.734h-22.656c-0.405,0-0.734-0.329-0.734-0.734
			c0,0,0-5.404,0-8.518c0-0.465-0.619-0.63-0.844-0.223C243.259,154.003,237.86,160.513,223.706,160.513z M243.884,118.85
			c0-0.402-0.324-0.73-0.727-0.734l-9.292-0.097c-6.548,0-10.16,2.943-10.16,10.888c0,10.902,6.093,12.306,10.208,12.306
			c4.115,0,9.971-2.478,9.971-9.829V118.85z M223.706,270.496c-16.178,0-24.444-8.055-24.045-31.538
			c0.387-22.785,11.52-24.974,33.786-24.974l10.138,0c0.405,0,0.734-0.329,0.734-0.734v-14.144c0-6.591-2.087-11.374-10.225-11.374
			c-8.388,0-10.127,6.523-10.127,11.374l0,7.064c0,0.404-0.327,0.733-0.731,0.734l-21.466,0.082c-0.39,0.001-0.712-0.29-0.735-0.679
			c-0.048-0.81-0.129-2.297-0.204-4.224c-0.394-10.102,2.136-32.289,33.58-32.289c28.957,0,35.655,16.807,35.655,35.194l0,64.402
			c0,0.405-0.329,0.734-0.734,0.734h-22.656c-0.405,0-0.734-0.329-0.734-0.734c0,0,0-5.404,0-8.518c0-0.465-0.619-0.63-0.844-0.223
			C243.259,263.986,237.86,270.496,223.706,270.496z M243.884,228.833c0-0.402-0.324-0.73-0.727-0.734l-9.292-0.097
			c-6.548,0-10.16,2.943-10.16,10.888c0,10.902,6.093,12.306,10.208,12.306c4.115,0,9.971-2.478,9.971-9.829V228.833z
			 M307.001,270.496c-16.178,0-24.444-8.055-24.045-31.538c0.387-22.785,11.52-24.974,33.786-24.974l10.138,0
			c0.405,0,0.734-0.329,0.734-0.734v-14.144c0-6.591-2.087-11.374-10.225-11.374c-8.388,0-10.127,6.523-10.127,11.374l0,7.064
			c0,0.404-0.327,0.733-0.731,0.734l-21.466,0.082c-0.39,0.001-0.712-0.29-0.735-0.679c-0.048-0.81-0.129-2.297-0.204-4.224
			c-0.394-10.102,2.136-32.289,33.58-32.289c28.957,0,35.655,16.807,35.655,35.194l0,64.402c0,0.405-0.329,0.734-0.734,0.734H329.97
			c-0.405,0-0.734-0.329-0.734-0.734c0,0,0-5.404,0-8.518c0-0.465-0.619-0.63-0.844-0.223
			C326.554,263.986,321.155,270.496,307.001,270.496z M327.18,228.833c0-0.402-0.324-0.73-0.727-0.734l-9.292-0.097
			c-6.548,0-10.16,2.943-10.16,10.888c0,10.902,6.093,12.306,10.208,12.306c4.115,0,9.971-2.478,9.971-9.829V228.833z"/>
	</g>
	<g>
	</g>
	<g>
	</g>
	<g>
	</g>
	<g>
	</g>
	<g>
	</g>
	<g>
	</g>
</g>
</svg>
