<?xml version="1.0" encoding="UTF-8" standalone="no"?>
<!-- Generator: Adobe Illustrator 25.4.1, SVG Export Plug-In . SVG Version: 6.00 Build 0)  -->

<svg
   xmlns:dc="http://purl.org/dc/elements/1.1/"
   xmlns:cc="http://creativecommons.org/ns#"
   xmlns:rdf="http://www.w3.org/1999/02/22-rdf-syntax-ns#"
   xmlns:svg="http://www.w3.org/2000/svg"
   xmlns="http://www.w3.org/2000/svg"
   xmlns:sodipodi="http://sodipodi.sourceforge.net/DTD/sodipodi-0.dtd"
   xmlns:inkscape="http://www.inkscape.org/namespaces/inkscape"
   version="1.1"
   id="Calque_1"
   x="0px"
   y="0px"
   viewBox="0 0 211.84131 110.71086"
   xml:space="preserve"
   sodipodi:docname="Logo_OUAAA.svg"
   width="211.84131"
   height="110.71086"
   inkscape:version="0.92.4 (5da689c313, 2019-01-14)"><metadata
   id="metadata1032"><rdf:RDF><cc:Work
       rdf:about=""><dc:format>image/svg+xml</dc:format><dc:type
         rdf:resource="http://purl.org/dc/dcmitype/StillImage" /></cc:Work></rdf:RDF></metadata><defs
   id="defs1030" /><sodipodi:namedview
   pagecolor="#ffffff"
   bordercolor="#666666"
   borderopacity="1"
   objecttolerance="10"
   gridtolerance="10"
   guidetolerance="10"
   inkscape:pageopacity="0"
   inkscape:pageshadow="2"
   inkscape:window-width="1920"
   inkscape:window-height="1017"
   id="namedview1028"
   showgrid="false"
   inkscape:zoom="4.0526106"
   inkscape:cx="99.830613"
   inkscape:cy="43.575787"
   inkscape:window-x="-8"
   inkscape:window-y="-8"
   inkscape:window-maximized="1"
   inkscape:current-layer="Calque_1" />
<style
   type="text/css"
   id="style971">
	.st0{fill:none;}
	.st1{font-family:'Quicksand-Medium';}
	.st2{font-size:11px;}
	.st3{stroke:#000000;stroke-width:1.5;stroke-miterlimit:10;}
	.st4{stroke:#000000;stroke-miterlimit:10;}
	.st5{stroke:#000000;stroke-width:0.5;stroke-miterlimit:10;}
	.st6{stroke:#000000;stroke-width:0.25;stroke-miterlimit:10;}
	.st7{fill:#67B5A9;}
	.st8{fill:#FCC104;}
	.st9{fill:#D96552;}
	.st10{fill:#E9B0AA;}
	.st11{fill:#2A377C;}
</style>
<rect
   x="30.701311"
   y="64.590866"
   class="st0"
   width="181.14"
   height="46.119999"
   id="rect973"
   style="fill:none" />
<text
   class="st1 st2"
   id="text975"
   style="font-size:11px;font-family:Quicksand-Medium"
   x="30.697609"
   y="72.729065">Agir pour la transition en Aunis</text>

<g
   id="g987"
   transform="translate(-16.28869,-27.449137)">
	<path
   class="st3"
   d="m 64.23,81.24 c -0.88,1.65 -2.09,2.95 -3.64,3.91 -1.55,0.96 -3.3,1.43 -5.25,1.43 -1.95,0 -3.7,-0.48 -5.25,-1.43 -1.55,-0.95 -2.76,-2.26 -3.63,-3.91 -0.88,-1.65 -1.31,-3.49 -1.31,-5.52 0,-2.03 0.44,-3.87 1.31,-5.52 0.87,-1.65 2.09,-2.95 3.63,-3.91 1.55,-0.95 3.3,-1.43 5.25,-1.43 1.95,0 3.7,0.48 5.25,1.43 1.55,0.96 2.76,2.26 3.64,3.91 0.87,1.65 1.31,3.49 1.31,5.52 0,2.03 -0.44,3.87 -1.31,5.52 z m -2.7,-9.61 c -0.6,-1.22 -1.44,-2.17 -2.52,-2.87 -1.08,-0.69 -2.3,-1.04 -3.67,-1.04 -1.37,0 -2.59,0.34 -3.67,1.03 -1.08,0.68 -1.92,1.64 -2.52,2.85 -0.6,1.22 -0.91,2.59 -0.91,4.12 0,1.51 0.3,2.87 0.91,4.09 0.6,1.22 1.44,2.17 2.52,2.87 1.08,0.69 2.3,1.04 3.67,1.04 1.37,0 2.59,-0.35 3.67,-1.04 1.08,-0.69 1.92,-1.65 2.52,-2.87 0.6,-1.22 0.91,-2.58 0.91,-4.09 -0.01,-1.51 -0.31,-2.87 -0.91,-4.09 z"
   id="path977"
   inkscape:connector-curvature="0"
   style="stroke:#000000;stroke-width:1.5;stroke-miterlimit:10" />
	<path
   class="st4"
   d="m 89.97,60.82 c 0.31,0.33 0.46,0.76 0.46,1.28 v 14.22 c 0,1.95 -0.43,3.7 -1.3,5.26 -0.86,1.55 -2.05,2.77 -3.57,3.65 -1.52,0.88 -3.23,1.32 -5.13,1.32 -1.93,0 -3.65,-0.44 -5.18,-1.32 -1.53,-0.88 -2.73,-2.09 -3.59,-3.65 -0.86,-1.56 -1.29,-3.31 -1.29,-5.26 V 62.1 c 0,-0.52 0.17,-0.94 0.52,-1.28 0.35,-0.34 0.79,-0.5 1.33,-0.5 0.47,0 0.88,0.17 1.24,0.52 0.36,0.35 0.54,0.76 0.54,1.26 v 14.22 c 0,1.28 0.3,2.44 0.89,3.46 0.59,1.02 1.38,1.82 2.37,2.39 0.99,0.57 2.05,0.85 3.18,0.85 1.19,0 2.28,-0.28 3.3,-0.85 1.01,-0.57 1.82,-1.36 2.43,-2.39 0.6,-1.02 0.91,-2.18 0.91,-3.46 V 62.1 c 0,-0.52 0.15,-0.94 0.44,-1.28 0.29,-0.34 0.7,-0.5 1.22,-0.5 0.51,0 0.92,0.17 1.23,0.5 z"
   id="path979"
   inkscape:connector-curvature="0"
   style="stroke:#000000;stroke-miterlimit:10" />
	<path
   class="st5"
   d="m 122.54,84.24 c 0,0.63 -0.21,1.15 -0.64,1.56 -0.43,0.41 -0.92,0.61 -1.49,0.61 -0.44,0 -0.84,-0.13 -1.21,-0.4 -0.36,-0.27 -0.65,-0.64 -0.87,-1.11 l -2.93,-6.95 h -14.61 l -2.88,7 c -0.16,0.47 -0.42,0.84 -0.78,1.09 -0.36,0.25 -0.76,0.38 -1.21,0.38 -0.66,0 -1.17,-0.17 -1.51,-0.52 -0.35,-0.35 -0.52,-0.82 -0.52,-1.42 0,-0.13 0.03,-0.38 0.1,-0.76 l 12.05,-29.21 c 0.22,-0.5 0.53,-0.89 0.92,-1.16 0.39,-0.27 0.84,-0.37 1.35,-0.31 0.47,0 0.9,0.13 1.28,0.38 0.38,0.25 0.65,0.61 0.8,1.09 l 12.01,28.83 c 0.09,0.29 0.14,0.59 0.14,0.9 z M 102.59,73.65 h 11.01 l -5.53,-13.24 z"
   id="path981"
   inkscape:connector-curvature="0"
   style="stroke:#000000;stroke-width:0.5;stroke-miterlimit:10" />
	<path
   class="st6"
   d="m 158.65,83.92 c 0,0.73 -0.25,1.34 -0.74,1.81 -0.49,0.48 -1.07,0.71 -1.73,0.71 -0.51,0 -0.98,-0.16 -1.4,-0.47 -0.42,-0.31 -0.76,-0.74 -1.01,-1.29 l -3.4,-8.06 h -16.95 l -3.35,8.12 c -0.18,0.55 -0.48,0.97 -0.91,1.26 -0.42,0.29 -0.89,0.44 -1.4,0.44 -0.77,0 -1.35,-0.2 -1.76,-0.6 -0.4,-0.4 -0.6,-0.95 -0.6,-1.64 0,-0.15 0.04,-0.44 0.11,-0.88 l 13.99,-33.9 c 0.26,-0.59 0.61,-1.03 1.07,-1.34 0.46,-0.31 0.98,-0.43 1.56,-0.36 0.55,0 1.04,0.15 1.48,0.44 0.44,0.29 0.75,0.71 0.93,1.26 l 13.93,33.46 c 0.12,0.33 0.18,0.68 0.18,1.04 z M 135.5,71.63 h 12.78 l -6.42,-15.36 z"
   id="path983"
   inkscape:connector-curvature="0"
   style="stroke:#000000;stroke-width:0.25;stroke-miterlimit:10" />
	<path
   d="m 199.82,83.57 c 0,0.84 -0.28,1.53 -0.85,2.08 -0.57,0.55 -1.23,0.82 -1.99,0.82 -0.59,0 -1.12,-0.18 -1.61,-0.54 -0.48,-0.36 -0.87,-0.85 -1.17,-1.48 l -3.91,-9.27 H 170.8 l -3.85,9.34 c -0.21,0.63 -0.56,1.12 -1.04,1.45 -0.48,0.34 -1.02,0.5 -1.61,0.5 -0.88,0 -1.56,-0.23 -2.02,-0.69 -0.46,-0.46 -0.69,-1.09 -0.69,-1.89 0,-0.17 0.04,-0.5 0.13,-1.01 L 177.81,43.9 c 0.29,-0.67 0.7,-1.19 1.23,-1.55 0.52,-0.36 1.12,-0.49 1.8,-0.41 0.63,0 1.2,0.17 1.7,0.5 0.5,0.34 0.86,0.82 1.07,1.45 l 16.02,38.48 c 0.13,0.38 0.19,0.78 0.19,1.2 z M 173.2,69.44 h 14.7 l -7.38,-17.66 z"
   id="path985"
   inkscape:connector-curvature="0" />
</g>
<g
   id="g1025"
   transform="translate(-16.28869,-27.449137)">
	<g
   id="g991">
		<path
   class="st7"
   d="m 74.36,120.06 c 0.4,-0.7 1.12,-1.99 1.66,-3.16 0.55,-1.14 0.93,-2.14 0.93,-2.14 0,0 0.82,0.59 1.86,1.23 1.05,0.66 2.34,1.34 3.12,1.72 1.47,0.72 2.68,1.94 3.37,3.4 0.69,1.46 0.84,3.22 0.1,4.87 -0.73,1.67 -2.23,2.88 -3.96,3.43 -1.74,0.54 -3.69,0.39 -5.26,-0.56 -3.19,-1.93 -3.5,-5.96 -1.82,-8.79 z m 4.07,5.26 c 1.1,0.61 2.55,0.17 3.09,-0.96 0.55,-1.12 0.02,-2.45 -1.05,-3.01 -1.07,-0.55 -2.3,-0.17 -2.88,0.9 -0.58,1.06 -0.27,2.45 0.84,3.07 z"
   id="path989"
   inkscape:connector-curvature="0"
   style="fill:#67b5a9" />
	</g>
	<g
   id="g995">
		<path
   class="st8"
   d="m 54.97,118.39 c 0.33,-0.21 0.8,-0.49 1.32,-0.86 0.52,-0.38 1.09,-0.8 1.59,-1.2 1.01,-0.79 1.8,-1.48 1.8,-1.48 0,0 0.12,0.23 0.31,0.59 0.19,0.37 0.46,0.88 0.79,1.37 0.64,1.02 1.48,2.22 2,2.93 0.97,1.38 1.5,2.95 1.44,4.58 -0.03,0.81 -0.21,1.62 -0.56,2.38 -0.35,0.77 -0.87,1.46 -1.57,2 -1.4,1.08 -3.3,1.57 -5.09,1.25 -1.77,-0.39 -3.47,-1.32 -4.43,-2.89 -1.94,-3.22 -0.38,-6.93 2.4,-8.67 z m 1.22,6.53 c 0.7,1.02 2.17,1.41 3.19,0.58 1.01,-0.78 1.15,-2.2 0.44,-3.15 -0.36,-0.46 -0.85,-0.77 -1.37,-0.89 -0.53,-0.11 -1.09,0 -1.6,0.35 -1,0.68 -1.36,2.06 -0.66,3.11 z"
   id="path993"
   inkscape:connector-curvature="0"
   style="fill:#fcc104" />
	</g>
	<g
   id="g999">
		<path
   class="st9"
   d="m 38.49,108.07 c 0.75,-0.03 2.31,-0.28 3.55,-0.51 1.26,-0.23 2.27,-0.47 2.27,-0.47 0,0 -0.03,1.04 0.09,2.22 0.1,1.21 0.28,2.68 0.41,3.55 0.54,3.18 -1.11,6.82 -4.73,7.63 -1.74,0.32 -3.6,-0.19 -5.09,-1.23 -1.39,-1.15 -2.42,-2.81 -2.6,-4.6 -0.24,-3.75 2.85,-6.33 6.1,-6.59 z m -1.9,6.35 c 0.07,0.63 0.39,1.18 0.85,1.56 0.47,0.37 1.11,0.5 1.72,0.4 1.25,-0.22 2.02,-1.42 1.84,-2.6 -0.21,-1.15 -1.19,-1.98 -2.4,-1.83 -1.19,0.15 -2.14,1.22 -2.01,2.47 z"
   id="path997"
   inkscape:connector-curvature="0"
   style="fill:#d96552" />
	</g>
	<g
   id="g1003">
		<path
   class="st10"
   d="m 28.54,91.35 c 0.73,0.3 2.19,0.8 3.4,1.17 1.22,0.37 2.22,0.62 2.22,0.62 0,0 -0.12,0.23 -0.3,0.59 -0.16,0.37 -0.38,0.87 -0.62,1.42 -0.47,1.12 -0.99,2.51 -1.27,3.35 -0.94,3.06 -4.09,5.55 -7.69,4.63 -1.71,-0.5 -3.11,-1.82 -3.96,-3.43 -0.75,-1.65 -0.85,-3.62 -0.21,-5.29 1.49,-3.44 5.45,-4.33 8.43,-3.06 z m -4.58,4.78 c -0.23,0.59 -0.2,1.24 0.04,1.78 0.28,0.53 0.76,0.95 1.36,1.14 1.2,0.38 2.44,-0.34 2.83,-1.47 0.2,-0.57 0.12,-1.13 -0.11,-1.61 -0.21,-0.49 -0.62,-0.9 -1.19,-1.11 -1.14,-0.42 -2.47,0.09 -2.93,1.27 z"
   id="path1001"
   inkscape:connector-curvature="0"
   style="fill:#e9b0aa" />
	</g>
	<g
   id="g1007">
		<path
   class="st11"
   d="m 27.41,71.93 c 0.53,0.61 1.55,1.71 2.44,2.59 0.86,0.88 1.72,1.57 1.72,1.57 0,0 -0.78,0.59 -1.74,1.37 -0.94,0.78 -2.12,1.78 -2.66,2.39 -2.24,2.29 -6.22,3.06 -8.93,0.59 -2.7,-2.44 -2.59,-7.28 0.28,-9.64 0.69,-0.6 1.45,-0.99 2.24,-1.19 0.8,-0.2 1.65,-0.22 2.45,-0.08 1.6,0.27 3.06,1.13 4.2,2.4 z m -6.33,2.15 c -0.95,0.84 -0.91,2.36 -0.05,3.24 0.88,0.89 2.31,0.82 3.19,-0.01 0.9,-0.83 0.83,-2.13 0.05,-3.02 -0.79,-0.9 -2.21,-1.05 -3.19,-0.21 z"
   id="path1005"
   inkscape:connector-curvature="0"
   style="fill:#2a377c" />
	</g>
	<g
   id="g1011">
		<path
   class="st10"
   d="m 35.27,54.15 c 0.19,0.78 0.57,2.22 0.95,3.4 0.19,0.59 0.43,1.17 0.58,1.56 0.16,0.4 0.26,0.65 0.26,0.65 0,0 -0.98,0.15 -2.2,0.4 -1.26,0.22 -2.61,0.65 -3.43,0.92 -3.09,0.98 -6.99,-0.16 -8.22,-3.58 -0.31,-0.85 -0.42,-1.76 -0.36,-2.67 0.11,-0.88 0.41,-1.74 0.85,-2.54 0.45,-0.79 1,-1.53 1.71,-2.08 0.74,-0.54 1.57,-0.94 2.46,-1.15 3.6,-0.83 6.59,1.84 7.4,5.09 z m -6.61,-1 c -1.19,0.34 -1.92,1.66 -1.55,2.84 0.36,1.18 1.66,1.78 2.84,1.45 1.18,-0.33 1.79,-1.46 1.44,-2.66 -0.32,-1.15 -1.53,-1.96 -2.73,-1.63 z"
   id="path1009"
   inkscape:connector-curvature="0"
   style="fill:#e9b0aa" />
	</g>
	<g
   id="g1015">
		<path
   class="st9"
   d="m 50.38,41.93 c -0.19,0.78 -0.51,2.23 -0.71,3.45 -0.17,1.3 -0.25,2.36 -0.25,2.36 0,0 -0.94,-0.31 -2.15,-0.65 -1.23,-0.38 -2.61,-0.59 -3.47,-0.74 -3.21,-0.55 -6.15,-3.34 -5.68,-6.94 0.12,-0.9 0.44,-1.75 0.91,-2.53 0.47,-0.77 1.16,-1.37 1.91,-1.88 0.75,-0.5 1.6,-0.88 2.47,-1.08 0.9,-0.15 1.83,-0.11 2.72,0.11 3.59,0.9 5.03,4.65 4.25,7.9 z m -5.42,-3.91 c -1.21,-0.25 -2.47,0.6 -2.69,1.81 -0.22,1.21 0.67,2.34 1.87,2.59 1.2,0.25 2.27,-0.48 2.5,-1.69 0.24,-1.22 -0.46,-2.46 -1.68,-2.71 z"
   id="path1013"
   inkscape:connector-curvature="0"
   style="fill:#d96552" />
	</g>
	<g
   id="g1019">
		<path
   class="st8"
   d="m 69.42,37.95 c -0.52,0.61 -1.47,1.73 -2.21,2.82 -0.75,1.06 -1.31,1.95 -1.31,1.95 0,0 -0.69,-0.73 -1.61,-1.6 -0.9,-0.82 -2.04,-1.69 -2.74,-2.22 -2.6,-1.99 -3.94,-5.83 -1.86,-8.78 2.04,-3.06 6.84,-3.56 9.58,-1.14 1.37,1.2 1.97,2.87 1.93,4.48 -0.05,1.65 -0.69,3.21 -1.78,4.49 z m -3.03,-5.89 c -0.96,-0.79 -2.47,-0.65 -3.22,0.32 -0.75,1.05 -0.48,2.43 0.47,3.16 0.95,0.79 2.24,0.66 3,-0.3 0.77,-0.96 0.72,-2.38 -0.25,-3.18 z"
   id="path1017"
   inkscape:connector-curvature="0"
   style="fill:#fcc104" />
	</g>
	<g
   id="g1023">
		<path
   class="st7"
   d="m 88.16,43.15 c -0.75,0.31 -2.1,0.87 -3.25,1.47 -0.57,0.29 -1.08,0.57 -1.45,0.77 -0.37,0.21 -0.6,0.35 -0.6,0.35 0,0 -0.29,-0.95 -0.72,-2.12 -0.43,-1.13 -1.02,-2.51 -1.41,-3.26 -0.71,-1.48 -0.92,-3.18 -0.56,-4.76 0.36,-1.57 1.32,-3.06 2.92,-3.89 1.6,-0.86 3.54,-0.92 5.23,-0.26 0.85,0.31 1.64,0.8 2.29,1.43 0.66,0.61 1.18,1.38 1.51,2.24 1.33,3.46 -0.9,6.83 -3.96,8.03 z m 0.02,-6.66 c -0.48,-1.18 -1.91,-1.69 -3.03,-1.15 -1.13,0.56 -1.53,1.93 -1.03,3.02 0.5,1.11 1.72,1.54 2.82,1.07 1.12,-0.48 1.73,-1.77 1.24,-2.94 z"
   id="path1021"
   inkscape:connector-curvature="0"
   style="fill:#67b5a9" />
	</g>
</g>
</svg>