<?xml version="1.0" encoding="utf-8"?>
<!-- Generator: Adobe Illustrator 25.4.1, SVG Export Plug-In . SVG Version: 6.00 Build 0)  -->
<svg version="1.1" id="Calque_1" xmlns="http://www.w3.org/2000/svg" xmlns:xlink="http://www.w3.org/1999/xlink" x="0px" y="0px"
	 viewBox="0 0 249.16 161.49" style="enable-background:new 0 0 249.16 161.49;" xml:space="preserve">
<style type="text/css">
	.st0{fill:none;}
	.st1{font-family:'Quicksand-Medium';}
	.st2{font-size:11px;}
	.st3{stroke:#000000;stroke-width:1.5;stroke-miterlimit:10;}
	.st4{stroke:#000000;stroke-miterlimit:10;}
	.st5{stroke:#000000;stroke-width:0.5;stroke-miterlimit:10;}
	.st6{stroke:#000000;stroke-width:0.25;stroke-miterlimit:10;}
	.st7{fill:#67B5A9;}
	.st8{fill:#FCC104;}
	.st9{fill:#D96552;}
	.st10{fill:#E9B0AA;}
	.st11{fill:#2A377C;}
</style>
<rect x="46.99" y="92.04" class="st0" width="181.14" height="46.12"/>
<text transform="matrix(1 0 0 1 46.9863 100.1782)" class="st1 st2">Agir pour la transition en Aunis</text>
<g>
	<path class="st3" d="M64.23,81.24c-0.88,1.65-2.09,2.95-3.64,3.91c-1.55,0.96-3.3,1.43-5.25,1.43s-3.7-0.48-5.25-1.43
		c-1.55-0.95-2.76-2.26-3.63-3.91c-0.88-1.65-1.31-3.49-1.31-5.52s0.44-3.87,1.31-5.52c0.87-1.65,2.09-2.95,3.63-3.91
		c1.55-0.95,3.3-1.43,5.25-1.43s3.7,0.48,5.25,1.43c1.55,0.96,2.76,2.26,3.64,3.91c0.87,1.65,1.31,3.49,1.31,5.52
		S65.1,79.59,64.23,81.24z M61.53,71.63c-0.6-1.22-1.44-2.17-2.52-2.87c-1.08-0.69-2.3-1.04-3.67-1.04s-2.59,0.34-3.67,1.03
		c-1.08,0.68-1.92,1.64-2.52,2.85c-0.6,1.22-0.91,2.59-0.91,4.12c0,1.51,0.3,2.87,0.91,4.09c0.6,1.22,1.44,2.17,2.52,2.87
		c1.08,0.69,2.3,1.04,3.67,1.04s2.59-0.35,3.67-1.04c1.08-0.69,1.92-1.65,2.52-2.87c0.6-1.22,0.91-2.58,0.91-4.09
		C62.43,74.21,62.13,72.85,61.53,71.63z"/>
	<path class="st4" d="M89.97,60.82c0.31,0.33,0.46,0.76,0.46,1.28v14.22c0,1.95-0.43,3.7-1.3,5.26c-0.86,1.55-2.05,2.77-3.57,3.65
		c-1.52,0.88-3.23,1.32-5.13,1.32c-1.93,0-3.65-0.44-5.18-1.32c-1.53-0.88-2.73-2.09-3.59-3.65c-0.86-1.56-1.29-3.31-1.29-5.26V62.1
		c0-0.52,0.17-0.94,0.52-1.28s0.79-0.5,1.33-0.5c0.47,0,0.88,0.17,1.24,0.52s0.54,0.76,0.54,1.26v14.22c0,1.28,0.3,2.44,0.89,3.46
		c0.59,1.02,1.38,1.82,2.37,2.39c0.99,0.57,2.05,0.85,3.18,0.85c1.19,0,2.28-0.28,3.3-0.85c1.01-0.57,1.82-1.36,2.43-2.39
		c0.6-1.02,0.91-2.18,0.91-3.46V62.1c0-0.52,0.15-0.94,0.44-1.28s0.7-0.5,1.22-0.5C89.25,60.32,89.66,60.49,89.97,60.82z"/>
	<path class="st5" d="M122.54,84.24c0,0.63-0.21,1.15-0.64,1.56c-0.43,0.41-0.92,0.61-1.49,0.61c-0.44,0-0.84-0.13-1.21-0.4
		c-0.36-0.27-0.65-0.64-0.87-1.11l-2.93-6.95h-14.61l-2.88,7c-0.16,0.47-0.42,0.84-0.78,1.09c-0.36,0.25-0.76,0.38-1.21,0.38
		c-0.66,0-1.17-0.17-1.51-0.52c-0.35-0.35-0.52-0.82-0.52-1.42c0-0.13,0.03-0.38,0.1-0.76l12.05-29.21c0.22-0.5,0.53-0.89,0.92-1.16
		c0.39-0.27,0.84-0.37,1.35-0.31c0.47,0,0.9,0.13,1.28,0.38c0.38,0.25,0.65,0.61,0.8,1.09l12.01,28.83
		C122.49,83.63,122.54,83.93,122.54,84.24z M102.59,73.65h11.01l-5.53-13.24L102.59,73.65z"/>
	<path class="st6" d="M158.65,83.92c0,0.73-0.25,1.34-0.74,1.81c-0.49,0.48-1.07,0.71-1.73,0.71c-0.51,0-0.98-0.16-1.4-0.47
		c-0.42-0.31-0.76-0.74-1.01-1.29l-3.4-8.06h-16.95l-3.35,8.12c-0.18,0.55-0.48,0.97-0.91,1.26c-0.42,0.29-0.89,0.44-1.4,0.44
		c-0.77,0-1.35-0.2-1.76-0.6c-0.4-0.4-0.6-0.95-0.6-1.64c0-0.15,0.04-0.44,0.11-0.88l13.99-33.9c0.26-0.59,0.61-1.03,1.07-1.34
		c0.46-0.31,0.98-0.43,1.56-0.36c0.55,0,1.04,0.15,1.48,0.44c0.44,0.29,0.75,0.71,0.93,1.26l13.93,33.46
		C158.59,83.21,158.65,83.56,158.65,83.92z M135.5,71.63h12.78l-6.42-15.36L135.5,71.63z"/>
	<path d="M199.82,83.57c0,0.84-0.28,1.53-0.85,2.08s-1.23,0.82-1.99,0.82c-0.59,0-1.12-0.18-1.61-0.54
		c-0.48-0.36-0.87-0.85-1.17-1.48l-3.91-9.27H170.8l-3.85,9.34c-0.21,0.63-0.56,1.12-1.04,1.45c-0.48,0.34-1.02,0.5-1.61,0.5
		c-0.88,0-1.56-0.23-2.02-0.69c-0.46-0.46-0.69-1.09-0.69-1.89c0-0.17,0.04-0.5,0.13-1.01l16.09-38.98c0.29-0.67,0.7-1.19,1.23-1.55
		c0.52-0.36,1.12-0.49,1.8-0.41c0.63,0,1.2,0.17,1.7,0.5c0.5,0.34,0.86,0.82,1.07,1.45l16.02,38.48
		C199.76,82.75,199.82,83.15,199.82,83.57z M173.2,69.44h14.7l-7.38-17.66L173.2,69.44z"/>
</g>
<g>
	<g>
		<path class="st7" d="M74.36,120.06c0.4-0.7,1.12-1.99,1.66-3.16c0.55-1.14,0.93-2.14,0.93-2.14s0.82,0.59,1.86,1.23
			c1.05,0.66,2.34,1.34,3.12,1.72c1.47,0.72,2.68,1.94,3.37,3.4c0.69,1.46,0.84,3.22,0.1,4.87c-0.73,1.67-2.23,2.88-3.96,3.43
			c-1.74,0.54-3.69,0.39-5.26-0.56C72.99,126.92,72.68,122.89,74.36,120.06z M78.43,125.32c1.1,0.61,2.55,0.17,3.09-0.96
			c0.55-1.12,0.02-2.45-1.05-3.01c-1.07-0.55-2.3-0.17-2.88,0.9C77.01,123.31,77.32,124.7,78.43,125.32z"/>
	</g>
	<g>
		<path class="st8" d="M54.97,118.39c0.33-0.21,0.8-0.49,1.32-0.86c0.52-0.38,1.09-0.8,1.59-1.2c1.01-0.79,1.8-1.48,1.8-1.48
			s0.12,0.23,0.31,0.59c0.19,0.37,0.46,0.88,0.79,1.37c0.64,1.02,1.48,2.22,2,2.93c0.97,1.38,1.5,2.95,1.44,4.58
			c-0.03,0.81-0.21,1.62-0.56,2.38c-0.35,0.77-0.87,1.46-1.57,2c-1.4,1.08-3.3,1.57-5.09,1.25c-1.77-0.39-3.47-1.32-4.43-2.89
			C50.63,123.84,52.19,120.13,54.97,118.39z M56.19,124.92c0.7,1.02,2.17,1.41,3.19,0.58c1.01-0.78,1.15-2.2,0.44-3.15
			c-0.36-0.46-0.85-0.77-1.37-0.89c-0.53-0.11-1.09,0-1.6,0.35C55.85,122.49,55.49,123.87,56.19,124.92z"/>
	</g>
	<g>
		<path class="st9" d="M38.49,108.07c0.75-0.03,2.31-0.28,3.55-0.51c1.26-0.23,2.27-0.47,2.27-0.47s-0.03,1.04,0.09,2.22
			c0.1,1.21,0.28,2.68,0.41,3.55c0.54,3.18-1.11,6.82-4.73,7.63c-1.74,0.32-3.6-0.19-5.09-1.23c-1.39-1.15-2.42-2.81-2.6-4.6
			C32.15,110.91,35.24,108.33,38.49,108.07z M36.59,114.42c0.07,0.63,0.39,1.18,0.85,1.56c0.47,0.37,1.11,0.5,1.72,0.4
			c1.25-0.22,2.02-1.42,1.84-2.6c-0.21-1.15-1.19-1.98-2.4-1.83C37.41,112.1,36.46,113.17,36.59,114.42z"/>
	</g>
	<g>
		<path class="st10" d="M28.54,91.35c0.73,0.3,2.19,0.8,3.4,1.17c1.22,0.37,2.22,0.62,2.22,0.62s-0.12,0.23-0.3,0.59
			c-0.16,0.37-0.38,0.87-0.62,1.42c-0.47,1.12-0.99,2.51-1.27,3.35c-0.94,3.06-4.09,5.55-7.69,4.63c-1.71-0.5-3.11-1.82-3.96-3.43
			c-0.75-1.65-0.85-3.62-0.21-5.29C21.6,90.97,25.56,90.08,28.54,91.35z M23.96,96.13c-0.23,0.59-0.2,1.24,0.04,1.78
			c0.28,0.53,0.76,0.95,1.36,1.14c1.2,0.38,2.44-0.34,2.83-1.47c0.2-0.57,0.12-1.13-0.11-1.61c-0.21-0.49-0.62-0.9-1.19-1.11
			C25.75,94.44,24.42,94.95,23.96,96.13z"/>
	</g>
	<g>
		<path class="st11" d="M27.41,71.93c0.53,0.61,1.55,1.71,2.44,2.59c0.86,0.88,1.72,1.57,1.72,1.57s-0.78,0.59-1.74,1.37
			c-0.94,0.78-2.12,1.78-2.66,2.39c-2.24,2.29-6.22,3.06-8.93,0.59c-2.7-2.44-2.59-7.28,0.28-9.64c0.69-0.6,1.45-0.99,2.24-1.19
			c0.8-0.2,1.65-0.22,2.45-0.08C24.81,69.8,26.27,70.66,27.41,71.93z M21.08,74.08c-0.95,0.84-0.91,2.36-0.05,3.24
			c0.88,0.89,2.31,0.82,3.19-0.01c0.9-0.83,0.83-2.13,0.05-3.02C23.48,73.39,22.06,73.24,21.08,74.08z"/>
	</g>
	<g>
		<path class="st10" d="M35.27,54.15c0.19,0.78,0.57,2.22,0.95,3.4c0.19,0.59,0.43,1.17,0.58,1.56c0.16,0.4,0.26,0.65,0.26,0.65
			s-0.98,0.15-2.2,0.4c-1.26,0.22-2.61,0.65-3.43,0.92c-3.09,0.98-6.99-0.16-8.22-3.58c-0.31-0.85-0.42-1.76-0.36-2.67
			c0.11-0.88,0.41-1.74,0.85-2.54c0.45-0.79,1-1.53,1.71-2.08c0.74-0.54,1.57-0.94,2.46-1.15C31.47,48.23,34.46,50.9,35.27,54.15z
			 M28.66,53.15c-1.19,0.34-1.92,1.66-1.55,2.84c0.36,1.18,1.66,1.78,2.84,1.45c1.18-0.33,1.79-1.46,1.44-2.66
			C31.07,53.63,29.86,52.82,28.66,53.15z"/>
	</g>
	<g>
		<path class="st9" d="M50.38,41.93c-0.19,0.78-0.51,2.23-0.71,3.45c-0.17,1.3-0.25,2.36-0.25,2.36s-0.94-0.31-2.15-0.65
			c-1.23-0.38-2.61-0.59-3.47-0.74c-3.21-0.55-6.15-3.34-5.68-6.94c0.12-0.9,0.44-1.75,0.91-2.53c0.47-0.77,1.16-1.37,1.91-1.88
			c0.75-0.5,1.6-0.88,2.47-1.08c0.9-0.15,1.83-0.11,2.72,0.11C49.72,34.93,51.16,38.68,50.38,41.93z M44.96,38.02
			c-1.21-0.25-2.47,0.6-2.69,1.81c-0.22,1.21,0.67,2.34,1.87,2.59c1.2,0.25,2.27-0.48,2.5-1.69C46.88,39.51,46.18,38.27,44.96,38.02
			z"/>
	</g>
	<g>
		<path class="st8" d="M69.42,37.95c-0.52,0.61-1.47,1.73-2.21,2.82c-0.75,1.06-1.31,1.95-1.31,1.95s-0.69-0.73-1.61-1.6
			c-0.9-0.82-2.04-1.69-2.74-2.22c-2.6-1.99-3.94-5.83-1.86-8.78c2.04-3.06,6.84-3.56,9.58-1.14c1.37,1.2,1.97,2.87,1.93,4.48
			C71.15,35.11,70.51,36.67,69.42,37.95z M66.39,32.06c-0.96-0.79-2.47-0.65-3.22,0.32c-0.75,1.05-0.48,2.43,0.47,3.16
			c0.95,0.79,2.24,0.66,3-0.3C67.41,34.28,67.36,32.86,66.39,32.06z"/>
	</g>
	<g>
		<path class="st7" d="M88.16,43.15c-0.75,0.31-2.1,0.87-3.25,1.47c-0.57,0.29-1.08,0.57-1.45,0.77c-0.37,0.21-0.6,0.35-0.6,0.35
			s-0.29-0.95-0.72-2.12c-0.43-1.13-1.02-2.51-1.41-3.26c-0.71-1.48-0.92-3.18-0.56-4.76c0.36-1.57,1.32-3.06,2.92-3.89
			c1.6-0.86,3.54-0.92,5.23-0.26c0.85,0.31,1.64,0.8,2.29,1.43c0.66,0.61,1.18,1.38,1.51,2.24C93.45,38.58,91.22,41.95,88.16,43.15z
			 M88.18,36.49c-0.48-1.18-1.91-1.69-3.03-1.15c-1.13,0.56-1.53,1.93-1.03,3.02c0.5,1.11,1.72,1.54,2.82,1.07
			C88.06,38.95,88.67,37.66,88.18,36.49z"/>
	</g>
</g>
</svg>
